<?xml version="1.0" encoding="UTF-8" standalone="no"?>
<!-- Created with Inkscape (http://www.inkscape.org/) -->

<svg
   version="1.1"
   id="svg55"
   width="493.00739"
   height="736.10327"
   viewBox="0 0 493.0074 736.1033"
   sodipodi:docname="Meshimi.svg"
   inkscape:version="1.2.2 (b0a8486541, 2022-12-01)"
   inkscape:export-filename="Meshimi.png"
   inkscape:export-xdpi="96"
   inkscape:export-ydpi="96"
   xmlns:inkscape="http://www.inkscape.org/namespaces/inkscape"
   xmlns:sodipodi="http://sodipodi.sourceforge.net/DTD/sodipodi-0.dtd"
   xmlns="http://www.w3.org/2000/svg"
   xmlns:svg="http://www.w3.org/2000/svg">
  <defs
     id="defs59" />
  <sodipodi:namedview
     id="namedview57"
     pagecolor="#ffffff"
     bordercolor="#000000"
     borderopacity="0.25"
     inkscape:showpageshadow="2"
     inkscape:pageopacity="0.0"
     inkscape:pagecheckerboard="0"
     inkscape:deskcolor="#d1d1d1"
     showgrid="false"
     inkscape:zoom="0.54289185"
     inkscape:cx="-241.30036"
     inkscape:cy="246.82632"
     inkscape:window-width="1850"
     inkscape:window-height="1011"
     inkscape:window-x="0"
     inkscape:window-y="0"
     inkscape:window-maximized="1"
     inkscape:current-layer="g61" />
  <g
     inkscape:groupmode="layer"
     inkscape:label="Image"
     id="g61"
     transform="translate(-445.32266,-296.88098)">
    <path
       style="fill:#000000;stroke-width:1.33333"
       d="m 655.56125,1031.0343 c -48.7614,-7.0568 -99.591,-32.71472 -135.705,-68.50136 -35.4133,-35.0923 -60.3112,-81.79812 -70.7632,-132.74409 -3.5171,-17.1429 -4.9491,-60.49753 -2.6635,-80.63761 2.9474,-25.97185 11.471,-57.59323 20.1005,-74.56994 2.3476,-4.61832 2.3476,-4.61832 8.014,6.65161 5.9766,11.88689 9.9163,17.84709 16.5106,24.97794 3.8753,4.19078 3.9596,4.5448 2.3788,10 -14.8809,51.35487 -16.1633,84.5816 -4.9478,128.19396 19.4536,75.64669 77.1722,131.76484 156.0738,151.74607 16.903,4.28052 18.1286,5.92892 46.1355,5.92932 25.1604,3e-4 30.1961,-1.9272 42.3741,-4.65352 37.6013,-8.418 70.9583,-24.78867 95.1133,-46.67889 37.3449,-33.84338 59.9769,-72.99613 70.6456,-122.21485 2.3594,-10.88472 2.9022,-17.86326 2.9556,-37.99999 0.072,-27.21691 -2.1038,-41.96419 -9.8237,-66.57844 -3.945,-12.57844 -3.945,-12.57844 -0.1706,-16.87727 5.9563,-6.78385 11.8018,-15.75244 17.3935,-26.68659 5.166,-10.1015 5.166,-10.1015 7.7261,-4.97959 20.0622,40.13769 26.9291,103.95591 16.7629,155.78855 -8.4982,43.32796 -31.6677,90.16639 -59.69,120.66666 -39.7803,43.29791 -94.2621,71.79013 -151.7814,79.37653 -18.2188,2.4029 -49.2658,2.3058 -66.6391,-0.2085 z m 12.9661,-49.33065 c -57.3022,-8.5091 -105.4456,-38.49291 -137.3542,-86.40707 -33.531,-50.35034 -40.1926,-109.06361 -19.6853,-173.49881 3.4166,-10.73517 3.4166,-10.73517 -5.1771,-23.33333 -30.5815,-44.83197 -44.6591,-94.89025 -39.9724,-142.13729 1.8154,-18.30082 3.3708,-23.46222 8.4926,-28.18033 4.6847,-4.31548 11.2032,-4.95383 23.2575,-2.27756 40.3061,8.94871 83.6711,35.12652 118.8693,71.75696 5.0487,5.2542 6.2065,5.8633 9.3333,4.91033 1.9633,-0.59835 7.4696,-2.30816 12.2363,-3.79959 35.3806,-11.0701 73.3638,-10.38165 110.222,1.99778 10.046,3.37413 10.046,3.37413 23.5787,-9.83996 16.7837,-16.38871 28.3691,-25.66451 45.5326,-36.45576 33.203,-20.87579 74.3081,-34.63464 87.3424,-29.23563 8.3493,3.45839 12.5602,19.8548 12.4974,48.66289 -0.093,42.66628 -12.9435,82.7855 -38.9234,121.51945 -10.8565,16.18612 -10.8565,16.18612 -6.3057,29.33334 19.2904,55.72938 13.3934,115.81478 -16.1651,164.71018 -26.9021,44.50113 -74.6076,75.62202 -128.6455,89.8222 -22.1833,5.82937 -42.603,4.90688 -59.1334,2.4522 z m 36.8587,-29.91319 c 15.4071,-1.57234 36.6139,-7.95518 49.8079,-14.99129 20.2908,-10.82061 40.4128,-53.93099 44.0844,-94.44833 1.0586,-11.68224 4.4541,-10.56414 -40.0844,-13.19956 -27.5996,-1.63312 -37.7323,-3.91539 -56.4687,-12.71888 -21.2316,-9.97595 -38.4028,-24.52173 -52.2162,-44.23279 -3.212,-4.58333 -6.1833,-8.33333 -6.6029,-8.33333 -0.4196,0 -3.405,5.75983 -6.6342,12.79961 -7.7127,16.81378 -17.8527,31.78834 -33.5431,49.536 -17.9025,20.24968 -17.2949,19.05681 -15.7913,30.99772 3.5729,28.37436 17.0539,59.79549 31.6179,73.69389 9.8719,9.42076 37.0481,19.06891 60.3052,21.40965 9.2367,0.92966 11.9204,0.87575 25.5254,-0.51269 z m -28.3157,-31.02349 c -9.5389,-5.031 -14.8437,-15.44488 -9.9404,-19.5142 2.8249,-2.34445 6.4769,-1.17436 8.3169,2.66469 3.1758,6.6261 7.9194,9.74675 14.975,9.85151 7.1398,0.106 11.8155,-2.96205 15.5997,-10.23603 3.0152,-5.79581 9.8391,-4.12934 9.8391,2.40283 0,8.84927 -12.8306,17.93051 -25.3333,17.93051 -5.3591,0 -9.3027,-0.90827 -13.457,-3.09931 z m -55.5519,-52.86875 c -3.5182,-1.59693 -6.7358,-4.37326 -8.465,-7.30405 -3.1983,-5.42064 -2.6982,-5.19984 -7.1662,-3.16407 -2.6255,1.19623 -3.7999,1.19623 -4.9961,0 -1.1962,-1.19621 -1.1094,-1.56862 0.3695,-1.58424 1.0633,-0.0107 2.8102,-0.57506 3.882,-1.25297 1.5997,-1.01181 1.2822,-1.75673 -1.7724,-4.15953 -3.2524,-2.55835 -3.4773,-3.17076 -1.7857,-4.86239 1.6916,-1.69161 2.7806,-1.63519 8.6461,0.44805 8.2848,2.94251 10.9633,1.43891 10.9633,-6.15424 0,-4.28604 0.5659,-5.24269 3.9236,-6.63352 9.3607,-3.87732 22.6755,3.1476 25.4426,13.42348 4.5813,17.01379 -11.8617,29.04159 -29.0417,21.24348 z m 121.4146,0.0267 c -12.1034,-7.37992 -12.2665,-23.64072 -0.3233,-32.23263 4.3202,-3.10796 12.9505,-4.27397 17.5458,-2.37056 3.1213,1.29288 3.7051,2.3239 3.7051,6.54303 0,7.59315 2.6786,9.09675 10.9634,6.15424 5.8655,-2.08324 6.9544,-2.13967 8.6461,-0.44805 1.6916,1.69162 1.4667,2.30404 -1.7857,4.86238 -3.0547,2.4028 -3.3721,3.14772 -1.7725,4.15954 1.0718,0.6779 2.8187,1.24174 3.882,1.25297 1.4789,0.0156 1.5658,0.38803 0.3695,1.58424 -1.1962,1.19623 -2.3706,1.19623 -4.996,0 -4.4681,-2.03577 -3.968,-2.25657 -7.1663,3.16407 -5.2338,8.87077 -20.3077,12.67229 -29.0681,7.33077 z m 70.1839,29.83997 c 28.3177,-29.81117 39.953,-63.5063 38.3603,-111.08841 -0.9783,-29.22477 -4.4018,-43.50261 -16.1795,-67.47689 -30.7969,-62.68944 -86.1725,-97.33598 -151.8204,-94.9886 -40.5665,1.45056 -70.9802,14.70687 -99.7878,43.49418 -35.0112,34.98659 -53.1721,77.82763 -53.1569,125.39605 0.011,34.80822 8.0345,62.68909 25.3523,88.09837 5.6252,8.2534 20.9316,25.33333 22.7029,25.33333 0.6367,0 -0.8466,-5.55 -3.2962,-12.33333 -7.8173,-21.64719 -9.43,-31.18103 -9.4164,-55.66667 0.013,-23.85347 1.7443,-34.4262 8.1598,-49.83653 3.5482,-8.52309 10.8136,-20.8296 12.2979,-20.83088 0.4736,-4.1e-4 0.4806,7.34959 0.016,16.33333 -0.4649,8.98375 -0.6233,16.57568 -0.352,16.87096 0.2714,0.2953 1.8518,-1.19082 3.5121,-3.30248 1.6602,-2.11165 5.1973,-6.35729 7.86,-9.43474 15.3905,-17.78728 26.6995,-44.30459 38.5769,-90.45499 3.7731,-14.66043 8.1352,-29.96042 9.6937,-34 2.8336,-7.34466 2.8336,-7.34466 3.8114,7.87279 3.7038,57.64066 28.5496,97.55849 76.2989,122.58354 12.1494,6.3674 14.3913,6.55764 4.9148,0.41704 -12.74,-8.25522 -29.8893,-29.97101 -40.2706,-50.99368 -2.9457,-5.96534 -5.1708,-11.01993 -4.9445,-11.23242 0.2262,-0.2125 4.6114,3.51154 9.7447,8.27562 22.4398,20.82563 40.653,33.31704 62.7022,43.00372 12.0352,5.28735 34.6425,12.05235 40.2978,12.0587 3.4826,0.004 3.618,-1.27799 1.6202,-15.32998 -3.817,-26.84729 -14.3397,-53.16812 -32.2252,-80.60645 -3.0027,-4.60644 -3.0027,-4.60644 3.0419,-0.44763 3.3246,2.28735 9.5501,7.66026 13.8345,11.93979 25.4769,25.44779 36.1639,53.36448 37.6873,98.44763 1.2421,36.75587 -2.8616,57.07874 -18.7789,92.99999 -1.2186,2.75 -1.6838,5 -1.0339,5 0.65,0 5.4996,-4.54561 10.7771,-10.10136 z M 543.55915,673.53295 c 7.513,-10.04437 21.6295,-25.04371 31.4078,-33.37201 4.6721,-3.97923 6.136,-6.02256 5.3334,-7.44414 -1.8325,-3.24537 -18.9194,-17.94924 -33.1064,-28.48914 -11.5291,-8.5653 -41.9671,-28.36138 -43.6078,-28.36138 -0.643,0 6.522,32.50462 10.7618,48.8218 4.9669,19.116 19.6432,57.84487 21.9202,57.84487 0.3075,0 3.5885,-4.05 7.291,-9 z m 309.6378,-3.81816 c 5.0577,-11.07575 9.9324,-25.82623 15.3724,-46.51517 5.489,-20.8753 11.2715,-47.33334 10.3449,-47.33334 -0.3682,0 -7.3314,4.01396 -15.4739,8.91992 -18.7348,11.28791 -37.0778,25.1061 -51.5797,38.856 -11.3333,10.74567 -11.3333,10.74567 -4.6667,16.36042 10.1857,8.5785 25.2487,24.46341 32.2857,34.04736 7.2713,9.90306 7.2062,9.92363 13.7173,-4.33519 z m -230.2353,-92.77313 c -2.8055,-2.88416 -10.0193,-9.53351 -16.0306,-14.77634 -10.9297,-9.53241 -10.9297,-9.53241 -6.6667,-11.33872 14.4698,-6.13116 46.9604,-13.22241 66.4274,-14.49815 13.1689,-0.86302 13.1689,-0.86302 13.1689,-35.78927 0,-33.79987 -0.09,-35.00808 -2.8032,-37.46309 -5.0003,-4.52524 -6.8692,-9.77016 -6.2295,-17.48319 0.9885,-11.92068 9.08294,-19.46256 20.5741,-19.27353 20.94291,0.34451 23.28261,26.61257 13.01101,36.9042 -1.89743,1.90114 -2.29251,2.35438 -1.57521,37.48858 0.703,34.43662 0.3561,34.44195 15.9716,36.08114 24.2199,2.5424 60.8179,11.63971 65.4465,16.26826 0.5857,0.58575 -3.0136,4.41612 -7.9985,8.51193 -4.9849,4.0958 -11.9698,10.41502 -15.5219,14.04268 -6.4585,6.59576 -6.4585,6.59576 -18,3.41496 -35.3131,-9.73212 -73.9946,-9.6821 -105.1072,0.13588 -9.5657,3.01858 -9.5657,3.01858 -14.6667,-2.22534 z m -12.7509,-149.75701 c -4.559,-2.56386 -7.9501,-8.94795 -7.9501,-14.96667 0,-13.0681 33.3113,-37.4476 60.5141,-44.28836 36.0037,-9.05397 72.7278,-0.41456 102.1636,24.03419 14.9598,12.42532 18.1854,20.30798 12.2438,29.92156 -5.4707,8.85184 -15.7601,9.40818 -26.3952,1.42717 -21.907,-16.43983 -38.0545,-22.53398 -59.593,-22.49062 -21.7794,0.0439 -35.2961,4.90573 -57.8713,20.81599 -10.2764,7.24255 -17.1592,8.89439 -23.1119,5.54674 z m -48.6187,-51.26439 c -5.36735,-2.23538 -8.31478,-7.82935 -8.3981,-13.12213 -0.11224,-7.1298 3.2702,-11.41557 17.1813,-22.5122 37.868,-30.20681 75.1493,-43.45412 122.1521,-43.40481 47.6163,0.05 89.94418,18.68017 124.3925,47.55258 10.47566,8.78004 11.19269,12.89514 11.19269,18.82546 0,8.09821 -9.87448,15.24581 -18.68738,13.48322 -2.063,-0.41259 -10.78001,-4.55949 -19.10141,-10.836 -15.3143,-11.55104 -35.1847,-22.40998 -49.7964,-27.21326 -20.1937,-6.63822 -55.9347,-9.22699 -76.6667,-5.5531 -24.5476,4.35004 -48.8601,15.51656 -68.8684,30.5102 -20.91079,15.66994 -24.20021,16.10162 -33.4002,12.27004 z"
       id="path464"
       sodipodi:nodetypes="ssssssscsssssssssssssssssssssssssssssssssssssssssssssssssssssssssssscssssssssssssssssssssscssssssssssssssssssssssssssssssssccssssssssssssssssssssscssssssssssssssssssssssssssssssss" />
  </g>
</svg>
