%TF.GenerationSoftware,KiCad,Pcbnew,9.0.1-9.0.1-0~ubuntu24.04.1*%
%TF.CreationDate,2025-04-26T21:29:35+02:00*%
%TF.ProjectId,meshtastic,6d657368-7461-4737-9469-632e6b696361,rev?*%
%TF.SameCoordinates,Original*%
%TF.FileFunction,Copper,L2,Inr*%
%TF.FilePolarity,Positive*%
%FSLAX46Y46*%
G04 Gerber Fmt 4.6, Leading zero omitted, Abs format (unit mm)*
G04 Created by KiCad (PCBNEW 9.0.1-9.0.1-0~ubuntu24.04.1) date 2025-04-26 21:29:35*
%MOMM*%
%LPD*%
G01*
G04 APERTURE LIST*
G04 Aperture macros list*
%AMRoundRect*
0 Rectangle with rounded corners*
0 $1 Rounding radius*
0 $2 $3 $4 $5 $6 $7 $8 $9 X,Y pos of 4 corners*
0 Add a 4 corners polygon primitive as box body*
4,1,4,$2,$3,$4,$5,$6,$7,$8,$9,$2,$3,0*
0 Add four circle primitives for the rounded corners*
1,1,$1+$1,$2,$3*
1,1,$1+$1,$4,$5*
1,1,$1+$1,$6,$7*
1,1,$1+$1,$8,$9*
0 Add four rect primitives between the rounded corners*
20,1,$1+$1,$2,$3,$4,$5,0*
20,1,$1+$1,$4,$5,$6,$7,0*
20,1,$1+$1,$6,$7,$8,$9,0*
20,1,$1+$1,$8,$9,$2,$3,0*%
G04 Aperture macros list end*
%TA.AperFunction,ComponentPad*%
%ADD10C,0.800000*%
%TD*%
%TA.AperFunction,ComponentPad*%
%ADD11C,6.000000*%
%TD*%
%TA.AperFunction,ComponentPad*%
%ADD12R,1.350000X1.350000*%
%TD*%
%TA.AperFunction,ComponentPad*%
%ADD13O,1.350000X1.350000*%
%TD*%
%TA.AperFunction,ComponentPad*%
%ADD14RoundRect,0.250000X-0.750000X0.600000X-0.750000X-0.600000X0.750000X-0.600000X0.750000X0.600000X0*%
%TD*%
%TA.AperFunction,ComponentPad*%
%ADD15O,2.000000X1.700000*%
%TD*%
%TA.AperFunction,ViaPad*%
%ADD16C,0.900000*%
%TD*%
%TA.AperFunction,ViaPad*%
%ADD17C,0.700000*%
%TD*%
G04 APERTURE END LIST*
D10*
%TO.N,GND*%
%TO.C,H3*%
X103700000Y-110600000D03*
X104359010Y-109009010D03*
X104359010Y-112190990D03*
X105950000Y-108350000D03*
D11*
X105950000Y-110600000D03*
D10*
X105950000Y-112850000D03*
X107540990Y-109009010D03*
X107540990Y-112190990D03*
X108200000Y-110600000D03*
%TD*%
D12*
%TO.N,+3V3*%
%TO.C,S0*%
X153630000Y-103293000D03*
D13*
%TO.N,GND*%
X153630000Y-101293000D03*
%TO.N,FLP_I2C_SDA*%
X153630000Y-99293000D03*
%TO.N,FLP_I2C_SCL*%
X153630000Y-97293000D03*
%TD*%
D10*
%TO.N,GND*%
%TO.C,H2*%
X173350000Y-110600000D03*
X174009010Y-109009010D03*
X174009010Y-112190990D03*
X175600000Y-108350000D03*
D11*
X175600000Y-110600000D03*
D10*
X175600000Y-112850000D03*
X177190990Y-109009010D03*
X177190990Y-112190990D03*
X177850000Y-110600000D03*
%TD*%
D12*
%TO.N,+3V3*%
%TO.C,S1*%
X160317000Y-103293000D03*
D13*
%TO.N,GND*%
X160317000Y-101293000D03*
%TO.N,FLP_I2C_SDA*%
X160317000Y-99293000D03*
%TO.N,FLP_I2C_SCL*%
X160317000Y-97293000D03*
%TD*%
D10*
%TO.N,GND*%
%TO.C,H4*%
X103700000Y-93750000D03*
X104359010Y-92159010D03*
X104359010Y-95340990D03*
X105950000Y-91500000D03*
D11*
X105950000Y-93750000D03*
D10*
X105950000Y-96000000D03*
X107540990Y-92159010D03*
X107540990Y-95340990D03*
X108200000Y-93750000D03*
%TD*%
D14*
%TO.N,+BATT*%
%TO.C,J1*%
X105300000Y-101250000D03*
D15*
%TO.N,-BATT*%
X105300000Y-103750000D03*
%TD*%
D10*
%TO.N,GND*%
%TO.C,H1*%
X173350000Y-93750000D03*
X174009010Y-92159010D03*
X174009010Y-95340990D03*
X175600000Y-91500000D03*
D11*
X175600000Y-93750000D03*
D10*
X175600000Y-96000000D03*
X177190990Y-92159010D03*
X177190990Y-95340990D03*
X177850000Y-93750000D03*
%TD*%
D16*
%TO.N,GND*%
X161150000Y-110793000D03*
%TO.N,FLP_DTR*%
X141140000Y-103611000D03*
%TO.N,GND*%
X115700000Y-92100000D03*
X133665000Y-106260000D03*
X112350000Y-93237500D03*
X141902000Y-95610000D03*
X142410000Y-106532000D03*
X121709000Y-101325000D03*
X123900000Y-108200000D03*
X123360000Y-93832000D03*
D17*
X133901000Y-100436000D03*
D16*
X108300000Y-97600000D03*
X150792000Y-91673000D03*
X103400000Y-105900000D03*
X156070000Y-109269000D03*
X118534000Y-105262000D03*
X113816667Y-108200000D03*
X163492000Y-97515000D03*
X112650000Y-108200000D03*
X112350000Y-95337500D03*
X117010000Y-96626000D03*
X112350000Y-94287500D03*
X148704000Y-107548000D03*
X121201000Y-92054000D03*
X150157000Y-102849000D03*
X137300000Y-97600000D03*
X103400000Y-99100000D03*
X114983333Y-108200000D03*
X116150000Y-108200000D03*
%TO.N,+BATT*%
X141600000Y-98000000D03*
X139800000Y-98000000D03*
%TO.N,+3V3*%
X123233000Y-92054000D03*
X151100000Y-98600000D03*
X151100000Y-96100000D03*
X110450000Y-95337500D03*
X114978000Y-105897000D03*
X110450000Y-93187500D03*
X110450000Y-94237500D03*
%TO.N,LORA_NSS*%
X121582000Y-94594000D03*
X132504000Y-94975000D03*
%TO.N,LORA_RST*%
X122979000Y-96499000D03*
X132600000Y-97200000D03*
%TO.N,LORA_BUSY*%
X122598000Y-105516000D03*
X134790000Y-105389000D03*
%TO.N,LORA_DIO1*%
X122580500Y-106930500D03*
X133700000Y-108000000D03*
%TO.N,LORA_RF_SW*%
X126350000Y-101150000D03*
X132377000Y-101198000D03*
%TO.N,FLP_I2C_SCL*%
X115000000Y-103800000D03*
X143934000Y-99928000D03*
%TO.N,FLP_RX*%
X149395000Y-93451000D03*
%TO.N,FLP_I2C_SDA*%
X148600000Y-99500000D03*
X115232000Y-102087000D03*
%TO.N,FLP_TX*%
X143600000Y-94200000D03*
%TO.N,FLP_PB14*%
X159779108Y-108053061D03*
%TD*%
%TA.AperFunction,Conductor*%
%TO.N,GND*%
G36*
X127938539Y-90320185D02*
G01*
X127984294Y-90372989D01*
X127995500Y-90424500D01*
X127995500Y-92146144D01*
X127995895Y-92147620D01*
X128019387Y-92235290D01*
X128019388Y-92235293D01*
X128065526Y-92315205D01*
X128065529Y-92315209D01*
X128065531Y-92315212D01*
X128130788Y-92380469D01*
X128130791Y-92380470D01*
X128130794Y-92380473D01*
X128210706Y-92426611D01*
X128210707Y-92426611D01*
X128210712Y-92426614D01*
X128299856Y-92450500D01*
X128299858Y-92450500D01*
X147410142Y-92450500D01*
X147410144Y-92450500D01*
X147499288Y-92426614D01*
X147579212Y-92380469D01*
X147644469Y-92315212D01*
X147690614Y-92235288D01*
X147714500Y-92146144D01*
X147714500Y-90424500D01*
X147734185Y-90357461D01*
X147786989Y-90311706D01*
X147838500Y-90300500D01*
X174158500Y-90300500D01*
X174225539Y-90320185D01*
X174271294Y-90372989D01*
X174281238Y-90442147D01*
X174252213Y-90505703D01*
X174205953Y-90539061D01*
X174101758Y-90582219D01*
X174101744Y-90582226D01*
X173798481Y-90744322D01*
X173798463Y-90744333D01*
X173512546Y-90935377D01*
X173512532Y-90935387D01*
X173307338Y-91103786D01*
X174730893Y-92527340D01*
X174622816Y-92605864D01*
X174455864Y-92772816D01*
X174377341Y-92880893D01*
X172953786Y-91457338D01*
X172785387Y-91662532D01*
X172785377Y-91662546D01*
X172594333Y-91948463D01*
X172594322Y-91948481D01*
X172432226Y-92251744D01*
X172432219Y-92251758D01*
X172300623Y-92569459D01*
X172200792Y-92898556D01*
X172200791Y-92898562D01*
X172133708Y-93235817D01*
X172133705Y-93235834D01*
X172100000Y-93578059D01*
X172100000Y-93921940D01*
X172133705Y-94264165D01*
X172133708Y-94264182D01*
X172200791Y-94601437D01*
X172200792Y-94601443D01*
X172300623Y-94930540D01*
X172432219Y-95248241D01*
X172432226Y-95248255D01*
X172594322Y-95551518D01*
X172594333Y-95551536D01*
X172785377Y-95837453D01*
X172785387Y-95837467D01*
X172953785Y-96042659D01*
X172953786Y-96042660D01*
X174377340Y-94619105D01*
X174455864Y-94727184D01*
X174622816Y-94894136D01*
X174730893Y-94972658D01*
X173307338Y-96396212D01*
X173307339Y-96396213D01*
X173512533Y-96564612D01*
X173512546Y-96564622D01*
X173798463Y-96755666D01*
X173798481Y-96755677D01*
X174101744Y-96917773D01*
X174101758Y-96917780D01*
X174419459Y-97049376D01*
X174748556Y-97149207D01*
X174748562Y-97149208D01*
X175085817Y-97216291D01*
X175085834Y-97216294D01*
X175428059Y-97250000D01*
X175771941Y-97250000D01*
X176114165Y-97216294D01*
X176114182Y-97216291D01*
X176451437Y-97149208D01*
X176451443Y-97149207D01*
X176780540Y-97049376D01*
X177098241Y-96917780D01*
X177098255Y-96917773D01*
X177401518Y-96755677D01*
X177401536Y-96755666D01*
X177687453Y-96564622D01*
X177687466Y-96564612D01*
X177892659Y-96396213D01*
X177892659Y-96396212D01*
X176469106Y-94972659D01*
X176577184Y-94894136D01*
X176744136Y-94727184D01*
X176822659Y-94619105D01*
X178246212Y-96042659D01*
X178246213Y-96042659D01*
X178414612Y-95837466D01*
X178414622Y-95837453D01*
X178605666Y-95551536D01*
X178605677Y-95551518D01*
X178767773Y-95248255D01*
X178767783Y-95248234D01*
X178860939Y-95023336D01*
X178904780Y-94968932D01*
X178971074Y-94946867D01*
X179038773Y-94964146D01*
X179086384Y-95015283D01*
X179099500Y-95070788D01*
X179099500Y-109279211D01*
X179079815Y-109346250D01*
X179027011Y-109392005D01*
X178957853Y-109401949D01*
X178894297Y-109372924D01*
X178860939Y-109326664D01*
X178767780Y-109101758D01*
X178767773Y-109101744D01*
X178605677Y-108798481D01*
X178605666Y-108798463D01*
X178414622Y-108512546D01*
X178414612Y-108512533D01*
X178246213Y-108307339D01*
X178246212Y-108307338D01*
X176822658Y-109730893D01*
X176744136Y-109622816D01*
X176577184Y-109455864D01*
X176469105Y-109377340D01*
X177892660Y-107953786D01*
X177892659Y-107953785D01*
X177687467Y-107785387D01*
X177687453Y-107785377D01*
X177401536Y-107594333D01*
X177401518Y-107594322D01*
X177098255Y-107432226D01*
X177098241Y-107432219D01*
X176780540Y-107300623D01*
X176451443Y-107200792D01*
X176451437Y-107200791D01*
X176114182Y-107133708D01*
X176114165Y-107133705D01*
X175771941Y-107100000D01*
X175428059Y-107100000D01*
X175085834Y-107133705D01*
X175085817Y-107133708D01*
X174748562Y-107200791D01*
X174748556Y-107200792D01*
X174419459Y-107300623D01*
X174101758Y-107432219D01*
X174101744Y-107432226D01*
X173798481Y-107594322D01*
X173798463Y-107594333D01*
X173512546Y-107785377D01*
X173512532Y-107785387D01*
X173307338Y-107953786D01*
X174730893Y-109377341D01*
X174622816Y-109455864D01*
X174455864Y-109622816D01*
X174377341Y-109730893D01*
X172953786Y-108307338D01*
X172785387Y-108512532D01*
X172785377Y-108512546D01*
X172594333Y-108798463D01*
X172594322Y-108798481D01*
X172432226Y-109101744D01*
X172432219Y-109101758D01*
X172300623Y-109419459D01*
X172200792Y-109748556D01*
X172200791Y-109748562D01*
X172133708Y-110085817D01*
X172133705Y-110085834D01*
X172100000Y-110428059D01*
X172100000Y-110771940D01*
X172133705Y-111114165D01*
X172133708Y-111114182D01*
X172200791Y-111451437D01*
X172200792Y-111451443D01*
X172300623Y-111780540D01*
X172432219Y-112098241D01*
X172432226Y-112098255D01*
X172594322Y-112401518D01*
X172594333Y-112401536D01*
X172785377Y-112687453D01*
X172785387Y-112687467D01*
X172953785Y-112892659D01*
X172953786Y-112892660D01*
X174377340Y-111469105D01*
X174455864Y-111577184D01*
X174622816Y-111744136D01*
X174730893Y-111822658D01*
X173307338Y-113246212D01*
X173307339Y-113246213D01*
X173512533Y-113414612D01*
X173512546Y-113414622D01*
X173798463Y-113605666D01*
X173798481Y-113605677D01*
X174101744Y-113767773D01*
X174101758Y-113767780D01*
X174326664Y-113860939D01*
X174381067Y-113904780D01*
X174403132Y-113971074D01*
X174385853Y-114038773D01*
X174334716Y-114086384D01*
X174279211Y-114099500D01*
X146006962Y-114099500D01*
X145993078Y-114098720D01*
X145980553Y-114097308D01*
X145902735Y-114088540D01*
X145875666Y-114082362D01*
X145796462Y-114054648D01*
X145771444Y-114042600D01*
X145700395Y-113997957D01*
X145678686Y-113980644D01*
X145619355Y-113921313D01*
X145602042Y-113899604D01*
X145598707Y-113894297D01*
X145557398Y-113828553D01*
X145545351Y-113803537D01*
X145539582Y-113787051D01*
X145517636Y-113724331D01*
X145511459Y-113697263D01*
X145511348Y-113696281D01*
X145501280Y-113606922D01*
X145500500Y-113593038D01*
X145500500Y-112923543D01*
X146179499Y-112923543D01*
X146217947Y-113116829D01*
X146217950Y-113116839D01*
X146293364Y-113298907D01*
X146293371Y-113298920D01*
X146402860Y-113462781D01*
X146402863Y-113462785D01*
X146542214Y-113602136D01*
X146542218Y-113602139D01*
X146706079Y-113711628D01*
X146706092Y-113711635D01*
X146841623Y-113767773D01*
X146888165Y-113787051D01*
X146888169Y-113787051D01*
X146888170Y-113787052D01*
X147081456Y-113825500D01*
X147081459Y-113825500D01*
X147278543Y-113825500D01*
X147408582Y-113799632D01*
X147471835Y-113787051D01*
X147653914Y-113711632D01*
X147817782Y-113602139D01*
X147957139Y-113462782D01*
X148066632Y-113298914D01*
X148142051Y-113116835D01*
X148180500Y-112923543D01*
X148719499Y-112923543D01*
X148757947Y-113116829D01*
X148757950Y-113116839D01*
X148833364Y-113298907D01*
X148833371Y-113298920D01*
X148942860Y-113462781D01*
X148942863Y-113462785D01*
X149082214Y-113602136D01*
X149082218Y-113602139D01*
X149246079Y-113711628D01*
X149246092Y-113711635D01*
X149381623Y-113767773D01*
X149428165Y-113787051D01*
X149428169Y-113787051D01*
X149428170Y-113787052D01*
X149621456Y-113825500D01*
X149621459Y-113825500D01*
X149818543Y-113825500D01*
X149948582Y-113799632D01*
X150011835Y-113787051D01*
X150193914Y-113711632D01*
X150357782Y-113602139D01*
X150497139Y-113462782D01*
X150606632Y-113298914D01*
X150682051Y-113116835D01*
X150720500Y-112923543D01*
X153799499Y-112923543D01*
X153837947Y-113116829D01*
X153837950Y-113116839D01*
X153913364Y-113298907D01*
X153913371Y-113298920D01*
X154022860Y-113462781D01*
X154022863Y-113462785D01*
X154162214Y-113602136D01*
X154162218Y-113602139D01*
X154326079Y-113711628D01*
X154326092Y-113711635D01*
X154461623Y-113767773D01*
X154508165Y-113787051D01*
X154508169Y-113787051D01*
X154508170Y-113787052D01*
X154701456Y-113825500D01*
X154701459Y-113825500D01*
X154898543Y-113825500D01*
X155028582Y-113799632D01*
X155091835Y-113787051D01*
X155273914Y-113711632D01*
X155437782Y-113602139D01*
X155577139Y-113462782D01*
X155686632Y-113298914D01*
X155762051Y-113116835D01*
X155800500Y-112923543D01*
X156339499Y-112923543D01*
X156377947Y-113116829D01*
X156377950Y-113116839D01*
X156453364Y-113298907D01*
X156453371Y-113298920D01*
X156562860Y-113462781D01*
X156562863Y-113462785D01*
X156702214Y-113602136D01*
X156702218Y-113602139D01*
X156866079Y-113711628D01*
X156866092Y-113711635D01*
X157001623Y-113767773D01*
X157048165Y-113787051D01*
X157048169Y-113787051D01*
X157048170Y-113787052D01*
X157241456Y-113825500D01*
X157241459Y-113825500D01*
X157438543Y-113825500D01*
X157568582Y-113799632D01*
X157631835Y-113787051D01*
X157813914Y-113711632D01*
X157977782Y-113602139D01*
X158117139Y-113462782D01*
X158226632Y-113298914D01*
X158302051Y-113116835D01*
X158340500Y-112923543D01*
X158879499Y-112923543D01*
X158917947Y-113116829D01*
X158917950Y-113116839D01*
X158993364Y-113298907D01*
X158993371Y-113298920D01*
X159102860Y-113462781D01*
X159102863Y-113462785D01*
X159242214Y-113602136D01*
X159242218Y-113602139D01*
X159406079Y-113711628D01*
X159406092Y-113711635D01*
X159541623Y-113767773D01*
X159588165Y-113787051D01*
X159588169Y-113787051D01*
X159588170Y-113787052D01*
X159781456Y-113825500D01*
X159781459Y-113825500D01*
X159978543Y-113825500D01*
X160108582Y-113799632D01*
X160171835Y-113787051D01*
X160353914Y-113711632D01*
X160517782Y-113602139D01*
X160657139Y-113462782D01*
X160766632Y-113298914D01*
X160842051Y-113116835D01*
X160880500Y-112923543D01*
X161419499Y-112923543D01*
X161457947Y-113116829D01*
X161457950Y-113116839D01*
X161533364Y-113298907D01*
X161533371Y-113298920D01*
X161642860Y-113462781D01*
X161642863Y-113462785D01*
X161782214Y-113602136D01*
X161782218Y-113602139D01*
X161946079Y-113711628D01*
X161946092Y-113711635D01*
X162081623Y-113767773D01*
X162128165Y-113787051D01*
X162128169Y-113787051D01*
X162128170Y-113787052D01*
X162321456Y-113825500D01*
X162321459Y-113825500D01*
X162518543Y-113825500D01*
X162648582Y-113799632D01*
X162711835Y-113787051D01*
X162893914Y-113711632D01*
X163057782Y-113602139D01*
X163197139Y-113462782D01*
X163306632Y-113298914D01*
X163382051Y-113116835D01*
X163420500Y-112923543D01*
X163959499Y-112923543D01*
X163997947Y-113116829D01*
X163997950Y-113116839D01*
X164073364Y-113298907D01*
X164073371Y-113298920D01*
X164182860Y-113462781D01*
X164182863Y-113462785D01*
X164322214Y-113602136D01*
X164322218Y-113602139D01*
X164486079Y-113711628D01*
X164486092Y-113711635D01*
X164621623Y-113767773D01*
X164668165Y-113787051D01*
X164668169Y-113787051D01*
X164668170Y-113787052D01*
X164861456Y-113825500D01*
X164861459Y-113825500D01*
X165058543Y-113825500D01*
X165188582Y-113799632D01*
X165251835Y-113787051D01*
X165433914Y-113711632D01*
X165597782Y-113602139D01*
X165737139Y-113462782D01*
X165846632Y-113298914D01*
X165922051Y-113116835D01*
X165960500Y-112923543D01*
X166499499Y-112923543D01*
X166537947Y-113116829D01*
X166537950Y-113116839D01*
X166613364Y-113298907D01*
X166613371Y-113298920D01*
X166722860Y-113462781D01*
X166722863Y-113462785D01*
X166862214Y-113602136D01*
X166862218Y-113602139D01*
X167026079Y-113711628D01*
X167026092Y-113711635D01*
X167161623Y-113767773D01*
X167208165Y-113787051D01*
X167208169Y-113787051D01*
X167208170Y-113787052D01*
X167401456Y-113825500D01*
X167401459Y-113825500D01*
X167598543Y-113825500D01*
X167728582Y-113799632D01*
X167791835Y-113787051D01*
X167973914Y-113711632D01*
X168137782Y-113602139D01*
X168277139Y-113462782D01*
X168386632Y-113298914D01*
X168462051Y-113116835D01*
X168500500Y-112923541D01*
X168500500Y-112726459D01*
X168500500Y-112726456D01*
X168462052Y-112533170D01*
X168462051Y-112533169D01*
X168462051Y-112533165D01*
X168407529Y-112401536D01*
X168386635Y-112351092D01*
X168386628Y-112351079D01*
X168277139Y-112187218D01*
X168277136Y-112187214D01*
X168137785Y-112047863D01*
X168137781Y-112047860D01*
X167973920Y-111938371D01*
X167973907Y-111938364D01*
X167791839Y-111862950D01*
X167791829Y-111862947D01*
X167598543Y-111824500D01*
X167598541Y-111824500D01*
X167401459Y-111824500D01*
X167401457Y-111824500D01*
X167208170Y-111862947D01*
X167208160Y-111862950D01*
X167026092Y-111938364D01*
X167026079Y-111938371D01*
X166862218Y-112047860D01*
X166862214Y-112047863D01*
X166722863Y-112187214D01*
X166722860Y-112187218D01*
X166613371Y-112351079D01*
X166613364Y-112351092D01*
X166537950Y-112533160D01*
X166537947Y-112533170D01*
X166499500Y-112726456D01*
X166499500Y-112726459D01*
X166499500Y-112923541D01*
X166499500Y-112923543D01*
X166499499Y-112923543D01*
X165960500Y-112923543D01*
X165960500Y-112923541D01*
X165960500Y-112726459D01*
X165960500Y-112726456D01*
X165922052Y-112533170D01*
X165922051Y-112533169D01*
X165922051Y-112533165D01*
X165867529Y-112401536D01*
X165846635Y-112351092D01*
X165846628Y-112351079D01*
X165737139Y-112187218D01*
X165737136Y-112187214D01*
X165597785Y-112047863D01*
X165597781Y-112047860D01*
X165433920Y-111938371D01*
X165433907Y-111938364D01*
X165251839Y-111862950D01*
X165251829Y-111862947D01*
X165058543Y-111824500D01*
X165058541Y-111824500D01*
X164861459Y-111824500D01*
X164861457Y-111824500D01*
X164668170Y-111862947D01*
X164668160Y-111862950D01*
X164486092Y-111938364D01*
X164486079Y-111938371D01*
X164322218Y-112047860D01*
X164322214Y-112047863D01*
X164182863Y-112187214D01*
X164182860Y-112187218D01*
X164073371Y-112351079D01*
X164073364Y-112351092D01*
X163997950Y-112533160D01*
X163997947Y-112533170D01*
X163959500Y-112726456D01*
X163959500Y-112726459D01*
X163959500Y-112923541D01*
X163959500Y-112923543D01*
X163959499Y-112923543D01*
X163420500Y-112923543D01*
X163420500Y-112923541D01*
X163420500Y-112726459D01*
X163420500Y-112726456D01*
X163382052Y-112533170D01*
X163382051Y-112533169D01*
X163382051Y-112533165D01*
X163327529Y-112401536D01*
X163306635Y-112351092D01*
X163306628Y-112351079D01*
X163197139Y-112187218D01*
X163197136Y-112187214D01*
X163057785Y-112047863D01*
X163057781Y-112047860D01*
X162893920Y-111938371D01*
X162893907Y-111938364D01*
X162711839Y-111862950D01*
X162711829Y-111862947D01*
X162518543Y-111824500D01*
X162518541Y-111824500D01*
X162321459Y-111824500D01*
X162321457Y-111824500D01*
X162128170Y-111862947D01*
X162128160Y-111862950D01*
X161946092Y-111938364D01*
X161946079Y-111938371D01*
X161782218Y-112047860D01*
X161782214Y-112047863D01*
X161642863Y-112187214D01*
X161642860Y-112187218D01*
X161533371Y-112351079D01*
X161533364Y-112351092D01*
X161457950Y-112533160D01*
X161457947Y-112533170D01*
X161419500Y-112726456D01*
X161419500Y-112726459D01*
X161419500Y-112923541D01*
X161419500Y-112923543D01*
X161419499Y-112923543D01*
X160880500Y-112923543D01*
X160880500Y-112923541D01*
X160880500Y-112726459D01*
X160880500Y-112726456D01*
X160842052Y-112533170D01*
X160842051Y-112533169D01*
X160842051Y-112533165D01*
X160787529Y-112401536D01*
X160766635Y-112351092D01*
X160766628Y-112351079D01*
X160657139Y-112187218D01*
X160657136Y-112187214D01*
X160517785Y-112047863D01*
X160517781Y-112047860D01*
X160353920Y-111938371D01*
X160353907Y-111938364D01*
X160171839Y-111862950D01*
X160171829Y-111862947D01*
X159978543Y-111824500D01*
X159978541Y-111824500D01*
X159781459Y-111824500D01*
X159781457Y-111824500D01*
X159588170Y-111862947D01*
X159588160Y-111862950D01*
X159406092Y-111938364D01*
X159406079Y-111938371D01*
X159242218Y-112047860D01*
X159242214Y-112047863D01*
X159102863Y-112187214D01*
X159102860Y-112187218D01*
X158993371Y-112351079D01*
X158993364Y-112351092D01*
X158917950Y-112533160D01*
X158917947Y-112533170D01*
X158879500Y-112726456D01*
X158879500Y-112726459D01*
X158879500Y-112923541D01*
X158879500Y-112923543D01*
X158879499Y-112923543D01*
X158340500Y-112923543D01*
X158340500Y-112923541D01*
X158340500Y-112726459D01*
X158340500Y-112726456D01*
X158302052Y-112533170D01*
X158302051Y-112533169D01*
X158302051Y-112533165D01*
X158247529Y-112401536D01*
X158226635Y-112351092D01*
X158226628Y-112351079D01*
X158117139Y-112187218D01*
X158117136Y-112187214D01*
X157977785Y-112047863D01*
X157977781Y-112047860D01*
X157813920Y-111938371D01*
X157813907Y-111938364D01*
X157631839Y-111862950D01*
X157631829Y-111862947D01*
X157438543Y-111824500D01*
X157438541Y-111824500D01*
X157241459Y-111824500D01*
X157241457Y-111824500D01*
X157048170Y-111862947D01*
X157048160Y-111862950D01*
X156866092Y-111938364D01*
X156866079Y-111938371D01*
X156702218Y-112047860D01*
X156702214Y-112047863D01*
X156562863Y-112187214D01*
X156562860Y-112187218D01*
X156453371Y-112351079D01*
X156453364Y-112351092D01*
X156377950Y-112533160D01*
X156377947Y-112533170D01*
X156339500Y-112726456D01*
X156339500Y-112726459D01*
X156339500Y-112923541D01*
X156339500Y-112923543D01*
X156339499Y-112923543D01*
X155800500Y-112923543D01*
X155800500Y-112923541D01*
X155800500Y-112726459D01*
X155800500Y-112726456D01*
X155762052Y-112533170D01*
X155762051Y-112533169D01*
X155762051Y-112533165D01*
X155707529Y-112401536D01*
X155686635Y-112351092D01*
X155686628Y-112351079D01*
X155577139Y-112187218D01*
X155577136Y-112187214D01*
X155437785Y-112047863D01*
X155437781Y-112047860D01*
X155273920Y-111938371D01*
X155273907Y-111938364D01*
X155091839Y-111862950D01*
X155091829Y-111862947D01*
X154898543Y-111824500D01*
X154898541Y-111824500D01*
X154701459Y-111824500D01*
X154701457Y-111824500D01*
X154508170Y-111862947D01*
X154508160Y-111862950D01*
X154326092Y-111938364D01*
X154326079Y-111938371D01*
X154162218Y-112047860D01*
X154162214Y-112047863D01*
X154022863Y-112187214D01*
X154022860Y-112187218D01*
X153913371Y-112351079D01*
X153913364Y-112351092D01*
X153837950Y-112533160D01*
X153837947Y-112533170D01*
X153799500Y-112726456D01*
X153799500Y-112726459D01*
X153799500Y-112923541D01*
X153799500Y-112923543D01*
X153799499Y-112923543D01*
X150720500Y-112923543D01*
X150720500Y-112923541D01*
X150720500Y-112726459D01*
X150720500Y-112726456D01*
X150682052Y-112533170D01*
X150682051Y-112533169D01*
X150682051Y-112533165D01*
X150627529Y-112401536D01*
X150606635Y-112351092D01*
X150606628Y-112351079D01*
X150497139Y-112187218D01*
X150497136Y-112187214D01*
X150357785Y-112047863D01*
X150357781Y-112047860D01*
X150193920Y-111938371D01*
X150193907Y-111938364D01*
X150011839Y-111862950D01*
X150011829Y-111862947D01*
X149818543Y-111824500D01*
X149818541Y-111824500D01*
X149621459Y-111824500D01*
X149621457Y-111824500D01*
X149428170Y-111862947D01*
X149428160Y-111862950D01*
X149246092Y-111938364D01*
X149246079Y-111938371D01*
X149082218Y-112047860D01*
X149082214Y-112047863D01*
X148942863Y-112187214D01*
X148942860Y-112187218D01*
X148833371Y-112351079D01*
X148833364Y-112351092D01*
X148757950Y-112533160D01*
X148757947Y-112533170D01*
X148719500Y-112726456D01*
X148719500Y-112726459D01*
X148719500Y-112923541D01*
X148719500Y-112923543D01*
X148719499Y-112923543D01*
X148180500Y-112923543D01*
X148180500Y-112923541D01*
X148180500Y-112726459D01*
X148180500Y-112726456D01*
X148142052Y-112533170D01*
X148142051Y-112533169D01*
X148142051Y-112533165D01*
X148087529Y-112401536D01*
X148066635Y-112351092D01*
X148066628Y-112351079D01*
X147957139Y-112187218D01*
X147957136Y-112187214D01*
X147817785Y-112047863D01*
X147817781Y-112047860D01*
X147653920Y-111938371D01*
X147653907Y-111938364D01*
X147471839Y-111862950D01*
X147471829Y-111862947D01*
X147278543Y-111824500D01*
X147278541Y-111824500D01*
X147081459Y-111824500D01*
X147081457Y-111824500D01*
X146888170Y-111862947D01*
X146888160Y-111862950D01*
X146706092Y-111938364D01*
X146706079Y-111938371D01*
X146542218Y-112047860D01*
X146542214Y-112047863D01*
X146402863Y-112187214D01*
X146402860Y-112187218D01*
X146293371Y-112351079D01*
X146293364Y-112351092D01*
X146217950Y-112533160D01*
X146217947Y-112533170D01*
X146179500Y-112726456D01*
X146179500Y-112726459D01*
X146179500Y-112923541D01*
X146179500Y-112923543D01*
X146179499Y-112923543D01*
X145500500Y-112923543D01*
X145500500Y-112311306D01*
X145500499Y-112311304D01*
X145465896Y-112137341D01*
X145465893Y-112137332D01*
X145398016Y-111973459D01*
X145398009Y-111973446D01*
X145299464Y-111825965D01*
X145299461Y-111825961D01*
X145174038Y-111700538D01*
X145174034Y-111700535D01*
X145026553Y-111601990D01*
X145026540Y-111601983D01*
X144862667Y-111534106D01*
X144862658Y-111534103D01*
X144688694Y-111499500D01*
X144688691Y-111499500D01*
X144639562Y-111499500D01*
X131847595Y-111499500D01*
X131800000Y-111499500D01*
X131711309Y-111499500D01*
X131711306Y-111499500D01*
X131537341Y-111534103D01*
X131537332Y-111534106D01*
X131373459Y-111601983D01*
X131373446Y-111601990D01*
X131225965Y-111700535D01*
X131225961Y-111700538D01*
X131100538Y-111825961D01*
X131100535Y-111825965D01*
X131001990Y-111973446D01*
X131001983Y-111973459D01*
X130934106Y-112137332D01*
X130934103Y-112137341D01*
X130899500Y-112311304D01*
X130899500Y-113593038D01*
X130898720Y-113606922D01*
X130898720Y-113606923D01*
X130888540Y-113697264D01*
X130882362Y-113724333D01*
X130854648Y-113803537D01*
X130842600Y-113828555D01*
X130797957Y-113899604D01*
X130780644Y-113921313D01*
X130721313Y-113980644D01*
X130699604Y-113997957D01*
X130628555Y-114042600D01*
X130603537Y-114054648D01*
X130524333Y-114082362D01*
X130497264Y-114088540D01*
X130417075Y-114097576D01*
X130406921Y-114098720D01*
X130393038Y-114099500D01*
X107270789Y-114099500D01*
X107203750Y-114079815D01*
X107157995Y-114027011D01*
X107148051Y-113957853D01*
X107177076Y-113894297D01*
X107223336Y-113860939D01*
X107448241Y-113767780D01*
X107448255Y-113767773D01*
X107751518Y-113605677D01*
X107751536Y-113605666D01*
X108037453Y-113414622D01*
X108037466Y-113414612D01*
X108242659Y-113246213D01*
X108242659Y-113246212D01*
X107919990Y-112923543D01*
X110619499Y-112923543D01*
X110657947Y-113116829D01*
X110657950Y-113116839D01*
X110733364Y-113298907D01*
X110733371Y-113298920D01*
X110842860Y-113462781D01*
X110842863Y-113462785D01*
X110982214Y-113602136D01*
X110982218Y-113602139D01*
X111146079Y-113711628D01*
X111146092Y-113711635D01*
X111281623Y-113767773D01*
X111328165Y-113787051D01*
X111328169Y-113787051D01*
X111328170Y-113787052D01*
X111521456Y-113825500D01*
X111521459Y-113825500D01*
X111718543Y-113825500D01*
X111848582Y-113799632D01*
X111911835Y-113787051D01*
X112093914Y-113711632D01*
X112257782Y-113602139D01*
X112397139Y-113462782D01*
X112506632Y-113298914D01*
X112582051Y-113116835D01*
X112620500Y-112923543D01*
X113159499Y-112923543D01*
X113197947Y-113116829D01*
X113197950Y-113116839D01*
X113273364Y-113298907D01*
X113273371Y-113298920D01*
X113382860Y-113462781D01*
X113382863Y-113462785D01*
X113522214Y-113602136D01*
X113522218Y-113602139D01*
X113686079Y-113711628D01*
X113686092Y-113711635D01*
X113821623Y-113767773D01*
X113868165Y-113787051D01*
X113868169Y-113787051D01*
X113868170Y-113787052D01*
X114061456Y-113825500D01*
X114061459Y-113825500D01*
X114258543Y-113825500D01*
X114388582Y-113799632D01*
X114451835Y-113787051D01*
X114633914Y-113711632D01*
X114797782Y-113602139D01*
X114937139Y-113462782D01*
X115046632Y-113298914D01*
X115122051Y-113116835D01*
X115160500Y-112923543D01*
X115699499Y-112923543D01*
X115737947Y-113116829D01*
X115737950Y-113116839D01*
X115813364Y-113298907D01*
X115813371Y-113298920D01*
X115922860Y-113462781D01*
X115922863Y-113462785D01*
X116062214Y-113602136D01*
X116062218Y-113602139D01*
X116226079Y-113711628D01*
X116226092Y-113711635D01*
X116361623Y-113767773D01*
X116408165Y-113787051D01*
X116408169Y-113787051D01*
X116408170Y-113787052D01*
X116601456Y-113825500D01*
X116601459Y-113825500D01*
X116798543Y-113825500D01*
X116928582Y-113799632D01*
X116991835Y-113787051D01*
X117173914Y-113711632D01*
X117337782Y-113602139D01*
X117477139Y-113462782D01*
X117586632Y-113298914D01*
X117662051Y-113116835D01*
X117700500Y-112923543D01*
X118239499Y-112923543D01*
X118277947Y-113116829D01*
X118277950Y-113116839D01*
X118353364Y-113298907D01*
X118353371Y-113298920D01*
X118462860Y-113462781D01*
X118462863Y-113462785D01*
X118602214Y-113602136D01*
X118602218Y-113602139D01*
X118766079Y-113711628D01*
X118766092Y-113711635D01*
X118901623Y-113767773D01*
X118948165Y-113787051D01*
X118948169Y-113787051D01*
X118948170Y-113787052D01*
X119141456Y-113825500D01*
X119141459Y-113825500D01*
X119338543Y-113825500D01*
X119468582Y-113799632D01*
X119531835Y-113787051D01*
X119713914Y-113711632D01*
X119877782Y-113602139D01*
X120017139Y-113462782D01*
X120126632Y-113298914D01*
X120202051Y-113116835D01*
X120240500Y-112923543D01*
X120779499Y-112923543D01*
X120817947Y-113116829D01*
X120817950Y-113116839D01*
X120893364Y-113298907D01*
X120893371Y-113298920D01*
X121002860Y-113462781D01*
X121002863Y-113462785D01*
X121142214Y-113602136D01*
X121142218Y-113602139D01*
X121306079Y-113711628D01*
X121306092Y-113711635D01*
X121441623Y-113767773D01*
X121488165Y-113787051D01*
X121488169Y-113787051D01*
X121488170Y-113787052D01*
X121681456Y-113825500D01*
X121681459Y-113825500D01*
X121878543Y-113825500D01*
X122008582Y-113799632D01*
X122071835Y-113787051D01*
X122253914Y-113711632D01*
X122417782Y-113602139D01*
X122557139Y-113462782D01*
X122666632Y-113298914D01*
X122742051Y-113116835D01*
X122780500Y-112923543D01*
X123319499Y-112923543D01*
X123357947Y-113116829D01*
X123357950Y-113116839D01*
X123433364Y-113298907D01*
X123433371Y-113298920D01*
X123542860Y-113462781D01*
X123542863Y-113462785D01*
X123682214Y-113602136D01*
X123682218Y-113602139D01*
X123846079Y-113711628D01*
X123846092Y-113711635D01*
X123981623Y-113767773D01*
X124028165Y-113787051D01*
X124028169Y-113787051D01*
X124028170Y-113787052D01*
X124221456Y-113825500D01*
X124221459Y-113825500D01*
X124418543Y-113825500D01*
X124548582Y-113799632D01*
X124611835Y-113787051D01*
X124793914Y-113711632D01*
X124957782Y-113602139D01*
X125097139Y-113462782D01*
X125206632Y-113298914D01*
X125282051Y-113116835D01*
X125320500Y-112923543D01*
X125859499Y-112923543D01*
X125897947Y-113116829D01*
X125897950Y-113116839D01*
X125973364Y-113298907D01*
X125973371Y-113298920D01*
X126082860Y-113462781D01*
X126082863Y-113462785D01*
X126222214Y-113602136D01*
X126222218Y-113602139D01*
X126386079Y-113711628D01*
X126386092Y-113711635D01*
X126521623Y-113767773D01*
X126568165Y-113787051D01*
X126568169Y-113787051D01*
X126568170Y-113787052D01*
X126761456Y-113825500D01*
X126761459Y-113825500D01*
X126958543Y-113825500D01*
X127088582Y-113799632D01*
X127151835Y-113787051D01*
X127333914Y-113711632D01*
X127497782Y-113602139D01*
X127637139Y-113462782D01*
X127746632Y-113298914D01*
X127822051Y-113116835D01*
X127860500Y-112923541D01*
X127860500Y-112726459D01*
X127860500Y-112726456D01*
X127822052Y-112533170D01*
X127822051Y-112533169D01*
X127822051Y-112533165D01*
X127767529Y-112401536D01*
X127746635Y-112351092D01*
X127746628Y-112351079D01*
X127637139Y-112187218D01*
X127637136Y-112187214D01*
X127497785Y-112047863D01*
X127497781Y-112047860D01*
X127333920Y-111938371D01*
X127333907Y-111938364D01*
X127151839Y-111862950D01*
X127151829Y-111862947D01*
X126958543Y-111824500D01*
X126958541Y-111824500D01*
X126761459Y-111824500D01*
X126761457Y-111824500D01*
X126568170Y-111862947D01*
X126568160Y-111862950D01*
X126386092Y-111938364D01*
X126386079Y-111938371D01*
X126222218Y-112047860D01*
X126222214Y-112047863D01*
X126082863Y-112187214D01*
X126082860Y-112187218D01*
X125973371Y-112351079D01*
X125973364Y-112351092D01*
X125897950Y-112533160D01*
X125897947Y-112533170D01*
X125859500Y-112726456D01*
X125859500Y-112726459D01*
X125859500Y-112923541D01*
X125859500Y-112923543D01*
X125859499Y-112923543D01*
X125320500Y-112923543D01*
X125320500Y-112923541D01*
X125320500Y-112726459D01*
X125320500Y-112726456D01*
X125282052Y-112533170D01*
X125282051Y-112533169D01*
X125282051Y-112533165D01*
X125227529Y-112401536D01*
X125206635Y-112351092D01*
X125206628Y-112351079D01*
X125097139Y-112187218D01*
X125097136Y-112187214D01*
X124957785Y-112047863D01*
X124957781Y-112047860D01*
X124793920Y-111938371D01*
X124793907Y-111938364D01*
X124611839Y-111862950D01*
X124611829Y-111862947D01*
X124418543Y-111824500D01*
X124418541Y-111824500D01*
X124221459Y-111824500D01*
X124221457Y-111824500D01*
X124028170Y-111862947D01*
X124028160Y-111862950D01*
X123846092Y-111938364D01*
X123846079Y-111938371D01*
X123682218Y-112047860D01*
X123682214Y-112047863D01*
X123542863Y-112187214D01*
X123542860Y-112187218D01*
X123433371Y-112351079D01*
X123433364Y-112351092D01*
X123357950Y-112533160D01*
X123357947Y-112533170D01*
X123319500Y-112726456D01*
X123319500Y-112726459D01*
X123319500Y-112923541D01*
X123319500Y-112923543D01*
X123319499Y-112923543D01*
X122780500Y-112923543D01*
X122780500Y-112923541D01*
X122780500Y-112726459D01*
X122780500Y-112726456D01*
X122742052Y-112533170D01*
X122742051Y-112533169D01*
X122742051Y-112533165D01*
X122687529Y-112401536D01*
X122666635Y-112351092D01*
X122666628Y-112351079D01*
X122557139Y-112187218D01*
X122557136Y-112187214D01*
X122417785Y-112047863D01*
X122417781Y-112047860D01*
X122253920Y-111938371D01*
X122253907Y-111938364D01*
X122071839Y-111862950D01*
X122071829Y-111862947D01*
X121878543Y-111824500D01*
X121878541Y-111824500D01*
X121681459Y-111824500D01*
X121681457Y-111824500D01*
X121488170Y-111862947D01*
X121488160Y-111862950D01*
X121306092Y-111938364D01*
X121306079Y-111938371D01*
X121142218Y-112047860D01*
X121142214Y-112047863D01*
X121002863Y-112187214D01*
X121002860Y-112187218D01*
X120893371Y-112351079D01*
X120893364Y-112351092D01*
X120817950Y-112533160D01*
X120817947Y-112533170D01*
X120779500Y-112726456D01*
X120779500Y-112726459D01*
X120779500Y-112923541D01*
X120779500Y-112923543D01*
X120779499Y-112923543D01*
X120240500Y-112923543D01*
X120240500Y-112923541D01*
X120240500Y-112726459D01*
X120240500Y-112726456D01*
X120202052Y-112533170D01*
X120202051Y-112533169D01*
X120202051Y-112533165D01*
X120147529Y-112401536D01*
X120126635Y-112351092D01*
X120126628Y-112351079D01*
X120017139Y-112187218D01*
X120017136Y-112187214D01*
X119877785Y-112047863D01*
X119877781Y-112047860D01*
X119713920Y-111938371D01*
X119713907Y-111938364D01*
X119531839Y-111862950D01*
X119531829Y-111862947D01*
X119338543Y-111824500D01*
X119338541Y-111824500D01*
X119141459Y-111824500D01*
X119141457Y-111824500D01*
X118948170Y-111862947D01*
X118948160Y-111862950D01*
X118766092Y-111938364D01*
X118766079Y-111938371D01*
X118602218Y-112047860D01*
X118602214Y-112047863D01*
X118462863Y-112187214D01*
X118462860Y-112187218D01*
X118353371Y-112351079D01*
X118353364Y-112351092D01*
X118277950Y-112533160D01*
X118277947Y-112533170D01*
X118239500Y-112726456D01*
X118239500Y-112726459D01*
X118239500Y-112923541D01*
X118239500Y-112923543D01*
X118239499Y-112923543D01*
X117700500Y-112923543D01*
X117700500Y-112923541D01*
X117700500Y-112726459D01*
X117700500Y-112726456D01*
X117662052Y-112533170D01*
X117662051Y-112533169D01*
X117662051Y-112533165D01*
X117607529Y-112401536D01*
X117586635Y-112351092D01*
X117586628Y-112351079D01*
X117477139Y-112187218D01*
X117477136Y-112187214D01*
X117337785Y-112047863D01*
X117337781Y-112047860D01*
X117173920Y-111938371D01*
X117173907Y-111938364D01*
X116991839Y-111862950D01*
X116991829Y-111862947D01*
X116798543Y-111824500D01*
X116798541Y-111824500D01*
X116601459Y-111824500D01*
X116601457Y-111824500D01*
X116408170Y-111862947D01*
X116408160Y-111862950D01*
X116226092Y-111938364D01*
X116226079Y-111938371D01*
X116062218Y-112047860D01*
X116062214Y-112047863D01*
X115922863Y-112187214D01*
X115922860Y-112187218D01*
X115813371Y-112351079D01*
X115813364Y-112351092D01*
X115737950Y-112533160D01*
X115737947Y-112533170D01*
X115699500Y-112726456D01*
X115699500Y-112726459D01*
X115699500Y-112923541D01*
X115699500Y-112923543D01*
X115699499Y-112923543D01*
X115160500Y-112923543D01*
X115160500Y-112923541D01*
X115160500Y-112726459D01*
X115160500Y-112726456D01*
X115122052Y-112533170D01*
X115122051Y-112533169D01*
X115122051Y-112533165D01*
X115067529Y-112401536D01*
X115046635Y-112351092D01*
X115046628Y-112351079D01*
X114937139Y-112187218D01*
X114937136Y-112187214D01*
X114797785Y-112047863D01*
X114797781Y-112047860D01*
X114633920Y-111938371D01*
X114633907Y-111938364D01*
X114451839Y-111862950D01*
X114451829Y-111862947D01*
X114258543Y-111824500D01*
X114258541Y-111824500D01*
X114061459Y-111824500D01*
X114061457Y-111824500D01*
X113868170Y-111862947D01*
X113868160Y-111862950D01*
X113686092Y-111938364D01*
X113686079Y-111938371D01*
X113522218Y-112047860D01*
X113522214Y-112047863D01*
X113382863Y-112187214D01*
X113382860Y-112187218D01*
X113273371Y-112351079D01*
X113273364Y-112351092D01*
X113197950Y-112533160D01*
X113197947Y-112533170D01*
X113159500Y-112726456D01*
X113159500Y-112726459D01*
X113159500Y-112923541D01*
X113159500Y-112923543D01*
X113159499Y-112923543D01*
X112620500Y-112923543D01*
X112620500Y-112923541D01*
X112620500Y-112726459D01*
X112620500Y-112726456D01*
X112582052Y-112533170D01*
X112582051Y-112533169D01*
X112582051Y-112533165D01*
X112527529Y-112401536D01*
X112506635Y-112351092D01*
X112506628Y-112351079D01*
X112397139Y-112187218D01*
X112397136Y-112187214D01*
X112257785Y-112047863D01*
X112257781Y-112047860D01*
X112093920Y-111938371D01*
X112093907Y-111938364D01*
X111911839Y-111862950D01*
X111911829Y-111862947D01*
X111718543Y-111824500D01*
X111718541Y-111824500D01*
X111521459Y-111824500D01*
X111521457Y-111824500D01*
X111328170Y-111862947D01*
X111328160Y-111862950D01*
X111146092Y-111938364D01*
X111146079Y-111938371D01*
X110982218Y-112047860D01*
X110982214Y-112047863D01*
X110842863Y-112187214D01*
X110842860Y-112187218D01*
X110733371Y-112351079D01*
X110733364Y-112351092D01*
X110657950Y-112533160D01*
X110657947Y-112533170D01*
X110619500Y-112726456D01*
X110619500Y-112726459D01*
X110619500Y-112923541D01*
X110619500Y-112923543D01*
X110619499Y-112923543D01*
X107919990Y-112923543D01*
X106819105Y-111822659D01*
X106927184Y-111744136D01*
X107094136Y-111577184D01*
X107172659Y-111469106D01*
X108596212Y-112892659D01*
X108596213Y-112892659D01*
X108764612Y-112687466D01*
X108764619Y-112687458D01*
X108788661Y-112651477D01*
X108788661Y-112651476D01*
X108955666Y-112401536D01*
X108955677Y-112401518D01*
X109117773Y-112098255D01*
X109117780Y-112098241D01*
X109249376Y-111780540D01*
X109349207Y-111451443D01*
X109349208Y-111451437D01*
X109416291Y-111114182D01*
X109416294Y-111114165D01*
X109450000Y-110771940D01*
X109450000Y-110428059D01*
X109416294Y-110085834D01*
X109416291Y-110085817D01*
X109349208Y-109748562D01*
X109349207Y-109748556D01*
X109249376Y-109419459D01*
X109117780Y-109101758D01*
X109117773Y-109101744D01*
X108955677Y-108798481D01*
X108955666Y-108798463D01*
X108764622Y-108512546D01*
X108764612Y-108512533D01*
X108596213Y-108307339D01*
X108596212Y-108307338D01*
X107172658Y-109730892D01*
X107094136Y-109622816D01*
X106927184Y-109455864D01*
X106819105Y-109377340D01*
X108242660Y-107953786D01*
X108242659Y-107953785D01*
X108184895Y-107906379D01*
X132749500Y-107906379D01*
X132749500Y-108093620D01*
X132786025Y-108277243D01*
X132786027Y-108277251D01*
X132857676Y-108450228D01*
X132857681Y-108450237D01*
X132961697Y-108605907D01*
X132961700Y-108605911D01*
X133094088Y-108738299D01*
X133094092Y-108738302D01*
X133249762Y-108842318D01*
X133249768Y-108842321D01*
X133249769Y-108842322D01*
X133422749Y-108913973D01*
X133606379Y-108950499D01*
X133606383Y-108950500D01*
X133606384Y-108950500D01*
X133793617Y-108950500D01*
X133793618Y-108950499D01*
X133977251Y-108913973D01*
X134150231Y-108842322D01*
X134305908Y-108738302D01*
X134438302Y-108605908D01*
X134542322Y-108450231D01*
X134613973Y-108277251D01*
X134650500Y-108093616D01*
X134650500Y-107959440D01*
X158828608Y-107959440D01*
X158828608Y-108146681D01*
X158865133Y-108330304D01*
X158865135Y-108330312D01*
X158936784Y-108503289D01*
X158936789Y-108503298D01*
X159040805Y-108658968D01*
X159040808Y-108658972D01*
X159173196Y-108791360D01*
X159173200Y-108791363D01*
X159328870Y-108895379D01*
X159328876Y-108895382D01*
X159328877Y-108895383D01*
X159501857Y-108967034D01*
X159685487Y-109003560D01*
X159685491Y-109003561D01*
X159685492Y-109003561D01*
X159872725Y-109003561D01*
X159872726Y-109003560D01*
X160056359Y-108967034D01*
X160229339Y-108895383D01*
X160385016Y-108791363D01*
X160517410Y-108658969D01*
X160621430Y-108503292D01*
X160693081Y-108330312D01*
X160729608Y-108146677D01*
X160729608Y-107959445D01*
X160693081Y-107775810D01*
X160621430Y-107602830D01*
X160621429Y-107602829D01*
X160621426Y-107602823D01*
X160517410Y-107447153D01*
X160517407Y-107447149D01*
X160385019Y-107314761D01*
X160385015Y-107314758D01*
X160229345Y-107210742D01*
X160229336Y-107210737D01*
X160056359Y-107139088D01*
X160056351Y-107139086D01*
X159872728Y-107102561D01*
X159872724Y-107102561D01*
X159685492Y-107102561D01*
X159685487Y-107102561D01*
X159501864Y-107139086D01*
X159501856Y-107139088D01*
X159328879Y-107210737D01*
X159328870Y-107210742D01*
X159173200Y-107314758D01*
X159173196Y-107314761D01*
X159040808Y-107447149D01*
X159040805Y-107447153D01*
X158936789Y-107602823D01*
X158936784Y-107602832D01*
X158865135Y-107775809D01*
X158865133Y-107775817D01*
X158828608Y-107959440D01*
X134650500Y-107959440D01*
X134650500Y-107906384D01*
X134613973Y-107722749D01*
X134542322Y-107549769D01*
X134542321Y-107549768D01*
X134542318Y-107549762D01*
X134438302Y-107394092D01*
X134438299Y-107394088D01*
X134305911Y-107261700D01*
X134305907Y-107261697D01*
X134150237Y-107157681D01*
X134150228Y-107157676D01*
X133977251Y-107086027D01*
X133977243Y-107086025D01*
X133793620Y-107049500D01*
X133793616Y-107049500D01*
X133606384Y-107049500D01*
X133606379Y-107049500D01*
X133422756Y-107086025D01*
X133422748Y-107086027D01*
X133249771Y-107157676D01*
X133249762Y-107157681D01*
X133094092Y-107261697D01*
X133094088Y-107261700D01*
X132961700Y-107394088D01*
X132961697Y-107394092D01*
X132857681Y-107549762D01*
X132857676Y-107549771D01*
X132786027Y-107722748D01*
X132786025Y-107722756D01*
X132749500Y-107906379D01*
X108184895Y-107906379D01*
X108037467Y-107785387D01*
X108037453Y-107785377D01*
X107751536Y-107594333D01*
X107751518Y-107594322D01*
X107448255Y-107432226D01*
X107448241Y-107432219D01*
X107130540Y-107300623D01*
X106801443Y-107200792D01*
X106801437Y-107200791D01*
X106464182Y-107133708D01*
X106464165Y-107133705D01*
X106121941Y-107100000D01*
X105778059Y-107100000D01*
X105435834Y-107133705D01*
X105435817Y-107133708D01*
X105098562Y-107200791D01*
X105098556Y-107200792D01*
X104769459Y-107300623D01*
X104451758Y-107432219D01*
X104451744Y-107432226D01*
X104148481Y-107594322D01*
X104148463Y-107594333D01*
X103862546Y-107785377D01*
X103862532Y-107785387D01*
X103657338Y-107953786D01*
X105080893Y-109377341D01*
X104972816Y-109455864D01*
X104805864Y-109622816D01*
X104727340Y-109730893D01*
X103303786Y-108307338D01*
X103135387Y-108512532D01*
X103135377Y-108512546D01*
X102944333Y-108798463D01*
X102944322Y-108798481D01*
X102782226Y-109101744D01*
X102782219Y-109101758D01*
X102739061Y-109205952D01*
X102695220Y-109260355D01*
X102628926Y-109282420D01*
X102561226Y-109265141D01*
X102513616Y-109214003D01*
X102500500Y-109158499D01*
X102500500Y-105803379D01*
X114027500Y-105803379D01*
X114027500Y-105990620D01*
X114064025Y-106174243D01*
X114064027Y-106174251D01*
X114135676Y-106347228D01*
X114135681Y-106347237D01*
X114239697Y-106502907D01*
X114239700Y-106502911D01*
X114372088Y-106635299D01*
X114372092Y-106635302D01*
X114527762Y-106739318D01*
X114527768Y-106739321D01*
X114527769Y-106739322D01*
X114700749Y-106810973D01*
X114884379Y-106847499D01*
X114884383Y-106847500D01*
X114884384Y-106847500D01*
X115071617Y-106847500D01*
X115071618Y-106847499D01*
X115125010Y-106836879D01*
X121630000Y-106836879D01*
X121630000Y-107024120D01*
X121666525Y-107207743D01*
X121666527Y-107207751D01*
X121738176Y-107380728D01*
X121738181Y-107380737D01*
X121842197Y-107536407D01*
X121842200Y-107536411D01*
X121974588Y-107668799D01*
X121974592Y-107668802D01*
X122130262Y-107772818D01*
X122130271Y-107772823D01*
X122161434Y-107785731D01*
X122303249Y-107844473D01*
X122486879Y-107880999D01*
X122486883Y-107881000D01*
X122486884Y-107881000D01*
X122674117Y-107881000D01*
X122674118Y-107880999D01*
X122857751Y-107844473D01*
X123030731Y-107772822D01*
X123186408Y-107668802D01*
X123318802Y-107536408D01*
X123422822Y-107380731D01*
X123494473Y-107207751D01*
X123531000Y-107024116D01*
X123531000Y-106836884D01*
X123494473Y-106653249D01*
X123422822Y-106480269D01*
X123422821Y-106480268D01*
X123422818Y-106480262D01*
X123318802Y-106324592D01*
X123318799Y-106324588D01*
X123313891Y-106319680D01*
X123280406Y-106258357D01*
X123285390Y-106188665D01*
X123313890Y-106144319D01*
X123336302Y-106121908D01*
X123440322Y-105966231D01*
X123511973Y-105793251D01*
X123548500Y-105609616D01*
X123548500Y-105422384D01*
X123548302Y-105421389D01*
X123526839Y-105313483D01*
X123523238Y-105295379D01*
X133839500Y-105295379D01*
X133839500Y-105482620D01*
X133876025Y-105666243D01*
X133876027Y-105666251D01*
X133947676Y-105839228D01*
X133947681Y-105839237D01*
X134051697Y-105994907D01*
X134051700Y-105994911D01*
X134184088Y-106127299D01*
X134184092Y-106127302D01*
X134339762Y-106231318D01*
X134339771Y-106231323D01*
X134378956Y-106247554D01*
X134512749Y-106302973D01*
X134696379Y-106339499D01*
X134696383Y-106339500D01*
X134696384Y-106339500D01*
X134883617Y-106339500D01*
X134883618Y-106339499D01*
X135067251Y-106302973D01*
X135240231Y-106231322D01*
X135395908Y-106127302D01*
X135528302Y-105994908D01*
X135632322Y-105839231D01*
X135703973Y-105666251D01*
X135740500Y-105482616D01*
X135740500Y-105295384D01*
X135703973Y-105111749D01*
X135632322Y-104938769D01*
X135632321Y-104938768D01*
X135632318Y-104938762D01*
X135528302Y-104783092D01*
X135528299Y-104783088D01*
X135395911Y-104650700D01*
X135395907Y-104650697D01*
X135240237Y-104546681D01*
X135240228Y-104546676D01*
X135067251Y-104475027D01*
X135067243Y-104475025D01*
X134883620Y-104438500D01*
X134883616Y-104438500D01*
X134696384Y-104438500D01*
X134696379Y-104438500D01*
X134512756Y-104475025D01*
X134512748Y-104475027D01*
X134339771Y-104546676D01*
X134339762Y-104546681D01*
X134184092Y-104650697D01*
X134184088Y-104650700D01*
X134051700Y-104783088D01*
X134051697Y-104783092D01*
X133947681Y-104938762D01*
X133947676Y-104938771D01*
X133876027Y-105111748D01*
X133876025Y-105111756D01*
X133839500Y-105295379D01*
X123523238Y-105295379D01*
X123511974Y-105238756D01*
X123511973Y-105238749D01*
X123440322Y-105065769D01*
X123440321Y-105065768D01*
X123440318Y-105065762D01*
X123336302Y-104910092D01*
X123336299Y-104910088D01*
X123203911Y-104777700D01*
X123203907Y-104777697D01*
X123048237Y-104673681D01*
X123048228Y-104673676D01*
X122875251Y-104602027D01*
X122875243Y-104602025D01*
X122691620Y-104565500D01*
X122691616Y-104565500D01*
X122504384Y-104565500D01*
X122504379Y-104565500D01*
X122320756Y-104602025D01*
X122320748Y-104602027D01*
X122147771Y-104673676D01*
X122147762Y-104673681D01*
X121992092Y-104777697D01*
X121992088Y-104777700D01*
X121859700Y-104910088D01*
X121859697Y-104910092D01*
X121755681Y-105065762D01*
X121755676Y-105065771D01*
X121684027Y-105238748D01*
X121684025Y-105238756D01*
X121647500Y-105422379D01*
X121647500Y-105609620D01*
X121684025Y-105793243D01*
X121684027Y-105793251D01*
X121755676Y-105966228D01*
X121755681Y-105966237D01*
X121859697Y-106121907D01*
X121859700Y-106121911D01*
X121864608Y-106126819D01*
X121898093Y-106188142D01*
X121893109Y-106257834D01*
X121864608Y-106302181D01*
X121842200Y-106324588D01*
X121842197Y-106324592D01*
X121738181Y-106480262D01*
X121738176Y-106480271D01*
X121666527Y-106653248D01*
X121666525Y-106653256D01*
X121630000Y-106836879D01*
X115125010Y-106836879D01*
X115255251Y-106810973D01*
X115428231Y-106739322D01*
X115428236Y-106739318D01*
X115428239Y-106739317D01*
X115445639Y-106727691D01*
X115445640Y-106727690D01*
X115490109Y-106697976D01*
X115583908Y-106635302D01*
X115716302Y-106502908D01*
X115820322Y-106347231D01*
X115891973Y-106174251D01*
X115928500Y-105990616D01*
X115928500Y-105803384D01*
X115891973Y-105619749D01*
X115820322Y-105446769D01*
X115820321Y-105446768D01*
X115820318Y-105446762D01*
X115716302Y-105291092D01*
X115716299Y-105291088D01*
X115583911Y-105158700D01*
X115583907Y-105158697D01*
X115428237Y-105054681D01*
X115428228Y-105054676D01*
X115255251Y-104983027D01*
X115255243Y-104983025D01*
X115201350Y-104972305D01*
X115139439Y-104939920D01*
X115104865Y-104879205D01*
X115108604Y-104809435D01*
X115149470Y-104752763D01*
X115201350Y-104729071D01*
X115234762Y-104722424D01*
X115277251Y-104713973D01*
X115450231Y-104642322D01*
X115605908Y-104538302D01*
X115738302Y-104405908D01*
X115842322Y-104250231D01*
X115913973Y-104077251D01*
X115950500Y-103893616D01*
X115950500Y-103706384D01*
X115913973Y-103522749D01*
X115911749Y-103517379D01*
X140189500Y-103517379D01*
X140189500Y-103704620D01*
X140226025Y-103888243D01*
X140226027Y-103888251D01*
X140297676Y-104061228D01*
X140297681Y-104061237D01*
X140401697Y-104216907D01*
X140401700Y-104216911D01*
X140534088Y-104349299D01*
X140534092Y-104349302D01*
X140689762Y-104453318D01*
X140689768Y-104453321D01*
X140689769Y-104453322D01*
X140862749Y-104524973D01*
X141046379Y-104561499D01*
X141046383Y-104561500D01*
X141046384Y-104561500D01*
X141233617Y-104561500D01*
X141233618Y-104561499D01*
X141417251Y-104524973D01*
X141590231Y-104453322D01*
X141745908Y-104349302D01*
X141878302Y-104216908D01*
X141982322Y-104061231D01*
X142053973Y-103888251D01*
X142090500Y-103704616D01*
X142090500Y-103517384D01*
X142053973Y-103333749D01*
X141982322Y-103160769D01*
X141982321Y-103160768D01*
X141982318Y-103160762D01*
X141878302Y-103005092D01*
X141878299Y-103005088D01*
X141745911Y-102872700D01*
X141745907Y-102872697D01*
X141590237Y-102768681D01*
X141590228Y-102768676D01*
X141417251Y-102697027D01*
X141417243Y-102697025D01*
X141373998Y-102688423D01*
X141233620Y-102660500D01*
X141233616Y-102660500D01*
X141046384Y-102660500D01*
X141046379Y-102660500D01*
X140862756Y-102697025D01*
X140862748Y-102697027D01*
X140689771Y-102768676D01*
X140689762Y-102768681D01*
X140534092Y-102872697D01*
X140534088Y-102872700D01*
X140401700Y-103005088D01*
X140401697Y-103005092D01*
X140297681Y-103160762D01*
X140297676Y-103160771D01*
X140226027Y-103333748D01*
X140226025Y-103333756D01*
X140189500Y-103517379D01*
X115911749Y-103517379D01*
X115842322Y-103349769D01*
X115842321Y-103349768D01*
X115842318Y-103349762D01*
X115738302Y-103194092D01*
X115738299Y-103194088D01*
X115663965Y-103119754D01*
X115630480Y-103058431D01*
X115635464Y-102988739D01*
X115677336Y-102932806D01*
X115682725Y-102928991D01*
X115837908Y-102825302D01*
X115970302Y-102692908D01*
X116074322Y-102537231D01*
X116145973Y-102364251D01*
X116182500Y-102180616D01*
X116182500Y-101993384D01*
X116145973Y-101809749D01*
X116079070Y-101648231D01*
X116074323Y-101636771D01*
X116074318Y-101636762D01*
X115970302Y-101481092D01*
X115970299Y-101481088D01*
X115837911Y-101348700D01*
X115837907Y-101348697D01*
X115682237Y-101244681D01*
X115682228Y-101244676D01*
X115509251Y-101173027D01*
X115509243Y-101173025D01*
X115503633Y-101171909D01*
X115325620Y-101136500D01*
X115325616Y-101136500D01*
X115138384Y-101136500D01*
X115138379Y-101136500D01*
X114954756Y-101173025D01*
X114954748Y-101173027D01*
X114781771Y-101244676D01*
X114781762Y-101244681D01*
X114626092Y-101348697D01*
X114626088Y-101348700D01*
X114493700Y-101481088D01*
X114493697Y-101481092D01*
X114389681Y-101636762D01*
X114389676Y-101636771D01*
X114318027Y-101809748D01*
X114318025Y-101809756D01*
X114281500Y-101993379D01*
X114281500Y-102180620D01*
X114318025Y-102364243D01*
X114318027Y-102364251D01*
X114389676Y-102537228D01*
X114389681Y-102537237D01*
X114493697Y-102692907D01*
X114493700Y-102692911D01*
X114568034Y-102767245D01*
X114601519Y-102828568D01*
X114596535Y-102898260D01*
X114554663Y-102954193D01*
X114549244Y-102958028D01*
X114394092Y-103061697D01*
X114394088Y-103061700D01*
X114261700Y-103194088D01*
X114261697Y-103194092D01*
X114157681Y-103349762D01*
X114157676Y-103349771D01*
X114086027Y-103522748D01*
X114086025Y-103522756D01*
X114049500Y-103706379D01*
X114049500Y-103893620D01*
X114086025Y-104077243D01*
X114086027Y-104077251D01*
X114157676Y-104250228D01*
X114157681Y-104250237D01*
X114261697Y-104405907D01*
X114261700Y-104405911D01*
X114394088Y-104538299D01*
X114394092Y-104538302D01*
X114549762Y-104642318D01*
X114549768Y-104642321D01*
X114549769Y-104642322D01*
X114722749Y-104713973D01*
X114776649Y-104724694D01*
X114838559Y-104757077D01*
X114873134Y-104817793D01*
X114869395Y-104887562D01*
X114828530Y-104944235D01*
X114776651Y-104967928D01*
X114700753Y-104983025D01*
X114700748Y-104983027D01*
X114527771Y-105054676D01*
X114527762Y-105054681D01*
X114372092Y-105158697D01*
X114372088Y-105158700D01*
X114239700Y-105291088D01*
X114239697Y-105291092D01*
X114135681Y-105446762D01*
X114135676Y-105446771D01*
X114064027Y-105619748D01*
X114064025Y-105619756D01*
X114027500Y-105803379D01*
X102500500Y-105803379D01*
X102500500Y-100599983D01*
X103799500Y-100599983D01*
X103799500Y-101900001D01*
X103799501Y-101900018D01*
X103810000Y-102002796D01*
X103810001Y-102002799D01*
X103865185Y-102169331D01*
X103865187Y-102169336D01*
X103957289Y-102318657D01*
X104081344Y-102442712D01*
X104236120Y-102538178D01*
X104282845Y-102590126D01*
X104294068Y-102659088D01*
X104266224Y-102723171D01*
X104258706Y-102731398D01*
X104119889Y-102870215D01*
X103994951Y-103042179D01*
X103898444Y-103231585D01*
X103832753Y-103433760D01*
X103799500Y-103643713D01*
X103799500Y-103856286D01*
X103831959Y-104061228D01*
X103832754Y-104066243D01*
X103881709Y-104216911D01*
X103898444Y-104268414D01*
X103994951Y-104457820D01*
X104119890Y-104629786D01*
X104270213Y-104780109D01*
X104442179Y-104905048D01*
X104442181Y-104905049D01*
X104442184Y-104905051D01*
X104631588Y-105001557D01*
X104833757Y-105067246D01*
X105043713Y-105100500D01*
X105043714Y-105100500D01*
X105556286Y-105100500D01*
X105556287Y-105100500D01*
X105766243Y-105067246D01*
X105968412Y-105001557D01*
X106157816Y-104905051D01*
X106193390Y-104879205D01*
X106329786Y-104780109D01*
X106329788Y-104780106D01*
X106329792Y-104780104D01*
X106480104Y-104629792D01*
X106480106Y-104629788D01*
X106480109Y-104629786D01*
X106605048Y-104457820D01*
X106605047Y-104457820D01*
X106605051Y-104457816D01*
X106701557Y-104268412D01*
X106767246Y-104066243D01*
X106800500Y-103856287D01*
X106800500Y-103643713D01*
X106767246Y-103433757D01*
X106701557Y-103231588D01*
X106605051Y-103042184D01*
X106605049Y-103042181D01*
X106605048Y-103042179D01*
X106480109Y-102870213D01*
X106341294Y-102731398D01*
X106307809Y-102670075D01*
X106312793Y-102600383D01*
X106354665Y-102544450D01*
X106363879Y-102538178D01*
X106369331Y-102534814D01*
X106369334Y-102534814D01*
X106518656Y-102442712D01*
X106642712Y-102318656D01*
X106734814Y-102169334D01*
X106789999Y-102002797D01*
X106800500Y-101900009D01*
X106800499Y-101056379D01*
X125399500Y-101056379D01*
X125399500Y-101243620D01*
X125436025Y-101427243D01*
X125436027Y-101427251D01*
X125507676Y-101600228D01*
X125507681Y-101600237D01*
X125611697Y-101755907D01*
X125611700Y-101755911D01*
X125744088Y-101888299D01*
X125744092Y-101888302D01*
X125899762Y-101992318D01*
X125899771Y-101992323D01*
X125938956Y-102008554D01*
X126072749Y-102063973D01*
X126204175Y-102090115D01*
X126256379Y-102100499D01*
X126256383Y-102100500D01*
X126256384Y-102100500D01*
X126443617Y-102100500D01*
X126443618Y-102100499D01*
X126627251Y-102063973D01*
X126800231Y-101992322D01*
X126955908Y-101888302D01*
X127088302Y-101755908D01*
X127192322Y-101600231D01*
X127263973Y-101427251D01*
X127300500Y-101243616D01*
X127300500Y-101104379D01*
X131426500Y-101104379D01*
X131426500Y-101291620D01*
X131463025Y-101475243D01*
X131463027Y-101475251D01*
X131534676Y-101648228D01*
X131534681Y-101648237D01*
X131638697Y-101803907D01*
X131638700Y-101803911D01*
X131771088Y-101936299D01*
X131771092Y-101936302D01*
X131926762Y-102040318D01*
X131926768Y-102040321D01*
X131926769Y-102040322D01*
X132099749Y-102111973D01*
X132243286Y-102140524D01*
X132283379Y-102148499D01*
X132283383Y-102148500D01*
X132283384Y-102148500D01*
X132470617Y-102148500D01*
X132470618Y-102148499D01*
X132654251Y-102111973D01*
X132827231Y-102040322D01*
X132982908Y-101936302D01*
X133115302Y-101803908D01*
X133219322Y-101648231D01*
X133290973Y-101475251D01*
X133327500Y-101291616D01*
X133327500Y-101104384D01*
X133290973Y-100920749D01*
X133219322Y-100747769D01*
X133219321Y-100747768D01*
X133219318Y-100747762D01*
X133115302Y-100592092D01*
X133115299Y-100592088D01*
X132982911Y-100459700D01*
X132982907Y-100459697D01*
X132827237Y-100355681D01*
X132827228Y-100355676D01*
X132654251Y-100284027D01*
X132654243Y-100284025D01*
X132470620Y-100247500D01*
X132470616Y-100247500D01*
X132283384Y-100247500D01*
X132283379Y-100247500D01*
X132099756Y-100284025D01*
X132099748Y-100284027D01*
X131926771Y-100355676D01*
X131926762Y-100355681D01*
X131771092Y-100459697D01*
X131771088Y-100459700D01*
X131638700Y-100592088D01*
X131638697Y-100592092D01*
X131534681Y-100747762D01*
X131534676Y-100747771D01*
X131463027Y-100920748D01*
X131463025Y-100920756D01*
X131426500Y-101104379D01*
X127300500Y-101104379D01*
X127300500Y-101056384D01*
X127263973Y-100872749D01*
X127192322Y-100699769D01*
X127192321Y-100699768D01*
X127192318Y-100699762D01*
X127088302Y-100544092D01*
X127088299Y-100544088D01*
X126955911Y-100411700D01*
X126955907Y-100411697D01*
X126800237Y-100307681D01*
X126800228Y-100307676D01*
X126627251Y-100236027D01*
X126627243Y-100236025D01*
X126443620Y-100199500D01*
X126443616Y-100199500D01*
X126256384Y-100199500D01*
X126256379Y-100199500D01*
X126072756Y-100236025D01*
X126072748Y-100236027D01*
X125899771Y-100307676D01*
X125899762Y-100307681D01*
X125744092Y-100411697D01*
X125744088Y-100411700D01*
X125611700Y-100544088D01*
X125611697Y-100544092D01*
X125507681Y-100699762D01*
X125507676Y-100699771D01*
X125436027Y-100872748D01*
X125436025Y-100872756D01*
X125399500Y-101056379D01*
X106800499Y-101056379D01*
X106800499Y-100599992D01*
X106793098Y-100527545D01*
X106789999Y-100497203D01*
X106789998Y-100497200D01*
X106770896Y-100439555D01*
X106734814Y-100330666D01*
X106642712Y-100181344D01*
X106518656Y-100057288D01*
X106369334Y-99965186D01*
X106202797Y-99910001D01*
X106202795Y-99910000D01*
X106100010Y-99899500D01*
X104499998Y-99899500D01*
X104499981Y-99899501D01*
X104397203Y-99910000D01*
X104397200Y-99910001D01*
X104230668Y-99965185D01*
X104230663Y-99965187D01*
X104081342Y-100057289D01*
X103957289Y-100181342D01*
X103865187Y-100330663D01*
X103865185Y-100330668D01*
X103843285Y-100396758D01*
X103810001Y-100497203D01*
X103810001Y-100497204D01*
X103810000Y-100497204D01*
X103799500Y-100599983D01*
X102500500Y-100599983D01*
X102500500Y-99834379D01*
X142983500Y-99834379D01*
X142983500Y-100021620D01*
X143020025Y-100205243D01*
X143020027Y-100205251D01*
X143091676Y-100378228D01*
X143091681Y-100378237D01*
X143195697Y-100533907D01*
X143195700Y-100533911D01*
X143328088Y-100666299D01*
X143328092Y-100666302D01*
X143483762Y-100770318D01*
X143483768Y-100770321D01*
X143483769Y-100770322D01*
X143656749Y-100841973D01*
X143811467Y-100872748D01*
X143840379Y-100878499D01*
X143840383Y-100878500D01*
X143840384Y-100878500D01*
X144027617Y-100878500D01*
X144027618Y-100878499D01*
X144211251Y-100841973D01*
X144384231Y-100770322D01*
X144539908Y-100666302D01*
X144672302Y-100533908D01*
X144776322Y-100378231D01*
X144847973Y-100205251D01*
X144884500Y-100021616D01*
X144884500Y-99834384D01*
X144847973Y-99650749D01*
X144776322Y-99477769D01*
X144776320Y-99477767D01*
X144776316Y-99477759D01*
X144770585Y-99469181D01*
X144728622Y-99406379D01*
X147649500Y-99406379D01*
X147649500Y-99593620D01*
X147686025Y-99777243D01*
X147686027Y-99777251D01*
X147757676Y-99950228D01*
X147757681Y-99950237D01*
X147861697Y-100105907D01*
X147861700Y-100105911D01*
X147994088Y-100238299D01*
X147994092Y-100238302D01*
X148149762Y-100342318D01*
X148149768Y-100342321D01*
X148149769Y-100342322D01*
X148322749Y-100413973D01*
X148506379Y-100450499D01*
X148506383Y-100450500D01*
X148506384Y-100450500D01*
X148693617Y-100450500D01*
X148693618Y-100450499D01*
X148877251Y-100413973D01*
X149050231Y-100342322D01*
X149205908Y-100238302D01*
X149338302Y-100105908D01*
X149442322Y-99950231D01*
X149513973Y-99777251D01*
X149550500Y-99593616D01*
X149550500Y-99406384D01*
X149513973Y-99222749D01*
X149442516Y-99050237D01*
X149442323Y-99049771D01*
X149442318Y-99049762D01*
X149338302Y-98894092D01*
X149338299Y-98894088D01*
X149205911Y-98761700D01*
X149205907Y-98761697D01*
X149050237Y-98657681D01*
X149050227Y-98657676D01*
X148946843Y-98614853D01*
X148877251Y-98586027D01*
X148877243Y-98586025D01*
X148693620Y-98549500D01*
X148693616Y-98549500D01*
X148506384Y-98549500D01*
X148506379Y-98549500D01*
X148322756Y-98586025D01*
X148322748Y-98586027D01*
X148149771Y-98657676D01*
X148149762Y-98657681D01*
X147994092Y-98761697D01*
X147994088Y-98761700D01*
X147861700Y-98894088D01*
X147861697Y-98894092D01*
X147757681Y-99049762D01*
X147757676Y-99049771D01*
X147686027Y-99222748D01*
X147686025Y-99222756D01*
X147649500Y-99406379D01*
X144728622Y-99406379D01*
X144672302Y-99322092D01*
X144672299Y-99322088D01*
X144539911Y-99189700D01*
X144539907Y-99189697D01*
X144384237Y-99085681D01*
X144384228Y-99085676D01*
X144211251Y-99014027D01*
X144211243Y-99014025D01*
X144027620Y-98977500D01*
X144027616Y-98977500D01*
X143840384Y-98977500D01*
X143840379Y-98977500D01*
X143656756Y-99014025D01*
X143656748Y-99014027D01*
X143483771Y-99085676D01*
X143483762Y-99085681D01*
X143328092Y-99189697D01*
X143328088Y-99189700D01*
X143195700Y-99322088D01*
X143195697Y-99322092D01*
X143091681Y-99477762D01*
X143091676Y-99477771D01*
X143020027Y-99650748D01*
X143020025Y-99650756D01*
X142983500Y-99834379D01*
X102500500Y-99834379D01*
X102500500Y-95191500D01*
X102520185Y-95124461D01*
X102572989Y-95078706D01*
X102642147Y-95068762D01*
X102705703Y-95097787D01*
X102739061Y-95144047D01*
X102782219Y-95248241D01*
X102782226Y-95248255D01*
X102944322Y-95551518D01*
X102944333Y-95551536D01*
X103135377Y-95837453D01*
X103135387Y-95837467D01*
X103303785Y-96042659D01*
X103303786Y-96042660D01*
X104727340Y-94619105D01*
X104805864Y-94727184D01*
X104972816Y-94894136D01*
X105080893Y-94972658D01*
X103657338Y-96396212D01*
X103657339Y-96396213D01*
X103862533Y-96564612D01*
X103862546Y-96564622D01*
X104148463Y-96755666D01*
X104148481Y-96755677D01*
X104451744Y-96917773D01*
X104451758Y-96917780D01*
X104769459Y-97049376D01*
X105098556Y-97149207D01*
X105098562Y-97149208D01*
X105435817Y-97216291D01*
X105435834Y-97216294D01*
X105778059Y-97250000D01*
X106121941Y-97250000D01*
X106464165Y-97216294D01*
X106464182Y-97216291D01*
X106801437Y-97149208D01*
X106801443Y-97149207D01*
X107130540Y-97049376D01*
X107448241Y-96917780D01*
X107448255Y-96917773D01*
X107751518Y-96755677D01*
X107751536Y-96755666D01*
X108037453Y-96564622D01*
X108037466Y-96564612D01*
X108231490Y-96405379D01*
X122028500Y-96405379D01*
X122028500Y-96592620D01*
X122065025Y-96776243D01*
X122065027Y-96776251D01*
X122136676Y-96949228D01*
X122136681Y-96949237D01*
X122240697Y-97104907D01*
X122240700Y-97104911D01*
X122373088Y-97237299D01*
X122373092Y-97237302D01*
X122528762Y-97341318D01*
X122528768Y-97341321D01*
X122528769Y-97341322D01*
X122701749Y-97412973D01*
X122885379Y-97449499D01*
X122885383Y-97449500D01*
X122885384Y-97449500D01*
X123072617Y-97449500D01*
X123072618Y-97449499D01*
X123256251Y-97412973D01*
X123429231Y-97341322D01*
X123584908Y-97237302D01*
X123715831Y-97106379D01*
X131649500Y-97106379D01*
X131649500Y-97293620D01*
X131686025Y-97477243D01*
X131686027Y-97477251D01*
X131757676Y-97650228D01*
X131757681Y-97650237D01*
X131861697Y-97805907D01*
X131861700Y-97805911D01*
X131994088Y-97938299D01*
X131994092Y-97938302D01*
X132149762Y-98042318D01*
X132149768Y-98042321D01*
X132149769Y-98042322D01*
X132322749Y-98113973D01*
X132502674Y-98149762D01*
X132506379Y-98150499D01*
X132506383Y-98150500D01*
X132506384Y-98150500D01*
X132693617Y-98150500D01*
X132693618Y-98150499D01*
X132877251Y-98113973D01*
X133050231Y-98042322D01*
X133205908Y-97938302D01*
X133237831Y-97906379D01*
X138849500Y-97906379D01*
X138849500Y-98093620D01*
X138886025Y-98277243D01*
X138886027Y-98277251D01*
X138957676Y-98450228D01*
X138957681Y-98450237D01*
X139061697Y-98605907D01*
X139061700Y-98605911D01*
X139194088Y-98738299D01*
X139194092Y-98738302D01*
X139349762Y-98842318D01*
X139349768Y-98842321D01*
X139349769Y-98842322D01*
X139522749Y-98913973D01*
X139706379Y-98950499D01*
X139706383Y-98950500D01*
X139706384Y-98950500D01*
X139893617Y-98950500D01*
X139893618Y-98950499D01*
X140077251Y-98913973D01*
X140250231Y-98842322D01*
X140405908Y-98738302D01*
X140538302Y-98605908D01*
X140596898Y-98518213D01*
X140650510Y-98473408D01*
X140719835Y-98464701D01*
X140782862Y-98494855D01*
X140803102Y-98518213D01*
X140861697Y-98605908D01*
X140994088Y-98738299D01*
X140994092Y-98738302D01*
X141149762Y-98842318D01*
X141149768Y-98842321D01*
X141149769Y-98842322D01*
X141322749Y-98913973D01*
X141506379Y-98950499D01*
X141506383Y-98950500D01*
X141506384Y-98950500D01*
X141693617Y-98950500D01*
X141693618Y-98950499D01*
X141877251Y-98913973D01*
X142050231Y-98842322D01*
X142205908Y-98738302D01*
X142338302Y-98605908D01*
X142404805Y-98506379D01*
X150149500Y-98506379D01*
X150149500Y-98693620D01*
X150186025Y-98877243D01*
X150186027Y-98877251D01*
X150257676Y-99050228D01*
X150257681Y-99050237D01*
X150361697Y-99205907D01*
X150361700Y-99205911D01*
X150494088Y-99338299D01*
X150494092Y-99338302D01*
X150649762Y-99442318D01*
X150649768Y-99442321D01*
X150649769Y-99442322D01*
X150822749Y-99513973D01*
X151006379Y-99550499D01*
X151006383Y-99550500D01*
X151006384Y-99550500D01*
X151193617Y-99550500D01*
X151193618Y-99550499D01*
X151377251Y-99513973D01*
X151550231Y-99442322D01*
X151705908Y-99338302D01*
X151838302Y-99205908D01*
X151942322Y-99050231D01*
X152013973Y-98877251D01*
X152050500Y-98693616D01*
X152050500Y-98506384D01*
X152013973Y-98322749D01*
X151942625Y-98150500D01*
X151942323Y-98149771D01*
X151942318Y-98149762D01*
X151838302Y-97994092D01*
X151838299Y-97994088D01*
X151705911Y-97861700D01*
X151705907Y-97861697D01*
X151550237Y-97757681D01*
X151550228Y-97757676D01*
X151377251Y-97686027D01*
X151377243Y-97686025D01*
X151193620Y-97649500D01*
X151193616Y-97649500D01*
X151006384Y-97649500D01*
X151006379Y-97649500D01*
X150822756Y-97686025D01*
X150822748Y-97686027D01*
X150649771Y-97757676D01*
X150649762Y-97757681D01*
X150494092Y-97861697D01*
X150494088Y-97861700D01*
X150361700Y-97994088D01*
X150361697Y-97994092D01*
X150257681Y-98149762D01*
X150257676Y-98149771D01*
X150186027Y-98322748D01*
X150186025Y-98322756D01*
X150149500Y-98506379D01*
X142404805Y-98506379D01*
X142442322Y-98450231D01*
X142513973Y-98277251D01*
X142550500Y-98093616D01*
X142550500Y-97906384D01*
X142513973Y-97722749D01*
X142442322Y-97549769D01*
X142442321Y-97549768D01*
X142442318Y-97549762D01*
X142338302Y-97394092D01*
X142338299Y-97394088D01*
X142205911Y-97261700D01*
X142205907Y-97261697D01*
X142114299Y-97200486D01*
X152454500Y-97200486D01*
X152454500Y-97385514D01*
X152468972Y-97476889D01*
X152483445Y-97568265D01*
X152540619Y-97744232D01*
X152540620Y-97744235D01*
X152575460Y-97812611D01*
X152624622Y-97909096D01*
X152733379Y-98058787D01*
X152864213Y-98189621D01*
X152868421Y-98192678D01*
X152868432Y-98192686D01*
X152911094Y-98248019D01*
X152917069Y-98317633D01*
X152884459Y-98379426D01*
X152868432Y-98393314D01*
X152864210Y-98396381D01*
X152733381Y-98527210D01*
X152733381Y-98527211D01*
X152733379Y-98527213D01*
X152717187Y-98549500D01*
X152624622Y-98676903D01*
X152540620Y-98841764D01*
X152540619Y-98841767D01*
X152483445Y-99017734D01*
X152454500Y-99200486D01*
X152454500Y-99385513D01*
X152483445Y-99568265D01*
X152540619Y-99744232D01*
X152540620Y-99744235D01*
X152586554Y-99834384D01*
X152624622Y-99909096D01*
X152733379Y-100058787D01*
X152864213Y-100189621D01*
X152868847Y-100192988D01*
X152911515Y-100248313D01*
X152917498Y-100317926D01*
X152884895Y-100379723D01*
X152868860Y-100393620D01*
X152864542Y-100396757D01*
X152864536Y-100396762D01*
X152733758Y-100527540D01*
X152733754Y-100527545D01*
X152625052Y-100677162D01*
X152541084Y-100841956D01*
X152541082Y-100841962D01*
X152483932Y-101017855D01*
X152479950Y-101042999D01*
X152479950Y-101043000D01*
X153314314Y-101043000D01*
X153309920Y-101047394D01*
X153257259Y-101138606D01*
X153230000Y-101240339D01*
X153230000Y-101345661D01*
X153257259Y-101447394D01*
X153309920Y-101538606D01*
X153314314Y-101543000D01*
X152479950Y-101543000D01*
X152483932Y-101568144D01*
X152541082Y-101744037D01*
X152541084Y-101744043D01*
X152625049Y-101908833D01*
X152708946Y-102024308D01*
X152732425Y-102090115D01*
X152716599Y-102158169D01*
X152682939Y-102196459D01*
X152597452Y-102260455D01*
X152511206Y-102375664D01*
X152511202Y-102375671D01*
X152460908Y-102510517D01*
X152454501Y-102570116D01*
X152454501Y-102570123D01*
X152454500Y-102570135D01*
X152454500Y-104015870D01*
X152454501Y-104015876D01*
X152460908Y-104075483D01*
X152511202Y-104210328D01*
X152511206Y-104210335D01*
X152597452Y-104325544D01*
X152597455Y-104325547D01*
X152712664Y-104411793D01*
X152712671Y-104411797D01*
X152847517Y-104462091D01*
X152847516Y-104462091D01*
X152854444Y-104462835D01*
X152907127Y-104468500D01*
X154352872Y-104468499D01*
X154412483Y-104462091D01*
X154547331Y-104411796D01*
X154662546Y-104325546D01*
X154748796Y-104210331D01*
X154799091Y-104075483D01*
X154805500Y-104015873D01*
X154805499Y-102570128D01*
X154799091Y-102510517D01*
X154773801Y-102442712D01*
X154748797Y-102375671D01*
X154748793Y-102375664D01*
X154662547Y-102260455D01*
X154577059Y-102196458D01*
X154535189Y-102140524D01*
X154530205Y-102070832D01*
X154551054Y-102024306D01*
X154634947Y-101908838D01*
X154718915Y-101744043D01*
X154718917Y-101744037D01*
X154776067Y-101568144D01*
X154780049Y-101543000D01*
X153945686Y-101543000D01*
X153950080Y-101538606D01*
X154002741Y-101447394D01*
X154030000Y-101345661D01*
X154030000Y-101240339D01*
X154002741Y-101138606D01*
X153950080Y-101047394D01*
X153945686Y-101043000D01*
X154780050Y-101043000D01*
X154780049Y-101042999D01*
X154776067Y-101017855D01*
X154718917Y-100841962D01*
X154718915Y-100841956D01*
X154634947Y-100677162D01*
X154526245Y-100527545D01*
X154526241Y-100527540D01*
X154395459Y-100396758D01*
X154395452Y-100396752D01*
X154391148Y-100393625D01*
X154348482Y-100338295D01*
X154342504Y-100268682D01*
X154375110Y-100206887D01*
X154391155Y-100192986D01*
X154395787Y-100189621D01*
X154526621Y-100058787D01*
X154635378Y-99909096D01*
X154719379Y-99744235D01*
X154776555Y-99568264D01*
X154805500Y-99385514D01*
X154805500Y-99200486D01*
X154776555Y-99017736D01*
X154730909Y-98877251D01*
X154719380Y-98841767D01*
X154719379Y-98841764D01*
X154643895Y-98693620D01*
X154635378Y-98676904D01*
X154526621Y-98527213D01*
X154395787Y-98396379D01*
X154391576Y-98393319D01*
X154348909Y-98337994D01*
X154342926Y-98268381D01*
X154375529Y-98206585D01*
X154391570Y-98192684D01*
X154395787Y-98189621D01*
X154526621Y-98058787D01*
X154635378Y-97909096D01*
X154719379Y-97744235D01*
X154776555Y-97568264D01*
X154805500Y-97385514D01*
X154805500Y-97200486D01*
X159141500Y-97200486D01*
X159141500Y-97385514D01*
X159155972Y-97476889D01*
X159170445Y-97568265D01*
X159227619Y-97744232D01*
X159227620Y-97744235D01*
X159262460Y-97812611D01*
X159311622Y-97909096D01*
X159420379Y-98058787D01*
X159551213Y-98189621D01*
X159555421Y-98192678D01*
X159555432Y-98192686D01*
X159598094Y-98248019D01*
X159604069Y-98317633D01*
X159571459Y-98379426D01*
X159555432Y-98393314D01*
X159551210Y-98396381D01*
X159420381Y-98527210D01*
X159420381Y-98527211D01*
X159420379Y-98527213D01*
X159404187Y-98549500D01*
X159311622Y-98676903D01*
X159227620Y-98841764D01*
X159227619Y-98841767D01*
X159170445Y-99017734D01*
X159141500Y-99200486D01*
X159141500Y-99385513D01*
X159170445Y-99568265D01*
X159227619Y-99744232D01*
X159227620Y-99744235D01*
X159273554Y-99834384D01*
X159311622Y-99909096D01*
X159420379Y-100058787D01*
X159551213Y-100189621D01*
X159555847Y-100192988D01*
X159598515Y-100248313D01*
X159604498Y-100317926D01*
X159571895Y-100379723D01*
X159555860Y-100393620D01*
X159551542Y-100396757D01*
X159551536Y-100396762D01*
X159420758Y-100527540D01*
X159420754Y-100527545D01*
X159312052Y-100677162D01*
X159228084Y-100841956D01*
X159228082Y-100841962D01*
X159170932Y-101017855D01*
X159166950Y-101042999D01*
X159166950Y-101043000D01*
X160001314Y-101043000D01*
X159996920Y-101047394D01*
X159944259Y-101138606D01*
X159917000Y-101240339D01*
X159917000Y-101345661D01*
X159944259Y-101447394D01*
X159996920Y-101538606D01*
X160001314Y-101543000D01*
X159166950Y-101543000D01*
X159170932Y-101568144D01*
X159228082Y-101744037D01*
X159228084Y-101744043D01*
X159312049Y-101908833D01*
X159395946Y-102024308D01*
X159419425Y-102090115D01*
X159403599Y-102158169D01*
X159369939Y-102196459D01*
X159284452Y-102260455D01*
X159198206Y-102375664D01*
X159198202Y-102375671D01*
X159147908Y-102510517D01*
X159141501Y-102570116D01*
X159141501Y-102570123D01*
X159141500Y-102570135D01*
X159141500Y-104015870D01*
X159141501Y-104015876D01*
X159147908Y-104075483D01*
X159198202Y-104210328D01*
X159198206Y-104210335D01*
X159284452Y-104325544D01*
X159284455Y-104325547D01*
X159399664Y-104411793D01*
X159399671Y-104411797D01*
X159534517Y-104462091D01*
X159534516Y-104462091D01*
X159541444Y-104462835D01*
X159594127Y-104468500D01*
X161039872Y-104468499D01*
X161099483Y-104462091D01*
X161234331Y-104411796D01*
X161349546Y-104325546D01*
X161435796Y-104210331D01*
X161486091Y-104075483D01*
X161492500Y-104015873D01*
X161492499Y-102570128D01*
X161486091Y-102510517D01*
X161460801Y-102442712D01*
X161435797Y-102375671D01*
X161435793Y-102375664D01*
X161349547Y-102260455D01*
X161264059Y-102196458D01*
X161222189Y-102140524D01*
X161217205Y-102070832D01*
X161238054Y-102024306D01*
X161321947Y-101908838D01*
X161405915Y-101744043D01*
X161405917Y-101744037D01*
X161463067Y-101568144D01*
X161467049Y-101543000D01*
X160632686Y-101543000D01*
X160637080Y-101538606D01*
X160689741Y-101447394D01*
X160717000Y-101345661D01*
X160717000Y-101240339D01*
X160689741Y-101138606D01*
X160637080Y-101047394D01*
X160632686Y-101043000D01*
X161467050Y-101043000D01*
X161467049Y-101042999D01*
X161463067Y-101017855D01*
X161405917Y-100841962D01*
X161405915Y-100841956D01*
X161321947Y-100677162D01*
X161213245Y-100527545D01*
X161213241Y-100527540D01*
X161082459Y-100396758D01*
X161082452Y-100396752D01*
X161078148Y-100393625D01*
X161035482Y-100338295D01*
X161029504Y-100268682D01*
X161062110Y-100206887D01*
X161078155Y-100192986D01*
X161082787Y-100189621D01*
X161213621Y-100058787D01*
X161322378Y-99909096D01*
X161406379Y-99744235D01*
X161463555Y-99568264D01*
X161492500Y-99385514D01*
X161492500Y-99200486D01*
X161463555Y-99017736D01*
X161417909Y-98877251D01*
X161406380Y-98841767D01*
X161406379Y-98841764D01*
X161330895Y-98693620D01*
X161322378Y-98676904D01*
X161213621Y-98527213D01*
X161082787Y-98396379D01*
X161078576Y-98393319D01*
X161035909Y-98337994D01*
X161029926Y-98268381D01*
X161062529Y-98206585D01*
X161078570Y-98192684D01*
X161082787Y-98189621D01*
X161213621Y-98058787D01*
X161322378Y-97909096D01*
X161406379Y-97744235D01*
X161463555Y-97568264D01*
X161492500Y-97385514D01*
X161492500Y-97200486D01*
X161463555Y-97017736D01*
X161406379Y-96841765D01*
X161406379Y-96841764D01*
X161337156Y-96705908D01*
X161322378Y-96676904D01*
X161213621Y-96527213D01*
X161082787Y-96396379D01*
X160933096Y-96287622D01*
X160913574Y-96277675D01*
X160768235Y-96203620D01*
X160768232Y-96203619D01*
X160592265Y-96146445D01*
X160500889Y-96131972D01*
X160409514Y-96117500D01*
X160224486Y-96117500D01*
X160163569Y-96127148D01*
X160041734Y-96146445D01*
X159865767Y-96203619D01*
X159865764Y-96203620D01*
X159700903Y-96287622D01*
X159615499Y-96349672D01*
X159551213Y-96396379D01*
X159551211Y-96396381D01*
X159551210Y-96396381D01*
X159420381Y-96527210D01*
X159420381Y-96527211D01*
X159420379Y-96527213D01*
X159403651Y-96550237D01*
X159311622Y-96676903D01*
X159227620Y-96841764D01*
X159227619Y-96841767D01*
X159170445Y-97017734D01*
X159156404Y-97106384D01*
X159141500Y-97200486D01*
X154805500Y-97200486D01*
X154776555Y-97017736D01*
X154719379Y-96841765D01*
X154719379Y-96841764D01*
X154650156Y-96705908D01*
X154635378Y-96676904D01*
X154526621Y-96527213D01*
X154395787Y-96396379D01*
X154246096Y-96287622D01*
X154226574Y-96277675D01*
X154081235Y-96203620D01*
X154081232Y-96203619D01*
X153905265Y-96146445D01*
X153813889Y-96131972D01*
X153722514Y-96117500D01*
X153537486Y-96117500D01*
X153476569Y-96127148D01*
X153354734Y-96146445D01*
X153178767Y-96203619D01*
X153178764Y-96203620D01*
X153013903Y-96287622D01*
X152928499Y-96349672D01*
X152864213Y-96396379D01*
X152864211Y-96396381D01*
X152864210Y-96396381D01*
X152733381Y-96527210D01*
X152733381Y-96527211D01*
X152733379Y-96527213D01*
X152716651Y-96550237D01*
X152624622Y-96676903D01*
X152540620Y-96841764D01*
X152540619Y-96841767D01*
X152483445Y-97017734D01*
X152469404Y-97106384D01*
X152454500Y-97200486D01*
X142114299Y-97200486D01*
X142050237Y-97157681D01*
X142050228Y-97157676D01*
X141877251Y-97086027D01*
X141877243Y-97086025D01*
X141693620Y-97049500D01*
X141693616Y-97049500D01*
X141506384Y-97049500D01*
X141506379Y-97049500D01*
X141322756Y-97086025D01*
X141322748Y-97086027D01*
X141149771Y-97157676D01*
X141149762Y-97157681D01*
X140994092Y-97261697D01*
X140994088Y-97261700D01*
X140861700Y-97394088D01*
X140861697Y-97394092D01*
X140803102Y-97481786D01*
X140749490Y-97526591D01*
X140680165Y-97535298D01*
X140617137Y-97505143D01*
X140596898Y-97481786D01*
X140538302Y-97394092D01*
X140538299Y-97394088D01*
X140405911Y-97261700D01*
X140405907Y-97261697D01*
X140250237Y-97157681D01*
X140250228Y-97157676D01*
X140077251Y-97086027D01*
X140077243Y-97086025D01*
X139893620Y-97049500D01*
X139893616Y-97049500D01*
X139706384Y-97049500D01*
X139706379Y-97049500D01*
X139522756Y-97086025D01*
X139522748Y-97086027D01*
X139349771Y-97157676D01*
X139349762Y-97157681D01*
X139194092Y-97261697D01*
X139194088Y-97261700D01*
X139061700Y-97394088D01*
X139061697Y-97394092D01*
X138957681Y-97549762D01*
X138957676Y-97549771D01*
X138886027Y-97722748D01*
X138886025Y-97722756D01*
X138849500Y-97906379D01*
X133237831Y-97906379D01*
X133331600Y-97812611D01*
X133338299Y-97805911D01*
X133338302Y-97805908D01*
X133442322Y-97650231D01*
X133513973Y-97477251D01*
X133550500Y-97293616D01*
X133550500Y-97106384D01*
X133513973Y-96922749D01*
X133442322Y-96749769D01*
X133442321Y-96749768D01*
X133442318Y-96749762D01*
X133338302Y-96594092D01*
X133338299Y-96594088D01*
X133205911Y-96461700D01*
X133205907Y-96461697D01*
X133050237Y-96357681D01*
X133050228Y-96357676D01*
X132877251Y-96286027D01*
X132877243Y-96286025D01*
X132693620Y-96249500D01*
X132693616Y-96249500D01*
X132506384Y-96249500D01*
X132506379Y-96249500D01*
X132322756Y-96286025D01*
X132322748Y-96286027D01*
X132149771Y-96357676D01*
X132149762Y-96357681D01*
X131994092Y-96461697D01*
X131994088Y-96461700D01*
X131861700Y-96594088D01*
X131861697Y-96594092D01*
X131757681Y-96749762D01*
X131757676Y-96749771D01*
X131686027Y-96922748D01*
X131686025Y-96922756D01*
X131649500Y-97106379D01*
X123715831Y-97106379D01*
X123717302Y-97104908D01*
X123753657Y-97050499D01*
X123766418Y-97031401D01*
X123821318Y-96949237D01*
X123821318Y-96949236D01*
X123821322Y-96949231D01*
X123892973Y-96776251D01*
X123929500Y-96592616D01*
X123929500Y-96405384D01*
X123892973Y-96221749D01*
X123837554Y-96087956D01*
X123821323Y-96048771D01*
X123821318Y-96048762D01*
X123792998Y-96006379D01*
X150149500Y-96006379D01*
X150149500Y-96193620D01*
X150186025Y-96377243D01*
X150186027Y-96377251D01*
X150257676Y-96550228D01*
X150257681Y-96550237D01*
X150361697Y-96705907D01*
X150361700Y-96705911D01*
X150494088Y-96838299D01*
X150494092Y-96838302D01*
X150649762Y-96942318D01*
X150649771Y-96942323D01*
X150666463Y-96949237D01*
X150822749Y-97013973D01*
X151000733Y-97049376D01*
X151006379Y-97050499D01*
X151006383Y-97050500D01*
X151006384Y-97050500D01*
X151193617Y-97050500D01*
X151193618Y-97050499D01*
X151377251Y-97013973D01*
X151550231Y-96942322D01*
X151705908Y-96838302D01*
X151838302Y-96705908D01*
X151942322Y-96550231D01*
X152013973Y-96377251D01*
X152050500Y-96193616D01*
X152050500Y-96006384D01*
X152013973Y-95822749D01*
X151942322Y-95649769D01*
X151942321Y-95649768D01*
X151942318Y-95649762D01*
X151838302Y-95494092D01*
X151838299Y-95494088D01*
X151705911Y-95361700D01*
X151705907Y-95361697D01*
X151550237Y-95257681D01*
X151550228Y-95257676D01*
X151377251Y-95186027D01*
X151377243Y-95186025D01*
X151193620Y-95149500D01*
X151193616Y-95149500D01*
X151006384Y-95149500D01*
X151006379Y-95149500D01*
X150822756Y-95186025D01*
X150822748Y-95186027D01*
X150649771Y-95257676D01*
X150649762Y-95257681D01*
X150494092Y-95361697D01*
X150494088Y-95361700D01*
X150361700Y-95494088D01*
X150361697Y-95494092D01*
X150257681Y-95649762D01*
X150257676Y-95649771D01*
X150186027Y-95822748D01*
X150186025Y-95822756D01*
X150149500Y-96006379D01*
X123792998Y-96006379D01*
X123717302Y-95893092D01*
X123717299Y-95893088D01*
X123584911Y-95760700D01*
X123584907Y-95760697D01*
X123429237Y-95656681D01*
X123429228Y-95656676D01*
X123256251Y-95585027D01*
X123256243Y-95585025D01*
X123072620Y-95548500D01*
X123072616Y-95548500D01*
X122885384Y-95548500D01*
X122885379Y-95548500D01*
X122701756Y-95585025D01*
X122701748Y-95585027D01*
X122528771Y-95656676D01*
X122528762Y-95656681D01*
X122373092Y-95760697D01*
X122373088Y-95760700D01*
X122240700Y-95893088D01*
X122240697Y-95893092D01*
X122136681Y-96048762D01*
X122136676Y-96048771D01*
X122065027Y-96221748D01*
X122065025Y-96221756D01*
X122028500Y-96405379D01*
X108231490Y-96405379D01*
X108242659Y-96396213D01*
X108242659Y-96396212D01*
X106819106Y-94972659D01*
X106927184Y-94894136D01*
X107094136Y-94727184D01*
X107172659Y-94619106D01*
X108596212Y-96042659D01*
X108596213Y-96042659D01*
X108764612Y-95837466D01*
X108764622Y-95837453D01*
X108955666Y-95551536D01*
X108955677Y-95551518D01*
X109117773Y-95248255D01*
X109117780Y-95248241D01*
X109249377Y-94930537D01*
X109342765Y-94622680D01*
X109355929Y-94602592D01*
X109365216Y-94580447D01*
X109374732Y-94573901D01*
X109381063Y-94564241D01*
X109402994Y-94554461D01*
X109422782Y-94540850D01*
X109434328Y-94540488D01*
X109444875Y-94535785D01*
X109468611Y-94539414D01*
X109492617Y-94538662D01*
X109502525Y-94544599D01*
X109513942Y-94546345D01*
X109531950Y-94562232D01*
X109552550Y-94574577D01*
X109561105Y-94587954D01*
X109566336Y-94592569D01*
X109572552Y-94603656D01*
X109574393Y-94607374D01*
X109607678Y-94687731D01*
X109632773Y-94725288D01*
X109636334Y-94732481D01*
X109641051Y-94759302D01*
X109649188Y-94785287D01*
X109647015Y-94793206D01*
X109648438Y-94801294D01*
X109637907Y-94826406D01*
X109630703Y-94852667D01*
X109628310Y-94856391D01*
X109607677Y-94887269D01*
X109536027Y-95060248D01*
X109536025Y-95060256D01*
X109499500Y-95243879D01*
X109499500Y-95431120D01*
X109536025Y-95614743D01*
X109536027Y-95614751D01*
X109607676Y-95787728D01*
X109607681Y-95787737D01*
X109711697Y-95943407D01*
X109711700Y-95943411D01*
X109844088Y-96075799D01*
X109844092Y-96075802D01*
X109999762Y-96179818D01*
X109999771Y-96179823D01*
X110033073Y-96193617D01*
X110172749Y-96251473D01*
X110346455Y-96286025D01*
X110356379Y-96287999D01*
X110356383Y-96288000D01*
X110356384Y-96288000D01*
X110543617Y-96288000D01*
X110543618Y-96287999D01*
X110559492Y-96284842D01*
X110595526Y-96277675D01*
X110653436Y-96266155D01*
X110727251Y-96251473D01*
X110900231Y-96179822D01*
X111055908Y-96075802D01*
X111188302Y-95943408D01*
X111292322Y-95787731D01*
X111363973Y-95614751D01*
X111400500Y-95431116D01*
X111400500Y-95243884D01*
X111363973Y-95060249D01*
X111292322Y-94887269D01*
X111271689Y-94856390D01*
X111250811Y-94789715D01*
X111269295Y-94722334D01*
X111271690Y-94718608D01*
X111292322Y-94687731D01*
X111363973Y-94514751D01*
X111366832Y-94500379D01*
X120631500Y-94500379D01*
X120631500Y-94687620D01*
X120668025Y-94871243D01*
X120668027Y-94871251D01*
X120739676Y-95044228D01*
X120739681Y-95044237D01*
X120843697Y-95199907D01*
X120843700Y-95199911D01*
X120976088Y-95332299D01*
X120976092Y-95332302D01*
X121131762Y-95436318D01*
X121131768Y-95436321D01*
X121131769Y-95436322D01*
X121304749Y-95507973D01*
X121488379Y-95544499D01*
X121488383Y-95544500D01*
X121488384Y-95544500D01*
X121675617Y-95544500D01*
X121675618Y-95544499D01*
X121859251Y-95507973D01*
X122032231Y-95436322D01*
X122187908Y-95332302D01*
X122320302Y-95199908D01*
X122424322Y-95044231D01*
X122491778Y-94881379D01*
X131553500Y-94881379D01*
X131553500Y-95068620D01*
X131590025Y-95252243D01*
X131590027Y-95252251D01*
X131661676Y-95425228D01*
X131661681Y-95425237D01*
X131765697Y-95580907D01*
X131765700Y-95580911D01*
X131898088Y-95713299D01*
X131898092Y-95713302D01*
X132053762Y-95817318D01*
X132053771Y-95817323D01*
X132092956Y-95833554D01*
X132226749Y-95888973D01*
X132410379Y-95925499D01*
X132410383Y-95925500D01*
X132410384Y-95925500D01*
X132597617Y-95925500D01*
X132597618Y-95925499D01*
X132781251Y-95888973D01*
X132954231Y-95817322D01*
X133109908Y-95713302D01*
X133242302Y-95580908D01*
X133346322Y-95425231D01*
X133417973Y-95252251D01*
X133454500Y-95068616D01*
X133454500Y-94881384D01*
X133417973Y-94697749D01*
X133346322Y-94524769D01*
X133346321Y-94524768D01*
X133346318Y-94524762D01*
X133242302Y-94369092D01*
X133242299Y-94369088D01*
X133109911Y-94236700D01*
X133109907Y-94236697D01*
X133060066Y-94203394D01*
X132954237Y-94132681D01*
X132954228Y-94132676D01*
X132890741Y-94106379D01*
X142649500Y-94106379D01*
X142649500Y-94293620D01*
X142686025Y-94477243D01*
X142686027Y-94477251D01*
X142757676Y-94650228D01*
X142757681Y-94650237D01*
X142861697Y-94805907D01*
X142861700Y-94805911D01*
X142994088Y-94938299D01*
X142994092Y-94938302D01*
X143149762Y-95042318D01*
X143149771Y-95042323D01*
X143154392Y-95044237D01*
X143322749Y-95113973D01*
X143501357Y-95149500D01*
X143506379Y-95150499D01*
X143506383Y-95150500D01*
X143506384Y-95150500D01*
X143693617Y-95150500D01*
X143693618Y-95150499D01*
X143877251Y-95113973D01*
X144050231Y-95042322D01*
X144205908Y-94938302D01*
X144338302Y-94805908D01*
X144442322Y-94650231D01*
X144513973Y-94477251D01*
X144550500Y-94293616D01*
X144550500Y-94106384D01*
X144513973Y-93922749D01*
X144442322Y-93749769D01*
X144442321Y-93749768D01*
X144442318Y-93749762D01*
X144338302Y-93594092D01*
X144338299Y-93594088D01*
X144205910Y-93461699D01*
X144194978Y-93454395D01*
X144194977Y-93454394D01*
X144050237Y-93357681D01*
X144050228Y-93357676D01*
X144049511Y-93357379D01*
X148444500Y-93357379D01*
X148444500Y-93544620D01*
X148481025Y-93728243D01*
X148481027Y-93728251D01*
X148552676Y-93901228D01*
X148552681Y-93901237D01*
X148656697Y-94056907D01*
X148656700Y-94056911D01*
X148789088Y-94189299D01*
X148789092Y-94189302D01*
X148944762Y-94293318D01*
X148944771Y-94293323D01*
X148945481Y-94293617D01*
X149117749Y-94364973D01*
X149301379Y-94401499D01*
X149301383Y-94401500D01*
X149301384Y-94401500D01*
X149488617Y-94401500D01*
X149488618Y-94401499D01*
X149672251Y-94364973D01*
X149845231Y-94293322D01*
X150000908Y-94189302D01*
X150133302Y-94056908D01*
X150237322Y-93901231D01*
X150308973Y-93728251D01*
X150345500Y-93544616D01*
X150345500Y-93357384D01*
X150308973Y-93173749D01*
X150253554Y-93039956D01*
X150237323Y-93000771D01*
X150237318Y-93000762D01*
X150133302Y-92845092D01*
X150133299Y-92845088D01*
X150000911Y-92712700D01*
X150000907Y-92712697D01*
X149845237Y-92608681D01*
X149845228Y-92608676D01*
X149672251Y-92537027D01*
X149672243Y-92537025D01*
X149488620Y-92500500D01*
X149488616Y-92500500D01*
X149301384Y-92500500D01*
X149301379Y-92500500D01*
X149117756Y-92537025D01*
X149117748Y-92537027D01*
X148944771Y-92608676D01*
X148944762Y-92608681D01*
X148789092Y-92712697D01*
X148789088Y-92712700D01*
X148656700Y-92845088D01*
X148656697Y-92845092D01*
X148552681Y-93000762D01*
X148552676Y-93000771D01*
X148481027Y-93173748D01*
X148481025Y-93173756D01*
X148444500Y-93357379D01*
X144049511Y-93357379D01*
X143877251Y-93286027D01*
X143877243Y-93286025D01*
X143693620Y-93249500D01*
X143693616Y-93249500D01*
X143506384Y-93249500D01*
X143506379Y-93249500D01*
X143322756Y-93286025D01*
X143322748Y-93286027D01*
X143149771Y-93357676D01*
X143149762Y-93357681D01*
X142994092Y-93461697D01*
X142994088Y-93461700D01*
X142861700Y-93594088D01*
X142861697Y-93594092D01*
X142757681Y-93749762D01*
X142757676Y-93749771D01*
X142686027Y-93922748D01*
X142686025Y-93922756D01*
X142649500Y-94106379D01*
X132890741Y-94106379D01*
X132781251Y-94061027D01*
X132781243Y-94061025D01*
X132597620Y-94024500D01*
X132597616Y-94024500D01*
X132410384Y-94024500D01*
X132410379Y-94024500D01*
X132226756Y-94061025D01*
X132226748Y-94061027D01*
X132053771Y-94132676D01*
X132053762Y-94132681D01*
X131898092Y-94236697D01*
X131898088Y-94236700D01*
X131765700Y-94369088D01*
X131765697Y-94369092D01*
X131661681Y-94524762D01*
X131661676Y-94524771D01*
X131590027Y-94697748D01*
X131590025Y-94697756D01*
X131553500Y-94881379D01*
X122491778Y-94881379D01*
X122495973Y-94871251D01*
X122499670Y-94852667D01*
X122499982Y-94851099D01*
X122499982Y-94851097D01*
X122530484Y-94697749D01*
X122532500Y-94687616D01*
X122532500Y-94500384D01*
X122495973Y-94316749D01*
X122424322Y-94143769D01*
X122424321Y-94143768D01*
X122424318Y-94143762D01*
X122320302Y-93988092D01*
X122320299Y-93988088D01*
X122187911Y-93855700D01*
X122187907Y-93855697D01*
X122032237Y-93751681D01*
X122032228Y-93751676D01*
X121859251Y-93680027D01*
X121859243Y-93680025D01*
X121675620Y-93643500D01*
X121675616Y-93643500D01*
X121488384Y-93643500D01*
X121488379Y-93643500D01*
X121304756Y-93680025D01*
X121304748Y-93680027D01*
X121131771Y-93751676D01*
X121131762Y-93751681D01*
X120976092Y-93855697D01*
X120976088Y-93855700D01*
X120843700Y-93988088D01*
X120843697Y-93988092D01*
X120739681Y-94143762D01*
X120739676Y-94143771D01*
X120668027Y-94316748D01*
X120668025Y-94316756D01*
X120631500Y-94500379D01*
X111366832Y-94500379D01*
X111368277Y-94493113D01*
X111372855Y-94470101D01*
X111400499Y-94331120D01*
X111400500Y-94331117D01*
X111400500Y-94143883D01*
X111400499Y-94143879D01*
X111383200Y-94056911D01*
X111363973Y-93960249D01*
X111292322Y-93787269D01*
X111288393Y-93781389D01*
X111267516Y-93714714D01*
X111286000Y-93647334D01*
X111288394Y-93643609D01*
X111288467Y-93643500D01*
X111292322Y-93637731D01*
X111363973Y-93464751D01*
X111400500Y-93281116D01*
X111400500Y-93093884D01*
X111363973Y-92910249D01*
X111292322Y-92737269D01*
X111292321Y-92737268D01*
X111292318Y-92737262D01*
X111188302Y-92581592D01*
X111188299Y-92581588D01*
X111055911Y-92449200D01*
X111055907Y-92449197D01*
X110900237Y-92345181D01*
X110900228Y-92345176D01*
X110727251Y-92273527D01*
X110727243Y-92273525D01*
X110543620Y-92237000D01*
X110543616Y-92237000D01*
X110356384Y-92237000D01*
X110356379Y-92237000D01*
X110172756Y-92273525D01*
X110172748Y-92273527D01*
X109999771Y-92345176D01*
X109999762Y-92345181D01*
X109844092Y-92449197D01*
X109844088Y-92449200D01*
X109711700Y-92581588D01*
X109711697Y-92581592D01*
X109607681Y-92737262D01*
X109607678Y-92737268D01*
X109562853Y-92845484D01*
X109519011Y-92899887D01*
X109452717Y-92921951D01*
X109385018Y-92904671D01*
X109337408Y-92853534D01*
X109329631Y-92834025D01*
X109249377Y-92569462D01*
X109117780Y-92251758D01*
X109117773Y-92251744D01*
X108990027Y-92012745D01*
X108962037Y-91960379D01*
X122282500Y-91960379D01*
X122282500Y-92147620D01*
X122319025Y-92331243D01*
X122319027Y-92331251D01*
X122390676Y-92504228D01*
X122390681Y-92504237D01*
X122494697Y-92659907D01*
X122494700Y-92659911D01*
X122627088Y-92792299D01*
X122627092Y-92792302D01*
X122782762Y-92896318D01*
X122782771Y-92896323D01*
X122802925Y-92904671D01*
X122955749Y-92967973D01*
X123120592Y-93000762D01*
X123139379Y-93004499D01*
X123139383Y-93004500D01*
X123139384Y-93004500D01*
X123326617Y-93004500D01*
X123326618Y-93004499D01*
X123510251Y-92967973D01*
X123683231Y-92896322D01*
X123838908Y-92792302D01*
X123971302Y-92659908D01*
X124075322Y-92504231D01*
X124146973Y-92331251D01*
X124183500Y-92147616D01*
X124183500Y-91960384D01*
X124146973Y-91776749D01*
X124075322Y-91603769D01*
X124075321Y-91603768D01*
X124075318Y-91603762D01*
X123971302Y-91448092D01*
X123971299Y-91448088D01*
X123838911Y-91315700D01*
X123838907Y-91315697D01*
X123683237Y-91211681D01*
X123683228Y-91211676D01*
X123510251Y-91140027D01*
X123510243Y-91140025D01*
X123326620Y-91103500D01*
X123326616Y-91103500D01*
X123139384Y-91103500D01*
X123139379Y-91103500D01*
X122955756Y-91140025D01*
X122955748Y-91140027D01*
X122782771Y-91211676D01*
X122782762Y-91211681D01*
X122627092Y-91315697D01*
X122627088Y-91315700D01*
X122494700Y-91448088D01*
X122494697Y-91448092D01*
X122390681Y-91603762D01*
X122390676Y-91603771D01*
X122319027Y-91776748D01*
X122319025Y-91776756D01*
X122282500Y-91960379D01*
X108962037Y-91960379D01*
X108955677Y-91948481D01*
X108955666Y-91948463D01*
X108764622Y-91662546D01*
X108764612Y-91662533D01*
X108596213Y-91457339D01*
X108596212Y-91457338D01*
X107172658Y-92880892D01*
X107094136Y-92772816D01*
X106927184Y-92605864D01*
X106819105Y-92527340D01*
X108242660Y-91103786D01*
X108242659Y-91103785D01*
X108037467Y-90935387D01*
X108037453Y-90935377D01*
X107751536Y-90744333D01*
X107751518Y-90744322D01*
X107448255Y-90582226D01*
X107448241Y-90582219D01*
X107344047Y-90539061D01*
X107289644Y-90495220D01*
X107267579Y-90428926D01*
X107284858Y-90361227D01*
X107335995Y-90313616D01*
X107391500Y-90300500D01*
X127871500Y-90300500D01*
X127938539Y-90320185D01*
G37*
%TD.AperFunction*%
%TD*%
M02*
