%TF.GenerationSoftware,KiCad,Pcbnew,9.0.1-9.0.1-0~ubuntu24.04.1*%
%TF.CreationDate,2025-04-26T21:29:35+02:00*%
%TF.ProjectId,meshtastic,6d657368-7461-4737-9469-632e6b696361,rev?*%
%TF.SameCoordinates,Original*%
%TF.FileFunction,Copper,L4,Bot*%
%TF.FilePolarity,Positive*%
%FSLAX46Y46*%
G04 Gerber Fmt 4.6, Leading zero omitted, Abs format (unit mm)*
G04 Created by KiCad (PCBNEW 9.0.1-9.0.1-0~ubuntu24.04.1) date 2025-04-26 21:29:35*
%MOMM*%
%LPD*%
G01*
G04 APERTURE LIST*
G04 Aperture macros list*
%AMRoundRect*
0 Rectangle with rounded corners*
0 $1 Rounding radius*
0 $2 $3 $4 $5 $6 $7 $8 $9 X,Y pos of 4 corners*
0 Add a 4 corners polygon primitive as box body*
4,1,4,$2,$3,$4,$5,$6,$7,$8,$9,$2,$3,0*
0 Add four circle primitives for the rounded corners*
1,1,$1+$1,$2,$3*
1,1,$1+$1,$4,$5*
1,1,$1+$1,$6,$7*
1,1,$1+$1,$8,$9*
0 Add four rect primitives between the rounded corners*
20,1,$1+$1,$2,$3,$4,$5,0*
20,1,$1+$1,$4,$5,$6,$7,0*
20,1,$1+$1,$6,$7,$8,$9,0*
20,1,$1+$1,$8,$9,$2,$3,0*%
G04 Aperture macros list end*
%TA.AperFunction,ComponentPad*%
%ADD10C,0.800000*%
%TD*%
%TA.AperFunction,ComponentPad*%
%ADD11C,6.000000*%
%TD*%
%TA.AperFunction,ComponentPad*%
%ADD12R,1.350000X1.350000*%
%TD*%
%TA.AperFunction,ComponentPad*%
%ADD13O,1.350000X1.350000*%
%TD*%
%TA.AperFunction,ComponentPad*%
%ADD14RoundRect,0.250000X-0.750000X0.600000X-0.750000X-0.600000X0.750000X-0.600000X0.750000X0.600000X0*%
%TD*%
%TA.AperFunction,ComponentPad*%
%ADD15O,2.000000X1.700000*%
%TD*%
%TA.AperFunction,ComponentPad*%
%ADD16R,1.700000X1.700000*%
%TD*%
%TA.AperFunction,ComponentPad*%
%ADD17O,1.700000X1.700000*%
%TD*%
%TA.AperFunction,ViaPad*%
%ADD18C,0.900000*%
%TD*%
%TA.AperFunction,ViaPad*%
%ADD19C,0.700000*%
%TD*%
%TA.AperFunction,Conductor*%
%ADD20C,0.200000*%
%TD*%
%TA.AperFunction,Conductor*%
%ADD21C,0.300000*%
%TD*%
%TA.AperFunction,Conductor*%
%ADD22C,1.000000*%
%TD*%
G04 APERTURE END LIST*
D10*
%TO.P,H3,1,1*%
%TO.N,GND*%
X103700000Y-110600000D03*
X104359010Y-109009010D03*
X104359010Y-112190990D03*
X105950000Y-108350000D03*
D11*
X105950000Y-110600000D03*
D10*
X105950000Y-112850000D03*
X107540990Y-109009010D03*
X107540990Y-112190990D03*
X108200000Y-110600000D03*
%TD*%
D12*
%TO.P,S0,1,Pin_1*%
%TO.N,+3V3*%
X153630000Y-103293000D03*
D13*
%TO.P,S0,2,Pin_2*%
%TO.N,GND*%
X153630000Y-101293000D03*
%TO.P,S0,3,Pin_3*%
%TO.N,FLP_I2C_SDA*%
X153630000Y-99293000D03*
%TO.P,S0,4,Pin_4*%
%TO.N,FLP_I2C_SCL*%
X153630000Y-97293000D03*
%TD*%
D10*
%TO.P,H2,1,1*%
%TO.N,GND*%
X173350000Y-110600000D03*
X174009010Y-109009010D03*
X174009010Y-112190990D03*
X175600000Y-108350000D03*
D11*
X175600000Y-110600000D03*
D10*
X175600000Y-112850000D03*
X177190990Y-109009010D03*
X177190990Y-112190990D03*
X177850000Y-110600000D03*
%TD*%
D12*
%TO.P,S1,1,Pin_1*%
%TO.N,+3V3*%
X160317000Y-103293000D03*
D13*
%TO.P,S1,2,Pin_2*%
%TO.N,GND*%
X160317000Y-101293000D03*
%TO.P,S1,3,Pin_3*%
%TO.N,FLP_I2C_SDA*%
X160317000Y-99293000D03*
%TO.P,S1,4,Pin_4*%
%TO.N,FLP_I2C_SCL*%
X160317000Y-97293000D03*
%TD*%
D10*
%TO.P,H4,1,1*%
%TO.N,GND*%
X103700000Y-93750000D03*
X104359010Y-92159010D03*
X104359010Y-95340990D03*
X105950000Y-91500000D03*
D11*
X105950000Y-93750000D03*
D10*
X105950000Y-96000000D03*
X107540990Y-92159010D03*
X107540990Y-95340990D03*
X108200000Y-93750000D03*
%TD*%
D14*
%TO.P,J1,1,Pin_1*%
%TO.N,+BATT*%
X105300000Y-101250000D03*
D15*
%TO.P,J1,2,Pin_2*%
%TO.N,-BATT*%
X105300000Y-103750000D03*
%TD*%
D10*
%TO.P,H1,1,1*%
%TO.N,GND*%
X173350000Y-93750000D03*
X174009010Y-92159010D03*
X174009010Y-95340990D03*
X175600000Y-91500000D03*
D11*
X175600000Y-93750000D03*
D10*
X175600000Y-96000000D03*
X177190990Y-92159010D03*
X177190990Y-95340990D03*
X177850000Y-93750000D03*
%TD*%
D16*
%TO.P,J2,1,Pin_1*%
%TO.N,unconnected-(J2-Pin_1-Pad1)*%
X147180000Y-112825000D03*
D17*
%TO.P,J2,2,Pin_2*%
%TO.N,FLP_PA14*%
X149720000Y-112825000D03*
%TO.P,J2,3,Pin_3*%
%TO.N,GND*%
X152260000Y-112825000D03*
%TO.P,J2,4,Pin_4*%
%TO.N,FLP_PA13*%
X154800000Y-112825000D03*
%TO.P,J2,5,Pin_5*%
%TO.N,FLP_TX*%
X157340000Y-112825000D03*
%TO.P,J2,6,Pin_6*%
%TO.N,FLP_RX*%
X159880000Y-112825000D03*
%TO.P,J2,7,Pin_7*%
%TO.N,FLP_I2C_SDA*%
X162420000Y-112825000D03*
%TO.P,J2,8,Pin_8*%
%TO.N,FLP_I2C_SCL*%
X164960000Y-112825000D03*
%TO.P,J2,9,Pin_9*%
%TO.N,FLP_PB14*%
X167500000Y-112825000D03*
%TO.P,J2,10,Pin_10*%
%TO.N,GND*%
X170040000Y-112825000D03*
%TD*%
D16*
%TO.P,J3,1,Pin_1*%
%TO.N,FLP_5V*%
X111620000Y-112825000D03*
D17*
%TO.P,J3,2,Pin_2*%
%TO.N,unconnected-(J3-Pin_2-Pad2)*%
X114160000Y-112825000D03*
%TO.P,J3,3,Pin_3*%
%TO.N,unconnected-(J3-Pin_3-Pad3)*%
X116700000Y-112825000D03*
%TO.P,J3,4,Pin_4*%
%TO.N,unconnected-(J3-Pin_4-Pad4)*%
X119240000Y-112825000D03*
%TO.P,J3,5,Pin_5*%
%TO.N,unconnected-(J3-Pin_5-Pad5)*%
X121780000Y-112825000D03*
%TO.P,J3,6,Pin_6*%
%TO.N,FLP_RTS*%
X124320000Y-112825000D03*
%TO.P,J3,7,Pin_7*%
%TO.N,FLP_DTR*%
X126860000Y-112825000D03*
%TO.P,J3,8,Pin_8*%
%TO.N,GND*%
X129400000Y-112825000D03*
%TD*%
D18*
%TO.N,GND*%
X161150000Y-110793000D03*
%TO.N,FLP_DTR*%
X141140000Y-103611000D03*
%TO.N,GND*%
X115700000Y-92100000D03*
X133665000Y-106260000D03*
X112350000Y-93237500D03*
X141902000Y-95610000D03*
X142410000Y-106532000D03*
X121709000Y-101325000D03*
X123900000Y-108200000D03*
X123360000Y-93832000D03*
D19*
X133901000Y-100436000D03*
D18*
X108300000Y-97600000D03*
X150792000Y-91673000D03*
X103400000Y-105900000D03*
X156070000Y-109269000D03*
X118534000Y-105262000D03*
X113816667Y-108200000D03*
X163492000Y-97515000D03*
X112650000Y-108200000D03*
X112350000Y-95337500D03*
X117010000Y-96626000D03*
X112350000Y-94287500D03*
X148704000Y-107548000D03*
X121201000Y-92054000D03*
X150157000Y-102849000D03*
X137300000Y-97600000D03*
X103400000Y-99100000D03*
X114983333Y-108200000D03*
X116150000Y-108200000D03*
%TO.N,+BATT*%
X141600000Y-98000000D03*
X139800000Y-98000000D03*
%TO.N,+3V3*%
X123233000Y-92054000D03*
X151100000Y-98600000D03*
X151100000Y-96100000D03*
X110450000Y-95337500D03*
X114978000Y-105897000D03*
X110450000Y-93187500D03*
X110450000Y-94237500D03*
%TO.N,LORA_NSS*%
X121582000Y-94594000D03*
X132504000Y-94975000D03*
%TO.N,LORA_RST*%
X122979000Y-96499000D03*
X132600000Y-97200000D03*
%TO.N,LORA_BUSY*%
X122598000Y-105516000D03*
X134790000Y-105389000D03*
%TO.N,LORA_DIO1*%
X122580500Y-106930500D03*
X133700000Y-108000000D03*
%TO.N,LORA_RF_SW*%
X126350000Y-101150000D03*
X132377000Y-101198000D03*
%TO.N,FLP_I2C_SCL*%
X115000000Y-103800000D03*
X143934000Y-99928000D03*
%TO.N,FLP_RX*%
X149395000Y-93451000D03*
%TO.N,FLP_I2C_SDA*%
X148600000Y-99500000D03*
X115232000Y-102087000D03*
%TO.N,FLP_TX*%
X143600000Y-94200000D03*
%TO.N,FLP_PB14*%
X159779108Y-108053061D03*
%TD*%
D20*
%TO.N,FLP_I2C_SDA*%
X115232000Y-102087000D02*
X116248000Y-103103000D01*
X133012000Y-103103000D02*
X135044000Y-101071000D01*
X116248000Y-103103000D02*
X133012000Y-103103000D01*
X135044000Y-101071000D02*
X141648000Y-101071000D01*
X148209000Y-99109000D02*
X148600000Y-99500000D01*
X141648000Y-101071000D02*
X143610000Y-99109000D01*
X143610000Y-99109000D02*
X148209000Y-99109000D01*
D21*
%TO.N,FLP_DTR*%
X140759000Y-103611000D02*
X134790000Y-109580000D01*
X134790000Y-109580000D02*
X130105000Y-109580000D01*
X130105000Y-109580000D02*
X126860000Y-112825000D01*
X141140000Y-103611000D02*
X140759000Y-103611000D01*
%TO.N,FLP_RTS*%
X124814000Y-112825000D02*
X124320000Y-112825000D01*
D22*
%TO.N,+BATT*%
X111188000Y-98912000D02*
X139188000Y-98912000D01*
X108850000Y-101250000D02*
X111188000Y-98912000D01*
X139800000Y-98300000D02*
X139800000Y-98000000D01*
X105300000Y-101250000D02*
X108850000Y-101250000D01*
X139188000Y-98912000D02*
X139800000Y-98300000D01*
X139800000Y-98000000D02*
X141600000Y-98000000D01*
D21*
%TO.N,LORA_NSS*%
X121582000Y-94594000D02*
X121709000Y-94594000D01*
X121709000Y-94594000D02*
X122090000Y-94975000D01*
X122090000Y-94975000D02*
X132504000Y-94975000D01*
%TO.N,LORA_RST*%
X132600000Y-97200000D02*
X123680000Y-97200000D01*
X123680000Y-97200000D02*
X122979000Y-96499000D01*
%TO.N,LORA_BUSY*%
X134790000Y-105389000D02*
X122868000Y-105389000D01*
X122741000Y-105516000D02*
X122598000Y-105516000D01*
X122868000Y-105389000D02*
X122741000Y-105516000D01*
%TO.N,LORA_DIO1*%
X129100000Y-107100000D02*
X130000000Y-108000000D01*
X122580500Y-106930500D02*
X122750000Y-107100000D01*
X130000000Y-108000000D02*
X133700000Y-108000000D01*
X122750000Y-107100000D02*
X129100000Y-107100000D01*
%TO.N,LORA_RF_SW*%
X132377000Y-101198000D02*
X132250000Y-101071000D01*
X132102000Y-101198000D02*
X126398000Y-101198000D01*
X132250000Y-101071000D02*
X132229000Y-101071000D01*
X132229000Y-101071000D02*
X132102000Y-101198000D01*
X126398000Y-101198000D02*
X126350000Y-101150000D01*
D20*
%TO.N,FLP_I2C_SCL*%
X135238240Y-101600000D02*
X133227240Y-103611000D01*
X143934000Y-99928000D02*
X143680000Y-99674000D01*
X142262000Y-101600000D02*
X135238240Y-101600000D01*
X115189000Y-103611000D02*
X115000000Y-103800000D01*
X143680000Y-100182000D02*
X142262000Y-101600000D01*
X143680000Y-99674000D02*
X143680000Y-100182000D01*
X133227240Y-103611000D02*
X115189000Y-103611000D01*
%TO.N,FLP_RX*%
X157904000Y-110804000D02*
X159900000Y-112800000D01*
X149395000Y-93451000D02*
X150030000Y-94086000D01*
X155110000Y-94086000D02*
X157904000Y-96880000D01*
X157904000Y-96880000D02*
X157904000Y-110804000D01*
X150030000Y-94086000D02*
X155110000Y-94086000D01*
%TO.N,FLP_TX*%
X157396000Y-97261000D02*
X157396000Y-112764000D01*
X154835000Y-94700000D02*
X157396000Y-97261000D01*
X144100000Y-94700000D02*
X154835000Y-94700000D01*
X157396000Y-112764000D02*
X157360000Y-112800000D01*
X143600000Y-94200000D02*
X144100000Y-94700000D01*
D21*
%TO.N,FLP_PB14*%
X161433047Y-109707000D02*
X164427000Y-109707000D01*
X164427000Y-109707000D02*
X167520000Y-112800000D01*
X159779108Y-108053061D02*
X161433047Y-109707000D01*
%TD*%
%TA.AperFunction,Conductor*%
%TO.N,GND*%
G36*
X127938539Y-90320185D02*
G01*
X127984294Y-90372989D01*
X127995500Y-90424500D01*
X127995500Y-92146144D01*
X127995895Y-92147620D01*
X128019387Y-92235290D01*
X128019388Y-92235293D01*
X128065526Y-92315205D01*
X128065529Y-92315209D01*
X128065531Y-92315212D01*
X128130788Y-92380469D01*
X128130791Y-92380470D01*
X128130794Y-92380473D01*
X128210706Y-92426611D01*
X128210707Y-92426611D01*
X128210712Y-92426614D01*
X128299856Y-92450500D01*
X128299858Y-92450500D01*
X147410142Y-92450500D01*
X147410144Y-92450500D01*
X147499288Y-92426614D01*
X147579212Y-92380469D01*
X147644469Y-92315212D01*
X147690614Y-92235288D01*
X147714500Y-92146144D01*
X147714500Y-90424500D01*
X147734185Y-90357461D01*
X147786989Y-90311706D01*
X147838500Y-90300500D01*
X174158500Y-90300500D01*
X174225539Y-90320185D01*
X174271294Y-90372989D01*
X174281238Y-90442147D01*
X174252213Y-90505703D01*
X174205953Y-90539061D01*
X174101758Y-90582219D01*
X174101744Y-90582226D01*
X173798481Y-90744322D01*
X173798463Y-90744333D01*
X173512546Y-90935377D01*
X173512532Y-90935387D01*
X173307338Y-91103786D01*
X174730893Y-92527340D01*
X174622816Y-92605864D01*
X174455864Y-92772816D01*
X174377341Y-92880893D01*
X172953786Y-91457338D01*
X172785387Y-91662532D01*
X172785377Y-91662546D01*
X172594333Y-91948463D01*
X172594322Y-91948481D01*
X172432226Y-92251744D01*
X172432219Y-92251758D01*
X172300623Y-92569459D01*
X172200792Y-92898556D01*
X172200791Y-92898562D01*
X172133708Y-93235817D01*
X172133705Y-93235834D01*
X172100000Y-93578059D01*
X172100000Y-93921940D01*
X172133705Y-94264165D01*
X172133708Y-94264182D01*
X172200791Y-94601437D01*
X172200792Y-94601443D01*
X172300623Y-94930540D01*
X172432219Y-95248241D01*
X172432226Y-95248255D01*
X172594322Y-95551518D01*
X172594333Y-95551536D01*
X172785377Y-95837453D01*
X172785387Y-95837467D01*
X172953785Y-96042659D01*
X172953786Y-96042660D01*
X174377340Y-94619105D01*
X174455864Y-94727184D01*
X174622816Y-94894136D01*
X174730893Y-94972658D01*
X173307338Y-96396212D01*
X173307339Y-96396213D01*
X173512533Y-96564612D01*
X173512546Y-96564622D01*
X173798463Y-96755666D01*
X173798481Y-96755677D01*
X174101744Y-96917773D01*
X174101758Y-96917780D01*
X174419459Y-97049376D01*
X174748556Y-97149207D01*
X174748562Y-97149208D01*
X175085817Y-97216291D01*
X175085834Y-97216294D01*
X175428059Y-97250000D01*
X175771941Y-97250000D01*
X176114165Y-97216294D01*
X176114182Y-97216291D01*
X176451437Y-97149208D01*
X176451443Y-97149207D01*
X176780540Y-97049376D01*
X177098241Y-96917780D01*
X177098255Y-96917773D01*
X177401518Y-96755677D01*
X177401536Y-96755666D01*
X177687453Y-96564622D01*
X177687466Y-96564612D01*
X177892659Y-96396213D01*
X177892659Y-96396212D01*
X176469106Y-94972659D01*
X176577184Y-94894136D01*
X176744136Y-94727184D01*
X176822659Y-94619105D01*
X178246212Y-96042659D01*
X178246213Y-96042659D01*
X178414612Y-95837466D01*
X178414622Y-95837453D01*
X178605666Y-95551536D01*
X178605677Y-95551518D01*
X178767773Y-95248255D01*
X178767783Y-95248234D01*
X178860939Y-95023336D01*
X178904780Y-94968932D01*
X178971074Y-94946867D01*
X179038773Y-94964146D01*
X179086384Y-95015283D01*
X179099500Y-95070788D01*
X179099500Y-109279211D01*
X179079815Y-109346250D01*
X179027011Y-109392005D01*
X178957853Y-109401949D01*
X178894297Y-109372924D01*
X178860939Y-109326664D01*
X178767780Y-109101758D01*
X178767773Y-109101744D01*
X178605677Y-108798481D01*
X178605666Y-108798463D01*
X178414622Y-108512546D01*
X178414612Y-108512533D01*
X178246213Y-108307339D01*
X178246212Y-108307338D01*
X176822658Y-109730893D01*
X176744136Y-109622816D01*
X176577184Y-109455864D01*
X176469105Y-109377340D01*
X177892660Y-107953786D01*
X177892659Y-107953785D01*
X177687467Y-107785387D01*
X177687453Y-107785377D01*
X177401536Y-107594333D01*
X177401518Y-107594322D01*
X177098255Y-107432226D01*
X177098241Y-107432219D01*
X176780540Y-107300623D01*
X176451443Y-107200792D01*
X176451437Y-107200791D01*
X176114182Y-107133708D01*
X176114165Y-107133705D01*
X175771941Y-107100000D01*
X175428059Y-107100000D01*
X175085834Y-107133705D01*
X175085817Y-107133708D01*
X174748562Y-107200791D01*
X174748556Y-107200792D01*
X174419459Y-107300623D01*
X174101758Y-107432219D01*
X174101744Y-107432226D01*
X173798481Y-107594322D01*
X173798463Y-107594333D01*
X173512546Y-107785377D01*
X173512532Y-107785387D01*
X173307338Y-107953786D01*
X174730893Y-109377341D01*
X174622816Y-109455864D01*
X174455864Y-109622816D01*
X174377341Y-109730893D01*
X172953786Y-108307338D01*
X172785387Y-108512532D01*
X172785377Y-108512546D01*
X172594333Y-108798463D01*
X172594322Y-108798481D01*
X172432226Y-109101744D01*
X172432219Y-109101758D01*
X172300623Y-109419459D01*
X172200792Y-109748556D01*
X172200791Y-109748562D01*
X172133708Y-110085817D01*
X172133705Y-110085834D01*
X172100000Y-110428059D01*
X172100000Y-110771940D01*
X172133705Y-111114165D01*
X172133708Y-111114182D01*
X172200791Y-111451437D01*
X172200792Y-111451443D01*
X172300623Y-111780540D01*
X172432219Y-112098241D01*
X172432226Y-112098255D01*
X172594322Y-112401518D01*
X172594333Y-112401536D01*
X172785377Y-112687453D01*
X172785387Y-112687467D01*
X172953785Y-112892659D01*
X172953786Y-112892660D01*
X174377340Y-111469105D01*
X174455864Y-111577184D01*
X174622816Y-111744136D01*
X174730893Y-111822658D01*
X173307338Y-113246212D01*
X173307339Y-113246213D01*
X173512533Y-113414612D01*
X173512546Y-113414622D01*
X173798463Y-113605666D01*
X173798481Y-113605677D01*
X174101744Y-113767773D01*
X174101758Y-113767780D01*
X174326664Y-113860939D01*
X174381067Y-113904780D01*
X174403132Y-113971074D01*
X174385853Y-114038773D01*
X174334716Y-114086384D01*
X174279211Y-114099500D01*
X168425043Y-114099500D01*
X168358004Y-114079815D01*
X168312249Y-114027011D01*
X168302305Y-113957853D01*
X168331330Y-113894297D01*
X168352158Y-113875181D01*
X168379792Y-113855104D01*
X168530104Y-113704792D01*
X168530106Y-113704788D01*
X168530109Y-113704786D01*
X168655048Y-113532820D01*
X168655047Y-113532820D01*
X168655051Y-113532816D01*
X168751557Y-113343412D01*
X168817246Y-113141243D01*
X168850500Y-112931287D01*
X168850500Y-112718713D01*
X168817246Y-112508757D01*
X168751557Y-112306588D01*
X168655051Y-112117184D01*
X168655049Y-112117181D01*
X168655048Y-112117179D01*
X168530109Y-111945213D01*
X168379786Y-111794890D01*
X168207820Y-111669951D01*
X168018414Y-111573444D01*
X168018413Y-111573443D01*
X168018412Y-111573443D01*
X167816243Y-111507754D01*
X167816241Y-111507753D01*
X167816240Y-111507753D01*
X167654957Y-111482208D01*
X167606287Y-111474500D01*
X167393713Y-111474500D01*
X167336123Y-111483621D01*
X167215033Y-111502800D01*
X167145739Y-111493845D01*
X167107954Y-111468008D01*
X166152639Y-110512693D01*
X164841674Y-109201727D01*
X164841673Y-109201726D01*
X164841669Y-109201723D01*
X164735127Y-109130535D01*
X164665653Y-109101758D01*
X164616744Y-109081499D01*
X164616738Y-109081497D01*
X164491071Y-109056500D01*
X164491069Y-109056500D01*
X161753855Y-109056500D01*
X161686816Y-109036815D01*
X161666174Y-109020181D01*
X160765927Y-108119934D01*
X160751223Y-108093006D01*
X160734631Y-108067188D01*
X160733739Y-108060987D01*
X160732442Y-108058611D01*
X160729608Y-108032253D01*
X160729608Y-107959444D01*
X160729607Y-107959440D01*
X160728482Y-107953785D01*
X160693081Y-107775810D01*
X160621430Y-107602830D01*
X160621429Y-107602829D01*
X160621426Y-107602823D01*
X160517410Y-107447153D01*
X160517407Y-107447149D01*
X160385019Y-107314761D01*
X160385015Y-107314758D01*
X160229345Y-107210742D01*
X160229336Y-107210737D01*
X160056359Y-107139088D01*
X160056351Y-107139086D01*
X159872728Y-107102561D01*
X159872724Y-107102561D01*
X159685492Y-107102561D01*
X159685487Y-107102561D01*
X159501864Y-107139086D01*
X159501856Y-107139088D01*
X159328879Y-107210737D01*
X159328870Y-107210742D01*
X159173200Y-107314758D01*
X159173196Y-107314761D01*
X159040808Y-107447149D01*
X159040805Y-107447153D01*
X158936789Y-107602823D01*
X158936784Y-107602832D01*
X158865135Y-107775809D01*
X158865133Y-107775817D01*
X158828608Y-107959440D01*
X158828608Y-108146681D01*
X158865133Y-108330304D01*
X158865135Y-108330312D01*
X158936784Y-108503289D01*
X158936789Y-108503298D01*
X159040805Y-108658968D01*
X159040808Y-108658972D01*
X159173196Y-108791360D01*
X159173200Y-108791363D01*
X159328870Y-108895379D01*
X159328876Y-108895382D01*
X159328877Y-108895383D01*
X159501857Y-108967034D01*
X159685356Y-109003534D01*
X159685487Y-109003560D01*
X159685491Y-109003561D01*
X159685492Y-109003561D01*
X159758300Y-109003561D01*
X159825339Y-109023246D01*
X159845981Y-109039880D01*
X161018372Y-110212272D01*
X161018375Y-110212275D01*
X161018378Y-110212277D01*
X161066489Y-110244423D01*
X161124920Y-110283465D01*
X161243303Y-110332501D01*
X161243307Y-110332501D01*
X161243308Y-110332502D01*
X161368975Y-110357500D01*
X161368978Y-110357500D01*
X164106192Y-110357500D01*
X164173231Y-110377185D01*
X164193873Y-110393819D01*
X165062873Y-111262819D01*
X165096358Y-111324142D01*
X165091374Y-111393834D01*
X165049502Y-111449767D01*
X164984038Y-111474184D01*
X164975192Y-111474500D01*
X164853713Y-111474500D01*
X164805042Y-111482208D01*
X164643760Y-111507753D01*
X164441585Y-111573444D01*
X164252179Y-111669951D01*
X164080213Y-111794890D01*
X163929890Y-111945213D01*
X163804949Y-112117182D01*
X163800484Y-112125946D01*
X163752509Y-112176742D01*
X163684688Y-112193536D01*
X163618553Y-112170998D01*
X163579516Y-112125946D01*
X163575050Y-112117182D01*
X163450109Y-111945213D01*
X163299786Y-111794890D01*
X163127820Y-111669951D01*
X162938414Y-111573444D01*
X162938413Y-111573443D01*
X162938412Y-111573443D01*
X162736243Y-111507754D01*
X162736241Y-111507753D01*
X162736240Y-111507753D01*
X162574957Y-111482208D01*
X162526287Y-111474500D01*
X162313713Y-111474500D01*
X162265042Y-111482208D01*
X162103760Y-111507753D01*
X161901585Y-111573444D01*
X161712179Y-111669951D01*
X161540213Y-111794890D01*
X161389890Y-111945213D01*
X161264949Y-112117182D01*
X161260484Y-112125946D01*
X161212509Y-112176742D01*
X161144688Y-112193536D01*
X161078553Y-112170998D01*
X161039516Y-112125946D01*
X161035050Y-112117182D01*
X160910109Y-111945213D01*
X160759786Y-111794890D01*
X160587820Y-111669951D01*
X160398414Y-111573444D01*
X160398413Y-111573443D01*
X160398412Y-111573443D01*
X160196243Y-111507754D01*
X160196241Y-111507753D01*
X160196240Y-111507753D01*
X160034957Y-111482208D01*
X159986287Y-111474500D01*
X159773713Y-111474500D01*
X159703727Y-111485584D01*
X159563755Y-111507754D01*
X159555440Y-111510456D01*
X159485599Y-111512451D01*
X159429441Y-111480206D01*
X158540819Y-110591584D01*
X158507334Y-110530261D01*
X158504500Y-110503903D01*
X158504500Y-97200486D01*
X159141500Y-97200486D01*
X159141500Y-97385514D01*
X159154752Y-97469185D01*
X159170445Y-97568265D01*
X159227619Y-97744232D01*
X159227620Y-97744235D01*
X159287471Y-97861697D01*
X159311622Y-97909096D01*
X159420379Y-98058787D01*
X159551213Y-98189621D01*
X159555421Y-98192678D01*
X159555432Y-98192686D01*
X159598094Y-98248019D01*
X159604069Y-98317633D01*
X159571459Y-98379426D01*
X159555432Y-98393314D01*
X159551210Y-98396381D01*
X159420381Y-98527210D01*
X159420381Y-98527211D01*
X159420379Y-98527213D01*
X159383218Y-98578361D01*
X159311622Y-98676903D01*
X159227620Y-98841764D01*
X159227619Y-98841767D01*
X159170445Y-99017734D01*
X159141500Y-99200486D01*
X159141500Y-99385513D01*
X159170445Y-99568265D01*
X159227619Y-99744232D01*
X159227620Y-99744235D01*
X159303561Y-99893275D01*
X159311622Y-99909096D01*
X159420379Y-100058787D01*
X159551213Y-100189621D01*
X159555847Y-100192988D01*
X159598515Y-100248313D01*
X159604498Y-100317926D01*
X159571895Y-100379723D01*
X159555860Y-100393620D01*
X159551542Y-100396757D01*
X159551536Y-100396762D01*
X159420758Y-100527540D01*
X159420754Y-100527545D01*
X159312052Y-100677162D01*
X159228084Y-100841956D01*
X159228082Y-100841962D01*
X159170932Y-101017855D01*
X159166950Y-101042999D01*
X159166950Y-101043000D01*
X160001314Y-101043000D01*
X159996920Y-101047394D01*
X159944259Y-101138606D01*
X159917000Y-101240339D01*
X159917000Y-101345661D01*
X159944259Y-101447394D01*
X159996920Y-101538606D01*
X160001314Y-101543000D01*
X159166950Y-101543000D01*
X159170932Y-101568144D01*
X159228082Y-101744037D01*
X159228084Y-101744043D01*
X159312049Y-101908833D01*
X159395946Y-102024308D01*
X159419425Y-102090115D01*
X159403599Y-102158169D01*
X159369939Y-102196459D01*
X159284452Y-102260455D01*
X159198206Y-102375664D01*
X159198202Y-102375671D01*
X159147908Y-102510517D01*
X159142713Y-102558841D01*
X159141501Y-102570123D01*
X159141500Y-102570135D01*
X159141500Y-104015870D01*
X159141501Y-104015876D01*
X159147908Y-104075483D01*
X159198202Y-104210328D01*
X159198206Y-104210335D01*
X159284452Y-104325544D01*
X159284455Y-104325547D01*
X159399664Y-104411793D01*
X159399671Y-104411797D01*
X159534517Y-104462091D01*
X159534516Y-104462091D01*
X159541444Y-104462835D01*
X159594127Y-104468500D01*
X161039872Y-104468499D01*
X161099483Y-104462091D01*
X161234331Y-104411796D01*
X161349546Y-104325546D01*
X161435796Y-104210331D01*
X161486091Y-104075483D01*
X161492500Y-104015873D01*
X161492499Y-102570128D01*
X161486091Y-102510517D01*
X161460801Y-102442712D01*
X161435797Y-102375671D01*
X161435793Y-102375664D01*
X161349547Y-102260455D01*
X161264059Y-102196458D01*
X161222189Y-102140524D01*
X161217205Y-102070832D01*
X161238054Y-102024306D01*
X161321947Y-101908838D01*
X161405915Y-101744043D01*
X161405917Y-101744037D01*
X161463067Y-101568144D01*
X161467049Y-101543000D01*
X160632686Y-101543000D01*
X160637080Y-101538606D01*
X160689741Y-101447394D01*
X160717000Y-101345661D01*
X160717000Y-101240339D01*
X160689741Y-101138606D01*
X160637080Y-101047394D01*
X160632686Y-101043000D01*
X161467050Y-101043000D01*
X161467049Y-101042999D01*
X161463067Y-101017855D01*
X161405917Y-100841962D01*
X161405915Y-100841956D01*
X161321947Y-100677162D01*
X161213245Y-100527545D01*
X161213241Y-100527540D01*
X161082459Y-100396758D01*
X161082452Y-100396752D01*
X161078148Y-100393625D01*
X161035482Y-100338295D01*
X161029504Y-100268682D01*
X161062110Y-100206887D01*
X161078155Y-100192986D01*
X161082787Y-100189621D01*
X161213621Y-100058787D01*
X161322378Y-99909096D01*
X161406379Y-99744235D01*
X161463555Y-99568264D01*
X161492500Y-99385514D01*
X161492500Y-99200486D01*
X161463555Y-99017736D01*
X161417909Y-98877251D01*
X161406380Y-98841767D01*
X161406379Y-98841764D01*
X161330895Y-98693620D01*
X161322378Y-98676904D01*
X161213621Y-98527213D01*
X161082787Y-98396379D01*
X161078576Y-98393319D01*
X161035909Y-98337994D01*
X161029926Y-98268381D01*
X161062529Y-98206585D01*
X161078570Y-98192684D01*
X161082787Y-98189621D01*
X161213621Y-98058787D01*
X161322378Y-97909096D01*
X161406379Y-97744235D01*
X161463555Y-97568264D01*
X161492500Y-97385514D01*
X161492500Y-97200486D01*
X161463555Y-97017736D01*
X161406379Y-96841765D01*
X161406379Y-96841764D01*
X161337156Y-96705908D01*
X161322378Y-96676904D01*
X161213621Y-96527213D01*
X161082787Y-96396379D01*
X160933096Y-96287622D01*
X160929962Y-96286025D01*
X160768235Y-96203620D01*
X160768232Y-96203619D01*
X160592265Y-96146445D01*
X160500889Y-96131972D01*
X160409514Y-96117500D01*
X160224486Y-96117500D01*
X160163569Y-96127148D01*
X160041734Y-96146445D01*
X159865767Y-96203619D01*
X159865764Y-96203620D01*
X159700903Y-96287622D01*
X159615499Y-96349672D01*
X159551213Y-96396379D01*
X159551211Y-96396381D01*
X159551210Y-96396381D01*
X159420381Y-96527210D01*
X159420381Y-96527211D01*
X159420379Y-96527213D01*
X159403651Y-96550237D01*
X159311622Y-96676903D01*
X159227620Y-96841764D01*
X159227619Y-96841767D01*
X159170445Y-97017734D01*
X159156404Y-97106384D01*
X159141500Y-97200486D01*
X158504500Y-97200486D01*
X158504500Y-96969060D01*
X158504501Y-96969047D01*
X158504501Y-96800944D01*
X158504501Y-96800943D01*
X158463577Y-96648216D01*
X158432329Y-96594092D01*
X158384524Y-96511290D01*
X158384518Y-96511282D01*
X155597590Y-93724355D01*
X155590521Y-93717286D01*
X155590520Y-93717284D01*
X155478716Y-93605480D01*
X155391904Y-93555360D01*
X155391904Y-93555359D01*
X155391900Y-93555358D01*
X155341785Y-93526423D01*
X155189057Y-93485499D01*
X155030943Y-93485499D01*
X155023347Y-93485499D01*
X155023331Y-93485500D01*
X150469500Y-93485500D01*
X150402461Y-93465815D01*
X150356706Y-93413011D01*
X150345500Y-93361500D01*
X150345500Y-93357383D01*
X150345499Y-93357379D01*
X150330330Y-93281120D01*
X150308973Y-93173749D01*
X150253554Y-93039956D01*
X150237323Y-93000771D01*
X150237318Y-93000762D01*
X150133302Y-92845092D01*
X150133299Y-92845088D01*
X150000911Y-92712700D01*
X150000907Y-92712697D01*
X149845237Y-92608681D01*
X149845228Y-92608676D01*
X149672251Y-92537027D01*
X149672243Y-92537025D01*
X149488620Y-92500500D01*
X149488616Y-92500500D01*
X149301384Y-92500500D01*
X149301379Y-92500500D01*
X149117756Y-92537025D01*
X149117748Y-92537027D01*
X148944771Y-92608676D01*
X148944762Y-92608681D01*
X148789092Y-92712697D01*
X148789088Y-92712700D01*
X148656700Y-92845088D01*
X148656697Y-92845092D01*
X148552681Y-93000762D01*
X148552676Y-93000771D01*
X148481027Y-93173748D01*
X148481025Y-93173756D01*
X148444500Y-93357379D01*
X148444500Y-93544620D01*
X148481025Y-93728243D01*
X148481027Y-93728251D01*
X148552676Y-93901228D01*
X148552682Y-93901238D01*
X148556270Y-93906608D01*
X148577149Y-93973285D01*
X148558665Y-94040665D01*
X148506687Y-94087356D01*
X148453169Y-94099500D01*
X144650895Y-94099500D01*
X144583856Y-94079815D01*
X144538101Y-94027011D01*
X144529278Y-93999691D01*
X144513974Y-93922756D01*
X144513973Y-93922749D01*
X144442322Y-93749769D01*
X144442321Y-93749768D01*
X144442318Y-93749762D01*
X144338302Y-93594092D01*
X144338299Y-93594088D01*
X144205911Y-93461700D01*
X144205907Y-93461697D01*
X144050237Y-93357681D01*
X144050228Y-93357676D01*
X143877251Y-93286027D01*
X143877243Y-93286025D01*
X143693620Y-93249500D01*
X143693616Y-93249500D01*
X143506384Y-93249500D01*
X143506379Y-93249500D01*
X143322756Y-93286025D01*
X143322748Y-93286027D01*
X143149771Y-93357676D01*
X143149762Y-93357681D01*
X142994092Y-93461697D01*
X142994088Y-93461700D01*
X142861700Y-93594088D01*
X142861697Y-93594092D01*
X142757681Y-93749762D01*
X142757676Y-93749771D01*
X142686027Y-93922748D01*
X142686025Y-93922756D01*
X142649500Y-94106379D01*
X142649500Y-94293620D01*
X142686025Y-94477243D01*
X142686027Y-94477251D01*
X142757676Y-94650228D01*
X142757681Y-94650237D01*
X142861697Y-94805907D01*
X142861700Y-94805911D01*
X142994088Y-94938299D01*
X142994092Y-94938302D01*
X143149762Y-95042318D01*
X143149771Y-95042323D01*
X143154392Y-95044237D01*
X143322749Y-95113973D01*
X143500004Y-95149231D01*
X143506379Y-95150499D01*
X143506383Y-95150500D01*
X143650069Y-95150500D01*
X143717108Y-95170185D01*
X143725557Y-95176125D01*
X143731281Y-95180517D01*
X143731284Y-95180520D01*
X143731287Y-95180521D01*
X143731290Y-95180524D01*
X143851628Y-95250000D01*
X143868216Y-95259577D01*
X144020943Y-95300501D01*
X144020945Y-95300501D01*
X144186654Y-95300501D01*
X144186670Y-95300500D01*
X150259064Y-95300500D01*
X150326103Y-95320185D01*
X150371858Y-95372989D01*
X150381802Y-95442147D01*
X150362166Y-95493391D01*
X150257681Y-95649762D01*
X150257676Y-95649771D01*
X150186027Y-95822748D01*
X150186025Y-95822756D01*
X150149500Y-96006379D01*
X150149500Y-96193620D01*
X150186025Y-96377243D01*
X150186027Y-96377251D01*
X150257676Y-96550228D01*
X150257681Y-96550237D01*
X150361697Y-96705907D01*
X150361700Y-96705911D01*
X150494088Y-96838299D01*
X150494092Y-96838302D01*
X150649762Y-96942318D01*
X150649771Y-96942323D01*
X150666463Y-96949237D01*
X150822749Y-97013973D01*
X151000733Y-97049376D01*
X151006379Y-97050499D01*
X151006383Y-97050500D01*
X151006384Y-97050500D01*
X151193617Y-97050500D01*
X151193618Y-97050499D01*
X151377251Y-97013973D01*
X151550231Y-96942322D01*
X151705908Y-96838302D01*
X151838302Y-96705908D01*
X151942322Y-96550231D01*
X152013973Y-96377251D01*
X152050500Y-96193616D01*
X152050500Y-96006384D01*
X152013973Y-95822749D01*
X151942322Y-95649769D01*
X151942321Y-95649768D01*
X151942318Y-95649762D01*
X151837834Y-95493391D01*
X151816956Y-95426713D01*
X151835441Y-95359333D01*
X151887419Y-95312643D01*
X151940936Y-95300500D01*
X154534903Y-95300500D01*
X154601942Y-95320185D01*
X154622584Y-95336819D01*
X156759181Y-97473416D01*
X156792666Y-97534739D01*
X156795500Y-97561097D01*
X156795500Y-111510747D01*
X156775815Y-111577786D01*
X156727796Y-111621231D01*
X156632182Y-111669949D01*
X156460213Y-111794890D01*
X156309890Y-111945213D01*
X156184949Y-112117182D01*
X156180484Y-112125946D01*
X156132509Y-112176742D01*
X156064688Y-112193536D01*
X155998553Y-112170998D01*
X155959516Y-112125946D01*
X155955050Y-112117182D01*
X155830109Y-111945213D01*
X155679786Y-111794890D01*
X155507820Y-111669951D01*
X155318414Y-111573444D01*
X155318413Y-111573443D01*
X155318412Y-111573443D01*
X155116243Y-111507754D01*
X155116241Y-111507753D01*
X155116240Y-111507753D01*
X154954957Y-111482208D01*
X154906287Y-111474500D01*
X154693713Y-111474500D01*
X154645042Y-111482208D01*
X154483760Y-111507753D01*
X154281585Y-111573444D01*
X154092179Y-111669951D01*
X153920213Y-111794890D01*
X153769890Y-111945213D01*
X153644951Y-112117179D01*
X153548444Y-112306585D01*
X153482753Y-112508760D01*
X153449500Y-112718713D01*
X153449500Y-112931286D01*
X153482753Y-113141239D01*
X153548444Y-113343414D01*
X153644951Y-113532820D01*
X153769890Y-113704786D01*
X153769896Y-113704792D01*
X153920208Y-113855104D01*
X153947842Y-113875181D01*
X153990508Y-113930511D01*
X153996487Y-114000124D01*
X153963882Y-114061920D01*
X153903043Y-114096277D01*
X153874957Y-114099500D01*
X150645043Y-114099500D01*
X150578004Y-114079815D01*
X150532249Y-114027011D01*
X150522305Y-113957853D01*
X150551330Y-113894297D01*
X150572158Y-113875181D01*
X150599792Y-113855104D01*
X150750104Y-113704792D01*
X150750106Y-113704788D01*
X150750109Y-113704786D01*
X150875048Y-113532820D01*
X150875047Y-113532820D01*
X150875051Y-113532816D01*
X150971557Y-113343412D01*
X151037246Y-113141243D01*
X151070500Y-112931287D01*
X151070500Y-112718713D01*
X151037246Y-112508757D01*
X150971557Y-112306588D01*
X150875051Y-112117184D01*
X150875049Y-112117181D01*
X150875048Y-112117179D01*
X150750109Y-111945213D01*
X150599786Y-111794890D01*
X150427820Y-111669951D01*
X150238414Y-111573444D01*
X150238413Y-111573443D01*
X150238412Y-111573443D01*
X150036243Y-111507754D01*
X150036241Y-111507753D01*
X150036240Y-111507753D01*
X149874957Y-111482208D01*
X149826287Y-111474500D01*
X149613713Y-111474500D01*
X149565042Y-111482208D01*
X149403760Y-111507753D01*
X149201585Y-111573444D01*
X149012179Y-111669951D01*
X148840215Y-111794889D01*
X148726673Y-111908431D01*
X148665350Y-111941915D01*
X148595658Y-111936931D01*
X148539725Y-111895059D01*
X148522810Y-111864082D01*
X148473797Y-111732671D01*
X148473793Y-111732664D01*
X148387547Y-111617455D01*
X148387544Y-111617452D01*
X148272335Y-111531206D01*
X148272328Y-111531202D01*
X148137482Y-111480908D01*
X148137483Y-111480908D01*
X148077883Y-111474501D01*
X148077881Y-111474500D01*
X148077873Y-111474500D01*
X148077864Y-111474500D01*
X146282129Y-111474500D01*
X146282123Y-111474501D01*
X146222516Y-111480908D01*
X146087671Y-111531202D01*
X146087664Y-111531206D01*
X145972455Y-111617452D01*
X145972452Y-111617455D01*
X145886206Y-111732664D01*
X145886202Y-111732671D01*
X145835908Y-111867517D01*
X145829501Y-111927116D01*
X145829500Y-111927135D01*
X145829500Y-113722870D01*
X145829501Y-113722876D01*
X145835908Y-113782481D01*
X145848107Y-113815188D01*
X145848752Y-113824218D01*
X145853090Y-113832162D01*
X145851205Y-113858518D01*
X145853090Y-113884880D01*
X145848751Y-113892824D01*
X145848106Y-113901854D01*
X145832269Y-113923008D01*
X145819604Y-113946203D01*
X145811657Y-113950541D01*
X145806234Y-113957787D01*
X145781477Y-113967020D01*
X145758280Y-113979687D01*
X145749250Y-113979040D01*
X145740770Y-113982204D01*
X145714949Y-113976586D01*
X145688588Y-113974701D01*
X145679535Y-113968883D01*
X145672497Y-113967352D01*
X145644243Y-113946201D01*
X145619355Y-113921313D01*
X145602042Y-113899604D01*
X145598707Y-113894297D01*
X145557398Y-113828553D01*
X145545351Y-113803537D01*
X145537983Y-113782481D01*
X145517636Y-113724331D01*
X145511459Y-113697263D01*
X145511348Y-113696281D01*
X145501280Y-113606922D01*
X145500500Y-113593038D01*
X145500500Y-112311306D01*
X145500499Y-112311304D01*
X145465896Y-112137341D01*
X145465893Y-112137332D01*
X145398016Y-111973459D01*
X145398009Y-111973446D01*
X145299464Y-111825965D01*
X145299461Y-111825961D01*
X145174038Y-111700538D01*
X145174034Y-111700535D01*
X145026553Y-111601990D01*
X145026540Y-111601983D01*
X144862667Y-111534106D01*
X144862658Y-111534103D01*
X144688694Y-111499500D01*
X144688691Y-111499500D01*
X144639562Y-111499500D01*
X131847595Y-111499500D01*
X131800000Y-111499500D01*
X131711309Y-111499500D01*
X131711306Y-111499500D01*
X131537341Y-111534103D01*
X131537332Y-111534106D01*
X131373459Y-111601983D01*
X131373446Y-111601990D01*
X131225965Y-111700535D01*
X131225961Y-111700538D01*
X131100538Y-111825961D01*
X131100535Y-111825965D01*
X131001990Y-111973446D01*
X131001983Y-111973459D01*
X130934106Y-112137332D01*
X130934103Y-112137341D01*
X130899500Y-112311304D01*
X130899500Y-113593038D01*
X130898720Y-113606922D01*
X130898720Y-113606923D01*
X130888540Y-113697264D01*
X130882362Y-113724333D01*
X130854648Y-113803537D01*
X130842600Y-113828555D01*
X130797957Y-113899604D01*
X130780644Y-113921313D01*
X130721313Y-113980644D01*
X130699604Y-113997957D01*
X130628555Y-114042600D01*
X130603537Y-114054648D01*
X130524333Y-114082362D01*
X130497264Y-114088540D01*
X130417075Y-114097576D01*
X130406921Y-114098720D01*
X130393038Y-114099500D01*
X127785043Y-114099500D01*
X127718004Y-114079815D01*
X127672249Y-114027011D01*
X127662305Y-113957853D01*
X127691330Y-113894297D01*
X127712158Y-113875181D01*
X127739792Y-113855104D01*
X127890104Y-113704792D01*
X127890106Y-113704788D01*
X127890109Y-113704786D01*
X128015048Y-113532820D01*
X128015047Y-113532820D01*
X128015051Y-113532816D01*
X128111557Y-113343412D01*
X128177246Y-113141243D01*
X128210500Y-112931287D01*
X128210500Y-112718713D01*
X128182863Y-112544218D01*
X128176484Y-112503945D01*
X128178123Y-112503685D01*
X128181257Y-112441126D01*
X128210655Y-112394289D01*
X130338127Y-110266819D01*
X130399450Y-110233334D01*
X130425808Y-110230500D01*
X134854071Y-110230500D01*
X134945705Y-110212272D01*
X134979744Y-110205501D01*
X135098127Y-110156465D01*
X135204669Y-110085277D01*
X140735176Y-104554768D01*
X140796497Y-104521285D01*
X140858851Y-104523791D01*
X140862749Y-104524973D01*
X141046379Y-104561499D01*
X141046383Y-104561500D01*
X141046384Y-104561500D01*
X141233617Y-104561500D01*
X141233618Y-104561499D01*
X141417251Y-104524973D01*
X141590231Y-104453322D01*
X141745908Y-104349302D01*
X141878302Y-104216908D01*
X141982322Y-104061231D01*
X142053973Y-103888251D01*
X142090500Y-103704616D01*
X142090500Y-103517384D01*
X142053973Y-103333749D01*
X141982322Y-103160769D01*
X141982321Y-103160768D01*
X141982318Y-103160762D01*
X141878302Y-103005092D01*
X141878299Y-103005088D01*
X141745911Y-102872700D01*
X141745907Y-102872697D01*
X141590237Y-102768681D01*
X141590228Y-102768676D01*
X141417251Y-102697027D01*
X141417243Y-102697025D01*
X141373998Y-102688423D01*
X141233620Y-102660500D01*
X141233616Y-102660500D01*
X141046384Y-102660500D01*
X141046379Y-102660500D01*
X140862756Y-102697025D01*
X140862748Y-102697027D01*
X140689771Y-102768676D01*
X140689762Y-102768681D01*
X140534092Y-102872697D01*
X140534088Y-102872700D01*
X140401700Y-103005088D01*
X140401697Y-103005092D01*
X140321362Y-103125321D01*
X140305941Y-103144111D01*
X134556873Y-108893181D01*
X134529945Y-108907884D01*
X134504127Y-108924477D01*
X134497926Y-108925368D01*
X134495550Y-108926666D01*
X134469192Y-108929500D01*
X134414073Y-108929500D01*
X134347034Y-108909815D01*
X134301279Y-108857011D01*
X134291335Y-108787853D01*
X134320360Y-108724297D01*
X134326392Y-108717819D01*
X134438299Y-108605911D01*
X134438302Y-108605908D01*
X134542322Y-108450231D01*
X134613973Y-108277251D01*
X134650500Y-108093616D01*
X134650500Y-107906384D01*
X134613973Y-107722749D01*
X134542322Y-107549769D01*
X134542321Y-107549768D01*
X134542318Y-107549762D01*
X134438302Y-107394092D01*
X134438299Y-107394088D01*
X134305911Y-107261700D01*
X134305907Y-107261697D01*
X134150237Y-107157681D01*
X134150228Y-107157676D01*
X133977251Y-107086027D01*
X133977243Y-107086025D01*
X133793620Y-107049500D01*
X133793616Y-107049500D01*
X133606384Y-107049500D01*
X133606379Y-107049500D01*
X133422756Y-107086025D01*
X133422748Y-107086027D01*
X133249771Y-107157676D01*
X133249762Y-107157681D01*
X133094092Y-107261697D01*
X133094088Y-107261700D01*
X133042610Y-107313180D01*
X132981287Y-107346666D01*
X132954928Y-107349500D01*
X130320807Y-107349500D01*
X130253768Y-107329815D01*
X130233126Y-107313181D01*
X129514674Y-106594727D01*
X129514673Y-106594726D01*
X129514669Y-106594723D01*
X129408127Y-106523535D01*
X129358336Y-106502911D01*
X129289744Y-106474499D01*
X129289738Y-106474497D01*
X129164071Y-106449500D01*
X129164069Y-106449500D01*
X123468542Y-106449500D01*
X123462882Y-106447838D01*
X123457095Y-106448970D01*
X123429742Y-106438107D01*
X123401503Y-106429815D01*
X123396223Y-106424795D01*
X123392159Y-106423181D01*
X123374389Y-106404034D01*
X123367733Y-106397705D01*
X123366565Y-106396074D01*
X123318802Y-106324592D01*
X123306692Y-106312482D01*
X123300763Y-106304204D01*
X123292465Y-106280442D01*
X123280406Y-106258357D01*
X123281145Y-106248022D01*
X123277729Y-106238240D01*
X123283594Y-106213768D01*
X123285390Y-106188665D01*
X123292122Y-106178188D01*
X123294015Y-106170295D01*
X123302303Y-106162347D01*
X123313890Y-106144319D01*
X123336302Y-106121908D01*
X123354542Y-106094608D01*
X123408152Y-106049805D01*
X123457644Y-106039500D01*
X134044928Y-106039500D01*
X134111967Y-106059185D01*
X134132610Y-106075820D01*
X134184088Y-106127299D01*
X134184092Y-106127302D01*
X134339762Y-106231318D01*
X134339771Y-106231323D01*
X134356470Y-106238240D01*
X134512749Y-106302973D01*
X134696379Y-106339499D01*
X134696383Y-106339500D01*
X134696384Y-106339500D01*
X134883617Y-106339500D01*
X134883618Y-106339499D01*
X135067251Y-106302973D01*
X135240231Y-106231322D01*
X135395908Y-106127302D01*
X135528302Y-105994908D01*
X135632322Y-105839231D01*
X135703973Y-105666251D01*
X135740500Y-105482616D01*
X135740500Y-105295384D01*
X135703973Y-105111749D01*
X135632322Y-104938769D01*
X135632321Y-104938768D01*
X135632318Y-104938762D01*
X135528302Y-104783092D01*
X135528299Y-104783088D01*
X135395911Y-104650700D01*
X135395907Y-104650697D01*
X135240237Y-104546681D01*
X135240228Y-104546676D01*
X135067251Y-104475027D01*
X135067243Y-104475025D01*
X134883620Y-104438500D01*
X134883616Y-104438500D01*
X134696384Y-104438500D01*
X134696379Y-104438500D01*
X134512756Y-104475025D01*
X134512748Y-104475027D01*
X134339771Y-104546676D01*
X134339762Y-104546681D01*
X134184092Y-104650697D01*
X134184088Y-104650700D01*
X134132610Y-104702180D01*
X134071287Y-104735666D01*
X134044928Y-104738500D01*
X123182859Y-104738500D01*
X123115820Y-104718815D01*
X123113968Y-104717602D01*
X123048236Y-104673681D01*
X123048228Y-104673676D01*
X122875251Y-104602027D01*
X122875243Y-104602025D01*
X122691620Y-104565500D01*
X122691616Y-104565500D01*
X122504384Y-104565500D01*
X122504379Y-104565500D01*
X122320756Y-104602025D01*
X122320748Y-104602027D01*
X122147771Y-104673676D01*
X122147762Y-104673681D01*
X121992092Y-104777697D01*
X121992088Y-104777700D01*
X121859700Y-104910088D01*
X121859697Y-104910092D01*
X121755681Y-105065762D01*
X121755676Y-105065771D01*
X121684027Y-105238748D01*
X121684025Y-105238756D01*
X121647500Y-105422379D01*
X121647500Y-105609620D01*
X121684025Y-105793243D01*
X121684027Y-105793251D01*
X121755676Y-105966228D01*
X121755681Y-105966237D01*
X121859697Y-106121907D01*
X121859700Y-106121911D01*
X121864608Y-106126819D01*
X121898093Y-106188142D01*
X121893109Y-106257834D01*
X121864608Y-106302181D01*
X121842200Y-106324588D01*
X121842197Y-106324592D01*
X121738181Y-106480262D01*
X121738176Y-106480271D01*
X121666527Y-106653248D01*
X121666525Y-106653256D01*
X121630000Y-106836879D01*
X121630000Y-107024120D01*
X121666525Y-107207743D01*
X121666527Y-107207751D01*
X121738176Y-107380728D01*
X121738181Y-107380737D01*
X121842197Y-107536407D01*
X121842200Y-107536411D01*
X121974588Y-107668799D01*
X121974592Y-107668802D01*
X122130262Y-107772818D01*
X122130271Y-107772823D01*
X122160579Y-107785377D01*
X122303249Y-107844473D01*
X122486879Y-107880999D01*
X122486883Y-107881000D01*
X122486884Y-107881000D01*
X122674117Y-107881000D01*
X122674118Y-107880999D01*
X122857751Y-107844473D01*
X123030731Y-107772822D01*
X123032866Y-107771395D01*
X123034154Y-107770991D01*
X123036098Y-107769953D01*
X123036295Y-107770321D01*
X123099542Y-107750520D01*
X123101753Y-107750500D01*
X128779192Y-107750500D01*
X128846231Y-107770185D01*
X128866873Y-107786819D01*
X129199989Y-108119934D01*
X129494724Y-108414669D01*
X129583344Y-108503289D01*
X129585332Y-108505277D01*
X129691866Y-108576461D01*
X129691872Y-108576464D01*
X129691873Y-108576465D01*
X129810256Y-108625501D01*
X129810260Y-108625501D01*
X129810261Y-108625502D01*
X129935928Y-108650500D01*
X129935931Y-108650500D01*
X132954928Y-108650500D01*
X132984370Y-108659145D01*
X133014357Y-108665669D01*
X133019371Y-108669422D01*
X133021967Y-108670185D01*
X133042605Y-108686815D01*
X133073609Y-108717819D01*
X133073610Y-108717820D01*
X133107094Y-108779144D01*
X133102108Y-108848835D01*
X133060236Y-108904768D01*
X132994771Y-108929184D01*
X132985927Y-108929500D01*
X130040929Y-108929500D01*
X129915261Y-108954497D01*
X129915255Y-108954499D01*
X129796874Y-109003534D01*
X129690326Y-109074726D01*
X127290710Y-111474342D01*
X127229387Y-111507827D01*
X127181245Y-111507315D01*
X127181055Y-111508516D01*
X127076111Y-111491894D01*
X126966287Y-111474500D01*
X126753713Y-111474500D01*
X126705042Y-111482208D01*
X126543760Y-111507753D01*
X126341585Y-111573444D01*
X126152179Y-111669951D01*
X125980213Y-111794890D01*
X125829890Y-111945213D01*
X125704949Y-112117182D01*
X125700484Y-112125946D01*
X125652509Y-112176742D01*
X125584688Y-112193536D01*
X125518553Y-112170998D01*
X125479516Y-112125946D01*
X125475050Y-112117182D01*
X125350109Y-111945213D01*
X125199786Y-111794890D01*
X125027820Y-111669951D01*
X124838414Y-111573444D01*
X124838413Y-111573443D01*
X124838412Y-111573443D01*
X124636243Y-111507754D01*
X124636241Y-111507753D01*
X124636240Y-111507753D01*
X124474957Y-111482208D01*
X124426287Y-111474500D01*
X124213713Y-111474500D01*
X124165042Y-111482208D01*
X124003760Y-111507753D01*
X123801585Y-111573444D01*
X123612179Y-111669951D01*
X123440213Y-111794890D01*
X123289890Y-111945213D01*
X123164949Y-112117182D01*
X123160484Y-112125946D01*
X123112509Y-112176742D01*
X123044688Y-112193536D01*
X122978553Y-112170998D01*
X122939516Y-112125946D01*
X122935050Y-112117182D01*
X122810109Y-111945213D01*
X122659786Y-111794890D01*
X122487820Y-111669951D01*
X122298414Y-111573444D01*
X122298413Y-111573443D01*
X122298412Y-111573443D01*
X122096243Y-111507754D01*
X122096241Y-111507753D01*
X122096240Y-111507753D01*
X121934957Y-111482208D01*
X121886287Y-111474500D01*
X121673713Y-111474500D01*
X121625042Y-111482208D01*
X121463760Y-111507753D01*
X121261585Y-111573444D01*
X121072179Y-111669951D01*
X120900213Y-111794890D01*
X120749890Y-111945213D01*
X120624949Y-112117182D01*
X120620484Y-112125946D01*
X120572509Y-112176742D01*
X120504688Y-112193536D01*
X120438553Y-112170998D01*
X120399516Y-112125946D01*
X120395050Y-112117182D01*
X120270109Y-111945213D01*
X120119786Y-111794890D01*
X119947820Y-111669951D01*
X119758414Y-111573444D01*
X119758413Y-111573443D01*
X119758412Y-111573443D01*
X119556243Y-111507754D01*
X119556241Y-111507753D01*
X119556240Y-111507753D01*
X119394957Y-111482208D01*
X119346287Y-111474500D01*
X119133713Y-111474500D01*
X119085042Y-111482208D01*
X118923760Y-111507753D01*
X118721585Y-111573444D01*
X118532179Y-111669951D01*
X118360213Y-111794890D01*
X118209890Y-111945213D01*
X118084949Y-112117182D01*
X118080484Y-112125946D01*
X118032509Y-112176742D01*
X117964688Y-112193536D01*
X117898553Y-112170998D01*
X117859516Y-112125946D01*
X117855050Y-112117182D01*
X117730109Y-111945213D01*
X117579786Y-111794890D01*
X117407820Y-111669951D01*
X117218414Y-111573444D01*
X117218413Y-111573443D01*
X117218412Y-111573443D01*
X117016243Y-111507754D01*
X117016241Y-111507753D01*
X117016240Y-111507753D01*
X116854957Y-111482208D01*
X116806287Y-111474500D01*
X116593713Y-111474500D01*
X116545042Y-111482208D01*
X116383760Y-111507753D01*
X116181585Y-111573444D01*
X115992179Y-111669951D01*
X115820213Y-111794890D01*
X115669890Y-111945213D01*
X115544949Y-112117182D01*
X115540484Y-112125946D01*
X115492509Y-112176742D01*
X115424688Y-112193536D01*
X115358553Y-112170998D01*
X115319516Y-112125946D01*
X115315050Y-112117182D01*
X115190109Y-111945213D01*
X115039786Y-111794890D01*
X114867820Y-111669951D01*
X114678414Y-111573444D01*
X114678413Y-111573443D01*
X114678412Y-111573443D01*
X114476243Y-111507754D01*
X114476241Y-111507753D01*
X114476240Y-111507753D01*
X114314957Y-111482208D01*
X114266287Y-111474500D01*
X114053713Y-111474500D01*
X114005042Y-111482208D01*
X113843760Y-111507753D01*
X113641585Y-111573444D01*
X113452179Y-111669951D01*
X113280215Y-111794889D01*
X113166673Y-111908431D01*
X113105350Y-111941915D01*
X113035658Y-111936931D01*
X112979725Y-111895059D01*
X112962810Y-111864082D01*
X112913797Y-111732671D01*
X112913793Y-111732664D01*
X112827547Y-111617455D01*
X112827544Y-111617452D01*
X112712335Y-111531206D01*
X112712328Y-111531202D01*
X112577482Y-111480908D01*
X112577483Y-111480908D01*
X112517883Y-111474501D01*
X112517881Y-111474500D01*
X112517873Y-111474500D01*
X112517864Y-111474500D01*
X110722129Y-111474500D01*
X110722123Y-111474501D01*
X110662516Y-111480908D01*
X110527671Y-111531202D01*
X110527664Y-111531206D01*
X110412455Y-111617452D01*
X110412452Y-111617455D01*
X110326206Y-111732664D01*
X110326202Y-111732671D01*
X110275908Y-111867517D01*
X110269501Y-111927116D01*
X110269500Y-111927135D01*
X110269500Y-113722870D01*
X110269501Y-113722876D01*
X110275908Y-113782483D01*
X110329303Y-113925641D01*
X110327724Y-113926229D01*
X110340370Y-113984338D01*
X110315957Y-114049804D01*
X110260026Y-114091679D01*
X110216685Y-114099500D01*
X107270789Y-114099500D01*
X107203750Y-114079815D01*
X107157995Y-114027011D01*
X107148051Y-113957853D01*
X107177076Y-113894297D01*
X107223336Y-113860939D01*
X107448241Y-113767780D01*
X107448255Y-113767773D01*
X107751518Y-113605677D01*
X107751536Y-113605666D01*
X108037453Y-113414622D01*
X108037466Y-113414612D01*
X108242659Y-113246213D01*
X108242659Y-113246212D01*
X106819105Y-111822659D01*
X106927184Y-111744136D01*
X107094136Y-111577184D01*
X107172659Y-111469106D01*
X108596212Y-112892659D01*
X108596213Y-112892659D01*
X108764612Y-112687466D01*
X108764622Y-112687453D01*
X108955666Y-112401536D01*
X108955677Y-112401518D01*
X109117773Y-112098255D01*
X109117780Y-112098241D01*
X109249376Y-111780540D01*
X109349207Y-111451443D01*
X109349208Y-111451437D01*
X109416291Y-111114182D01*
X109416294Y-111114165D01*
X109450000Y-110771940D01*
X109450000Y-110428059D01*
X109416294Y-110085834D01*
X109416291Y-110085817D01*
X109349208Y-109748562D01*
X109349207Y-109748556D01*
X109249376Y-109419459D01*
X109117780Y-109101758D01*
X109117773Y-109101744D01*
X108955677Y-108798481D01*
X108955666Y-108798463D01*
X108764622Y-108512546D01*
X108764612Y-108512533D01*
X108596213Y-108307339D01*
X108596212Y-108307338D01*
X107172658Y-109730892D01*
X107094136Y-109622816D01*
X106927184Y-109455864D01*
X106819105Y-109377340D01*
X108242660Y-107953786D01*
X108242659Y-107953785D01*
X108037467Y-107785387D01*
X108037453Y-107785377D01*
X107751536Y-107594333D01*
X107751518Y-107594322D01*
X107448255Y-107432226D01*
X107448241Y-107432219D01*
X107130540Y-107300623D01*
X106801443Y-107200792D01*
X106801437Y-107200791D01*
X106464182Y-107133708D01*
X106464165Y-107133705D01*
X106121941Y-107100000D01*
X105778059Y-107100000D01*
X105435834Y-107133705D01*
X105435817Y-107133708D01*
X105098562Y-107200791D01*
X105098556Y-107200792D01*
X104769459Y-107300623D01*
X104451758Y-107432219D01*
X104451744Y-107432226D01*
X104148481Y-107594322D01*
X104148463Y-107594333D01*
X103862546Y-107785377D01*
X103862532Y-107785387D01*
X103657338Y-107953786D01*
X105080893Y-109377341D01*
X104972816Y-109455864D01*
X104805864Y-109622816D01*
X104727340Y-109730893D01*
X103303786Y-108307338D01*
X103135387Y-108512532D01*
X103135377Y-108512546D01*
X102944333Y-108798463D01*
X102944322Y-108798481D01*
X102782226Y-109101744D01*
X102782219Y-109101758D01*
X102739061Y-109205952D01*
X102695220Y-109260355D01*
X102628926Y-109282420D01*
X102561226Y-109265141D01*
X102513616Y-109214003D01*
X102500500Y-109158499D01*
X102500500Y-105803379D01*
X114027500Y-105803379D01*
X114027500Y-105990620D01*
X114064025Y-106174243D01*
X114064027Y-106174251D01*
X114135676Y-106347228D01*
X114135681Y-106347237D01*
X114239697Y-106502907D01*
X114239700Y-106502911D01*
X114372088Y-106635299D01*
X114372092Y-106635302D01*
X114527762Y-106739318D01*
X114527768Y-106739321D01*
X114527769Y-106739322D01*
X114700749Y-106810973D01*
X114884379Y-106847499D01*
X114884383Y-106847500D01*
X114884384Y-106847500D01*
X115071617Y-106847500D01*
X115071618Y-106847499D01*
X115255251Y-106810973D01*
X115428231Y-106739322D01*
X115583908Y-106635302D01*
X115716302Y-106502908D01*
X115820322Y-106347231D01*
X115891973Y-106174251D01*
X115928500Y-105990616D01*
X115928500Y-105803384D01*
X115891973Y-105619749D01*
X115820322Y-105446769D01*
X115820321Y-105446768D01*
X115820318Y-105446762D01*
X115716302Y-105291092D01*
X115716299Y-105291088D01*
X115583911Y-105158700D01*
X115583907Y-105158697D01*
X115428237Y-105054681D01*
X115428228Y-105054676D01*
X115255251Y-104983027D01*
X115255243Y-104983025D01*
X115201350Y-104972305D01*
X115139439Y-104939920D01*
X115104865Y-104879205D01*
X115108604Y-104809435D01*
X115149470Y-104752763D01*
X115201350Y-104729071D01*
X115234762Y-104722424D01*
X115277251Y-104713973D01*
X115450231Y-104642322D01*
X115605908Y-104538302D01*
X115738302Y-104405908D01*
X115831379Y-104266609D01*
X115884991Y-104221804D01*
X115934481Y-104211500D01*
X133140571Y-104211500D01*
X133140587Y-104211501D01*
X133148183Y-104211501D01*
X133306294Y-104211501D01*
X133306297Y-104211501D01*
X133459025Y-104170577D01*
X133526169Y-104131811D01*
X133595956Y-104091520D01*
X133707760Y-103979716D01*
X133707760Y-103979714D01*
X133717964Y-103969511D01*
X133717967Y-103969506D01*
X135450656Y-102236819D01*
X135511979Y-102203334D01*
X135538337Y-102200500D01*
X142175331Y-102200500D01*
X142175347Y-102200501D01*
X142182943Y-102200501D01*
X142341054Y-102200501D01*
X142341057Y-102200501D01*
X142493785Y-102159577D01*
X142576237Y-102111973D01*
X142630716Y-102080520D01*
X142742520Y-101968716D01*
X142742520Y-101968714D01*
X142752724Y-101958511D01*
X142752728Y-101958506D01*
X143796415Y-100914819D01*
X143857738Y-100881334D01*
X143884096Y-100878500D01*
X144027617Y-100878500D01*
X144027618Y-100878499D01*
X144211251Y-100841973D01*
X144384231Y-100770322D01*
X144539908Y-100666302D01*
X144672302Y-100533908D01*
X144776322Y-100378231D01*
X144847973Y-100205251D01*
X144884500Y-100021616D01*
X144884500Y-99834384D01*
X144884500Y-99833500D01*
X144904185Y-99766461D01*
X144956989Y-99720706D01*
X145008500Y-99709500D01*
X147575110Y-99709500D01*
X147642149Y-99729185D01*
X147687904Y-99781989D01*
X147689671Y-99786048D01*
X147757674Y-99950224D01*
X147757681Y-99950237D01*
X147861697Y-100105907D01*
X147861700Y-100105911D01*
X147994088Y-100238299D01*
X147994092Y-100238302D01*
X148149762Y-100342318D01*
X148149768Y-100342321D01*
X148149769Y-100342322D01*
X148322749Y-100413973D01*
X148506379Y-100450499D01*
X148506383Y-100450500D01*
X148506384Y-100450500D01*
X148693617Y-100450500D01*
X148693618Y-100450499D01*
X148877251Y-100413973D01*
X149050231Y-100342322D01*
X149205908Y-100238302D01*
X149338302Y-100105908D01*
X149442322Y-99950231D01*
X149513973Y-99777251D01*
X149550500Y-99593616D01*
X149550500Y-99406384D01*
X149513973Y-99222749D01*
X149442516Y-99050237D01*
X149442323Y-99049771D01*
X149442318Y-99049762D01*
X149338302Y-98894092D01*
X149338299Y-98894088D01*
X149205911Y-98761700D01*
X149205907Y-98761697D01*
X149050237Y-98657681D01*
X149050227Y-98657676D01*
X148946843Y-98614853D01*
X148877251Y-98586027D01*
X148877243Y-98586025D01*
X148693620Y-98549500D01*
X148693616Y-98549500D01*
X148506384Y-98549500D01*
X148497254Y-98551315D01*
X148440971Y-98549473D01*
X148440785Y-98549423D01*
X148288057Y-98508499D01*
X148129943Y-98508499D01*
X148122347Y-98508499D01*
X148122331Y-98508500D01*
X143696669Y-98508500D01*
X143696653Y-98508499D01*
X143689057Y-98508499D01*
X143530943Y-98508499D01*
X143423587Y-98537265D01*
X143378210Y-98549424D01*
X143378209Y-98549425D01*
X143328096Y-98578359D01*
X143328095Y-98578360D01*
X143284689Y-98603420D01*
X143241285Y-98628479D01*
X143241282Y-98628481D01*
X143176148Y-98693616D01*
X143129480Y-98740284D01*
X143129478Y-98740286D01*
X142276145Y-99593620D01*
X141435584Y-100434181D01*
X141374261Y-100467666D01*
X141347903Y-100470500D01*
X135130669Y-100470500D01*
X135130653Y-100470499D01*
X135123057Y-100470499D01*
X134964943Y-100470499D01*
X134865284Y-100497203D01*
X134812210Y-100511424D01*
X134812209Y-100511425D01*
X134773271Y-100533907D01*
X134773270Y-100533908D01*
X134675287Y-100590477D01*
X134675282Y-100590481D01*
X133307697Y-101958067D01*
X133137067Y-102128697D01*
X132799584Y-102466181D01*
X132738261Y-102499666D01*
X132711903Y-102502500D01*
X116548097Y-102502500D01*
X116481058Y-102482815D01*
X116460416Y-102466181D01*
X116218819Y-102224584D01*
X116185334Y-102163261D01*
X116182500Y-102136903D01*
X116182500Y-101993383D01*
X116182499Y-101993379D01*
X116161597Y-101888299D01*
X116145973Y-101809749D01*
X116079070Y-101648231D01*
X116074323Y-101636771D01*
X116074318Y-101636762D01*
X115970302Y-101481092D01*
X115970299Y-101481088D01*
X115837911Y-101348700D01*
X115837907Y-101348697D01*
X115682237Y-101244681D01*
X115682228Y-101244676D01*
X115509251Y-101173027D01*
X115509243Y-101173025D01*
X115325620Y-101136500D01*
X115325616Y-101136500D01*
X115138384Y-101136500D01*
X115138379Y-101136500D01*
X114954756Y-101173025D01*
X114954748Y-101173027D01*
X114781771Y-101244676D01*
X114781762Y-101244681D01*
X114626092Y-101348697D01*
X114626088Y-101348700D01*
X114493700Y-101481088D01*
X114493697Y-101481092D01*
X114389681Y-101636762D01*
X114389676Y-101636771D01*
X114318027Y-101809748D01*
X114318025Y-101809756D01*
X114281500Y-101993379D01*
X114281500Y-102180620D01*
X114318025Y-102364243D01*
X114318027Y-102364251D01*
X114389676Y-102537228D01*
X114389681Y-102537237D01*
X114493697Y-102692907D01*
X114493700Y-102692911D01*
X114568034Y-102767245D01*
X114601519Y-102828568D01*
X114596535Y-102898260D01*
X114554663Y-102954193D01*
X114549244Y-102958028D01*
X114394092Y-103061697D01*
X114394088Y-103061700D01*
X114261700Y-103194088D01*
X114261697Y-103194092D01*
X114157681Y-103349762D01*
X114157676Y-103349771D01*
X114086027Y-103522748D01*
X114086025Y-103522756D01*
X114049500Y-103706379D01*
X114049500Y-103893620D01*
X114086025Y-104077243D01*
X114086027Y-104077251D01*
X114157676Y-104250228D01*
X114157681Y-104250237D01*
X114261697Y-104405907D01*
X114261700Y-104405911D01*
X114394088Y-104538299D01*
X114394092Y-104538302D01*
X114549762Y-104642318D01*
X114549768Y-104642321D01*
X114549769Y-104642322D01*
X114722749Y-104713973D01*
X114776649Y-104724694D01*
X114838559Y-104757077D01*
X114873134Y-104817793D01*
X114869395Y-104887562D01*
X114828530Y-104944235D01*
X114776651Y-104967928D01*
X114700753Y-104983025D01*
X114700748Y-104983027D01*
X114527771Y-105054676D01*
X114527762Y-105054681D01*
X114372092Y-105158697D01*
X114372088Y-105158700D01*
X114239700Y-105291088D01*
X114239697Y-105291092D01*
X114135681Y-105446762D01*
X114135676Y-105446771D01*
X114064027Y-105619748D01*
X114064025Y-105619756D01*
X114027500Y-105803379D01*
X102500500Y-105803379D01*
X102500500Y-100599983D01*
X103799500Y-100599983D01*
X103799500Y-101900001D01*
X103799501Y-101900018D01*
X103810000Y-102002796D01*
X103810001Y-102002799D01*
X103865185Y-102169331D01*
X103865187Y-102169336D01*
X103957289Y-102318657D01*
X104081344Y-102442712D01*
X104236120Y-102538178D01*
X104282845Y-102590126D01*
X104294068Y-102659088D01*
X104266224Y-102723171D01*
X104258706Y-102731398D01*
X104119889Y-102870215D01*
X103994951Y-103042179D01*
X103898444Y-103231585D01*
X103832753Y-103433760D01*
X103799500Y-103643713D01*
X103799500Y-103856286D01*
X103831959Y-104061228D01*
X103832754Y-104066243D01*
X103897857Y-104266609D01*
X103898444Y-104268414D01*
X103994951Y-104457820D01*
X104119890Y-104629786D01*
X104270213Y-104780109D01*
X104442179Y-104905048D01*
X104442181Y-104905049D01*
X104442184Y-104905051D01*
X104631588Y-105001557D01*
X104833757Y-105067246D01*
X105043713Y-105100500D01*
X105043714Y-105100500D01*
X105556286Y-105100500D01*
X105556287Y-105100500D01*
X105766243Y-105067246D01*
X105968412Y-105001557D01*
X106157816Y-104905051D01*
X106193390Y-104879205D01*
X106329786Y-104780109D01*
X106329788Y-104780106D01*
X106329792Y-104780104D01*
X106480104Y-104629792D01*
X106480106Y-104629788D01*
X106480109Y-104629786D01*
X106605048Y-104457820D01*
X106605047Y-104457820D01*
X106605051Y-104457816D01*
X106701557Y-104268412D01*
X106767246Y-104066243D01*
X106800500Y-103856287D01*
X106800500Y-103643713D01*
X106767246Y-103433757D01*
X106701557Y-103231588D01*
X106605051Y-103042184D01*
X106605049Y-103042181D01*
X106605048Y-103042179D01*
X106480109Y-102870213D01*
X106346327Y-102736431D01*
X106312842Y-102675108D01*
X106317826Y-102605416D01*
X106359698Y-102549483D01*
X106395196Y-102530981D01*
X107227410Y-102256729D01*
X107266220Y-102250500D01*
X108948542Y-102250500D01*
X108962204Y-102247781D01*
X109045188Y-102231275D01*
X109141836Y-102212051D01*
X109233206Y-102174204D01*
X109323914Y-102136632D01*
X109487782Y-102027139D01*
X109627139Y-101887782D01*
X109627139Y-101887780D01*
X109637347Y-101877573D01*
X109637348Y-101877570D01*
X110458540Y-101056379D01*
X125399500Y-101056379D01*
X125399500Y-101243620D01*
X125436025Y-101427243D01*
X125436027Y-101427251D01*
X125507676Y-101600228D01*
X125507681Y-101600237D01*
X125611697Y-101755907D01*
X125611700Y-101755911D01*
X125744088Y-101888299D01*
X125744092Y-101888302D01*
X125899762Y-101992318D01*
X125899771Y-101992323D01*
X125938956Y-102008554D01*
X126072749Y-102063973D01*
X126204175Y-102090115D01*
X126256379Y-102100499D01*
X126256383Y-102100500D01*
X126256384Y-102100500D01*
X126443617Y-102100500D01*
X126443618Y-102100499D01*
X126627251Y-102063973D01*
X126800231Y-101992322D01*
X126955908Y-101888302D01*
X126956431Y-101887779D01*
X126959392Y-101884819D01*
X127020715Y-101851334D01*
X127047073Y-101848500D01*
X131631928Y-101848500D01*
X131698967Y-101868185D01*
X131719610Y-101884820D01*
X131771088Y-101936299D01*
X131771092Y-101936302D01*
X131926762Y-102040318D01*
X131926768Y-102040321D01*
X131926769Y-102040322D01*
X132099749Y-102111973D01*
X132225082Y-102136903D01*
X132283379Y-102148499D01*
X132283383Y-102148500D01*
X132283384Y-102148500D01*
X132470617Y-102148500D01*
X132470618Y-102148499D01*
X132654251Y-102111973D01*
X132827231Y-102040322D01*
X132982908Y-101936302D01*
X133115302Y-101803908D01*
X133219322Y-101648231D01*
X133290973Y-101475251D01*
X133327500Y-101291616D01*
X133327500Y-101104384D01*
X133290973Y-100920749D01*
X133219322Y-100747769D01*
X133219321Y-100747768D01*
X133219318Y-100747762D01*
X133115302Y-100592092D01*
X133115299Y-100592088D01*
X132982911Y-100459700D01*
X132982907Y-100459697D01*
X132827237Y-100355681D01*
X132827228Y-100355676D01*
X132654251Y-100284027D01*
X132654243Y-100284025D01*
X132470620Y-100247500D01*
X132470616Y-100247500D01*
X132283384Y-100247500D01*
X132283379Y-100247500D01*
X132099756Y-100284025D01*
X132099748Y-100284027D01*
X131926771Y-100355676D01*
X131926762Y-100355681D01*
X131771092Y-100459697D01*
X131771088Y-100459700D01*
X131719610Y-100511180D01*
X131658287Y-100544666D01*
X131631928Y-100547500D01*
X127143072Y-100547500D01*
X127076033Y-100527815D01*
X127055395Y-100511185D01*
X126955908Y-100411698D01*
X126955907Y-100411697D01*
X126955906Y-100411696D01*
X126800237Y-100307681D01*
X126800228Y-100307676D01*
X126627251Y-100236027D01*
X126627243Y-100236025D01*
X126443620Y-100199500D01*
X126443616Y-100199500D01*
X126256384Y-100199500D01*
X126256379Y-100199500D01*
X126072756Y-100236025D01*
X126072748Y-100236027D01*
X125899771Y-100307676D01*
X125899762Y-100307681D01*
X125744092Y-100411697D01*
X125744088Y-100411700D01*
X125611700Y-100544088D01*
X125611697Y-100544092D01*
X125507681Y-100699762D01*
X125507676Y-100699771D01*
X125436027Y-100872748D01*
X125436025Y-100872756D01*
X125399500Y-101056379D01*
X110458540Y-101056379D01*
X111566102Y-99948819D01*
X111627425Y-99915334D01*
X111653783Y-99912500D01*
X139286542Y-99912500D01*
X139317168Y-99906407D01*
X139383188Y-99893275D01*
X139479836Y-99874051D01*
X139575600Y-99834384D01*
X139661914Y-99798632D01*
X139825782Y-99689139D01*
X139965139Y-99549782D01*
X139965140Y-99549779D01*
X140478103Y-99036816D01*
X140539425Y-99003334D01*
X140565783Y-99000500D01*
X141698543Y-99000500D01*
X141828582Y-98974632D01*
X141891835Y-98962051D01*
X142055904Y-98894092D01*
X142073907Y-98886635D01*
X142073907Y-98886634D01*
X142073914Y-98886632D01*
X142237782Y-98777139D01*
X142377139Y-98637782D01*
X142464940Y-98506379D01*
X150149500Y-98506379D01*
X150149500Y-98693620D01*
X150186025Y-98877243D01*
X150186027Y-98877251D01*
X150257676Y-99050228D01*
X150257681Y-99050237D01*
X150361697Y-99205907D01*
X150361700Y-99205911D01*
X150494088Y-99338299D01*
X150494092Y-99338302D01*
X150649762Y-99442318D01*
X150649768Y-99442321D01*
X150649769Y-99442322D01*
X150822749Y-99513973D01*
X151002759Y-99549779D01*
X151006379Y-99550499D01*
X151006383Y-99550500D01*
X151006384Y-99550500D01*
X151193617Y-99550500D01*
X151193618Y-99550499D01*
X151377251Y-99513973D01*
X151550231Y-99442322D01*
X151705908Y-99338302D01*
X151838302Y-99205908D01*
X151942322Y-99050231D01*
X152013973Y-98877251D01*
X152050500Y-98693616D01*
X152050500Y-98506384D01*
X152013973Y-98322749D01*
X151942322Y-98149769D01*
X151942321Y-98149768D01*
X151942318Y-98149762D01*
X151838302Y-97994092D01*
X151838299Y-97994088D01*
X151705911Y-97861700D01*
X151705907Y-97861697D01*
X151550237Y-97757681D01*
X151550228Y-97757676D01*
X151377251Y-97686027D01*
X151377243Y-97686025D01*
X151193620Y-97649500D01*
X151193616Y-97649500D01*
X151006384Y-97649500D01*
X151006379Y-97649500D01*
X150822756Y-97686025D01*
X150822748Y-97686027D01*
X150649771Y-97757676D01*
X150649762Y-97757681D01*
X150494092Y-97861697D01*
X150494088Y-97861700D01*
X150361700Y-97994088D01*
X150361697Y-97994092D01*
X150257681Y-98149762D01*
X150257676Y-98149771D01*
X150186027Y-98322748D01*
X150186025Y-98322756D01*
X150149500Y-98506379D01*
X142464940Y-98506379D01*
X142486632Y-98473914D01*
X142562051Y-98291835D01*
X142574632Y-98228582D01*
X142600500Y-98098543D01*
X142600500Y-97901456D01*
X142562052Y-97708170D01*
X142562051Y-97708169D01*
X142562051Y-97708165D01*
X142552881Y-97686027D01*
X142486635Y-97526092D01*
X142486628Y-97526079D01*
X142377139Y-97362218D01*
X142377136Y-97362214D01*
X142237785Y-97222863D01*
X142237781Y-97222860D01*
X142204296Y-97200486D01*
X152454500Y-97200486D01*
X152454500Y-97385514D01*
X152467752Y-97469185D01*
X152483445Y-97568265D01*
X152540619Y-97744232D01*
X152540620Y-97744235D01*
X152600471Y-97861697D01*
X152624622Y-97909096D01*
X152733379Y-98058787D01*
X152864213Y-98189621D01*
X152868421Y-98192678D01*
X152868432Y-98192686D01*
X152911094Y-98248019D01*
X152917069Y-98317633D01*
X152884459Y-98379426D01*
X152868432Y-98393314D01*
X152864210Y-98396381D01*
X152733381Y-98527210D01*
X152733381Y-98527211D01*
X152733379Y-98527213D01*
X152696218Y-98578361D01*
X152624622Y-98676903D01*
X152540620Y-98841764D01*
X152540619Y-98841767D01*
X152483445Y-99017734D01*
X152454500Y-99200486D01*
X152454500Y-99385513D01*
X152483445Y-99568265D01*
X152540619Y-99744232D01*
X152540620Y-99744235D01*
X152616561Y-99893275D01*
X152624622Y-99909096D01*
X152733379Y-100058787D01*
X152864213Y-100189621D01*
X152868847Y-100192988D01*
X152911515Y-100248313D01*
X152917498Y-100317926D01*
X152884895Y-100379723D01*
X152868860Y-100393620D01*
X152864542Y-100396757D01*
X152864536Y-100396762D01*
X152733758Y-100527540D01*
X152733754Y-100527545D01*
X152625052Y-100677162D01*
X152541084Y-100841956D01*
X152541082Y-100841962D01*
X152483932Y-101017855D01*
X152479950Y-101042999D01*
X152479950Y-101043000D01*
X153314314Y-101043000D01*
X153309920Y-101047394D01*
X153257259Y-101138606D01*
X153230000Y-101240339D01*
X153230000Y-101345661D01*
X153257259Y-101447394D01*
X153309920Y-101538606D01*
X153314314Y-101543000D01*
X152479950Y-101543000D01*
X152483932Y-101568144D01*
X152541082Y-101744037D01*
X152541084Y-101744043D01*
X152625049Y-101908833D01*
X152708946Y-102024308D01*
X152732425Y-102090115D01*
X152716599Y-102158169D01*
X152682939Y-102196459D01*
X152597452Y-102260455D01*
X152511206Y-102375664D01*
X152511202Y-102375671D01*
X152460908Y-102510517D01*
X152455713Y-102558841D01*
X152454501Y-102570123D01*
X152454500Y-102570135D01*
X152454500Y-104015870D01*
X152454501Y-104015876D01*
X152460908Y-104075483D01*
X152511202Y-104210328D01*
X152511206Y-104210335D01*
X152597452Y-104325544D01*
X152597455Y-104325547D01*
X152712664Y-104411793D01*
X152712671Y-104411797D01*
X152847517Y-104462091D01*
X152847516Y-104462091D01*
X152854444Y-104462835D01*
X152907127Y-104468500D01*
X154352872Y-104468499D01*
X154412483Y-104462091D01*
X154547331Y-104411796D01*
X154662546Y-104325546D01*
X154748796Y-104210331D01*
X154799091Y-104075483D01*
X154805500Y-104015873D01*
X154805499Y-102570128D01*
X154799091Y-102510517D01*
X154773801Y-102442712D01*
X154748797Y-102375671D01*
X154748793Y-102375664D01*
X154662547Y-102260455D01*
X154577059Y-102196458D01*
X154535189Y-102140524D01*
X154530205Y-102070832D01*
X154551054Y-102024306D01*
X154634947Y-101908838D01*
X154718915Y-101744043D01*
X154718917Y-101744037D01*
X154776067Y-101568144D01*
X154780049Y-101543000D01*
X153945686Y-101543000D01*
X153950080Y-101538606D01*
X154002741Y-101447394D01*
X154030000Y-101345661D01*
X154030000Y-101240339D01*
X154002741Y-101138606D01*
X153950080Y-101047394D01*
X153945686Y-101043000D01*
X154780050Y-101043000D01*
X154780049Y-101042999D01*
X154776067Y-101017855D01*
X154718917Y-100841962D01*
X154718915Y-100841956D01*
X154634947Y-100677162D01*
X154526245Y-100527545D01*
X154526241Y-100527540D01*
X154395459Y-100396758D01*
X154395452Y-100396752D01*
X154391148Y-100393625D01*
X154348482Y-100338295D01*
X154342504Y-100268682D01*
X154375110Y-100206887D01*
X154391155Y-100192986D01*
X154395787Y-100189621D01*
X154526621Y-100058787D01*
X154635378Y-99909096D01*
X154719379Y-99744235D01*
X154776555Y-99568264D01*
X154805500Y-99385514D01*
X154805500Y-99200486D01*
X154776555Y-99017736D01*
X154730909Y-98877251D01*
X154719380Y-98841767D01*
X154719379Y-98841764D01*
X154643895Y-98693620D01*
X154635378Y-98676904D01*
X154526621Y-98527213D01*
X154395787Y-98396379D01*
X154391576Y-98393319D01*
X154348909Y-98337994D01*
X154342926Y-98268381D01*
X154375529Y-98206585D01*
X154391570Y-98192684D01*
X154395787Y-98189621D01*
X154526621Y-98058787D01*
X154635378Y-97909096D01*
X154719379Y-97744235D01*
X154776555Y-97568264D01*
X154805500Y-97385514D01*
X154805500Y-97200486D01*
X154776555Y-97017736D01*
X154719379Y-96841765D01*
X154719379Y-96841764D01*
X154650156Y-96705908D01*
X154635378Y-96676904D01*
X154526621Y-96527213D01*
X154395787Y-96396379D01*
X154246096Y-96287622D01*
X154242962Y-96286025D01*
X154081235Y-96203620D01*
X154081232Y-96203619D01*
X153905265Y-96146445D01*
X153813889Y-96131972D01*
X153722514Y-96117500D01*
X153537486Y-96117500D01*
X153476569Y-96127148D01*
X153354734Y-96146445D01*
X153178767Y-96203619D01*
X153178764Y-96203620D01*
X153013903Y-96287622D01*
X152928499Y-96349672D01*
X152864213Y-96396379D01*
X152864211Y-96396381D01*
X152864210Y-96396381D01*
X152733381Y-96527210D01*
X152733381Y-96527211D01*
X152733379Y-96527213D01*
X152716651Y-96550237D01*
X152624622Y-96676903D01*
X152540620Y-96841764D01*
X152540619Y-96841767D01*
X152483445Y-97017734D01*
X152469404Y-97106384D01*
X152454500Y-97200486D01*
X142204296Y-97200486D01*
X142073920Y-97113371D01*
X142073907Y-97113364D01*
X141891839Y-97037950D01*
X141891829Y-97037947D01*
X141698543Y-96999500D01*
X141698541Y-96999500D01*
X139898541Y-96999500D01*
X139701459Y-96999500D01*
X139701457Y-96999500D01*
X139508170Y-97037947D01*
X139508160Y-97037950D01*
X139326092Y-97113364D01*
X139326079Y-97113371D01*
X139162218Y-97222860D01*
X139162214Y-97222863D01*
X139022863Y-97362214D01*
X139022860Y-97362218D01*
X138913371Y-97526079D01*
X138913364Y-97526092D01*
X138837949Y-97708162D01*
X138837947Y-97708170D01*
X138817355Y-97811692D01*
X138784970Y-97873603D01*
X138724254Y-97908177D01*
X138695738Y-97911500D01*
X133499736Y-97911500D01*
X133432697Y-97891815D01*
X133386942Y-97839011D01*
X133376998Y-97769853D01*
X133396634Y-97718609D01*
X133442318Y-97650237D01*
X133442318Y-97650236D01*
X133442322Y-97650231D01*
X133513973Y-97477251D01*
X133550500Y-97293616D01*
X133550500Y-97106384D01*
X133513973Y-96922749D01*
X133442322Y-96749769D01*
X133442321Y-96749768D01*
X133442318Y-96749762D01*
X133338302Y-96594092D01*
X133338299Y-96594088D01*
X133205911Y-96461700D01*
X133205907Y-96461697D01*
X133050237Y-96357681D01*
X133050228Y-96357676D01*
X132877251Y-96286027D01*
X132877243Y-96286025D01*
X132693620Y-96249500D01*
X132693616Y-96249500D01*
X132506384Y-96249500D01*
X132506379Y-96249500D01*
X132322756Y-96286025D01*
X132322748Y-96286027D01*
X132149771Y-96357676D01*
X132149762Y-96357681D01*
X131994092Y-96461697D01*
X131994088Y-96461700D01*
X131942610Y-96513180D01*
X131881287Y-96546666D01*
X131854928Y-96549500D01*
X124053500Y-96549500D01*
X123986461Y-96529815D01*
X123940706Y-96477011D01*
X123929500Y-96425500D01*
X123929500Y-96405383D01*
X123929499Y-96405379D01*
X123906076Y-96287622D01*
X123892973Y-96221749D01*
X123837554Y-96087956D01*
X123821323Y-96048771D01*
X123821318Y-96048762D01*
X123717302Y-95893092D01*
X123717299Y-95893088D01*
X123661392Y-95837181D01*
X123627907Y-95775858D01*
X123632891Y-95706166D01*
X123674763Y-95650233D01*
X123740227Y-95625816D01*
X123749073Y-95625500D01*
X131758928Y-95625500D01*
X131825967Y-95645185D01*
X131846610Y-95661820D01*
X131898088Y-95713299D01*
X131898092Y-95713302D01*
X132053762Y-95817318D01*
X132053771Y-95817323D01*
X132086073Y-95830703D01*
X132226749Y-95888973D01*
X132410379Y-95925499D01*
X132410383Y-95925500D01*
X132410384Y-95925500D01*
X132597617Y-95925500D01*
X132597618Y-95925499D01*
X132781251Y-95888973D01*
X132954231Y-95817322D01*
X133109908Y-95713302D01*
X133242302Y-95580908D01*
X133346322Y-95425231D01*
X133417973Y-95252251D01*
X133454500Y-95068616D01*
X133454500Y-94881384D01*
X133417973Y-94697749D01*
X133346322Y-94524769D01*
X133346321Y-94524768D01*
X133346318Y-94524762D01*
X133242302Y-94369092D01*
X133242299Y-94369088D01*
X133109911Y-94236700D01*
X133109907Y-94236697D01*
X132954237Y-94132681D01*
X132954228Y-94132676D01*
X132781251Y-94061027D01*
X132781243Y-94061025D01*
X132597620Y-94024500D01*
X132597616Y-94024500D01*
X132410384Y-94024500D01*
X132410379Y-94024500D01*
X132226756Y-94061025D01*
X132226748Y-94061027D01*
X132053771Y-94132676D01*
X132053762Y-94132681D01*
X131898092Y-94236697D01*
X131898088Y-94236700D01*
X131846610Y-94288180D01*
X131785287Y-94321666D01*
X131758928Y-94324500D01*
X122582038Y-94324500D01*
X122514999Y-94304815D01*
X122469244Y-94252011D01*
X122467477Y-94247953D01*
X122441396Y-94184990D01*
X122424322Y-94143769D01*
X122424320Y-94143766D01*
X122424318Y-94143762D01*
X122320302Y-93988092D01*
X122320299Y-93988088D01*
X122187911Y-93855700D01*
X122187907Y-93855697D01*
X122032237Y-93751681D01*
X122032228Y-93751676D01*
X121859251Y-93680027D01*
X121859243Y-93680025D01*
X121675620Y-93643500D01*
X121675616Y-93643500D01*
X121488384Y-93643500D01*
X121488379Y-93643500D01*
X121304756Y-93680025D01*
X121304748Y-93680027D01*
X121131771Y-93751676D01*
X121131762Y-93751681D01*
X120976092Y-93855697D01*
X120976088Y-93855700D01*
X120843700Y-93988088D01*
X120843697Y-93988092D01*
X120739681Y-94143762D01*
X120739676Y-94143771D01*
X120668027Y-94316748D01*
X120668025Y-94316756D01*
X120631500Y-94500379D01*
X120631500Y-94687620D01*
X120668025Y-94871243D01*
X120668027Y-94871251D01*
X120739676Y-95044228D01*
X120739681Y-95044237D01*
X120843697Y-95199907D01*
X120843700Y-95199911D01*
X120976088Y-95332299D01*
X120976092Y-95332302D01*
X121131762Y-95436318D01*
X121131771Y-95436323D01*
X121170956Y-95452554D01*
X121304749Y-95507973D01*
X121463956Y-95539641D01*
X121488379Y-95544499D01*
X121488383Y-95544500D01*
X121488384Y-95544500D01*
X121675614Y-95544500D01*
X121675616Y-95544500D01*
X121700041Y-95539641D01*
X121769629Y-95545867D01*
X121780642Y-95550955D01*
X121781872Y-95551464D01*
X121781873Y-95551465D01*
X121900256Y-95600501D01*
X121900260Y-95600501D01*
X121900261Y-95600502D01*
X122025928Y-95625500D01*
X122025931Y-95625500D01*
X122208927Y-95625500D01*
X122275966Y-95645185D01*
X122321721Y-95697989D01*
X122331665Y-95767147D01*
X122302640Y-95830703D01*
X122296608Y-95837181D01*
X122240700Y-95893088D01*
X122240697Y-95893092D01*
X122136681Y-96048762D01*
X122136676Y-96048771D01*
X122065027Y-96221748D01*
X122065025Y-96221756D01*
X122028500Y-96405379D01*
X122028500Y-96592620D01*
X122065025Y-96776243D01*
X122065027Y-96776251D01*
X122136676Y-96949228D01*
X122136681Y-96949237D01*
X122240697Y-97104907D01*
X122240700Y-97104911D01*
X122373088Y-97237299D01*
X122373092Y-97237302D01*
X122528762Y-97341318D01*
X122528768Y-97341321D01*
X122528769Y-97341322D01*
X122701749Y-97412973D01*
X122885379Y-97449499D01*
X122885383Y-97449500D01*
X122885384Y-97449500D01*
X122958192Y-97449500D01*
X123025231Y-97469185D01*
X123045873Y-97485819D01*
X123259872Y-97699819D01*
X123293357Y-97761142D01*
X123288373Y-97830834D01*
X123246501Y-97886767D01*
X123181037Y-97911184D01*
X123172191Y-97911500D01*
X111089457Y-97911500D01*
X111039454Y-97921446D01*
X111014452Y-97926420D01*
X110896167Y-97949947D01*
X110896159Y-97949950D01*
X110842834Y-97972037D01*
X110842834Y-97972038D01*
X110809205Y-97985967D01*
X110714088Y-98025366D01*
X110611946Y-98093616D01*
X110611945Y-98093617D01*
X110550215Y-98134862D01*
X110550214Y-98134863D01*
X108471899Y-100213181D01*
X108410576Y-100246666D01*
X108384218Y-100249500D01*
X107266223Y-100249500D01*
X107227413Y-100243270D01*
X107212328Y-100238299D01*
X107064606Y-100189618D01*
X106310657Y-99941159D01*
X106310654Y-99941158D01*
X106310650Y-99941157D01*
X106287911Y-99935567D01*
X106261841Y-99929159D01*
X106252438Y-99926450D01*
X106202798Y-99910001D01*
X106100010Y-99899500D01*
X104499998Y-99899500D01*
X104499981Y-99899501D01*
X104397203Y-99910000D01*
X104397200Y-99910001D01*
X104230668Y-99965185D01*
X104230663Y-99965187D01*
X104081342Y-100057289D01*
X103957289Y-100181342D01*
X103865187Y-100330663D01*
X103865185Y-100330668D01*
X103843285Y-100396758D01*
X103810001Y-100497203D01*
X103810001Y-100497204D01*
X103810000Y-100497204D01*
X103799500Y-100599983D01*
X102500500Y-100599983D01*
X102500500Y-95191500D01*
X102520185Y-95124461D01*
X102572989Y-95078706D01*
X102642147Y-95068762D01*
X102705703Y-95097787D01*
X102739061Y-95144047D01*
X102782219Y-95248241D01*
X102782226Y-95248255D01*
X102944322Y-95551518D01*
X102944333Y-95551536D01*
X103135377Y-95837453D01*
X103135387Y-95837467D01*
X103303785Y-96042659D01*
X103303786Y-96042660D01*
X104727340Y-94619105D01*
X104805864Y-94727184D01*
X104972816Y-94894136D01*
X105080893Y-94972658D01*
X103657338Y-96396212D01*
X103657339Y-96396213D01*
X103862533Y-96564612D01*
X103862546Y-96564622D01*
X104148463Y-96755666D01*
X104148481Y-96755677D01*
X104451744Y-96917773D01*
X104451758Y-96917780D01*
X104769459Y-97049376D01*
X105098556Y-97149207D01*
X105098562Y-97149208D01*
X105435817Y-97216291D01*
X105435834Y-97216294D01*
X105778059Y-97250000D01*
X106121941Y-97250000D01*
X106464165Y-97216294D01*
X106464182Y-97216291D01*
X106801437Y-97149208D01*
X106801443Y-97149207D01*
X107130540Y-97049376D01*
X107448241Y-96917780D01*
X107448255Y-96917773D01*
X107751518Y-96755677D01*
X107751536Y-96755666D01*
X108037453Y-96564622D01*
X108037466Y-96564612D01*
X108242659Y-96396213D01*
X108242659Y-96396212D01*
X106819106Y-94972659D01*
X106927184Y-94894136D01*
X107094136Y-94727184D01*
X107172659Y-94619106D01*
X108596212Y-96042659D01*
X108596213Y-96042659D01*
X108764612Y-95837466D01*
X108764622Y-95837453D01*
X108955666Y-95551536D01*
X108955677Y-95551518D01*
X109117773Y-95248255D01*
X109117780Y-95248241D01*
X109249377Y-94930537D01*
X109342765Y-94622680D01*
X109355929Y-94602592D01*
X109365216Y-94580447D01*
X109374732Y-94573901D01*
X109381063Y-94564241D01*
X109402994Y-94554461D01*
X109422782Y-94540850D01*
X109434328Y-94540488D01*
X109444875Y-94535785D01*
X109468611Y-94539414D01*
X109492617Y-94538662D01*
X109502525Y-94544599D01*
X109513942Y-94546345D01*
X109531950Y-94562232D01*
X109552550Y-94574577D01*
X109561105Y-94587954D01*
X109566336Y-94592569D01*
X109572552Y-94603656D01*
X109574393Y-94607374D01*
X109607678Y-94687731D01*
X109632773Y-94725288D01*
X109636334Y-94732481D01*
X109641051Y-94759302D01*
X109649188Y-94785287D01*
X109647015Y-94793206D01*
X109648438Y-94801294D01*
X109637907Y-94826406D01*
X109630703Y-94852667D01*
X109628310Y-94856391D01*
X109607677Y-94887269D01*
X109536027Y-95060248D01*
X109536025Y-95060256D01*
X109499500Y-95243879D01*
X109499500Y-95431120D01*
X109536025Y-95614743D01*
X109536027Y-95614751D01*
X109607676Y-95787728D01*
X109607681Y-95787737D01*
X109711697Y-95943407D01*
X109711700Y-95943411D01*
X109844088Y-96075799D01*
X109844092Y-96075802D01*
X109999762Y-96179818D01*
X109999771Y-96179823D01*
X110033073Y-96193617D01*
X110172749Y-96251473D01*
X110346455Y-96286025D01*
X110356379Y-96287999D01*
X110356383Y-96288000D01*
X110356384Y-96288000D01*
X110543617Y-96288000D01*
X110543618Y-96287999D01*
X110727251Y-96251473D01*
X110900231Y-96179822D01*
X111055908Y-96075802D01*
X111188302Y-95943408D01*
X111292322Y-95787731D01*
X111363973Y-95614751D01*
X111400500Y-95431116D01*
X111400500Y-95243884D01*
X111363973Y-95060249D01*
X111292322Y-94887269D01*
X111271689Y-94856390D01*
X111250811Y-94789715D01*
X111269295Y-94722334D01*
X111271690Y-94718608D01*
X111292322Y-94687731D01*
X111363973Y-94514751D01*
X111400500Y-94331116D01*
X111400500Y-94143884D01*
X111363973Y-93960249D01*
X111292322Y-93787269D01*
X111288393Y-93781389D01*
X111267516Y-93714714D01*
X111286000Y-93647334D01*
X111288394Y-93643609D01*
X111288467Y-93643500D01*
X111292322Y-93637731D01*
X111363973Y-93464751D01*
X111400500Y-93281116D01*
X111400500Y-93093884D01*
X111363973Y-92910249D01*
X111292322Y-92737269D01*
X111292321Y-92737268D01*
X111292318Y-92737262D01*
X111188302Y-92581592D01*
X111188299Y-92581588D01*
X111055911Y-92449200D01*
X111055907Y-92449197D01*
X110900237Y-92345181D01*
X110900228Y-92345176D01*
X110727251Y-92273527D01*
X110727243Y-92273525D01*
X110543620Y-92237000D01*
X110543616Y-92237000D01*
X110356384Y-92237000D01*
X110356379Y-92237000D01*
X110172756Y-92273525D01*
X110172748Y-92273527D01*
X109999771Y-92345176D01*
X109999762Y-92345181D01*
X109844092Y-92449197D01*
X109844088Y-92449200D01*
X109711700Y-92581588D01*
X109711697Y-92581592D01*
X109607681Y-92737262D01*
X109607678Y-92737268D01*
X109562853Y-92845484D01*
X109519011Y-92899887D01*
X109452717Y-92921951D01*
X109385018Y-92904671D01*
X109337408Y-92853534D01*
X109329631Y-92834025D01*
X109249377Y-92569462D01*
X109117780Y-92251758D01*
X109117773Y-92251744D01*
X108990027Y-92012745D01*
X108962037Y-91960379D01*
X122282500Y-91960379D01*
X122282500Y-92147620D01*
X122319025Y-92331243D01*
X122319027Y-92331251D01*
X122390676Y-92504228D01*
X122390681Y-92504237D01*
X122494697Y-92659907D01*
X122494700Y-92659911D01*
X122627088Y-92792299D01*
X122627092Y-92792302D01*
X122782762Y-92896318D01*
X122782771Y-92896323D01*
X122802925Y-92904671D01*
X122955749Y-92967973D01*
X123120592Y-93000762D01*
X123139379Y-93004499D01*
X123139383Y-93004500D01*
X123139384Y-93004500D01*
X123326617Y-93004500D01*
X123326618Y-93004499D01*
X123510251Y-92967973D01*
X123683231Y-92896322D01*
X123838908Y-92792302D01*
X123971302Y-92659908D01*
X124075322Y-92504231D01*
X124146973Y-92331251D01*
X124183500Y-92147616D01*
X124183500Y-91960384D01*
X124146973Y-91776749D01*
X124075322Y-91603769D01*
X124075321Y-91603768D01*
X124075318Y-91603762D01*
X123971302Y-91448092D01*
X123971299Y-91448088D01*
X123838911Y-91315700D01*
X123838907Y-91315697D01*
X123683237Y-91211681D01*
X123683228Y-91211676D01*
X123510251Y-91140027D01*
X123510243Y-91140025D01*
X123326620Y-91103500D01*
X123326616Y-91103500D01*
X123139384Y-91103500D01*
X123139379Y-91103500D01*
X122955756Y-91140025D01*
X122955748Y-91140027D01*
X122782771Y-91211676D01*
X122782762Y-91211681D01*
X122627092Y-91315697D01*
X122627088Y-91315700D01*
X122494700Y-91448088D01*
X122494697Y-91448092D01*
X122390681Y-91603762D01*
X122390676Y-91603771D01*
X122319027Y-91776748D01*
X122319025Y-91776756D01*
X122282500Y-91960379D01*
X108962037Y-91960379D01*
X108955677Y-91948481D01*
X108955666Y-91948463D01*
X108764622Y-91662546D01*
X108764612Y-91662533D01*
X108596213Y-91457339D01*
X108596212Y-91457338D01*
X107172658Y-92880892D01*
X107094136Y-92772816D01*
X106927184Y-92605864D01*
X106819105Y-92527340D01*
X108242660Y-91103786D01*
X108242659Y-91103785D01*
X108037467Y-90935387D01*
X108037453Y-90935377D01*
X107751536Y-90744333D01*
X107751518Y-90744322D01*
X107448255Y-90582226D01*
X107448241Y-90582219D01*
X107344047Y-90539061D01*
X107289644Y-90495220D01*
X107267579Y-90428926D01*
X107284858Y-90361227D01*
X107335995Y-90313616D01*
X107391500Y-90300500D01*
X127871500Y-90300500D01*
X127938539Y-90320185D01*
G37*
%TD.AperFunction*%
%TD*%
%TA.AperFunction,Conductor*%
%TO.N,+BATT*%
G36*
X106152435Y-100421259D02*
G01*
X107141962Y-100747351D01*
X107148747Y-100753195D01*
X107150000Y-100758463D01*
X107150000Y-101741536D01*
X107146573Y-101749809D01*
X107141962Y-101752648D01*
X106152440Y-102078739D01*
X106143510Y-102078074D01*
X106140585Y-102075978D01*
X105307506Y-101258348D01*
X105304003Y-101250109D01*
X105307352Y-101241805D01*
X105307466Y-101241690D01*
X106140585Y-100424020D01*
X106148887Y-100420673D01*
X106152435Y-100421259D01*
G37*
%TD.AperFunction*%
%TD*%
M02*
