M48
; DRILL file {KiCad 9.0.1-9.0.1-0~ubuntu24.04.1} date 2025-04-26T21:29:33+0200
; FORMAT={-:-/ absolute / metric / decimal}
; #@! TF.CreationDate,2025-04-26T21:29:33+02:00
; #@! TF.GenerationSoftware,Kicad,Pcbnew,9.0.1-9.0.1-0~ubuntu24.04.1
; #@! TF.FileFunction,Plated,1,4,PTH
FMAT,2
METRIC
; #@! TA.AperFunction,Plated,PTH,ViaDrill
T1C0.300
; #@! TA.AperFunction,Plated,PTH,ViaDrill
T2C0.400
; #@! TA.AperFunction,Plated,PTH,ComponentDrill
T3C0.500
; #@! TA.AperFunction,Plated,PTH,ComponentDrill
T4C0.800
; #@! TA.AperFunction,Plated,PTH,ComponentDrill
T5C1.000
; #@! TA.AperFunction,Plated,PTH,ComponentDrill
T6C3.000
%
G90
G05
T1
X133.901Y-100.436
T2
X103.4Y-99.1
X103.4Y-105.9
X108.3Y-97.6
X110.45Y-93.188
X110.45Y-94.237
X110.45Y-95.337
X112.35Y-93.237
X112.35Y-94.287
X112.35Y-95.337
X112.65Y-108.2
X113.817Y-108.2
X114.978Y-105.897
X114.983Y-108.2
X115.0Y-103.8
X115.232Y-102.087
X115.7Y-92.1
X116.15Y-108.2
X117.01Y-96.626
X118.534Y-105.262
X121.201Y-92.054
X121.582Y-94.594
X121.709Y-101.325
X122.581Y-106.93
X122.598Y-105.516
X122.979Y-96.499
X123.233Y-92.054
X123.36Y-93.832
X123.9Y-108.2
X126.35Y-101.15
X132.377Y-101.198
X132.504Y-94.975
X132.6Y-97.2
X133.665Y-106.26
X133.7Y-108.0
X134.79Y-105.389
X137.3Y-97.6
X139.8Y-98.0
X141.14Y-103.611
X141.6Y-98.0
X141.902Y-95.61
X142.41Y-106.532
X143.6Y-94.2
X143.934Y-99.928
X148.6Y-99.5
X148.704Y-107.548
X149.395Y-93.451
X150.157Y-102.849
X150.792Y-91.673
X151.1Y-96.1
X151.1Y-98.6
X156.07Y-109.269
X159.779Y-108.053
X161.15Y-110.793
X163.492Y-97.515
T3
X103.7Y-93.75
X103.7Y-110.6
X104.359Y-92.159
X104.359Y-95.341
X104.359Y-109.009
X104.359Y-112.191
X105.95Y-91.5
X105.95Y-96.0
X105.95Y-108.35
X105.95Y-112.85
X107.541Y-92.159
X107.541Y-95.341
X107.541Y-109.009
X107.541Y-112.191
X108.2Y-93.75
X108.2Y-110.6
X173.35Y-93.75
X173.35Y-110.6
X174.009Y-92.159
X174.009Y-95.341
X174.009Y-109.009
X174.009Y-112.191
X175.6Y-91.5
X175.6Y-96.0
X175.6Y-108.35
X175.6Y-112.85
X177.191Y-92.159
X177.191Y-95.341
X177.191Y-109.009
X177.191Y-112.191
X177.85Y-93.75
X177.85Y-110.6
T4
X153.63Y-97.293
X153.63Y-99.293
X153.63Y-101.293
X153.63Y-103.293
X160.317Y-97.293
X160.317Y-99.293
X160.317Y-101.293
X160.317Y-103.293
T5
X105.3Y-101.25
X105.3Y-103.75
X111.62Y-112.825
X114.16Y-112.825
X116.7Y-112.825
X119.24Y-112.825
X121.78Y-112.825
X124.32Y-112.825
X126.86Y-112.825
X129.4Y-112.825
X147.18Y-112.825
X149.72Y-112.825
X152.26Y-112.825
X154.8Y-112.825
X157.34Y-112.825
X159.88Y-112.825
X162.42Y-112.825
X164.96Y-112.825
X167.5Y-112.825
X170.04Y-112.825
T6
X105.95Y-93.75
X105.95Y-110.6
X175.6Y-93.75
X175.6Y-110.6
M30
