%TF.GenerationSoftware,KiCad,Pcbnew,9.0.2*%
%TF.CreationDate,2025-07-06T18:25:15+02:00*%
%TF.ProjectId,Meshimi,4d657368-696d-4692-9e6b-696361645f70,v1.0*%
%TF.SameCoordinates,Original*%
%TF.FileFunction,Copper,L3,Inr*%
%TF.FilePolarity,Positive*%
%FSLAX46Y46*%
G04 Gerber Fmt 4.6, Leading zero omitted, Abs format (unit mm)*
G04 Created by KiCad (PCBNEW 9.0.2) date 2025-07-06 18:25:15*
%MOMM*%
%LPD*%
G01*
G04 APERTURE LIST*
G04 Aperture macros list*
%AMRoundRect*
0 Rectangle with rounded corners*
0 $1 Rounding radius*
0 $2 $3 $4 $5 $6 $7 $8 $9 X,Y pos of 4 corners*
0 Add a 4 corners polygon primitive as box body*
4,1,4,$2,$3,$4,$5,$6,$7,$8,$9,$2,$3,0*
0 Add four circle primitives for the rounded corners*
1,1,$1+$1,$2,$3*
1,1,$1+$1,$4,$5*
1,1,$1+$1,$6,$7*
1,1,$1+$1,$8,$9*
0 Add four rect primitives between the rounded corners*
20,1,$1+$1,$2,$3,$4,$5,0*
20,1,$1+$1,$4,$5,$6,$7,0*
20,1,$1+$1,$6,$7,$8,$9,0*
20,1,$1+$1,$8,$9,$2,$3,0*%
G04 Aperture macros list end*
%TA.AperFunction,ComponentPad*%
%ADD10C,0.800000*%
%TD*%
%TA.AperFunction,ComponentPad*%
%ADD11C,6.000000*%
%TD*%
%TA.AperFunction,ComponentPad*%
%ADD12R,1.350000X1.350000*%
%TD*%
%TA.AperFunction,ComponentPad*%
%ADD13O,1.350000X1.350000*%
%TD*%
%TA.AperFunction,ComponentPad*%
%ADD14RoundRect,0.250000X-0.750000X0.600000X-0.750000X-0.600000X0.750000X-0.600000X0.750000X0.600000X0*%
%TD*%
%TA.AperFunction,ComponentPad*%
%ADD15O,2.000000X1.700000*%
%TD*%
%TA.AperFunction,ViaPad*%
%ADD16C,0.900000*%
%TD*%
%TA.AperFunction,ViaPad*%
%ADD17C,0.700000*%
%TD*%
G04 APERTURE END LIST*
D10*
%TO.N,GND*%
%TO.C,H3*%
X103700000Y-110600000D03*
X104359010Y-109009010D03*
X104359010Y-112190990D03*
X105950000Y-108350000D03*
D11*
X105950000Y-110600000D03*
D10*
X105950000Y-112850000D03*
X107540990Y-109009010D03*
X107540990Y-112190990D03*
X108200000Y-110600000D03*
%TD*%
D12*
%TO.N,+3V3*%
%TO.C,J4*%
X153630000Y-103293000D03*
D13*
%TO.N,GND*%
X153630000Y-101293000D03*
%TO.N,FLP_I2C_SDA*%
X153630000Y-99293000D03*
%TO.N,FLP_I2C_SCL*%
X153630000Y-97293000D03*
%TD*%
D10*
%TO.N,GND*%
%TO.C,H2*%
X173350000Y-110600000D03*
X174009010Y-109009010D03*
X174009010Y-112190990D03*
X175600000Y-108350000D03*
D11*
X175600000Y-110600000D03*
D10*
X175600000Y-112850000D03*
X177190990Y-109009010D03*
X177190990Y-112190990D03*
X177850000Y-110600000D03*
%TD*%
D12*
%TO.N,+3V3*%
%TO.C,J5*%
X160317000Y-103293000D03*
D13*
%TO.N,GND*%
X160317000Y-101293000D03*
%TO.N,FLP_I2C_SDA*%
X160317000Y-99293000D03*
%TO.N,FLP_I2C_SCL*%
X160317000Y-97293000D03*
%TD*%
D10*
%TO.N,GND*%
%TO.C,H4*%
X103700000Y-93750000D03*
X104359010Y-92159010D03*
X104359010Y-95340990D03*
X105950000Y-91500000D03*
D11*
X105950000Y-93750000D03*
D10*
X105950000Y-96000000D03*
X107540990Y-92159010D03*
X107540990Y-95340990D03*
X108200000Y-93750000D03*
%TD*%
D14*
%TO.N,+BATT*%
%TO.C,J1*%
X105300000Y-101250000D03*
D15*
%TO.N,-BATT*%
X105300000Y-103750000D03*
%TD*%
D10*
%TO.N,GND*%
%TO.C,H1*%
X173350000Y-93750000D03*
X174009010Y-92159010D03*
X174009010Y-95340990D03*
X175600000Y-91500000D03*
D11*
X175600000Y-93750000D03*
D10*
X175600000Y-96000000D03*
X177190990Y-92159010D03*
X177190990Y-95340990D03*
X177850000Y-93750000D03*
%TD*%
D16*
%TO.N,FLP_DTR*%
X141140000Y-103611000D03*
%TO.N,GND*%
X115700000Y-92100000D03*
X133665000Y-106260000D03*
X112350000Y-93237500D03*
X141902000Y-95610000D03*
X142410000Y-106532000D03*
X121709000Y-101325000D03*
X123900000Y-108200000D03*
X123360000Y-93832000D03*
D17*
X133901000Y-100436000D03*
D16*
X108300000Y-97600000D03*
X150792000Y-91673000D03*
X103400000Y-105900000D03*
X156070000Y-109269000D03*
X118534000Y-105262000D03*
X113816667Y-108200000D03*
X163492000Y-97515000D03*
X112650000Y-108200000D03*
X112350000Y-95337500D03*
X117010000Y-96626000D03*
X112350000Y-94287500D03*
X148704000Y-107548000D03*
X121201000Y-92054000D03*
X150157000Y-102849000D03*
X137300000Y-97600000D03*
X103400000Y-99100000D03*
X114983333Y-108200000D03*
X116150000Y-108200000D03*
X161150000Y-110793000D03*
%TO.N,+BATT*%
X141600000Y-98000000D03*
X139800000Y-98000000D03*
%TO.N,+3V3*%
X123233000Y-92054000D03*
X151100000Y-98600000D03*
X151100000Y-96100000D03*
X110450000Y-95337500D03*
X114978000Y-105897000D03*
X110450000Y-93187500D03*
X110450000Y-94237500D03*
%TO.N,LORA_NSS*%
X121582000Y-94594000D03*
X132504000Y-94975000D03*
%TO.N,LORA_RST*%
X122979000Y-96499000D03*
X132600000Y-97200000D03*
%TO.N,LORA_BUSY*%
X122598000Y-105516000D03*
X134790000Y-105389000D03*
%TO.N,LORA_DIO1*%
X122580500Y-106930500D03*
X133700000Y-108000000D03*
%TO.N,LORA_RF_SW*%
X126350000Y-101150000D03*
X132377000Y-101198000D03*
%TO.N,FLP_I2C_SCL*%
X115000000Y-103800000D03*
X143934000Y-99928000D03*
%TO.N,FLP_RX*%
X149395000Y-93451000D03*
%TO.N,FLP_I2C_SDA*%
X148600000Y-99500000D03*
X115232000Y-102087000D03*
%TO.N,FLP_TX*%
X143600000Y-94200000D03*
%TO.N,FLP_PB14*%
X159779108Y-108053061D03*
%TD*%
%TA.AperFunction,Conductor*%
%TO.N,+3V3*%
G36*
X127938539Y-90320185D02*
G01*
X127984294Y-90372989D01*
X127995500Y-90424500D01*
X127995500Y-92146144D01*
X128008220Y-92193617D01*
X128019387Y-92235290D01*
X128019388Y-92235293D01*
X128065526Y-92315205D01*
X128065529Y-92315209D01*
X128065531Y-92315212D01*
X128130788Y-92380469D01*
X128130791Y-92380470D01*
X128130794Y-92380473D01*
X128210706Y-92426611D01*
X128210707Y-92426611D01*
X128210712Y-92426614D01*
X128299856Y-92450500D01*
X128299858Y-92450500D01*
X147410142Y-92450500D01*
X147410144Y-92450500D01*
X147499288Y-92426614D01*
X147579212Y-92380469D01*
X147644469Y-92315212D01*
X147690614Y-92235288D01*
X147714500Y-92146144D01*
X147714500Y-91579379D01*
X149841500Y-91579379D01*
X149841500Y-91766620D01*
X149878025Y-91950243D01*
X149878027Y-91950251D01*
X149949676Y-92123228D01*
X149949681Y-92123237D01*
X150053697Y-92278907D01*
X150053700Y-92278911D01*
X150186088Y-92411299D01*
X150186092Y-92411302D01*
X150341762Y-92515318D01*
X150341768Y-92515321D01*
X150341769Y-92515322D01*
X150514749Y-92586973D01*
X150698379Y-92623499D01*
X150698383Y-92623500D01*
X150698384Y-92623500D01*
X150885617Y-92623500D01*
X150885618Y-92623499D01*
X151069251Y-92586973D01*
X151242231Y-92515322D01*
X151397908Y-92411302D01*
X151530302Y-92278908D01*
X151634322Y-92123231D01*
X151705973Y-91950251D01*
X151742500Y-91766616D01*
X151742500Y-91579384D01*
X151705973Y-91395749D01*
X151634322Y-91222769D01*
X151634321Y-91222768D01*
X151634318Y-91222762D01*
X151530302Y-91067092D01*
X151530299Y-91067088D01*
X151397911Y-90934700D01*
X151397907Y-90934697D01*
X151242237Y-90830681D01*
X151242228Y-90830676D01*
X151069251Y-90759027D01*
X151069243Y-90759025D01*
X150885620Y-90722500D01*
X150885616Y-90722500D01*
X150698384Y-90722500D01*
X150698379Y-90722500D01*
X150514756Y-90759025D01*
X150514748Y-90759027D01*
X150341771Y-90830676D01*
X150341762Y-90830681D01*
X150186092Y-90934697D01*
X150186088Y-90934700D01*
X150053700Y-91067088D01*
X150053697Y-91067092D01*
X149949681Y-91222762D01*
X149949676Y-91222771D01*
X149878027Y-91395748D01*
X149878025Y-91395756D01*
X149841500Y-91579379D01*
X147714500Y-91579379D01*
X147714500Y-90424500D01*
X147734185Y-90357461D01*
X147786989Y-90311706D01*
X147838500Y-90300500D01*
X174157192Y-90300500D01*
X174224231Y-90320185D01*
X174269986Y-90372989D01*
X174279930Y-90442147D01*
X174250905Y-90505703D01*
X174204645Y-90539060D01*
X174154051Y-90560017D01*
X174101535Y-90581770D01*
X174101530Y-90581772D01*
X173798224Y-90743893D01*
X173798206Y-90743904D01*
X173512248Y-90934975D01*
X173512234Y-90934985D01*
X173246367Y-91153176D01*
X173003176Y-91396367D01*
X172784985Y-91662234D01*
X172784975Y-91662248D01*
X172593904Y-91948206D01*
X172593893Y-91948224D01*
X172431772Y-92251530D01*
X172431770Y-92251535D01*
X172300150Y-92569293D01*
X172200308Y-92898427D01*
X172133210Y-93235750D01*
X172110957Y-93461699D01*
X172099500Y-93578031D01*
X172099500Y-93921969D01*
X172108195Y-94010248D01*
X172133210Y-94264249D01*
X172200308Y-94601572D01*
X172300150Y-94930706D01*
X172431770Y-95248464D01*
X172431772Y-95248469D01*
X172593893Y-95551775D01*
X172593904Y-95551793D01*
X172784975Y-95837751D01*
X172784985Y-95837765D01*
X173003176Y-96103632D01*
X173246367Y-96346823D01*
X173246372Y-96346827D01*
X173246373Y-96346828D01*
X173512240Y-96565019D01*
X173798213Y-96756100D01*
X173798222Y-96756105D01*
X173798224Y-96756106D01*
X174101530Y-96918227D01*
X174101532Y-96918227D01*
X174101538Y-96918231D01*
X174419295Y-97049850D01*
X174748422Y-97149690D01*
X175085750Y-97216789D01*
X175428031Y-97250500D01*
X175428034Y-97250500D01*
X175771966Y-97250500D01*
X175771969Y-97250500D01*
X176114250Y-97216789D01*
X176451578Y-97149690D01*
X176780705Y-97049850D01*
X177098462Y-96918231D01*
X177401787Y-96756100D01*
X177687760Y-96565019D01*
X177953627Y-96346828D01*
X178196828Y-96103627D01*
X178415019Y-95837760D01*
X178606100Y-95551787D01*
X178768231Y-95248462D01*
X178860939Y-95024643D01*
X178904780Y-94970241D01*
X178971074Y-94948176D01*
X179038773Y-94965455D01*
X179086384Y-95016592D01*
X179099500Y-95072097D01*
X179099500Y-109277902D01*
X179079815Y-109344941D01*
X179027011Y-109390696D01*
X178957853Y-109400640D01*
X178894297Y-109371615D01*
X178860939Y-109325355D01*
X178833473Y-109259047D01*
X178768231Y-109101538D01*
X178736579Y-109042322D01*
X178606106Y-108798224D01*
X178606105Y-108798222D01*
X178606100Y-108798213D01*
X178415019Y-108512240D01*
X178196828Y-108246373D01*
X178196827Y-108246372D01*
X178196823Y-108246367D01*
X177953632Y-108003176D01*
X177687765Y-107784985D01*
X177687764Y-107784984D01*
X177687760Y-107784981D01*
X177401787Y-107593900D01*
X177401782Y-107593897D01*
X177401775Y-107593893D01*
X177098469Y-107431772D01*
X177098464Y-107431770D01*
X176780706Y-107300150D01*
X176451572Y-107200308D01*
X176114248Y-107133210D01*
X176114249Y-107133210D01*
X175856456Y-107107821D01*
X175771969Y-107099500D01*
X175428031Y-107099500D01*
X175349966Y-107107188D01*
X175085750Y-107133210D01*
X174748427Y-107200308D01*
X174419293Y-107300150D01*
X174101535Y-107431770D01*
X174101530Y-107431772D01*
X173798224Y-107593893D01*
X173798206Y-107593904D01*
X173512248Y-107784975D01*
X173512234Y-107784985D01*
X173246367Y-108003176D01*
X173003176Y-108246367D01*
X172784985Y-108512234D01*
X172784975Y-108512248D01*
X172593904Y-108798206D01*
X172593893Y-108798224D01*
X172431772Y-109101530D01*
X172431770Y-109101535D01*
X172300150Y-109419293D01*
X172200308Y-109748427D01*
X172133210Y-110085750D01*
X172120038Y-110219499D01*
X172099500Y-110428031D01*
X172099500Y-110771969D01*
X172109751Y-110876054D01*
X172133210Y-111114249D01*
X172200308Y-111451572D01*
X172300150Y-111780706D01*
X172431770Y-112098464D01*
X172431772Y-112098469D01*
X172593893Y-112401775D01*
X172593897Y-112401782D01*
X172593900Y-112401787D01*
X172784978Y-112687756D01*
X172784985Y-112687765D01*
X173003176Y-112953632D01*
X173246367Y-113196823D01*
X173246372Y-113196827D01*
X173246373Y-113196828D01*
X173512240Y-113415019D01*
X173798213Y-113606100D01*
X173798222Y-113606105D01*
X173798224Y-113606106D01*
X174101530Y-113768227D01*
X174101532Y-113768227D01*
X174101538Y-113768231D01*
X174325356Y-113860939D01*
X174379759Y-113904780D01*
X174401824Y-113971074D01*
X174384545Y-114038773D01*
X174333408Y-114086384D01*
X174277903Y-114099500D01*
X146006962Y-114099500D01*
X145993078Y-114098720D01*
X145980553Y-114097308D01*
X145902735Y-114088540D01*
X145875666Y-114082362D01*
X145796462Y-114054648D01*
X145771444Y-114042600D01*
X145700395Y-113997957D01*
X145678686Y-113980644D01*
X145619355Y-113921313D01*
X145602042Y-113899604D01*
X145598707Y-113894297D01*
X145557398Y-113828553D01*
X145545351Y-113803537D01*
X145539582Y-113787051D01*
X145517636Y-113724331D01*
X145511459Y-113697263D01*
X145511348Y-113696281D01*
X145501280Y-113606922D01*
X145500500Y-113593038D01*
X145500500Y-112923543D01*
X146179499Y-112923543D01*
X146217947Y-113116829D01*
X146217950Y-113116839D01*
X146293364Y-113298907D01*
X146293371Y-113298920D01*
X146402860Y-113462781D01*
X146402863Y-113462785D01*
X146542214Y-113602136D01*
X146542218Y-113602139D01*
X146706079Y-113711628D01*
X146706092Y-113711635D01*
X146842719Y-113768227D01*
X146888165Y-113787051D01*
X146888169Y-113787051D01*
X146888170Y-113787052D01*
X147081456Y-113825500D01*
X147081459Y-113825500D01*
X147278543Y-113825500D01*
X147408582Y-113799632D01*
X147471835Y-113787051D01*
X147653914Y-113711632D01*
X147817782Y-113602139D01*
X147957139Y-113462782D01*
X148066632Y-113298914D01*
X148142051Y-113116835D01*
X148154632Y-113053582D01*
X148180500Y-112923543D01*
X148719499Y-112923543D01*
X148757947Y-113116829D01*
X148757950Y-113116839D01*
X148833364Y-113298907D01*
X148833371Y-113298920D01*
X148942860Y-113462781D01*
X148942863Y-113462785D01*
X149082214Y-113602136D01*
X149082218Y-113602139D01*
X149246079Y-113711628D01*
X149246092Y-113711635D01*
X149382719Y-113768227D01*
X149428165Y-113787051D01*
X149428169Y-113787051D01*
X149428170Y-113787052D01*
X149621456Y-113825500D01*
X149621459Y-113825500D01*
X149818543Y-113825500D01*
X149948582Y-113799632D01*
X150011835Y-113787051D01*
X150193914Y-113711632D01*
X150357782Y-113602139D01*
X150497139Y-113462782D01*
X150606632Y-113298914D01*
X150682051Y-113116835D01*
X150694632Y-113053582D01*
X150720500Y-112923543D01*
X151259499Y-112923543D01*
X151297947Y-113116829D01*
X151297950Y-113116839D01*
X151373364Y-113298907D01*
X151373371Y-113298920D01*
X151482860Y-113462781D01*
X151482863Y-113462785D01*
X151622214Y-113602136D01*
X151622218Y-113602139D01*
X151786079Y-113711628D01*
X151786092Y-113711635D01*
X151922719Y-113768227D01*
X151968165Y-113787051D01*
X151968169Y-113787051D01*
X151968170Y-113787052D01*
X152161456Y-113825500D01*
X152161459Y-113825500D01*
X152358543Y-113825500D01*
X152488582Y-113799632D01*
X152551835Y-113787051D01*
X152733914Y-113711632D01*
X152897782Y-113602139D01*
X153037139Y-113462782D01*
X153146632Y-113298914D01*
X153222051Y-113116835D01*
X153234632Y-113053582D01*
X153260500Y-112923543D01*
X153799499Y-112923543D01*
X153837947Y-113116829D01*
X153837950Y-113116839D01*
X153913364Y-113298907D01*
X153913371Y-113298920D01*
X154022860Y-113462781D01*
X154022863Y-113462785D01*
X154162214Y-113602136D01*
X154162218Y-113602139D01*
X154326079Y-113711628D01*
X154326092Y-113711635D01*
X154462719Y-113768227D01*
X154508165Y-113787051D01*
X154508169Y-113787051D01*
X154508170Y-113787052D01*
X154701456Y-113825500D01*
X154701459Y-113825500D01*
X154898543Y-113825500D01*
X155028582Y-113799632D01*
X155091835Y-113787051D01*
X155273914Y-113711632D01*
X155437782Y-113602139D01*
X155577139Y-113462782D01*
X155686632Y-113298914D01*
X155762051Y-113116835D01*
X155774632Y-113053582D01*
X155800500Y-112923543D01*
X156339499Y-112923543D01*
X156377947Y-113116829D01*
X156377950Y-113116839D01*
X156453364Y-113298907D01*
X156453371Y-113298920D01*
X156562860Y-113462781D01*
X156562863Y-113462785D01*
X156702214Y-113602136D01*
X156702218Y-113602139D01*
X156866079Y-113711628D01*
X156866092Y-113711635D01*
X157002719Y-113768227D01*
X157048165Y-113787051D01*
X157048169Y-113787051D01*
X157048170Y-113787052D01*
X157241456Y-113825500D01*
X157241459Y-113825500D01*
X157438543Y-113825500D01*
X157568582Y-113799632D01*
X157631835Y-113787051D01*
X157813914Y-113711632D01*
X157977782Y-113602139D01*
X158117139Y-113462782D01*
X158226632Y-113298914D01*
X158302051Y-113116835D01*
X158314632Y-113053582D01*
X158340500Y-112923543D01*
X158879499Y-112923543D01*
X158917947Y-113116829D01*
X158917950Y-113116839D01*
X158993364Y-113298907D01*
X158993371Y-113298920D01*
X159102860Y-113462781D01*
X159102863Y-113462785D01*
X159242214Y-113602136D01*
X159242218Y-113602139D01*
X159406079Y-113711628D01*
X159406092Y-113711635D01*
X159542719Y-113768227D01*
X159588165Y-113787051D01*
X159588169Y-113787051D01*
X159588170Y-113787052D01*
X159781456Y-113825500D01*
X159781459Y-113825500D01*
X159978543Y-113825500D01*
X160108582Y-113799632D01*
X160171835Y-113787051D01*
X160353914Y-113711632D01*
X160517782Y-113602139D01*
X160657139Y-113462782D01*
X160766632Y-113298914D01*
X160842051Y-113116835D01*
X160854632Y-113053582D01*
X160880500Y-112923543D01*
X161419499Y-112923543D01*
X161457947Y-113116829D01*
X161457950Y-113116839D01*
X161533364Y-113298907D01*
X161533371Y-113298920D01*
X161642860Y-113462781D01*
X161642863Y-113462785D01*
X161782214Y-113602136D01*
X161782218Y-113602139D01*
X161946079Y-113711628D01*
X161946092Y-113711635D01*
X162082719Y-113768227D01*
X162128165Y-113787051D01*
X162128169Y-113787051D01*
X162128170Y-113787052D01*
X162321456Y-113825500D01*
X162321459Y-113825500D01*
X162518543Y-113825500D01*
X162648582Y-113799632D01*
X162711835Y-113787051D01*
X162893914Y-113711632D01*
X163057782Y-113602139D01*
X163197139Y-113462782D01*
X163306632Y-113298914D01*
X163382051Y-113116835D01*
X163394632Y-113053582D01*
X163420500Y-112923543D01*
X163959499Y-112923543D01*
X163997947Y-113116829D01*
X163997950Y-113116839D01*
X164073364Y-113298907D01*
X164073371Y-113298920D01*
X164182860Y-113462781D01*
X164182863Y-113462785D01*
X164322214Y-113602136D01*
X164322218Y-113602139D01*
X164486079Y-113711628D01*
X164486092Y-113711635D01*
X164622719Y-113768227D01*
X164668165Y-113787051D01*
X164668169Y-113787051D01*
X164668170Y-113787052D01*
X164861456Y-113825500D01*
X164861459Y-113825500D01*
X165058543Y-113825500D01*
X165188582Y-113799632D01*
X165251835Y-113787051D01*
X165433914Y-113711632D01*
X165597782Y-113602139D01*
X165737139Y-113462782D01*
X165846632Y-113298914D01*
X165922051Y-113116835D01*
X165934632Y-113053582D01*
X165960500Y-112923543D01*
X166499499Y-112923543D01*
X166537947Y-113116829D01*
X166537950Y-113116839D01*
X166613364Y-113298907D01*
X166613371Y-113298920D01*
X166722860Y-113462781D01*
X166722863Y-113462785D01*
X166862214Y-113602136D01*
X166862218Y-113602139D01*
X167026079Y-113711628D01*
X167026092Y-113711635D01*
X167162719Y-113768227D01*
X167208165Y-113787051D01*
X167208169Y-113787051D01*
X167208170Y-113787052D01*
X167401456Y-113825500D01*
X167401459Y-113825500D01*
X167598543Y-113825500D01*
X167728582Y-113799632D01*
X167791835Y-113787051D01*
X167973914Y-113711632D01*
X168137782Y-113602139D01*
X168277139Y-113462782D01*
X168386632Y-113298914D01*
X168462051Y-113116835D01*
X168474632Y-113053582D01*
X168500500Y-112923543D01*
X169039499Y-112923543D01*
X169077947Y-113116829D01*
X169077950Y-113116839D01*
X169153364Y-113298907D01*
X169153371Y-113298920D01*
X169262860Y-113462781D01*
X169262863Y-113462785D01*
X169402214Y-113602136D01*
X169402218Y-113602139D01*
X169566079Y-113711628D01*
X169566092Y-113711635D01*
X169702719Y-113768227D01*
X169748165Y-113787051D01*
X169748169Y-113787051D01*
X169748170Y-113787052D01*
X169941456Y-113825500D01*
X169941459Y-113825500D01*
X170138543Y-113825500D01*
X170268582Y-113799632D01*
X170331835Y-113787051D01*
X170513914Y-113711632D01*
X170677782Y-113602139D01*
X170817139Y-113462782D01*
X170926632Y-113298914D01*
X171002051Y-113116835D01*
X171014632Y-113053582D01*
X171040500Y-112923543D01*
X171040500Y-112726456D01*
X171002052Y-112533170D01*
X171002051Y-112533169D01*
X171002051Y-112533165D01*
X171002049Y-112533160D01*
X170926635Y-112351092D01*
X170926628Y-112351079D01*
X170817139Y-112187218D01*
X170817136Y-112187214D01*
X170677785Y-112047863D01*
X170677781Y-112047860D01*
X170513920Y-111938371D01*
X170513907Y-111938364D01*
X170331839Y-111862950D01*
X170331829Y-111862947D01*
X170138543Y-111824500D01*
X170138541Y-111824500D01*
X169941459Y-111824500D01*
X169941457Y-111824500D01*
X169748170Y-111862947D01*
X169748160Y-111862950D01*
X169566092Y-111938364D01*
X169566079Y-111938371D01*
X169402218Y-112047860D01*
X169402214Y-112047863D01*
X169262863Y-112187214D01*
X169262860Y-112187218D01*
X169153371Y-112351079D01*
X169153364Y-112351092D01*
X169077950Y-112533160D01*
X169077947Y-112533170D01*
X169039500Y-112726456D01*
X169039500Y-112726459D01*
X169039500Y-112923541D01*
X169039500Y-112923543D01*
X169039499Y-112923543D01*
X168500500Y-112923543D01*
X168500500Y-112726456D01*
X168462052Y-112533170D01*
X168462051Y-112533169D01*
X168462051Y-112533165D01*
X168462049Y-112533160D01*
X168386635Y-112351092D01*
X168386628Y-112351079D01*
X168277139Y-112187218D01*
X168277136Y-112187214D01*
X168137785Y-112047863D01*
X168137781Y-112047860D01*
X167973920Y-111938371D01*
X167973907Y-111938364D01*
X167791839Y-111862950D01*
X167791829Y-111862947D01*
X167598543Y-111824500D01*
X167598541Y-111824500D01*
X167401459Y-111824500D01*
X167401457Y-111824500D01*
X167208170Y-111862947D01*
X167208160Y-111862950D01*
X167026092Y-111938364D01*
X167026079Y-111938371D01*
X166862218Y-112047860D01*
X166862214Y-112047863D01*
X166722863Y-112187214D01*
X166722860Y-112187218D01*
X166613371Y-112351079D01*
X166613364Y-112351092D01*
X166537950Y-112533160D01*
X166537947Y-112533170D01*
X166499500Y-112726456D01*
X166499500Y-112726459D01*
X166499500Y-112923541D01*
X166499500Y-112923543D01*
X166499499Y-112923543D01*
X165960500Y-112923543D01*
X165960500Y-112726456D01*
X165922052Y-112533170D01*
X165922051Y-112533169D01*
X165922051Y-112533165D01*
X165922049Y-112533160D01*
X165846635Y-112351092D01*
X165846628Y-112351079D01*
X165737139Y-112187218D01*
X165737136Y-112187214D01*
X165597785Y-112047863D01*
X165597781Y-112047860D01*
X165433920Y-111938371D01*
X165433907Y-111938364D01*
X165251839Y-111862950D01*
X165251829Y-111862947D01*
X165058543Y-111824500D01*
X165058541Y-111824500D01*
X164861459Y-111824500D01*
X164861457Y-111824500D01*
X164668170Y-111862947D01*
X164668160Y-111862950D01*
X164486092Y-111938364D01*
X164486079Y-111938371D01*
X164322218Y-112047860D01*
X164322214Y-112047863D01*
X164182863Y-112187214D01*
X164182860Y-112187218D01*
X164073371Y-112351079D01*
X164073364Y-112351092D01*
X163997950Y-112533160D01*
X163997947Y-112533170D01*
X163959500Y-112726456D01*
X163959500Y-112726459D01*
X163959500Y-112923541D01*
X163959500Y-112923543D01*
X163959499Y-112923543D01*
X163420500Y-112923543D01*
X163420500Y-112726456D01*
X163382052Y-112533170D01*
X163382051Y-112533169D01*
X163382051Y-112533165D01*
X163382049Y-112533160D01*
X163306635Y-112351092D01*
X163306628Y-112351079D01*
X163197139Y-112187218D01*
X163197136Y-112187214D01*
X163057785Y-112047863D01*
X163057781Y-112047860D01*
X162893920Y-111938371D01*
X162893907Y-111938364D01*
X162711839Y-111862950D01*
X162711829Y-111862947D01*
X162518543Y-111824500D01*
X162518541Y-111824500D01*
X162321459Y-111824500D01*
X162321457Y-111824500D01*
X162128170Y-111862947D01*
X162128160Y-111862950D01*
X161946092Y-111938364D01*
X161946079Y-111938371D01*
X161782218Y-112047860D01*
X161782214Y-112047863D01*
X161642863Y-112187214D01*
X161642860Y-112187218D01*
X161533371Y-112351079D01*
X161533364Y-112351092D01*
X161457950Y-112533160D01*
X161457947Y-112533170D01*
X161419500Y-112726456D01*
X161419500Y-112726459D01*
X161419500Y-112923541D01*
X161419500Y-112923543D01*
X161419499Y-112923543D01*
X160880500Y-112923543D01*
X160880500Y-112726456D01*
X160842052Y-112533170D01*
X160842051Y-112533169D01*
X160842051Y-112533165D01*
X160842049Y-112533160D01*
X160766635Y-112351092D01*
X160766628Y-112351079D01*
X160657139Y-112187218D01*
X160657136Y-112187214D01*
X160517785Y-112047863D01*
X160517781Y-112047860D01*
X160353920Y-111938371D01*
X160353907Y-111938364D01*
X160171839Y-111862950D01*
X160171829Y-111862947D01*
X159978543Y-111824500D01*
X159978541Y-111824500D01*
X159781459Y-111824500D01*
X159781457Y-111824500D01*
X159588170Y-111862947D01*
X159588160Y-111862950D01*
X159406092Y-111938364D01*
X159406079Y-111938371D01*
X159242218Y-112047860D01*
X159242214Y-112047863D01*
X159102863Y-112187214D01*
X159102860Y-112187218D01*
X158993371Y-112351079D01*
X158993364Y-112351092D01*
X158917950Y-112533160D01*
X158917947Y-112533170D01*
X158879500Y-112726456D01*
X158879500Y-112726459D01*
X158879500Y-112923541D01*
X158879500Y-112923543D01*
X158879499Y-112923543D01*
X158340500Y-112923543D01*
X158340500Y-112726456D01*
X158302052Y-112533170D01*
X158302051Y-112533169D01*
X158302051Y-112533165D01*
X158302049Y-112533160D01*
X158226635Y-112351092D01*
X158226628Y-112351079D01*
X158117139Y-112187218D01*
X158117136Y-112187214D01*
X157977785Y-112047863D01*
X157977781Y-112047860D01*
X157813920Y-111938371D01*
X157813907Y-111938364D01*
X157631839Y-111862950D01*
X157631829Y-111862947D01*
X157438543Y-111824500D01*
X157438541Y-111824500D01*
X157241459Y-111824500D01*
X157241457Y-111824500D01*
X157048170Y-111862947D01*
X157048160Y-111862950D01*
X156866092Y-111938364D01*
X156866079Y-111938371D01*
X156702218Y-112047860D01*
X156702214Y-112047863D01*
X156562863Y-112187214D01*
X156562860Y-112187218D01*
X156453371Y-112351079D01*
X156453364Y-112351092D01*
X156377950Y-112533160D01*
X156377947Y-112533170D01*
X156339500Y-112726456D01*
X156339500Y-112726459D01*
X156339500Y-112923541D01*
X156339500Y-112923543D01*
X156339499Y-112923543D01*
X155800500Y-112923543D01*
X155800500Y-112726456D01*
X155762052Y-112533170D01*
X155762051Y-112533169D01*
X155762051Y-112533165D01*
X155762049Y-112533160D01*
X155686635Y-112351092D01*
X155686628Y-112351079D01*
X155577139Y-112187218D01*
X155577136Y-112187214D01*
X155437785Y-112047863D01*
X155437781Y-112047860D01*
X155273920Y-111938371D01*
X155273907Y-111938364D01*
X155091839Y-111862950D01*
X155091829Y-111862947D01*
X154898543Y-111824500D01*
X154898541Y-111824500D01*
X154701459Y-111824500D01*
X154701457Y-111824500D01*
X154508170Y-111862947D01*
X154508160Y-111862950D01*
X154326092Y-111938364D01*
X154326079Y-111938371D01*
X154162218Y-112047860D01*
X154162214Y-112047863D01*
X154022863Y-112187214D01*
X154022860Y-112187218D01*
X153913371Y-112351079D01*
X153913364Y-112351092D01*
X153837950Y-112533160D01*
X153837947Y-112533170D01*
X153799500Y-112726456D01*
X153799500Y-112726459D01*
X153799500Y-112923541D01*
X153799500Y-112923543D01*
X153799499Y-112923543D01*
X153260500Y-112923543D01*
X153260500Y-112726456D01*
X153222052Y-112533170D01*
X153222051Y-112533169D01*
X153222051Y-112533165D01*
X153222049Y-112533160D01*
X153146635Y-112351092D01*
X153146628Y-112351079D01*
X153037139Y-112187218D01*
X153037136Y-112187214D01*
X152897785Y-112047863D01*
X152897781Y-112047860D01*
X152733920Y-111938371D01*
X152733907Y-111938364D01*
X152551839Y-111862950D01*
X152551829Y-111862947D01*
X152358543Y-111824500D01*
X152358541Y-111824500D01*
X152161459Y-111824500D01*
X152161457Y-111824500D01*
X151968170Y-111862947D01*
X151968160Y-111862950D01*
X151786092Y-111938364D01*
X151786079Y-111938371D01*
X151622218Y-112047860D01*
X151622214Y-112047863D01*
X151482863Y-112187214D01*
X151482860Y-112187218D01*
X151373371Y-112351079D01*
X151373364Y-112351092D01*
X151297950Y-112533160D01*
X151297947Y-112533170D01*
X151259500Y-112726456D01*
X151259500Y-112726459D01*
X151259500Y-112923541D01*
X151259500Y-112923543D01*
X151259499Y-112923543D01*
X150720500Y-112923543D01*
X150720500Y-112726456D01*
X150682052Y-112533170D01*
X150682051Y-112533169D01*
X150682051Y-112533165D01*
X150682049Y-112533160D01*
X150606635Y-112351092D01*
X150606628Y-112351079D01*
X150497139Y-112187218D01*
X150497136Y-112187214D01*
X150357785Y-112047863D01*
X150357781Y-112047860D01*
X150193920Y-111938371D01*
X150193907Y-111938364D01*
X150011839Y-111862950D01*
X150011829Y-111862947D01*
X149818543Y-111824500D01*
X149818541Y-111824500D01*
X149621459Y-111824500D01*
X149621457Y-111824500D01*
X149428170Y-111862947D01*
X149428160Y-111862950D01*
X149246092Y-111938364D01*
X149246079Y-111938371D01*
X149082218Y-112047860D01*
X149082214Y-112047863D01*
X148942863Y-112187214D01*
X148942860Y-112187218D01*
X148833371Y-112351079D01*
X148833364Y-112351092D01*
X148757950Y-112533160D01*
X148757947Y-112533170D01*
X148719500Y-112726456D01*
X148719500Y-112726459D01*
X148719500Y-112923541D01*
X148719500Y-112923543D01*
X148719499Y-112923543D01*
X148180500Y-112923543D01*
X148180500Y-112726456D01*
X148142052Y-112533170D01*
X148142051Y-112533169D01*
X148142051Y-112533165D01*
X148142049Y-112533160D01*
X148066635Y-112351092D01*
X148066628Y-112351079D01*
X147957139Y-112187218D01*
X147957136Y-112187214D01*
X147817785Y-112047863D01*
X147817781Y-112047860D01*
X147653920Y-111938371D01*
X147653907Y-111938364D01*
X147471839Y-111862950D01*
X147471829Y-111862947D01*
X147278543Y-111824500D01*
X147278541Y-111824500D01*
X147081459Y-111824500D01*
X147081457Y-111824500D01*
X146888170Y-111862947D01*
X146888160Y-111862950D01*
X146706092Y-111938364D01*
X146706079Y-111938371D01*
X146542218Y-112047860D01*
X146542214Y-112047863D01*
X146402863Y-112187214D01*
X146402860Y-112187218D01*
X146293371Y-112351079D01*
X146293364Y-112351092D01*
X146217950Y-112533160D01*
X146217947Y-112533170D01*
X146179500Y-112726456D01*
X146179500Y-112726459D01*
X146179500Y-112923541D01*
X146179500Y-112923543D01*
X146179499Y-112923543D01*
X145500500Y-112923543D01*
X145500500Y-112311306D01*
X145500499Y-112311304D01*
X145465896Y-112137341D01*
X145465893Y-112137332D01*
X145398016Y-111973459D01*
X145398009Y-111973446D01*
X145299464Y-111825965D01*
X145299461Y-111825961D01*
X145174038Y-111700538D01*
X145174034Y-111700535D01*
X145026553Y-111601990D01*
X145026540Y-111601983D01*
X144862667Y-111534106D01*
X144862658Y-111534103D01*
X144688694Y-111499500D01*
X144688691Y-111499500D01*
X144639562Y-111499500D01*
X131847595Y-111499500D01*
X131800000Y-111499500D01*
X131711309Y-111499500D01*
X131711306Y-111499500D01*
X131537341Y-111534103D01*
X131537332Y-111534106D01*
X131373459Y-111601983D01*
X131373446Y-111601990D01*
X131225965Y-111700535D01*
X131225961Y-111700538D01*
X131100538Y-111825961D01*
X131100535Y-111825965D01*
X131001990Y-111973446D01*
X131001983Y-111973459D01*
X130934106Y-112137332D01*
X130934103Y-112137341D01*
X130899500Y-112311304D01*
X130899500Y-113593038D01*
X130898720Y-113606922D01*
X130898720Y-113606923D01*
X130888540Y-113697264D01*
X130882362Y-113724333D01*
X130854648Y-113803537D01*
X130842600Y-113828555D01*
X130797957Y-113899604D01*
X130780644Y-113921313D01*
X130721313Y-113980644D01*
X130699604Y-113997957D01*
X130628555Y-114042600D01*
X130603537Y-114054648D01*
X130524333Y-114082362D01*
X130497264Y-114088540D01*
X130417075Y-114097576D01*
X130406921Y-114098720D01*
X130393038Y-114099500D01*
X107272097Y-114099500D01*
X107205058Y-114079815D01*
X107159303Y-114027011D01*
X107149359Y-113957853D01*
X107178384Y-113894297D01*
X107224643Y-113860939D01*
X107448462Y-113768231D01*
X107751787Y-113606100D01*
X108037760Y-113415019D01*
X108303627Y-113196828D01*
X108546828Y-112953627D01*
X108571517Y-112923543D01*
X110619499Y-112923543D01*
X110657947Y-113116829D01*
X110657950Y-113116839D01*
X110733364Y-113298907D01*
X110733371Y-113298920D01*
X110842860Y-113462781D01*
X110842863Y-113462785D01*
X110982214Y-113602136D01*
X110982218Y-113602139D01*
X111146079Y-113711628D01*
X111146092Y-113711635D01*
X111282719Y-113768227D01*
X111328165Y-113787051D01*
X111328169Y-113787051D01*
X111328170Y-113787052D01*
X111521456Y-113825500D01*
X111521459Y-113825500D01*
X111718543Y-113825500D01*
X111848582Y-113799632D01*
X111911835Y-113787051D01*
X112093914Y-113711632D01*
X112257782Y-113602139D01*
X112397139Y-113462782D01*
X112506632Y-113298914D01*
X112582051Y-113116835D01*
X112594632Y-113053582D01*
X112620500Y-112923543D01*
X113159499Y-112923543D01*
X113197947Y-113116829D01*
X113197950Y-113116839D01*
X113273364Y-113298907D01*
X113273371Y-113298920D01*
X113382860Y-113462781D01*
X113382863Y-113462785D01*
X113522214Y-113602136D01*
X113522218Y-113602139D01*
X113686079Y-113711628D01*
X113686092Y-113711635D01*
X113822719Y-113768227D01*
X113868165Y-113787051D01*
X113868169Y-113787051D01*
X113868170Y-113787052D01*
X114061456Y-113825500D01*
X114061459Y-113825500D01*
X114258543Y-113825500D01*
X114388582Y-113799632D01*
X114451835Y-113787051D01*
X114633914Y-113711632D01*
X114797782Y-113602139D01*
X114937139Y-113462782D01*
X115046632Y-113298914D01*
X115122051Y-113116835D01*
X115134632Y-113053582D01*
X115160500Y-112923543D01*
X115699499Y-112923543D01*
X115737947Y-113116829D01*
X115737950Y-113116839D01*
X115813364Y-113298907D01*
X115813371Y-113298920D01*
X115922860Y-113462781D01*
X115922863Y-113462785D01*
X116062214Y-113602136D01*
X116062218Y-113602139D01*
X116226079Y-113711628D01*
X116226092Y-113711635D01*
X116362719Y-113768227D01*
X116408165Y-113787051D01*
X116408169Y-113787051D01*
X116408170Y-113787052D01*
X116601456Y-113825500D01*
X116601459Y-113825500D01*
X116798543Y-113825500D01*
X116928582Y-113799632D01*
X116991835Y-113787051D01*
X117173914Y-113711632D01*
X117337782Y-113602139D01*
X117477139Y-113462782D01*
X117586632Y-113298914D01*
X117662051Y-113116835D01*
X117674632Y-113053582D01*
X117700500Y-112923543D01*
X118239499Y-112923543D01*
X118277947Y-113116829D01*
X118277950Y-113116839D01*
X118353364Y-113298907D01*
X118353371Y-113298920D01*
X118462860Y-113462781D01*
X118462863Y-113462785D01*
X118602214Y-113602136D01*
X118602218Y-113602139D01*
X118766079Y-113711628D01*
X118766092Y-113711635D01*
X118902719Y-113768227D01*
X118948165Y-113787051D01*
X118948169Y-113787051D01*
X118948170Y-113787052D01*
X119141456Y-113825500D01*
X119141459Y-113825500D01*
X119338543Y-113825500D01*
X119468582Y-113799632D01*
X119531835Y-113787051D01*
X119713914Y-113711632D01*
X119877782Y-113602139D01*
X120017139Y-113462782D01*
X120126632Y-113298914D01*
X120202051Y-113116835D01*
X120214632Y-113053582D01*
X120240500Y-112923543D01*
X120779499Y-112923543D01*
X120817947Y-113116829D01*
X120817950Y-113116839D01*
X120893364Y-113298907D01*
X120893371Y-113298920D01*
X121002860Y-113462781D01*
X121002863Y-113462785D01*
X121142214Y-113602136D01*
X121142218Y-113602139D01*
X121306079Y-113711628D01*
X121306092Y-113711635D01*
X121442719Y-113768227D01*
X121488165Y-113787051D01*
X121488169Y-113787051D01*
X121488170Y-113787052D01*
X121681456Y-113825500D01*
X121681459Y-113825500D01*
X121878543Y-113825500D01*
X122008582Y-113799632D01*
X122071835Y-113787051D01*
X122253914Y-113711632D01*
X122417782Y-113602139D01*
X122557139Y-113462782D01*
X122666632Y-113298914D01*
X122742051Y-113116835D01*
X122754632Y-113053582D01*
X122780500Y-112923543D01*
X123319499Y-112923543D01*
X123357947Y-113116829D01*
X123357950Y-113116839D01*
X123433364Y-113298907D01*
X123433371Y-113298920D01*
X123542860Y-113462781D01*
X123542863Y-113462785D01*
X123682214Y-113602136D01*
X123682218Y-113602139D01*
X123846079Y-113711628D01*
X123846092Y-113711635D01*
X123982719Y-113768227D01*
X124028165Y-113787051D01*
X124028169Y-113787051D01*
X124028170Y-113787052D01*
X124221456Y-113825500D01*
X124221459Y-113825500D01*
X124418543Y-113825500D01*
X124548582Y-113799632D01*
X124611835Y-113787051D01*
X124793914Y-113711632D01*
X124957782Y-113602139D01*
X125097139Y-113462782D01*
X125206632Y-113298914D01*
X125282051Y-113116835D01*
X125294632Y-113053582D01*
X125320500Y-112923543D01*
X125859499Y-112923543D01*
X125897947Y-113116829D01*
X125897950Y-113116839D01*
X125973364Y-113298907D01*
X125973371Y-113298920D01*
X126082860Y-113462781D01*
X126082863Y-113462785D01*
X126222214Y-113602136D01*
X126222218Y-113602139D01*
X126386079Y-113711628D01*
X126386092Y-113711635D01*
X126522719Y-113768227D01*
X126568165Y-113787051D01*
X126568169Y-113787051D01*
X126568170Y-113787052D01*
X126761456Y-113825500D01*
X126761459Y-113825500D01*
X126958543Y-113825500D01*
X127088582Y-113799632D01*
X127151835Y-113787051D01*
X127333914Y-113711632D01*
X127497782Y-113602139D01*
X127637139Y-113462782D01*
X127746632Y-113298914D01*
X127822051Y-113116835D01*
X127834632Y-113053582D01*
X127860500Y-112923543D01*
X128399499Y-112923543D01*
X128437947Y-113116829D01*
X128437950Y-113116839D01*
X128513364Y-113298907D01*
X128513371Y-113298920D01*
X128622860Y-113462781D01*
X128622863Y-113462785D01*
X128762214Y-113602136D01*
X128762218Y-113602139D01*
X128926079Y-113711628D01*
X128926092Y-113711635D01*
X129062719Y-113768227D01*
X129108165Y-113787051D01*
X129108169Y-113787051D01*
X129108170Y-113787052D01*
X129301456Y-113825500D01*
X129301459Y-113825500D01*
X129498543Y-113825500D01*
X129628582Y-113799632D01*
X129691835Y-113787051D01*
X129873914Y-113711632D01*
X130037782Y-113602139D01*
X130177139Y-113462782D01*
X130286632Y-113298914D01*
X130362051Y-113116835D01*
X130374632Y-113053582D01*
X130400500Y-112923543D01*
X130400500Y-112726456D01*
X130362052Y-112533170D01*
X130362051Y-112533169D01*
X130362051Y-112533165D01*
X130362049Y-112533160D01*
X130286635Y-112351092D01*
X130286628Y-112351079D01*
X130177139Y-112187218D01*
X130177136Y-112187214D01*
X130037785Y-112047863D01*
X130037781Y-112047860D01*
X129873920Y-111938371D01*
X129873907Y-111938364D01*
X129691839Y-111862950D01*
X129691829Y-111862947D01*
X129498543Y-111824500D01*
X129498541Y-111824500D01*
X129301459Y-111824500D01*
X129301457Y-111824500D01*
X129108170Y-111862947D01*
X129108160Y-111862950D01*
X128926092Y-111938364D01*
X128926079Y-111938371D01*
X128762218Y-112047860D01*
X128762214Y-112047863D01*
X128622863Y-112187214D01*
X128622860Y-112187218D01*
X128513371Y-112351079D01*
X128513364Y-112351092D01*
X128437950Y-112533160D01*
X128437947Y-112533170D01*
X128399500Y-112726456D01*
X128399500Y-112726459D01*
X128399500Y-112923541D01*
X128399500Y-112923543D01*
X128399499Y-112923543D01*
X127860500Y-112923543D01*
X127860500Y-112726456D01*
X127822052Y-112533170D01*
X127822051Y-112533169D01*
X127822051Y-112533165D01*
X127822049Y-112533160D01*
X127746635Y-112351092D01*
X127746628Y-112351079D01*
X127637139Y-112187218D01*
X127637136Y-112187214D01*
X127497785Y-112047863D01*
X127497781Y-112047860D01*
X127333920Y-111938371D01*
X127333907Y-111938364D01*
X127151839Y-111862950D01*
X127151829Y-111862947D01*
X126958543Y-111824500D01*
X126958541Y-111824500D01*
X126761459Y-111824500D01*
X126761457Y-111824500D01*
X126568170Y-111862947D01*
X126568160Y-111862950D01*
X126386092Y-111938364D01*
X126386079Y-111938371D01*
X126222218Y-112047860D01*
X126222214Y-112047863D01*
X126082863Y-112187214D01*
X126082860Y-112187218D01*
X125973371Y-112351079D01*
X125973364Y-112351092D01*
X125897950Y-112533160D01*
X125897947Y-112533170D01*
X125859500Y-112726456D01*
X125859500Y-112726459D01*
X125859500Y-112923541D01*
X125859500Y-112923543D01*
X125859499Y-112923543D01*
X125320500Y-112923543D01*
X125320500Y-112726456D01*
X125282052Y-112533170D01*
X125282051Y-112533169D01*
X125282051Y-112533165D01*
X125282049Y-112533160D01*
X125206635Y-112351092D01*
X125206628Y-112351079D01*
X125097139Y-112187218D01*
X125097136Y-112187214D01*
X124957785Y-112047863D01*
X124957781Y-112047860D01*
X124793920Y-111938371D01*
X124793907Y-111938364D01*
X124611839Y-111862950D01*
X124611829Y-111862947D01*
X124418543Y-111824500D01*
X124418541Y-111824500D01*
X124221459Y-111824500D01*
X124221457Y-111824500D01*
X124028170Y-111862947D01*
X124028160Y-111862950D01*
X123846092Y-111938364D01*
X123846079Y-111938371D01*
X123682218Y-112047860D01*
X123682214Y-112047863D01*
X123542863Y-112187214D01*
X123542860Y-112187218D01*
X123433371Y-112351079D01*
X123433364Y-112351092D01*
X123357950Y-112533160D01*
X123357947Y-112533170D01*
X123319500Y-112726456D01*
X123319500Y-112726459D01*
X123319500Y-112923541D01*
X123319500Y-112923543D01*
X123319499Y-112923543D01*
X122780500Y-112923543D01*
X122780500Y-112726456D01*
X122742052Y-112533170D01*
X122742051Y-112533169D01*
X122742051Y-112533165D01*
X122742049Y-112533160D01*
X122666635Y-112351092D01*
X122666628Y-112351079D01*
X122557139Y-112187218D01*
X122557136Y-112187214D01*
X122417785Y-112047863D01*
X122417781Y-112047860D01*
X122253920Y-111938371D01*
X122253907Y-111938364D01*
X122071839Y-111862950D01*
X122071829Y-111862947D01*
X121878543Y-111824500D01*
X121878541Y-111824500D01*
X121681459Y-111824500D01*
X121681457Y-111824500D01*
X121488170Y-111862947D01*
X121488160Y-111862950D01*
X121306092Y-111938364D01*
X121306079Y-111938371D01*
X121142218Y-112047860D01*
X121142214Y-112047863D01*
X121002863Y-112187214D01*
X121002860Y-112187218D01*
X120893371Y-112351079D01*
X120893364Y-112351092D01*
X120817950Y-112533160D01*
X120817947Y-112533170D01*
X120779500Y-112726456D01*
X120779500Y-112726459D01*
X120779500Y-112923541D01*
X120779500Y-112923543D01*
X120779499Y-112923543D01*
X120240500Y-112923543D01*
X120240500Y-112726456D01*
X120202052Y-112533170D01*
X120202051Y-112533169D01*
X120202051Y-112533165D01*
X120202049Y-112533160D01*
X120126635Y-112351092D01*
X120126628Y-112351079D01*
X120017139Y-112187218D01*
X120017136Y-112187214D01*
X119877785Y-112047863D01*
X119877781Y-112047860D01*
X119713920Y-111938371D01*
X119713907Y-111938364D01*
X119531839Y-111862950D01*
X119531829Y-111862947D01*
X119338543Y-111824500D01*
X119338541Y-111824500D01*
X119141459Y-111824500D01*
X119141457Y-111824500D01*
X118948170Y-111862947D01*
X118948160Y-111862950D01*
X118766092Y-111938364D01*
X118766079Y-111938371D01*
X118602218Y-112047860D01*
X118602214Y-112047863D01*
X118462863Y-112187214D01*
X118462860Y-112187218D01*
X118353371Y-112351079D01*
X118353364Y-112351092D01*
X118277950Y-112533160D01*
X118277947Y-112533170D01*
X118239500Y-112726456D01*
X118239500Y-112726459D01*
X118239500Y-112923541D01*
X118239500Y-112923543D01*
X118239499Y-112923543D01*
X117700500Y-112923543D01*
X117700500Y-112726456D01*
X117662052Y-112533170D01*
X117662051Y-112533169D01*
X117662051Y-112533165D01*
X117662049Y-112533160D01*
X117586635Y-112351092D01*
X117586628Y-112351079D01*
X117477139Y-112187218D01*
X117477136Y-112187214D01*
X117337785Y-112047863D01*
X117337781Y-112047860D01*
X117173920Y-111938371D01*
X117173907Y-111938364D01*
X116991839Y-111862950D01*
X116991829Y-111862947D01*
X116798543Y-111824500D01*
X116798541Y-111824500D01*
X116601459Y-111824500D01*
X116601457Y-111824500D01*
X116408170Y-111862947D01*
X116408160Y-111862950D01*
X116226092Y-111938364D01*
X116226079Y-111938371D01*
X116062218Y-112047860D01*
X116062214Y-112047863D01*
X115922863Y-112187214D01*
X115922860Y-112187218D01*
X115813371Y-112351079D01*
X115813364Y-112351092D01*
X115737950Y-112533160D01*
X115737947Y-112533170D01*
X115699500Y-112726456D01*
X115699500Y-112726459D01*
X115699500Y-112923541D01*
X115699500Y-112923543D01*
X115699499Y-112923543D01*
X115160500Y-112923543D01*
X115160500Y-112726456D01*
X115122052Y-112533170D01*
X115122051Y-112533169D01*
X115122051Y-112533165D01*
X115122049Y-112533160D01*
X115046635Y-112351092D01*
X115046628Y-112351079D01*
X114937139Y-112187218D01*
X114937136Y-112187214D01*
X114797785Y-112047863D01*
X114797781Y-112047860D01*
X114633920Y-111938371D01*
X114633907Y-111938364D01*
X114451839Y-111862950D01*
X114451829Y-111862947D01*
X114258543Y-111824500D01*
X114258541Y-111824500D01*
X114061459Y-111824500D01*
X114061457Y-111824500D01*
X113868170Y-111862947D01*
X113868160Y-111862950D01*
X113686092Y-111938364D01*
X113686079Y-111938371D01*
X113522218Y-112047860D01*
X113522214Y-112047863D01*
X113382863Y-112187214D01*
X113382860Y-112187218D01*
X113273371Y-112351079D01*
X113273364Y-112351092D01*
X113197950Y-112533160D01*
X113197947Y-112533170D01*
X113159500Y-112726456D01*
X113159500Y-112726459D01*
X113159500Y-112923541D01*
X113159500Y-112923543D01*
X113159499Y-112923543D01*
X112620500Y-112923543D01*
X112620500Y-112726456D01*
X112582052Y-112533170D01*
X112582051Y-112533169D01*
X112582051Y-112533165D01*
X112582049Y-112533160D01*
X112506635Y-112351092D01*
X112506628Y-112351079D01*
X112397139Y-112187218D01*
X112397136Y-112187214D01*
X112257785Y-112047863D01*
X112257781Y-112047860D01*
X112093920Y-111938371D01*
X112093907Y-111938364D01*
X111911839Y-111862950D01*
X111911829Y-111862947D01*
X111718543Y-111824500D01*
X111718541Y-111824500D01*
X111521459Y-111824500D01*
X111521457Y-111824500D01*
X111328170Y-111862947D01*
X111328160Y-111862950D01*
X111146092Y-111938364D01*
X111146079Y-111938371D01*
X110982218Y-112047860D01*
X110982214Y-112047863D01*
X110842863Y-112187214D01*
X110842860Y-112187218D01*
X110733371Y-112351079D01*
X110733364Y-112351092D01*
X110657950Y-112533160D01*
X110657947Y-112533170D01*
X110619500Y-112726456D01*
X110619500Y-112726459D01*
X110619500Y-112923541D01*
X110619500Y-112923543D01*
X110619499Y-112923543D01*
X108571517Y-112923543D01*
X108765019Y-112687760D01*
X108956100Y-112401787D01*
X109118231Y-112098462D01*
X109249850Y-111780705D01*
X109349690Y-111451578D01*
X109416789Y-111114250D01*
X109450500Y-110771969D01*
X109450500Y-110699379D01*
X160199500Y-110699379D01*
X160199500Y-110886620D01*
X160236025Y-111070243D01*
X160236027Y-111070251D01*
X160307676Y-111243228D01*
X160307681Y-111243237D01*
X160411697Y-111398907D01*
X160411700Y-111398911D01*
X160544088Y-111531299D01*
X160544092Y-111531302D01*
X160699762Y-111635318D01*
X160699768Y-111635321D01*
X160699769Y-111635322D01*
X160872749Y-111706973D01*
X161056379Y-111743499D01*
X161056383Y-111743500D01*
X161056384Y-111743500D01*
X161243617Y-111743500D01*
X161243618Y-111743499D01*
X161427251Y-111706973D01*
X161600231Y-111635322D01*
X161755908Y-111531302D01*
X161888302Y-111398908D01*
X161992322Y-111243231D01*
X162063973Y-111070251D01*
X162100500Y-110886616D01*
X162100500Y-110699384D01*
X162063973Y-110515749D01*
X161992322Y-110342769D01*
X161992321Y-110342768D01*
X161992318Y-110342762D01*
X161888302Y-110187092D01*
X161888299Y-110187088D01*
X161755911Y-110054700D01*
X161755907Y-110054697D01*
X161600237Y-109950681D01*
X161600228Y-109950676D01*
X161427251Y-109879027D01*
X161427243Y-109879025D01*
X161243620Y-109842500D01*
X161243616Y-109842500D01*
X161056384Y-109842500D01*
X161056379Y-109842500D01*
X160872756Y-109879025D01*
X160872748Y-109879027D01*
X160699771Y-109950676D01*
X160699762Y-109950681D01*
X160544092Y-110054697D01*
X160544088Y-110054700D01*
X160411700Y-110187088D01*
X160411697Y-110187092D01*
X160307681Y-110342762D01*
X160307676Y-110342771D01*
X160236027Y-110515748D01*
X160236025Y-110515756D01*
X160199500Y-110699379D01*
X109450500Y-110699379D01*
X109450500Y-110428031D01*
X109416789Y-110085750D01*
X109349690Y-109748422D01*
X109249850Y-109419295D01*
X109148817Y-109175379D01*
X155119500Y-109175379D01*
X155119500Y-109362620D01*
X155156025Y-109546243D01*
X155156027Y-109546251D01*
X155227676Y-109719228D01*
X155227681Y-109719237D01*
X155331697Y-109874907D01*
X155331700Y-109874911D01*
X155464088Y-110007299D01*
X155464092Y-110007302D01*
X155619762Y-110111318D01*
X155619768Y-110111321D01*
X155619769Y-110111322D01*
X155792749Y-110182973D01*
X155976379Y-110219499D01*
X155976383Y-110219500D01*
X155976384Y-110219500D01*
X156163617Y-110219500D01*
X156163618Y-110219499D01*
X156347251Y-110182973D01*
X156520231Y-110111322D01*
X156675908Y-110007302D01*
X156808302Y-109874908D01*
X156912322Y-109719231D01*
X156983973Y-109546251D01*
X157020500Y-109362616D01*
X157020500Y-109175384D01*
X156983973Y-108991749D01*
X156928554Y-108857956D01*
X156912323Y-108818771D01*
X156912318Y-108818762D01*
X156808302Y-108663092D01*
X156808299Y-108663088D01*
X156675911Y-108530700D01*
X156675907Y-108530697D01*
X156520237Y-108426681D01*
X156520228Y-108426676D01*
X156347251Y-108355027D01*
X156347243Y-108355025D01*
X156163620Y-108318500D01*
X156163616Y-108318500D01*
X155976384Y-108318500D01*
X155976379Y-108318500D01*
X155792756Y-108355025D01*
X155792748Y-108355027D01*
X155619771Y-108426676D01*
X155619762Y-108426681D01*
X155464092Y-108530697D01*
X155464088Y-108530700D01*
X155331700Y-108663088D01*
X155331697Y-108663092D01*
X155227681Y-108818762D01*
X155227676Y-108818771D01*
X155156027Y-108991748D01*
X155156025Y-108991756D01*
X155119500Y-109175379D01*
X109148817Y-109175379D01*
X109118231Y-109101538D01*
X109086579Y-109042322D01*
X108956106Y-108798224D01*
X108956105Y-108798222D01*
X108956100Y-108798213D01*
X108765019Y-108512240D01*
X108546828Y-108246373D01*
X108546827Y-108246372D01*
X108546823Y-108246367D01*
X108406835Y-108106379D01*
X111699500Y-108106379D01*
X111699500Y-108293620D01*
X111736025Y-108477243D01*
X111736027Y-108477251D01*
X111807676Y-108650228D01*
X111807681Y-108650237D01*
X111911697Y-108805907D01*
X111911700Y-108805911D01*
X112044088Y-108938299D01*
X112044092Y-108938302D01*
X112199762Y-109042318D01*
X112199768Y-109042321D01*
X112199769Y-109042322D01*
X112372749Y-109113973D01*
X112556379Y-109150499D01*
X112556383Y-109150500D01*
X112556384Y-109150500D01*
X112743617Y-109150500D01*
X112743618Y-109150499D01*
X112927251Y-109113973D01*
X113100231Y-109042322D01*
X113164443Y-108999416D01*
X113231118Y-108978538D01*
X113298499Y-108997022D01*
X113302196Y-108999398D01*
X113366436Y-109042322D01*
X113539416Y-109113973D01*
X113723046Y-109150499D01*
X113723050Y-109150500D01*
X113723051Y-109150500D01*
X113910284Y-109150500D01*
X113910285Y-109150499D01*
X114093918Y-109113973D01*
X114266898Y-109042322D01*
X114266903Y-109042318D01*
X114266906Y-109042317D01*
X114331108Y-108999418D01*
X114397785Y-108978539D01*
X114465166Y-108997023D01*
X114468892Y-108999418D01*
X114533093Y-109042317D01*
X114533101Y-109042321D01*
X114533102Y-109042322D01*
X114706082Y-109113973D01*
X114889712Y-109150499D01*
X114889716Y-109150500D01*
X114889717Y-109150500D01*
X115076950Y-109150500D01*
X115076951Y-109150499D01*
X115260584Y-109113973D01*
X115433564Y-109042322D01*
X115497776Y-108999416D01*
X115564451Y-108978538D01*
X115631832Y-108997022D01*
X115635529Y-108999398D01*
X115699769Y-109042322D01*
X115872749Y-109113973D01*
X116056379Y-109150499D01*
X116056383Y-109150500D01*
X116056384Y-109150500D01*
X116243617Y-109150500D01*
X116243618Y-109150499D01*
X116427251Y-109113973D01*
X116600231Y-109042322D01*
X116755908Y-108938302D01*
X116888302Y-108805908D01*
X116992322Y-108650231D01*
X117063973Y-108477251D01*
X117100500Y-108293616D01*
X117100500Y-108106384D01*
X117063973Y-107922749D01*
X117006905Y-107784975D01*
X116992323Y-107749771D01*
X116992318Y-107749762D01*
X116888302Y-107594092D01*
X116888299Y-107594088D01*
X116755911Y-107461700D01*
X116755907Y-107461697D01*
X116600237Y-107357681D01*
X116600228Y-107357676D01*
X116427251Y-107286027D01*
X116427243Y-107286025D01*
X116243620Y-107249500D01*
X116243616Y-107249500D01*
X116056384Y-107249500D01*
X116056379Y-107249500D01*
X115872756Y-107286025D01*
X115872748Y-107286027D01*
X115699770Y-107357677D01*
X115635556Y-107400583D01*
X115568878Y-107421460D01*
X115501498Y-107402975D01*
X115497775Y-107400582D01*
X115433570Y-107357681D01*
X115433561Y-107357676D01*
X115260584Y-107286027D01*
X115260576Y-107286025D01*
X115076953Y-107249500D01*
X115076949Y-107249500D01*
X114889717Y-107249500D01*
X114889712Y-107249500D01*
X114706089Y-107286025D01*
X114706081Y-107286027D01*
X114533100Y-107357678D01*
X114468889Y-107400582D01*
X114402212Y-107421459D01*
X114334832Y-107402973D01*
X114331111Y-107400582D01*
X114266899Y-107357678D01*
X114093918Y-107286027D01*
X114093910Y-107286025D01*
X113910287Y-107249500D01*
X113910283Y-107249500D01*
X113723051Y-107249500D01*
X113723046Y-107249500D01*
X113539423Y-107286025D01*
X113539415Y-107286027D01*
X113366437Y-107357677D01*
X113302223Y-107400583D01*
X113235545Y-107421460D01*
X113168165Y-107402975D01*
X113164442Y-107400582D01*
X113100237Y-107357681D01*
X113100228Y-107357676D01*
X112927251Y-107286027D01*
X112927243Y-107286025D01*
X112743620Y-107249500D01*
X112743616Y-107249500D01*
X112556384Y-107249500D01*
X112556379Y-107249500D01*
X112372756Y-107286025D01*
X112372748Y-107286027D01*
X112199771Y-107357676D01*
X112199762Y-107357681D01*
X112044092Y-107461697D01*
X112044088Y-107461700D01*
X111911700Y-107594088D01*
X111911697Y-107594092D01*
X111807681Y-107749762D01*
X111807676Y-107749771D01*
X111736027Y-107922748D01*
X111736025Y-107922756D01*
X111699500Y-108106379D01*
X108406835Y-108106379D01*
X108303632Y-108003176D01*
X108037765Y-107784985D01*
X108037764Y-107784984D01*
X108037760Y-107784981D01*
X107751787Y-107593900D01*
X107751782Y-107593897D01*
X107751775Y-107593893D01*
X107448469Y-107431772D01*
X107448464Y-107431770D01*
X107130706Y-107300150D01*
X106801572Y-107200308D01*
X106464248Y-107133210D01*
X106464249Y-107133210D01*
X106206456Y-107107821D01*
X106121969Y-107099500D01*
X105778031Y-107099500D01*
X105699966Y-107107188D01*
X105435750Y-107133210D01*
X105098427Y-107200308D01*
X104769293Y-107300150D01*
X104451535Y-107431770D01*
X104451530Y-107431772D01*
X104148224Y-107593893D01*
X104148206Y-107593904D01*
X103862248Y-107784975D01*
X103862234Y-107784985D01*
X103596367Y-108003176D01*
X103353176Y-108246367D01*
X103134985Y-108512234D01*
X103134975Y-108512248D01*
X102943904Y-108798206D01*
X102943893Y-108798224D01*
X102781772Y-109101530D01*
X102781770Y-109101535D01*
X102739061Y-109204644D01*
X102695220Y-109259047D01*
X102628926Y-109281112D01*
X102561226Y-109263833D01*
X102513616Y-109212695D01*
X102500500Y-109157191D01*
X102500500Y-106644073D01*
X102520185Y-106577034D01*
X102572989Y-106531279D01*
X102642147Y-106521335D01*
X102705703Y-106550360D01*
X102712181Y-106556392D01*
X102794088Y-106638299D01*
X102794092Y-106638302D01*
X102949762Y-106742318D01*
X102949768Y-106742321D01*
X102949769Y-106742322D01*
X103122749Y-106813973D01*
X103306379Y-106850499D01*
X103306383Y-106850500D01*
X103306384Y-106850500D01*
X103493617Y-106850500D01*
X103493618Y-106850499D01*
X103562092Y-106836879D01*
X121630000Y-106836879D01*
X121630000Y-107024120D01*
X121666525Y-107207743D01*
X121666527Y-107207751D01*
X121738176Y-107380728D01*
X121738181Y-107380737D01*
X121842197Y-107536407D01*
X121842200Y-107536411D01*
X121974588Y-107668799D01*
X121974592Y-107668802D01*
X122130262Y-107772818D01*
X122130271Y-107772823D01*
X122159609Y-107784975D01*
X122303249Y-107844473D01*
X122486879Y-107880999D01*
X122486883Y-107881000D01*
X122486884Y-107881000D01*
X122674117Y-107881000D01*
X122674117Y-107880999D01*
X122825509Y-107850886D01*
X122895100Y-107857113D01*
X122950277Y-107899976D01*
X122973522Y-107965866D01*
X122971318Y-107996693D01*
X122970029Y-108003176D01*
X122952040Y-108093617D01*
X122949500Y-108106385D01*
X122949500Y-108293620D01*
X122986025Y-108477243D01*
X122986027Y-108477251D01*
X123057676Y-108650228D01*
X123057681Y-108650237D01*
X123161697Y-108805907D01*
X123161700Y-108805911D01*
X123294088Y-108938299D01*
X123294092Y-108938302D01*
X123449762Y-109042318D01*
X123449768Y-109042321D01*
X123449769Y-109042322D01*
X123622749Y-109113973D01*
X123806379Y-109150499D01*
X123806383Y-109150500D01*
X123806384Y-109150500D01*
X123993617Y-109150500D01*
X123993618Y-109150499D01*
X124177251Y-109113973D01*
X124350231Y-109042322D01*
X124505908Y-108938302D01*
X124638302Y-108805908D01*
X124742322Y-108650231D01*
X124813973Y-108477251D01*
X124850500Y-108293616D01*
X124850500Y-108106384D01*
X124813973Y-107922749D01*
X124756905Y-107784975D01*
X124742323Y-107749771D01*
X124742318Y-107749762D01*
X124638302Y-107594092D01*
X124638299Y-107594088D01*
X124505911Y-107461700D01*
X124505907Y-107461697D01*
X124350237Y-107357681D01*
X124350228Y-107357676D01*
X124177251Y-107286027D01*
X124177243Y-107286025D01*
X123993620Y-107249500D01*
X123993616Y-107249500D01*
X123806384Y-107249500D01*
X123806379Y-107249500D01*
X123654990Y-107279613D01*
X123585398Y-107273386D01*
X123530221Y-107230522D01*
X123506977Y-107164633D01*
X123509182Y-107133805D01*
X123519095Y-107083964D01*
X123531000Y-107024116D01*
X123531000Y-106836884D01*
X123494473Y-106653249D01*
X123422822Y-106480269D01*
X123422821Y-106480268D01*
X123422818Y-106480262D01*
X123318802Y-106324592D01*
X123318799Y-106324588D01*
X123313891Y-106319680D01*
X123312679Y-106317462D01*
X123310510Y-106316164D01*
X123296023Y-106286958D01*
X123280406Y-106258357D01*
X123280586Y-106255835D01*
X123279463Y-106253571D01*
X123283065Y-106221174D01*
X123285390Y-106188665D01*
X123286991Y-106185865D01*
X123287184Y-106184130D01*
X123292602Y-106176052D01*
X123298134Y-106166379D01*
X132714500Y-106166379D01*
X132714500Y-106353620D01*
X132751025Y-106537243D01*
X132751027Y-106537251D01*
X132822676Y-106710228D01*
X132822681Y-106710237D01*
X132926697Y-106865907D01*
X132926700Y-106865911D01*
X133059088Y-106998299D01*
X133059092Y-106998302D01*
X133119388Y-107038591D01*
X133164193Y-107092203D01*
X133172900Y-107161528D01*
X133142745Y-107224556D01*
X133119389Y-107244795D01*
X133094088Y-107261700D01*
X132961700Y-107394088D01*
X132961697Y-107394092D01*
X132857681Y-107549762D01*
X132857676Y-107549771D01*
X132786027Y-107722748D01*
X132786025Y-107722756D01*
X132749500Y-107906379D01*
X132749500Y-108093620D01*
X132786025Y-108277243D01*
X132786027Y-108277251D01*
X132857676Y-108450228D01*
X132857681Y-108450237D01*
X132961697Y-108605907D01*
X132961700Y-108605911D01*
X133094088Y-108738299D01*
X133094092Y-108738302D01*
X133249762Y-108842318D01*
X133249768Y-108842321D01*
X133249769Y-108842322D01*
X133422749Y-108913973D01*
X133606379Y-108950499D01*
X133606383Y-108950500D01*
X133606384Y-108950500D01*
X133793617Y-108950500D01*
X133793618Y-108950499D01*
X133977251Y-108913973D01*
X134150231Y-108842322D01*
X134305908Y-108738302D01*
X134438302Y-108605908D01*
X134542322Y-108450231D01*
X134613973Y-108277251D01*
X134650500Y-108093616D01*
X134650500Y-107906384D01*
X134613973Y-107722749D01*
X134542322Y-107549769D01*
X134542321Y-107549768D01*
X134542318Y-107549762D01*
X134438302Y-107394092D01*
X134438299Y-107394088D01*
X134305911Y-107261700D01*
X134305907Y-107261697D01*
X134245611Y-107221408D01*
X134200806Y-107167795D01*
X134192099Y-107098470D01*
X134222254Y-107035443D01*
X134245609Y-107015205D01*
X134270908Y-106998302D01*
X134403302Y-106865908D01*
X134507322Y-106710231D01*
X134578973Y-106537251D01*
X134598455Y-106439309D01*
X134598941Y-106438379D01*
X141459500Y-106438379D01*
X141459500Y-106625620D01*
X141496025Y-106809243D01*
X141496027Y-106809251D01*
X141567676Y-106982228D01*
X141567681Y-106982237D01*
X141671697Y-107137907D01*
X141671700Y-107137911D01*
X141804088Y-107270299D01*
X141804092Y-107270302D01*
X141959762Y-107374318D01*
X141959771Y-107374323D01*
X141975256Y-107380737D01*
X142132749Y-107445973D01*
X142316379Y-107482499D01*
X142316383Y-107482500D01*
X142316384Y-107482500D01*
X142503617Y-107482500D01*
X142503618Y-107482499D01*
X142644990Y-107454379D01*
X147753500Y-107454379D01*
X147753500Y-107641620D01*
X147790025Y-107825243D01*
X147790027Y-107825251D01*
X147861676Y-107998228D01*
X147861681Y-107998237D01*
X147965697Y-108153907D01*
X147965700Y-108153911D01*
X148098088Y-108286299D01*
X148098092Y-108286302D01*
X148253762Y-108390318D01*
X148253768Y-108390321D01*
X148253769Y-108390322D01*
X148426749Y-108461973D01*
X148610379Y-108498499D01*
X148610383Y-108498500D01*
X148610384Y-108498500D01*
X148797617Y-108498500D01*
X148797618Y-108498499D01*
X148981251Y-108461973D01*
X149154231Y-108390322D01*
X149309908Y-108286302D01*
X149442302Y-108153908D01*
X149546322Y-107998231D01*
X149562390Y-107959440D01*
X158828608Y-107959440D01*
X158828608Y-108146681D01*
X158865133Y-108330304D01*
X158865135Y-108330312D01*
X158936784Y-108503289D01*
X158936789Y-108503298D01*
X159040805Y-108658968D01*
X159040808Y-108658972D01*
X159173196Y-108791360D01*
X159173200Y-108791363D01*
X159328870Y-108895379D01*
X159328876Y-108895382D01*
X159328877Y-108895383D01*
X159501857Y-108967034D01*
X159626104Y-108991748D01*
X159685487Y-109003560D01*
X159685491Y-109003561D01*
X159685492Y-109003561D01*
X159872725Y-109003561D01*
X159872726Y-109003560D01*
X160056359Y-108967034D01*
X160229339Y-108895383D01*
X160385016Y-108791363D01*
X160517410Y-108658969D01*
X160621430Y-108503292D01*
X160693081Y-108330312D01*
X160729608Y-108146677D01*
X160729608Y-107959445D01*
X160693081Y-107775810D01*
X160621430Y-107602830D01*
X160621429Y-107602829D01*
X160621426Y-107602823D01*
X160517410Y-107447153D01*
X160517407Y-107447149D01*
X160385019Y-107314761D01*
X160385015Y-107314758D01*
X160229345Y-107210742D01*
X160229336Y-107210737D01*
X160056359Y-107139088D01*
X160056351Y-107139086D01*
X159872728Y-107102561D01*
X159872724Y-107102561D01*
X159685492Y-107102561D01*
X159685487Y-107102561D01*
X159501864Y-107139086D01*
X159501856Y-107139088D01*
X159328879Y-107210737D01*
X159328870Y-107210742D01*
X159173200Y-107314758D01*
X159173196Y-107314761D01*
X159040808Y-107447149D01*
X159040805Y-107447153D01*
X158936789Y-107602823D01*
X158936784Y-107602832D01*
X158865135Y-107775809D01*
X158865133Y-107775817D01*
X158828608Y-107959440D01*
X149562390Y-107959440D01*
X149581019Y-107914465D01*
X149584567Y-107905900D01*
X149604775Y-107857113D01*
X149617973Y-107825251D01*
X149654500Y-107641616D01*
X149654500Y-107454384D01*
X149617973Y-107270749D01*
X149547039Y-107099500D01*
X149546323Y-107097771D01*
X149546318Y-107097762D01*
X149442302Y-106942092D01*
X149442299Y-106942088D01*
X149309911Y-106809700D01*
X149309907Y-106809697D01*
X149154237Y-106705681D01*
X149154228Y-106705676D01*
X148981251Y-106634027D01*
X148981243Y-106634025D01*
X148797620Y-106597500D01*
X148797616Y-106597500D01*
X148610384Y-106597500D01*
X148610379Y-106597500D01*
X148426756Y-106634025D01*
X148426748Y-106634027D01*
X148253771Y-106705676D01*
X148253762Y-106705681D01*
X148098092Y-106809697D01*
X148098088Y-106809700D01*
X147965700Y-106942088D01*
X147965697Y-106942092D01*
X147861681Y-107097762D01*
X147861676Y-107097771D01*
X147790027Y-107270748D01*
X147790025Y-107270756D01*
X147753500Y-107454379D01*
X142644990Y-107454379D01*
X142687251Y-107445973D01*
X142860231Y-107374322D01*
X142861086Y-107373751D01*
X142903831Y-107345190D01*
X142971237Y-107300150D01*
X143015908Y-107270302D01*
X143148302Y-107137908D01*
X143252322Y-106982231D01*
X143323973Y-106809251D01*
X143360500Y-106625616D01*
X143360500Y-106438384D01*
X143323973Y-106254749D01*
X143252322Y-106081769D01*
X143252321Y-106081768D01*
X143252318Y-106081762D01*
X143148302Y-105926092D01*
X143148299Y-105926088D01*
X143015911Y-105793700D01*
X143015907Y-105793697D01*
X142860237Y-105689681D01*
X142860228Y-105689676D01*
X142687251Y-105618027D01*
X142687243Y-105618025D01*
X142503620Y-105581500D01*
X142503616Y-105581500D01*
X142316384Y-105581500D01*
X142316379Y-105581500D01*
X142132756Y-105618025D01*
X142132748Y-105618027D01*
X141959771Y-105689676D01*
X141959762Y-105689681D01*
X141804092Y-105793697D01*
X141804088Y-105793700D01*
X141671700Y-105926088D01*
X141671697Y-105926092D01*
X141567681Y-106081762D01*
X141567676Y-106081771D01*
X141496027Y-106254748D01*
X141496025Y-106254756D01*
X141459500Y-106438379D01*
X134598941Y-106438379D01*
X134630839Y-106377398D01*
X134691555Y-106342824D01*
X134720072Y-106339500D01*
X134883617Y-106339500D01*
X134883618Y-106339499D01*
X134921940Y-106331876D01*
X135028533Y-106310675D01*
X135047506Y-106306900D01*
X135067251Y-106302973D01*
X135240231Y-106231322D01*
X135395908Y-106127302D01*
X135528302Y-105994908D01*
X135632322Y-105839231D01*
X135703973Y-105666251D01*
X135740500Y-105482616D01*
X135740500Y-105295384D01*
X135703973Y-105111749D01*
X135632322Y-104938769D01*
X135632321Y-104938768D01*
X135632318Y-104938762D01*
X135528302Y-104783092D01*
X135528299Y-104783088D01*
X135395911Y-104650700D01*
X135395907Y-104650697D01*
X135240237Y-104546681D01*
X135240228Y-104546676D01*
X135067251Y-104475027D01*
X135067243Y-104475025D01*
X134883620Y-104438500D01*
X134883616Y-104438500D01*
X134696384Y-104438500D01*
X134696379Y-104438500D01*
X134512756Y-104475025D01*
X134512748Y-104475027D01*
X134339771Y-104546676D01*
X134339762Y-104546681D01*
X134184092Y-104650697D01*
X134184088Y-104650700D01*
X134051700Y-104783088D01*
X134051697Y-104783092D01*
X133947681Y-104938762D01*
X133947676Y-104938771D01*
X133876027Y-105111748D01*
X133876025Y-105111756D01*
X133856545Y-105209691D01*
X133824161Y-105271602D01*
X133763445Y-105306176D01*
X133734928Y-105309500D01*
X133571379Y-105309500D01*
X133387756Y-105346025D01*
X133387748Y-105346027D01*
X133214771Y-105417676D01*
X133214762Y-105417681D01*
X133059092Y-105521697D01*
X133059088Y-105521700D01*
X132926700Y-105654088D01*
X132926697Y-105654092D01*
X132822681Y-105809762D01*
X132822676Y-105809771D01*
X132751027Y-105982748D01*
X132751025Y-105982756D01*
X132714500Y-106166379D01*
X123298134Y-106166379D01*
X123305304Y-106153842D01*
X123309342Y-106148867D01*
X123336302Y-106121908D01*
X123440322Y-105966231D01*
X123511973Y-105793251D01*
X123548500Y-105609616D01*
X123548500Y-105422384D01*
X123511973Y-105238749D01*
X123440322Y-105065769D01*
X123440321Y-105065768D01*
X123440318Y-105065762D01*
X123336302Y-104910092D01*
X123336299Y-104910088D01*
X123203911Y-104777700D01*
X123203907Y-104777697D01*
X123048237Y-104673681D01*
X123048228Y-104673676D01*
X122875251Y-104602027D01*
X122875243Y-104602025D01*
X122691620Y-104565500D01*
X122691616Y-104565500D01*
X122504384Y-104565500D01*
X122504379Y-104565500D01*
X122320756Y-104602025D01*
X122320748Y-104602027D01*
X122147771Y-104673676D01*
X122147762Y-104673681D01*
X121992092Y-104777697D01*
X121992088Y-104777700D01*
X121859700Y-104910088D01*
X121859697Y-104910092D01*
X121755681Y-105065762D01*
X121755676Y-105065771D01*
X121684027Y-105238748D01*
X121684025Y-105238756D01*
X121647500Y-105422379D01*
X121647500Y-105609620D01*
X121684025Y-105793243D01*
X121684027Y-105793251D01*
X121755676Y-105966228D01*
X121755681Y-105966237D01*
X121859697Y-106121907D01*
X121859700Y-106121911D01*
X121864608Y-106126819D01*
X121898093Y-106188142D01*
X121893109Y-106257834D01*
X121864608Y-106302181D01*
X121842200Y-106324588D01*
X121842197Y-106324592D01*
X121738181Y-106480262D01*
X121738176Y-106480271D01*
X121666527Y-106653248D01*
X121666525Y-106653256D01*
X121630000Y-106836879D01*
X103562092Y-106836879D01*
X103677251Y-106813973D01*
X103850231Y-106742322D01*
X103863394Y-106733526D01*
X103872130Y-106727690D01*
X103925066Y-106692318D01*
X104005908Y-106638302D01*
X104138302Y-106505908D01*
X104242322Y-106350231D01*
X104313973Y-106177251D01*
X104350500Y-105993616D01*
X104350500Y-105806384D01*
X104313973Y-105622749D01*
X104242322Y-105449769D01*
X104242321Y-105449768D01*
X104242318Y-105449762D01*
X104138302Y-105294092D01*
X104138299Y-105294088D01*
X104012590Y-105168379D01*
X117583500Y-105168379D01*
X117583500Y-105355620D01*
X117620025Y-105539243D01*
X117620027Y-105539251D01*
X117691676Y-105712228D01*
X117691681Y-105712237D01*
X117795697Y-105867907D01*
X117795700Y-105867911D01*
X117928088Y-106000299D01*
X117928092Y-106000302D01*
X118083762Y-106104318D01*
X118083768Y-106104321D01*
X118083769Y-106104322D01*
X118256749Y-106175973D01*
X118438831Y-106212191D01*
X118440379Y-106212499D01*
X118440383Y-106212500D01*
X118440384Y-106212500D01*
X118627617Y-106212500D01*
X118627618Y-106212499D01*
X118811251Y-106175973D01*
X118984231Y-106104322D01*
X119139908Y-106000302D01*
X119272302Y-105867908D01*
X119376322Y-105712231D01*
X119447973Y-105539251D01*
X119484500Y-105355616D01*
X119484500Y-105168384D01*
X119447973Y-104984749D01*
X119376322Y-104811769D01*
X119376321Y-104811768D01*
X119376318Y-104811762D01*
X119272302Y-104656092D01*
X119272299Y-104656088D01*
X119139911Y-104523700D01*
X119139907Y-104523697D01*
X118984237Y-104419681D01*
X118984228Y-104419676D01*
X118811251Y-104348027D01*
X118811243Y-104348025D01*
X118627620Y-104311500D01*
X118627616Y-104311500D01*
X118440384Y-104311500D01*
X118440379Y-104311500D01*
X118256756Y-104348025D01*
X118256748Y-104348027D01*
X118083771Y-104419676D01*
X118083762Y-104419681D01*
X117928092Y-104523697D01*
X117928088Y-104523700D01*
X117795700Y-104656088D01*
X117795697Y-104656092D01*
X117691681Y-104811762D01*
X117691676Y-104811771D01*
X117620027Y-104984748D01*
X117620025Y-104984756D01*
X117583500Y-105168379D01*
X104012590Y-105168379D01*
X104005911Y-105161700D01*
X104005907Y-105161697D01*
X103850237Y-105057681D01*
X103850228Y-105057676D01*
X103677251Y-104986027D01*
X103677243Y-104986025D01*
X103493620Y-104949500D01*
X103493616Y-104949500D01*
X103306384Y-104949500D01*
X103306379Y-104949500D01*
X103122756Y-104986025D01*
X103122748Y-104986027D01*
X102949771Y-105057676D01*
X102949762Y-105057681D01*
X102794092Y-105161697D01*
X102794088Y-105161700D01*
X102712181Y-105243608D01*
X102650858Y-105277093D01*
X102581166Y-105272109D01*
X102525233Y-105230237D01*
X102500816Y-105164773D01*
X102500500Y-105155927D01*
X102500500Y-99844073D01*
X102520185Y-99777034D01*
X102572989Y-99731279D01*
X102642147Y-99721335D01*
X102705703Y-99750360D01*
X102712181Y-99756392D01*
X102794088Y-99838299D01*
X102794092Y-99838302D01*
X102949762Y-99942318D01*
X102949771Y-99942323D01*
X102968863Y-99950231D01*
X103122749Y-100013973D01*
X103306379Y-100050499D01*
X103306383Y-100050500D01*
X103306384Y-100050500D01*
X103493617Y-100050500D01*
X103493618Y-100050499D01*
X103677251Y-100013973D01*
X103850231Y-99942322D01*
X103850235Y-99942318D01*
X103855606Y-99939449D01*
X103856781Y-99941648D01*
X103913003Y-99924016D01*
X103980391Y-99942469D01*
X104027106Y-99994426D01*
X104038315Y-100063391D01*
X104010459Y-100127467D01*
X104002956Y-100135675D01*
X103957289Y-100181342D01*
X103865187Y-100330663D01*
X103865185Y-100330668D01*
X103844426Y-100393314D01*
X103810001Y-100497203D01*
X103810001Y-100497204D01*
X103810000Y-100497204D01*
X103799500Y-100599983D01*
X103799500Y-101900001D01*
X103799501Y-101900018D01*
X103810000Y-102002796D01*
X103810001Y-102002799D01*
X103865185Y-102169331D01*
X103865187Y-102169336D01*
X103900069Y-102225888D01*
X103930669Y-102275500D01*
X103957289Y-102318657D01*
X104081344Y-102442712D01*
X104236120Y-102538178D01*
X104282845Y-102590126D01*
X104294068Y-102659088D01*
X104266224Y-102723171D01*
X104258706Y-102731398D01*
X104119889Y-102870215D01*
X103994951Y-103042179D01*
X103898444Y-103231585D01*
X103832753Y-103433760D01*
X103799500Y-103643713D01*
X103799500Y-103856286D01*
X103831959Y-104061228D01*
X103832754Y-104066243D01*
X103881709Y-104216911D01*
X103898444Y-104268414D01*
X103994951Y-104457820D01*
X104119890Y-104629786D01*
X104270213Y-104780109D01*
X104442179Y-104905048D01*
X104442181Y-104905049D01*
X104442184Y-104905051D01*
X104631588Y-105001557D01*
X104833757Y-105067246D01*
X105043713Y-105100500D01*
X105043714Y-105100500D01*
X105556286Y-105100500D01*
X105556287Y-105100500D01*
X105766243Y-105067246D01*
X105968412Y-105001557D01*
X106157816Y-104905051D01*
X106286209Y-104811769D01*
X106329786Y-104780109D01*
X106329788Y-104780106D01*
X106329792Y-104780104D01*
X106480104Y-104629792D01*
X106480106Y-104629788D01*
X106480109Y-104629786D01*
X106605048Y-104457820D01*
X106605047Y-104457820D01*
X106605051Y-104457816D01*
X106701557Y-104268412D01*
X106767246Y-104066243D01*
X106800500Y-103856287D01*
X106800500Y-103706379D01*
X114049500Y-103706379D01*
X114049500Y-103893620D01*
X114086025Y-104077243D01*
X114086027Y-104077251D01*
X114157676Y-104250228D01*
X114157681Y-104250237D01*
X114261697Y-104405907D01*
X114261700Y-104405911D01*
X114394088Y-104538299D01*
X114394092Y-104538302D01*
X114549762Y-104642318D01*
X114549768Y-104642321D01*
X114549769Y-104642322D01*
X114722749Y-104713973D01*
X114906379Y-104750499D01*
X114906383Y-104750500D01*
X114906384Y-104750500D01*
X115093617Y-104750500D01*
X115093618Y-104750499D01*
X115277251Y-104713973D01*
X115450231Y-104642322D01*
X115605908Y-104538302D01*
X115738302Y-104405908D01*
X115842322Y-104250231D01*
X115913973Y-104077251D01*
X115950500Y-103893616D01*
X115950500Y-103706384D01*
X115913973Y-103522749D01*
X115911749Y-103517379D01*
X140189500Y-103517379D01*
X140189500Y-103704620D01*
X140226025Y-103888243D01*
X140226027Y-103888251D01*
X140297676Y-104061228D01*
X140297681Y-104061237D01*
X140401697Y-104216907D01*
X140401700Y-104216911D01*
X140534088Y-104349299D01*
X140534092Y-104349302D01*
X140689762Y-104453318D01*
X140689768Y-104453321D01*
X140689769Y-104453322D01*
X140862749Y-104524973D01*
X141046379Y-104561499D01*
X141046383Y-104561500D01*
X141046384Y-104561500D01*
X141233617Y-104561500D01*
X141233618Y-104561499D01*
X141417251Y-104524973D01*
X141590231Y-104453322D01*
X141745908Y-104349302D01*
X141878302Y-104216908D01*
X141982322Y-104061231D01*
X142053973Y-103888251D01*
X142090500Y-103704616D01*
X142090500Y-103517384D01*
X142053973Y-103333749D01*
X141982322Y-103160769D01*
X141982321Y-103160768D01*
X141982318Y-103160762D01*
X141878302Y-103005092D01*
X141878299Y-103005088D01*
X141745911Y-102872700D01*
X141715521Y-102852394D01*
X141715519Y-102852392D01*
X141590237Y-102768681D01*
X141590228Y-102768676D01*
X141558126Y-102755379D01*
X149206500Y-102755379D01*
X149206500Y-102942620D01*
X149243025Y-103126243D01*
X149243027Y-103126251D01*
X149314676Y-103299228D01*
X149314681Y-103299237D01*
X149418697Y-103454907D01*
X149418700Y-103454911D01*
X149551088Y-103587299D01*
X149551092Y-103587302D01*
X149706762Y-103691318D01*
X149706768Y-103691321D01*
X149706769Y-103691322D01*
X149879749Y-103762973D01*
X150063379Y-103799499D01*
X150063383Y-103799500D01*
X150063384Y-103799500D01*
X150250617Y-103799500D01*
X150250618Y-103799499D01*
X150434251Y-103762973D01*
X150607231Y-103691322D01*
X150762908Y-103587302D01*
X150895302Y-103454908D01*
X150909435Y-103433757D01*
X150916792Y-103422747D01*
X150999318Y-103299237D01*
X150999318Y-103299236D01*
X150999322Y-103299231D01*
X151070973Y-103126251D01*
X151107500Y-102942616D01*
X151107500Y-102755384D01*
X151070973Y-102571749D01*
X150999322Y-102398769D01*
X150999321Y-102398768D01*
X150999318Y-102398762D01*
X150895302Y-102243092D01*
X150895299Y-102243088D01*
X150762911Y-102110700D01*
X150762907Y-102110697D01*
X150607237Y-102006681D01*
X150607228Y-102006676D01*
X150434251Y-101935027D01*
X150434243Y-101935025D01*
X150250620Y-101898500D01*
X150250616Y-101898500D01*
X150063384Y-101898500D01*
X150063379Y-101898500D01*
X149879756Y-101935025D01*
X149879748Y-101935027D01*
X149706771Y-102006676D01*
X149706762Y-102006681D01*
X149551092Y-102110697D01*
X149551088Y-102110700D01*
X149418700Y-102243088D01*
X149418697Y-102243092D01*
X149314681Y-102398762D01*
X149314676Y-102398771D01*
X149243027Y-102571748D01*
X149243025Y-102571756D01*
X149206500Y-102755379D01*
X141558126Y-102755379D01*
X141417251Y-102697027D01*
X141417243Y-102697025D01*
X141233620Y-102660500D01*
X141233616Y-102660500D01*
X141046384Y-102660500D01*
X141046379Y-102660500D01*
X140862756Y-102697025D01*
X140862748Y-102697027D01*
X140689771Y-102768676D01*
X140689762Y-102768681D01*
X140534092Y-102872697D01*
X140534088Y-102872700D01*
X140401700Y-103005088D01*
X140401697Y-103005092D01*
X140297681Y-103160762D01*
X140297676Y-103160771D01*
X140226027Y-103333748D01*
X140226025Y-103333756D01*
X140189500Y-103517379D01*
X115911749Y-103517379D01*
X115842322Y-103349769D01*
X115842321Y-103349768D01*
X115842318Y-103349762D01*
X115738302Y-103194092D01*
X115738299Y-103194088D01*
X115663965Y-103119754D01*
X115630480Y-103058431D01*
X115635464Y-102988739D01*
X115677336Y-102932806D01*
X115682725Y-102928991D01*
X115837908Y-102825302D01*
X115970302Y-102692908D01*
X116074322Y-102537231D01*
X116145973Y-102364251D01*
X116182500Y-102180616D01*
X116182500Y-101993384D01*
X116145973Y-101809749D01*
X116079070Y-101648231D01*
X116074323Y-101636771D01*
X116074318Y-101636762D01*
X115970302Y-101481092D01*
X115970299Y-101481088D01*
X115837911Y-101348700D01*
X115807521Y-101328394D01*
X115807519Y-101328392D01*
X115682237Y-101244681D01*
X115682228Y-101244676D01*
X115650126Y-101231379D01*
X120758500Y-101231379D01*
X120758500Y-101418620D01*
X120795025Y-101602243D01*
X120795027Y-101602251D01*
X120866676Y-101775228D01*
X120866681Y-101775237D01*
X120970697Y-101930907D01*
X120970700Y-101930911D01*
X121103088Y-102063299D01*
X121103092Y-102063302D01*
X121258762Y-102167318D01*
X121258768Y-102167321D01*
X121258769Y-102167322D01*
X121431749Y-102238973D01*
X121615379Y-102275499D01*
X121615383Y-102275500D01*
X121615384Y-102275500D01*
X121802617Y-102275500D01*
X121802618Y-102275499D01*
X121986251Y-102238973D01*
X122159231Y-102167322D01*
X122314908Y-102063302D01*
X122447302Y-101930908D01*
X122551322Y-101775231D01*
X122622973Y-101602251D01*
X122659500Y-101418616D01*
X122659500Y-101231384D01*
X122640627Y-101136500D01*
X122628292Y-101074488D01*
X122628290Y-101074482D01*
X122624689Y-101056379D01*
X125399500Y-101056379D01*
X125399500Y-101243620D01*
X125436025Y-101427243D01*
X125436027Y-101427251D01*
X125507676Y-101600228D01*
X125507681Y-101600237D01*
X125611697Y-101755907D01*
X125611700Y-101755911D01*
X125744088Y-101888299D01*
X125744092Y-101888302D01*
X125899762Y-101992318D01*
X125899771Y-101992323D01*
X125938956Y-102008554D01*
X126072749Y-102063973D01*
X126207704Y-102090817D01*
X126256379Y-102100499D01*
X126256383Y-102100500D01*
X126256384Y-102100500D01*
X126443617Y-102100500D01*
X126443618Y-102100499D01*
X126627251Y-102063973D01*
X126800231Y-101992322D01*
X126955908Y-101888302D01*
X127088302Y-101755908D01*
X127192322Y-101600231D01*
X127263973Y-101427251D01*
X127300500Y-101243616D01*
X127300500Y-101104379D01*
X131426500Y-101104379D01*
X131426500Y-101291620D01*
X131463025Y-101475243D01*
X131463027Y-101475251D01*
X131534676Y-101648228D01*
X131534681Y-101648237D01*
X131638697Y-101803907D01*
X131638700Y-101803911D01*
X131771088Y-101936299D01*
X131771092Y-101936302D01*
X131926762Y-102040318D01*
X131926768Y-102040321D01*
X131926769Y-102040322D01*
X132099749Y-102111973D01*
X132246825Y-102141228D01*
X132283379Y-102148499D01*
X132283383Y-102148500D01*
X132283384Y-102148500D01*
X132470617Y-102148500D01*
X132470618Y-102148499D01*
X132654251Y-102111973D01*
X132827231Y-102040322D01*
X132982908Y-101936302D01*
X133115302Y-101803908D01*
X133219322Y-101648231D01*
X133290973Y-101475251D01*
X133311269Y-101373210D01*
X133328689Y-101285641D01*
X133329983Y-101285898D01*
X133353594Y-101227404D01*
X133410622Y-101187037D01*
X133480422Y-101183910D01*
X133498294Y-101189768D01*
X133652918Y-101253816D01*
X133814207Y-101285898D01*
X133817228Y-101286499D01*
X133817232Y-101286500D01*
X133817233Y-101286500D01*
X133984768Y-101286500D01*
X133984769Y-101286499D01*
X134149082Y-101253816D01*
X134303863Y-101189703D01*
X134443162Y-101096626D01*
X134561626Y-100978162D01*
X134654703Y-100838863D01*
X134718816Y-100684082D01*
X134751500Y-100519767D01*
X134751500Y-100352233D01*
X134718816Y-100187918D01*
X134654703Y-100033137D01*
X134563860Y-99897182D01*
X134563860Y-99897180D01*
X134563859Y-99897179D01*
X134561628Y-99893840D01*
X134561623Y-99893834D01*
X134502168Y-99834379D01*
X142983500Y-99834379D01*
X142983500Y-100021620D01*
X143020025Y-100205243D01*
X143020027Y-100205251D01*
X143091676Y-100378228D01*
X143091681Y-100378237D01*
X143195697Y-100533907D01*
X143195700Y-100533911D01*
X143328088Y-100666299D01*
X143328092Y-100666302D01*
X143483762Y-100770318D01*
X143483768Y-100770321D01*
X143483769Y-100770322D01*
X143656749Y-100841973D01*
X143811467Y-100872748D01*
X143840379Y-100878499D01*
X143840383Y-100878500D01*
X143840384Y-100878500D01*
X144027617Y-100878500D01*
X144027618Y-100878499D01*
X144211251Y-100841973D01*
X144384231Y-100770322D01*
X144539908Y-100666302D01*
X144672302Y-100533908D01*
X144776322Y-100378231D01*
X144847973Y-100205251D01*
X144884500Y-100021616D01*
X144884500Y-99834384D01*
X144847973Y-99650749D01*
X144776322Y-99477769D01*
X144776320Y-99477767D01*
X144776316Y-99477759D01*
X144770585Y-99469181D01*
X144728622Y-99406379D01*
X147649500Y-99406379D01*
X147649500Y-99593620D01*
X147686025Y-99777243D01*
X147686027Y-99777251D01*
X147757676Y-99950228D01*
X147757681Y-99950237D01*
X147861697Y-100105907D01*
X147861700Y-100105911D01*
X147994088Y-100238299D01*
X147994092Y-100238302D01*
X148149762Y-100342318D01*
X148149768Y-100342321D01*
X148149769Y-100342322D01*
X148322749Y-100413973D01*
X148506379Y-100450499D01*
X148506383Y-100450500D01*
X148506384Y-100450500D01*
X148693617Y-100450500D01*
X148693618Y-100450499D01*
X148877251Y-100413973D01*
X149050231Y-100342322D01*
X149205908Y-100238302D01*
X149338302Y-100105908D01*
X149442322Y-99950231D01*
X149513973Y-99777251D01*
X149550500Y-99593616D01*
X149550500Y-99406384D01*
X149513973Y-99222749D01*
X149442322Y-99049769D01*
X149442321Y-99049768D01*
X149442318Y-99049762D01*
X149338302Y-98894092D01*
X149338299Y-98894088D01*
X149205911Y-98761700D01*
X149205907Y-98761697D01*
X149050237Y-98657681D01*
X149050228Y-98657676D01*
X148877251Y-98586027D01*
X148877243Y-98586025D01*
X148693620Y-98549500D01*
X148693616Y-98549500D01*
X148506384Y-98549500D01*
X148506379Y-98549500D01*
X148322756Y-98586025D01*
X148322748Y-98586027D01*
X148149771Y-98657676D01*
X148149762Y-98657681D01*
X147994092Y-98761697D01*
X147994088Y-98761700D01*
X147861700Y-98894088D01*
X147861697Y-98894092D01*
X147757681Y-99049762D01*
X147757676Y-99049771D01*
X147686027Y-99222748D01*
X147686025Y-99222756D01*
X147649500Y-99406379D01*
X144728622Y-99406379D01*
X144672302Y-99322092D01*
X144672299Y-99322088D01*
X144539911Y-99189700D01*
X144539907Y-99189697D01*
X144384237Y-99085681D01*
X144384228Y-99085676D01*
X144211251Y-99014027D01*
X144211243Y-99014025D01*
X144027620Y-98977500D01*
X144027616Y-98977500D01*
X143840384Y-98977500D01*
X143840379Y-98977500D01*
X143656756Y-99014025D01*
X143656748Y-99014027D01*
X143483771Y-99085676D01*
X143483762Y-99085681D01*
X143328092Y-99189697D01*
X143328088Y-99189700D01*
X143195700Y-99322088D01*
X143195697Y-99322092D01*
X143091681Y-99477762D01*
X143091676Y-99477771D01*
X143020027Y-99650748D01*
X143020025Y-99650756D01*
X142983500Y-99834379D01*
X134502168Y-99834379D01*
X134443162Y-99775373D01*
X134303860Y-99682295D01*
X134149082Y-99618184D01*
X134149074Y-99618182D01*
X133984771Y-99585500D01*
X133984767Y-99585500D01*
X133817233Y-99585500D01*
X133817228Y-99585500D01*
X133652925Y-99618182D01*
X133652917Y-99618184D01*
X133498139Y-99682295D01*
X133358837Y-99775373D01*
X133240373Y-99893837D01*
X133147295Y-100033139D01*
X133083184Y-100187917D01*
X133083182Y-100187925D01*
X133059906Y-100304941D01*
X133027521Y-100366852D01*
X132966805Y-100401426D01*
X132897036Y-100397687D01*
X132869399Y-100383853D01*
X132827235Y-100355680D01*
X132827228Y-100355676D01*
X132654251Y-100284027D01*
X132654243Y-100284025D01*
X132470620Y-100247500D01*
X132470616Y-100247500D01*
X132283384Y-100247500D01*
X132283379Y-100247500D01*
X132099756Y-100284025D01*
X132099748Y-100284027D01*
X131926771Y-100355676D01*
X131926762Y-100355681D01*
X131771092Y-100459697D01*
X131771088Y-100459700D01*
X131638700Y-100592088D01*
X131638697Y-100592092D01*
X131534681Y-100747762D01*
X131534676Y-100747771D01*
X131463027Y-100920748D01*
X131463025Y-100920756D01*
X131426500Y-101104379D01*
X127300500Y-101104379D01*
X127300500Y-101056384D01*
X127263973Y-100872749D01*
X127192322Y-100699769D01*
X127192321Y-100699768D01*
X127192318Y-100699762D01*
X127088302Y-100544092D01*
X127088299Y-100544088D01*
X126955911Y-100411700D01*
X126955907Y-100411697D01*
X126800237Y-100307681D01*
X126800228Y-100307676D01*
X126627251Y-100236027D01*
X126627243Y-100236025D01*
X126443620Y-100199500D01*
X126443616Y-100199500D01*
X126256384Y-100199500D01*
X126256379Y-100199500D01*
X126072756Y-100236025D01*
X126072748Y-100236027D01*
X125899771Y-100307676D01*
X125899762Y-100307681D01*
X125744092Y-100411697D01*
X125744088Y-100411700D01*
X125611700Y-100544088D01*
X125611697Y-100544092D01*
X125507681Y-100699762D01*
X125507676Y-100699771D01*
X125436027Y-100872748D01*
X125436025Y-100872756D01*
X125399500Y-101056379D01*
X122624689Y-101056379D01*
X122622973Y-101047749D01*
X122567554Y-100913956D01*
X122551323Y-100874771D01*
X122551318Y-100874762D01*
X122447302Y-100719092D01*
X122447299Y-100719088D01*
X122314911Y-100586700D01*
X122314907Y-100586697D01*
X122159237Y-100482681D01*
X122159228Y-100482676D01*
X121986251Y-100411027D01*
X121986243Y-100411025D01*
X121802620Y-100374500D01*
X121802616Y-100374500D01*
X121615384Y-100374500D01*
X121615379Y-100374500D01*
X121431756Y-100411025D01*
X121431748Y-100411027D01*
X121258771Y-100482676D01*
X121258762Y-100482681D01*
X121103092Y-100586697D01*
X121103088Y-100586700D01*
X120970700Y-100719088D01*
X120970697Y-100719092D01*
X120866681Y-100874762D01*
X120866676Y-100874771D01*
X120795027Y-101047748D01*
X120795025Y-101047756D01*
X120758500Y-101231379D01*
X115650126Y-101231379D01*
X115509251Y-101173027D01*
X115509243Y-101173025D01*
X115325620Y-101136500D01*
X115325616Y-101136500D01*
X115138384Y-101136500D01*
X115138379Y-101136500D01*
X114954756Y-101173025D01*
X114954748Y-101173027D01*
X114781771Y-101244676D01*
X114781762Y-101244681D01*
X114626092Y-101348697D01*
X114626088Y-101348700D01*
X114493700Y-101481088D01*
X114493697Y-101481092D01*
X114389681Y-101636762D01*
X114389676Y-101636771D01*
X114318027Y-101809748D01*
X114318025Y-101809756D01*
X114281500Y-101993379D01*
X114281500Y-102180620D01*
X114318025Y-102364243D01*
X114318027Y-102364251D01*
X114389676Y-102537228D01*
X114389681Y-102537237D01*
X114493697Y-102692907D01*
X114493700Y-102692911D01*
X114568034Y-102767245D01*
X114601519Y-102828568D01*
X114596535Y-102898260D01*
X114554663Y-102954193D01*
X114549244Y-102958028D01*
X114394092Y-103061697D01*
X114394088Y-103061700D01*
X114261700Y-103194088D01*
X114261697Y-103194092D01*
X114157681Y-103349762D01*
X114157676Y-103349771D01*
X114086027Y-103522748D01*
X114086025Y-103522756D01*
X114049500Y-103706379D01*
X106800500Y-103706379D01*
X106800500Y-103643713D01*
X106767246Y-103433757D01*
X106701557Y-103231588D01*
X106605051Y-103042184D01*
X106605049Y-103042181D01*
X106605048Y-103042179D01*
X106480109Y-102870213D01*
X106341294Y-102731398D01*
X106307809Y-102670075D01*
X106312793Y-102600383D01*
X106354665Y-102544450D01*
X106363879Y-102538178D01*
X106369331Y-102534814D01*
X106369334Y-102534814D01*
X106518656Y-102442712D01*
X106642712Y-102318656D01*
X106734814Y-102169334D01*
X106789999Y-102002797D01*
X106800500Y-101900009D01*
X106800499Y-100599992D01*
X106789999Y-100497203D01*
X106734814Y-100330666D01*
X106642712Y-100181344D01*
X106518656Y-100057288D01*
X106384063Y-99974271D01*
X106369336Y-99965187D01*
X106369331Y-99965185D01*
X106367862Y-99964698D01*
X106202797Y-99910001D01*
X106202795Y-99910000D01*
X106100010Y-99899500D01*
X104499998Y-99899500D01*
X104499981Y-99899501D01*
X104397203Y-99910000D01*
X104397200Y-99910001D01*
X104230668Y-99965185D01*
X104230656Y-99965191D01*
X104215935Y-99974271D01*
X104148542Y-99992710D01*
X104081879Y-99971786D01*
X104037111Y-99918142D01*
X104028451Y-99848811D01*
X104058650Y-99785805D01*
X104063141Y-99781068D01*
X104138302Y-99705908D01*
X104242322Y-99550231D01*
X104313973Y-99377251D01*
X104350500Y-99193616D01*
X104350500Y-99006384D01*
X104313973Y-98822749D01*
X104242322Y-98649769D01*
X104242321Y-98649768D01*
X104242318Y-98649762D01*
X104138302Y-98494092D01*
X104138299Y-98494088D01*
X104005911Y-98361700D01*
X104005907Y-98361697D01*
X103850237Y-98257681D01*
X103850228Y-98257676D01*
X103677251Y-98186027D01*
X103677243Y-98186025D01*
X103493620Y-98149500D01*
X103493616Y-98149500D01*
X103306384Y-98149500D01*
X103306379Y-98149500D01*
X103122756Y-98186025D01*
X103122748Y-98186027D01*
X102949771Y-98257676D01*
X102949762Y-98257681D01*
X102794092Y-98361697D01*
X102794088Y-98361700D01*
X102712181Y-98443608D01*
X102650858Y-98477093D01*
X102581166Y-98472109D01*
X102525233Y-98430237D01*
X102500816Y-98364773D01*
X102500500Y-98355927D01*
X102500500Y-95192808D01*
X102520185Y-95125769D01*
X102572989Y-95080014D01*
X102642147Y-95070070D01*
X102705703Y-95099095D01*
X102739060Y-95145354D01*
X102761659Y-95199911D01*
X102781770Y-95248464D01*
X102781772Y-95248469D01*
X102943893Y-95551775D01*
X102943904Y-95551793D01*
X103134975Y-95837751D01*
X103134985Y-95837765D01*
X103353176Y-96103632D01*
X103596367Y-96346823D01*
X103596372Y-96346827D01*
X103596373Y-96346828D01*
X103862240Y-96565019D01*
X104148213Y-96756100D01*
X104148222Y-96756105D01*
X104148224Y-96756106D01*
X104451530Y-96918227D01*
X104451532Y-96918227D01*
X104451538Y-96918231D01*
X104769295Y-97049850D01*
X105098422Y-97149690D01*
X105435750Y-97216789D01*
X105778031Y-97250500D01*
X105778034Y-97250500D01*
X106121966Y-97250500D01*
X106121969Y-97250500D01*
X106464250Y-97216789D01*
X106801578Y-97149690D01*
X107130705Y-97049850D01*
X107299075Y-96980108D01*
X107368542Y-96972640D01*
X107431022Y-97003915D01*
X107466674Y-97064004D01*
X107464181Y-97133829D01*
X107459787Y-97144049D01*
X107460009Y-97144141D01*
X107386027Y-97322748D01*
X107386025Y-97322756D01*
X107349500Y-97506379D01*
X107349500Y-97693620D01*
X107386025Y-97877243D01*
X107386027Y-97877251D01*
X107457676Y-98050228D01*
X107457681Y-98050237D01*
X107561697Y-98205907D01*
X107561700Y-98205911D01*
X107694088Y-98338299D01*
X107694092Y-98338302D01*
X107849762Y-98442318D01*
X107849771Y-98442323D01*
X107868863Y-98450231D01*
X108022749Y-98513973D01*
X108201357Y-98549500D01*
X108206379Y-98550499D01*
X108206383Y-98550500D01*
X108206384Y-98550500D01*
X108393617Y-98550500D01*
X108393618Y-98550499D01*
X108577251Y-98513973D01*
X108750231Y-98442322D01*
X108905908Y-98338302D01*
X109038302Y-98205908D01*
X109142322Y-98050231D01*
X109213973Y-97877251D01*
X109250500Y-97693616D01*
X109250500Y-97506384D01*
X109213973Y-97322749D01*
X109142322Y-97149769D01*
X109142321Y-97149768D01*
X109142318Y-97149762D01*
X109038302Y-96994092D01*
X109038299Y-96994088D01*
X108905911Y-96861700D01*
X108905907Y-96861697D01*
X108750237Y-96757681D01*
X108750228Y-96757676D01*
X108577251Y-96686027D01*
X108577243Y-96686025D01*
X108397284Y-96650229D01*
X108397280Y-96650228D01*
X108393616Y-96649500D01*
X108280919Y-96649500D01*
X108280600Y-96649498D01*
X108247443Y-96639535D01*
X108214338Y-96629815D01*
X108214073Y-96629509D01*
X108213685Y-96629393D01*
X108191141Y-96603044D01*
X108168583Y-96577011D01*
X108168525Y-96576612D01*
X108168262Y-96576304D01*
X108163552Y-96542024D01*
X108162165Y-96532379D01*
X116059500Y-96532379D01*
X116059500Y-96719620D01*
X116096025Y-96903243D01*
X116096027Y-96903251D01*
X116167676Y-97076228D01*
X116167681Y-97076237D01*
X116271697Y-97231907D01*
X116271700Y-97231911D01*
X116404088Y-97364299D01*
X116404092Y-97364302D01*
X116559762Y-97468318D01*
X116559768Y-97468321D01*
X116559769Y-97468322D01*
X116732749Y-97539973D01*
X116874979Y-97568264D01*
X116916379Y-97576499D01*
X116916383Y-97576500D01*
X116916384Y-97576500D01*
X117103617Y-97576500D01*
X117103618Y-97576499D01*
X117287251Y-97539973D01*
X117460231Y-97468322D01*
X117615908Y-97364302D01*
X117748302Y-97231908D01*
X117852322Y-97076231D01*
X117923973Y-96903251D01*
X117960500Y-96719616D01*
X117960500Y-96532384D01*
X117949239Y-96475769D01*
X117938839Y-96423483D01*
X117935237Y-96405379D01*
X122028500Y-96405379D01*
X122028500Y-96592620D01*
X122065025Y-96776243D01*
X122065027Y-96776251D01*
X122136676Y-96949228D01*
X122136681Y-96949237D01*
X122240697Y-97104907D01*
X122240700Y-97104911D01*
X122373088Y-97237299D01*
X122373092Y-97237302D01*
X122528762Y-97341318D01*
X122528768Y-97341321D01*
X122528769Y-97341322D01*
X122701749Y-97412973D01*
X122885379Y-97449499D01*
X122885383Y-97449500D01*
X122885384Y-97449500D01*
X123072617Y-97449500D01*
X123072618Y-97449499D01*
X123256251Y-97412973D01*
X123429231Y-97341322D01*
X123584908Y-97237302D01*
X123715831Y-97106379D01*
X131649500Y-97106379D01*
X131649500Y-97293620D01*
X131686025Y-97477243D01*
X131686027Y-97477251D01*
X131757676Y-97650228D01*
X131757681Y-97650237D01*
X131861697Y-97805907D01*
X131861700Y-97805911D01*
X131994088Y-97938299D01*
X131994092Y-97938302D01*
X132149762Y-98042318D01*
X132149771Y-98042323D01*
X132168863Y-98050231D01*
X132322749Y-98113973D01*
X132501357Y-98149500D01*
X132506379Y-98150499D01*
X132506383Y-98150500D01*
X132506384Y-98150500D01*
X132693617Y-98150500D01*
X132693618Y-98150499D01*
X132877251Y-98113973D01*
X133050231Y-98042322D01*
X133205908Y-97938302D01*
X133338302Y-97805908D01*
X133442322Y-97650231D01*
X133501908Y-97506379D01*
X136349500Y-97506379D01*
X136349500Y-97693620D01*
X136386025Y-97877243D01*
X136386027Y-97877251D01*
X136457676Y-98050228D01*
X136457681Y-98050237D01*
X136561697Y-98205907D01*
X136561700Y-98205911D01*
X136694088Y-98338299D01*
X136694092Y-98338302D01*
X136849762Y-98442318D01*
X136849771Y-98442323D01*
X136868863Y-98450231D01*
X137022749Y-98513973D01*
X137201357Y-98549500D01*
X137206379Y-98550499D01*
X137206383Y-98550500D01*
X137206384Y-98550500D01*
X137393617Y-98550500D01*
X137393618Y-98550499D01*
X137577251Y-98513973D01*
X137750231Y-98442322D01*
X137905908Y-98338302D01*
X138038302Y-98205908D01*
X138142322Y-98050231D01*
X138201908Y-97906379D01*
X138849500Y-97906379D01*
X138849500Y-98093620D01*
X138886025Y-98277243D01*
X138886027Y-98277251D01*
X138957676Y-98450228D01*
X138957681Y-98450237D01*
X139061697Y-98605907D01*
X139061700Y-98605911D01*
X139194088Y-98738299D01*
X139194092Y-98738302D01*
X139349762Y-98842318D01*
X139349768Y-98842321D01*
X139349769Y-98842322D01*
X139522749Y-98913973D01*
X139706379Y-98950499D01*
X139706383Y-98950500D01*
X139706384Y-98950500D01*
X139893617Y-98950500D01*
X139893618Y-98950499D01*
X140077251Y-98913973D01*
X140250231Y-98842322D01*
X140405908Y-98738302D01*
X140538302Y-98605908D01*
X140596898Y-98518213D01*
X140650510Y-98473408D01*
X140719835Y-98464701D01*
X140782862Y-98494855D01*
X140803102Y-98518213D01*
X140861697Y-98605908D01*
X140994088Y-98738299D01*
X140994092Y-98738302D01*
X141149762Y-98842318D01*
X141149768Y-98842321D01*
X141149769Y-98842322D01*
X141322749Y-98913973D01*
X141506379Y-98950499D01*
X141506383Y-98950500D01*
X141506384Y-98950500D01*
X141693617Y-98950500D01*
X141693618Y-98950499D01*
X141877251Y-98913973D01*
X142050231Y-98842322D01*
X142205908Y-98738302D01*
X142338302Y-98605908D01*
X142442322Y-98450231D01*
X142513973Y-98277251D01*
X142550500Y-98093616D01*
X142550500Y-97906384D01*
X142513973Y-97722749D01*
X142442322Y-97549769D01*
X142442321Y-97549768D01*
X142442318Y-97549762D01*
X142338302Y-97394092D01*
X142338299Y-97394088D01*
X142205911Y-97261700D01*
X142205907Y-97261697D01*
X142114299Y-97200486D01*
X152454500Y-97200486D01*
X152454500Y-97385514D01*
X152467615Y-97468318D01*
X152483445Y-97568265D01*
X152540619Y-97744232D01*
X152540620Y-97744235D01*
X152607810Y-97876101D01*
X152624622Y-97909096D01*
X152733379Y-98058787D01*
X152864213Y-98189621D01*
X152868421Y-98192678D01*
X152868432Y-98192686D01*
X152911094Y-98248019D01*
X152917069Y-98317633D01*
X152884459Y-98379426D01*
X152868432Y-98393314D01*
X152864210Y-98396381D01*
X152733381Y-98527210D01*
X152733381Y-98527211D01*
X152733379Y-98527213D01*
X152717187Y-98549500D01*
X152624622Y-98676903D01*
X152540620Y-98841764D01*
X152540619Y-98841767D01*
X152483445Y-99017734D01*
X152454500Y-99200486D01*
X152454500Y-99385513D01*
X152483445Y-99568265D01*
X152540619Y-99744232D01*
X152540620Y-99744235D01*
X152591491Y-99844073D01*
X152624622Y-99909096D01*
X152733379Y-100058787D01*
X152864213Y-100189621D01*
X152868421Y-100192678D01*
X152868432Y-100192686D01*
X152911094Y-100248019D01*
X152917069Y-100317633D01*
X152884459Y-100379426D01*
X152868432Y-100393314D01*
X152864210Y-100396381D01*
X152733381Y-100527210D01*
X152733381Y-100527211D01*
X152733379Y-100527213D01*
X152731967Y-100529157D01*
X152624622Y-100676903D01*
X152540620Y-100841764D01*
X152540619Y-100841767D01*
X152483445Y-101017734D01*
X152454500Y-101200486D01*
X152454500Y-101385513D01*
X152483445Y-101568265D01*
X152540619Y-101744232D01*
X152540620Y-101744235D01*
X152624622Y-101909096D01*
X152708840Y-102025012D01*
X152732320Y-102090817D01*
X152716495Y-102158871D01*
X152682833Y-102197164D01*
X152597809Y-102260813D01*
X152511649Y-102375906D01*
X152511645Y-102375913D01*
X152461403Y-102510620D01*
X152461401Y-102510627D01*
X152455000Y-102570155D01*
X152455000Y-103043000D01*
X153314314Y-103043000D01*
X153309920Y-103047394D01*
X153257259Y-103138606D01*
X153230000Y-103240339D01*
X153230000Y-103345661D01*
X153257259Y-103447394D01*
X153309920Y-103538606D01*
X153314314Y-103543000D01*
X152455000Y-103543000D01*
X152455000Y-104015844D01*
X152461401Y-104075372D01*
X152461403Y-104075379D01*
X152511645Y-104210086D01*
X152511649Y-104210093D01*
X152597809Y-104325187D01*
X152597812Y-104325190D01*
X152712906Y-104411350D01*
X152712913Y-104411354D01*
X152847620Y-104461596D01*
X152847627Y-104461598D01*
X152907155Y-104467999D01*
X152907172Y-104468000D01*
X153380000Y-104468000D01*
X153380000Y-103608686D01*
X153384394Y-103613080D01*
X153475606Y-103665741D01*
X153577339Y-103693000D01*
X153682661Y-103693000D01*
X153784394Y-103665741D01*
X153875606Y-103613080D01*
X153880000Y-103608686D01*
X153880000Y-104468000D01*
X154352828Y-104468000D01*
X154352844Y-104467999D01*
X154412372Y-104461598D01*
X154412379Y-104461596D01*
X154547086Y-104411354D01*
X154547093Y-104411350D01*
X154662187Y-104325190D01*
X154662190Y-104325187D01*
X154748350Y-104210093D01*
X154748354Y-104210086D01*
X154798596Y-104075379D01*
X154798598Y-104075372D01*
X154804999Y-104015844D01*
X154805000Y-104015827D01*
X154805000Y-103543000D01*
X153945686Y-103543000D01*
X153950080Y-103538606D01*
X154002741Y-103447394D01*
X154030000Y-103345661D01*
X154030000Y-103240339D01*
X154002741Y-103138606D01*
X153950080Y-103047394D01*
X153945686Y-103043000D01*
X154805000Y-103043000D01*
X154805000Y-102570172D01*
X154804999Y-102570155D01*
X154798598Y-102510627D01*
X154798596Y-102510620D01*
X154748354Y-102375913D01*
X154748350Y-102375906D01*
X154662190Y-102260812D01*
X154577166Y-102197162D01*
X154535296Y-102141228D01*
X154530312Y-102071536D01*
X154551157Y-102025015D01*
X154635378Y-101909096D01*
X154719379Y-101744235D01*
X154776555Y-101568264D01*
X154805500Y-101385514D01*
X154805500Y-101200486D01*
X154776555Y-101017736D01*
X154730103Y-100874769D01*
X154719380Y-100841767D01*
X154719379Y-100841764D01*
X154647028Y-100699769D01*
X154635378Y-100676904D01*
X154526621Y-100527213D01*
X154395787Y-100396379D01*
X154391576Y-100393319D01*
X154348909Y-100337994D01*
X154342926Y-100268381D01*
X154375529Y-100206585D01*
X154391570Y-100192684D01*
X154395787Y-100189621D01*
X154526621Y-100058787D01*
X154635378Y-99909096D01*
X154719379Y-99744235D01*
X154776555Y-99568264D01*
X154805500Y-99385514D01*
X154805500Y-99200486D01*
X154776555Y-99017736D01*
X154736380Y-98894088D01*
X154719380Y-98841767D01*
X154719379Y-98841764D01*
X154635377Y-98676903D01*
X154526621Y-98527213D01*
X154395787Y-98396379D01*
X154391576Y-98393319D01*
X154348909Y-98337994D01*
X154342926Y-98268381D01*
X154375529Y-98206585D01*
X154391570Y-98192684D01*
X154395787Y-98189621D01*
X154526621Y-98058787D01*
X154635378Y-97909096D01*
X154719379Y-97744235D01*
X154776555Y-97568264D01*
X154805500Y-97385514D01*
X154805500Y-97200486D01*
X159141500Y-97200486D01*
X159141500Y-97385514D01*
X159154615Y-97468318D01*
X159170445Y-97568265D01*
X159227619Y-97744232D01*
X159227620Y-97744235D01*
X159294810Y-97876101D01*
X159311622Y-97909096D01*
X159420379Y-98058787D01*
X159551213Y-98189621D01*
X159555421Y-98192678D01*
X159555432Y-98192686D01*
X159598094Y-98248019D01*
X159604069Y-98317633D01*
X159571459Y-98379426D01*
X159555432Y-98393314D01*
X159551210Y-98396381D01*
X159420381Y-98527210D01*
X159420381Y-98527211D01*
X159420379Y-98527213D01*
X159404187Y-98549500D01*
X159311622Y-98676903D01*
X159227620Y-98841764D01*
X159227619Y-98841767D01*
X159170445Y-99017734D01*
X159141500Y-99200486D01*
X159141500Y-99385513D01*
X159170445Y-99568265D01*
X159227619Y-99744232D01*
X159227620Y-99744235D01*
X159278491Y-99844073D01*
X159311622Y-99909096D01*
X159420379Y-100058787D01*
X159551213Y-100189621D01*
X159555421Y-100192678D01*
X159555432Y-100192686D01*
X159598094Y-100248019D01*
X159604069Y-100317633D01*
X159571459Y-100379426D01*
X159555432Y-100393314D01*
X159551210Y-100396381D01*
X159420381Y-100527210D01*
X159420381Y-100527211D01*
X159420379Y-100527213D01*
X159418967Y-100529157D01*
X159311622Y-100676903D01*
X159227620Y-100841764D01*
X159227619Y-100841767D01*
X159170445Y-101017734D01*
X159141500Y-101200486D01*
X159141500Y-101385513D01*
X159170445Y-101568265D01*
X159227619Y-101744232D01*
X159227620Y-101744235D01*
X159311622Y-101909096D01*
X159395840Y-102025012D01*
X159419320Y-102090817D01*
X159403495Y-102158871D01*
X159369833Y-102197164D01*
X159284809Y-102260813D01*
X159198649Y-102375906D01*
X159198645Y-102375913D01*
X159148403Y-102510620D01*
X159148401Y-102510627D01*
X159142000Y-102570155D01*
X159142000Y-103043000D01*
X160001314Y-103043000D01*
X159996920Y-103047394D01*
X159944259Y-103138606D01*
X159917000Y-103240339D01*
X159917000Y-103345661D01*
X159944259Y-103447394D01*
X159996920Y-103538606D01*
X160001314Y-103543000D01*
X159142000Y-103543000D01*
X159142000Y-104015844D01*
X159148401Y-104075372D01*
X159148403Y-104075379D01*
X159198645Y-104210086D01*
X159198649Y-104210093D01*
X159284809Y-104325187D01*
X159284812Y-104325190D01*
X159399906Y-104411350D01*
X159399913Y-104411354D01*
X159534620Y-104461596D01*
X159534627Y-104461598D01*
X159594155Y-104467999D01*
X159594172Y-104468000D01*
X160067000Y-104468000D01*
X160067000Y-103608686D01*
X160071394Y-103613080D01*
X160162606Y-103665741D01*
X160264339Y-103693000D01*
X160369661Y-103693000D01*
X160471394Y-103665741D01*
X160562606Y-103613080D01*
X160567000Y-103608686D01*
X160567000Y-104468000D01*
X161039828Y-104468000D01*
X161039844Y-104467999D01*
X161099372Y-104461598D01*
X161099379Y-104461596D01*
X161234086Y-104411354D01*
X161234093Y-104411350D01*
X161349187Y-104325190D01*
X161349190Y-104325187D01*
X161435350Y-104210093D01*
X161435354Y-104210086D01*
X161485596Y-104075379D01*
X161485598Y-104075372D01*
X161491999Y-104015844D01*
X161492000Y-104015827D01*
X161492000Y-103543000D01*
X160632686Y-103543000D01*
X160637080Y-103538606D01*
X160689741Y-103447394D01*
X160717000Y-103345661D01*
X160717000Y-103240339D01*
X160689741Y-103138606D01*
X160637080Y-103047394D01*
X160632686Y-103043000D01*
X161492000Y-103043000D01*
X161492000Y-102570172D01*
X161491999Y-102570155D01*
X161485598Y-102510627D01*
X161485596Y-102510620D01*
X161435354Y-102375913D01*
X161435350Y-102375906D01*
X161349190Y-102260812D01*
X161264166Y-102197162D01*
X161222296Y-102141228D01*
X161217312Y-102071536D01*
X161238157Y-102025015D01*
X161322378Y-101909096D01*
X161406379Y-101744235D01*
X161463555Y-101568264D01*
X161492500Y-101385514D01*
X161492500Y-101200486D01*
X161463555Y-101017736D01*
X161417103Y-100874769D01*
X161406380Y-100841767D01*
X161406379Y-100841764D01*
X161334028Y-100699769D01*
X161322378Y-100676904D01*
X161213621Y-100527213D01*
X161082787Y-100396379D01*
X161078576Y-100393319D01*
X161035909Y-100337994D01*
X161029926Y-100268381D01*
X161062529Y-100206585D01*
X161078570Y-100192684D01*
X161082787Y-100189621D01*
X161213621Y-100058787D01*
X161322378Y-99909096D01*
X161406379Y-99744235D01*
X161463555Y-99568264D01*
X161492500Y-99385514D01*
X161492500Y-99200486D01*
X161463555Y-99017736D01*
X161423380Y-98894088D01*
X161406380Y-98841767D01*
X161406379Y-98841764D01*
X161322377Y-98676903D01*
X161213621Y-98527213D01*
X161082787Y-98396379D01*
X161078576Y-98393319D01*
X161035909Y-98337994D01*
X161029926Y-98268381D01*
X161062529Y-98206585D01*
X161078570Y-98192684D01*
X161082787Y-98189621D01*
X161213621Y-98058787D01*
X161322378Y-97909096D01*
X161406379Y-97744235D01*
X161463555Y-97568264D01*
X161486819Y-97421383D01*
X161486820Y-97421379D01*
X162541500Y-97421379D01*
X162541500Y-97608620D01*
X162578025Y-97792243D01*
X162578027Y-97792251D01*
X162649676Y-97965228D01*
X162649681Y-97965237D01*
X162753697Y-98120907D01*
X162753700Y-98120911D01*
X162886088Y-98253299D01*
X162886092Y-98253302D01*
X163041762Y-98357318D01*
X163041771Y-98357323D01*
X163052338Y-98361700D01*
X163214749Y-98428973D01*
X163394367Y-98464701D01*
X163398379Y-98465499D01*
X163398383Y-98465500D01*
X163398384Y-98465500D01*
X163585617Y-98465500D01*
X163585618Y-98465499D01*
X163769251Y-98428973D01*
X163942231Y-98357322D01*
X164097908Y-98253302D01*
X164230302Y-98120908D01*
X164334322Y-97965231D01*
X164405973Y-97792251D01*
X164442500Y-97608616D01*
X164442500Y-97421384D01*
X164405973Y-97237749D01*
X164339070Y-97076231D01*
X164334323Y-97064771D01*
X164334318Y-97064762D01*
X164230302Y-96909092D01*
X164230299Y-96909088D01*
X164097911Y-96776700D01*
X164097907Y-96776697D01*
X163942237Y-96672681D01*
X163942228Y-96672676D01*
X163769251Y-96601027D01*
X163769243Y-96601025D01*
X163585620Y-96564500D01*
X163585616Y-96564500D01*
X163398384Y-96564500D01*
X163398379Y-96564500D01*
X163214756Y-96601025D01*
X163214748Y-96601027D01*
X163041771Y-96672676D01*
X163041762Y-96672681D01*
X162886092Y-96776697D01*
X162886088Y-96776700D01*
X162753700Y-96909088D01*
X162753697Y-96909092D01*
X162649681Y-97064762D01*
X162649676Y-97064771D01*
X162578027Y-97237748D01*
X162578025Y-97237756D01*
X162541500Y-97421379D01*
X161486820Y-97421379D01*
X161490843Y-97395977D01*
X161490845Y-97395958D01*
X161492500Y-97385514D01*
X161492500Y-97200486D01*
X161463555Y-97017736D01*
X161431224Y-96918231D01*
X161406380Y-96841767D01*
X161406379Y-96841764D01*
X161322377Y-96676903D01*
X161213621Y-96527213D01*
X161082787Y-96396379D01*
X160933096Y-96287622D01*
X160929962Y-96286025D01*
X160768235Y-96203620D01*
X160768232Y-96203619D01*
X160592265Y-96146445D01*
X160500889Y-96131972D01*
X160409514Y-96117500D01*
X160224486Y-96117500D01*
X160163569Y-96127148D01*
X160041734Y-96146445D01*
X159865767Y-96203619D01*
X159865764Y-96203620D01*
X159700903Y-96287622D01*
X159619421Y-96346823D01*
X159551213Y-96396379D01*
X159551211Y-96396381D01*
X159551210Y-96396381D01*
X159420381Y-96527210D01*
X159420381Y-96527211D01*
X159420379Y-96527213D01*
X159384199Y-96577011D01*
X159311622Y-96676903D01*
X159227620Y-96841764D01*
X159227619Y-96841767D01*
X159170445Y-97017734D01*
X159148280Y-97157676D01*
X159141500Y-97200486D01*
X154805500Y-97200486D01*
X154776555Y-97017736D01*
X154744224Y-96918231D01*
X154719380Y-96841767D01*
X154719379Y-96841764D01*
X154635377Y-96676903D01*
X154526621Y-96527213D01*
X154395787Y-96396379D01*
X154246096Y-96287622D01*
X154242962Y-96286025D01*
X154081235Y-96203620D01*
X154081232Y-96203619D01*
X153905265Y-96146445D01*
X153813889Y-96131972D01*
X153722514Y-96117500D01*
X153537486Y-96117500D01*
X153476569Y-96127148D01*
X153354734Y-96146445D01*
X153178767Y-96203619D01*
X153178764Y-96203620D01*
X153013903Y-96287622D01*
X152932421Y-96346823D01*
X152864213Y-96396379D01*
X152864211Y-96396381D01*
X152864210Y-96396381D01*
X152733381Y-96527210D01*
X152733381Y-96527211D01*
X152733379Y-96527213D01*
X152697199Y-96577011D01*
X152624622Y-96676903D01*
X152540620Y-96841764D01*
X152540619Y-96841767D01*
X152483445Y-97017734D01*
X152461280Y-97157676D01*
X152454500Y-97200486D01*
X142114299Y-97200486D01*
X142050237Y-97157681D01*
X142050228Y-97157676D01*
X141877251Y-97086027D01*
X141877243Y-97086025D01*
X141693620Y-97049500D01*
X141693616Y-97049500D01*
X141506384Y-97049500D01*
X141506379Y-97049500D01*
X141322756Y-97086025D01*
X141322748Y-97086027D01*
X141149771Y-97157676D01*
X141149762Y-97157681D01*
X140994092Y-97261697D01*
X140994088Y-97261700D01*
X140861700Y-97394088D01*
X140861697Y-97394092D01*
X140803102Y-97481786D01*
X140749490Y-97526591D01*
X140680165Y-97535298D01*
X140617137Y-97505143D01*
X140596898Y-97481786D01*
X140538302Y-97394092D01*
X140538299Y-97394088D01*
X140405911Y-97261700D01*
X140405907Y-97261697D01*
X140250237Y-97157681D01*
X140250228Y-97157676D01*
X140077251Y-97086027D01*
X140077243Y-97086025D01*
X139893620Y-97049500D01*
X139893616Y-97049500D01*
X139706384Y-97049500D01*
X139706379Y-97049500D01*
X139522756Y-97086025D01*
X139522748Y-97086027D01*
X139349771Y-97157676D01*
X139349762Y-97157681D01*
X139194092Y-97261697D01*
X139194088Y-97261700D01*
X139061700Y-97394088D01*
X139061697Y-97394092D01*
X138957681Y-97549762D01*
X138957676Y-97549771D01*
X138886027Y-97722748D01*
X138886025Y-97722756D01*
X138849500Y-97906379D01*
X138201908Y-97906379D01*
X138213973Y-97877251D01*
X138250500Y-97693616D01*
X138250500Y-97506384D01*
X138213973Y-97322749D01*
X138142322Y-97149769D01*
X138142321Y-97149768D01*
X138142318Y-97149762D01*
X138038302Y-96994092D01*
X138038299Y-96994088D01*
X137905911Y-96861700D01*
X137905907Y-96861697D01*
X137750237Y-96757681D01*
X137750228Y-96757676D01*
X137577251Y-96686027D01*
X137577243Y-96686025D01*
X137393620Y-96649500D01*
X137393616Y-96649500D01*
X137206384Y-96649500D01*
X137206379Y-96649500D01*
X137022756Y-96686025D01*
X137022748Y-96686027D01*
X136849771Y-96757676D01*
X136849762Y-96757681D01*
X136694092Y-96861697D01*
X136694088Y-96861700D01*
X136561700Y-96994088D01*
X136561697Y-96994092D01*
X136457681Y-97149762D01*
X136457676Y-97149771D01*
X136386027Y-97322748D01*
X136386025Y-97322756D01*
X136349500Y-97506379D01*
X133501908Y-97506379D01*
X133513973Y-97477251D01*
X133550500Y-97293616D01*
X133550500Y-97106384D01*
X133513973Y-96922749D01*
X133444947Y-96756106D01*
X133442323Y-96749771D01*
X133442318Y-96749762D01*
X133338302Y-96594092D01*
X133338299Y-96594088D01*
X133205911Y-96461700D01*
X133205907Y-96461697D01*
X133050237Y-96357681D01*
X133050228Y-96357676D01*
X132877251Y-96286027D01*
X132877243Y-96286025D01*
X132693620Y-96249500D01*
X132693616Y-96249500D01*
X132506384Y-96249500D01*
X132506379Y-96249500D01*
X132322756Y-96286025D01*
X132322748Y-96286027D01*
X132149771Y-96357676D01*
X132149762Y-96357681D01*
X131994092Y-96461697D01*
X131994088Y-96461700D01*
X131861700Y-96594088D01*
X131861697Y-96594092D01*
X131757681Y-96749762D01*
X131757676Y-96749771D01*
X131686027Y-96922748D01*
X131686025Y-96922756D01*
X131649500Y-97106379D01*
X123715831Y-97106379D01*
X123717302Y-97104908D01*
X123754091Y-97049849D01*
X123766418Y-97031401D01*
X123821318Y-96949237D01*
X123821318Y-96949236D01*
X123821322Y-96949231D01*
X123892973Y-96776251D01*
X123929500Y-96592616D01*
X123929500Y-96405384D01*
X123892973Y-96221749D01*
X123837554Y-96087956D01*
X123821323Y-96048771D01*
X123821318Y-96048762D01*
X123717302Y-95893092D01*
X123717299Y-95893088D01*
X123584911Y-95760700D01*
X123584907Y-95760697D01*
X123429237Y-95656681D01*
X123429228Y-95656676D01*
X123256251Y-95585027D01*
X123256243Y-95585025D01*
X123072620Y-95548500D01*
X123072616Y-95548500D01*
X122885384Y-95548500D01*
X122885379Y-95548500D01*
X122701756Y-95585025D01*
X122701748Y-95585027D01*
X122528771Y-95656676D01*
X122528762Y-95656681D01*
X122373092Y-95760697D01*
X122373088Y-95760700D01*
X122240700Y-95893088D01*
X122240697Y-95893092D01*
X122136681Y-96048762D01*
X122136676Y-96048771D01*
X122065027Y-96221748D01*
X122065025Y-96221756D01*
X122028500Y-96405379D01*
X117935237Y-96405379D01*
X117929886Y-96378479D01*
X117923973Y-96348749D01*
X117852322Y-96175769D01*
X117852321Y-96175768D01*
X117852318Y-96175762D01*
X117748302Y-96020092D01*
X117748299Y-96020088D01*
X117615911Y-95887700D01*
X117615907Y-95887697D01*
X117460237Y-95783681D01*
X117460228Y-95783676D01*
X117287251Y-95712027D01*
X117287243Y-95712025D01*
X117103620Y-95675500D01*
X117103616Y-95675500D01*
X116916384Y-95675500D01*
X116916379Y-95675500D01*
X116732756Y-95712025D01*
X116732748Y-95712027D01*
X116559771Y-95783676D01*
X116559762Y-95783681D01*
X116404092Y-95887697D01*
X116404088Y-95887700D01*
X116271700Y-96020088D01*
X116271697Y-96020092D01*
X116167681Y-96175762D01*
X116167676Y-96175771D01*
X116096027Y-96348748D01*
X116096025Y-96348756D01*
X116059500Y-96532379D01*
X108162165Y-96532379D01*
X108158639Y-96507853D01*
X108158807Y-96507484D01*
X108158752Y-96507084D01*
X108173291Y-96475769D01*
X108187664Y-96444297D01*
X108188100Y-96443871D01*
X108188175Y-96443712D01*
X108188432Y-96443548D01*
X108202712Y-96429647D01*
X108243249Y-96396379D01*
X108303627Y-96346828D01*
X108546828Y-96103627D01*
X108765019Y-95837760D01*
X108956100Y-95551787D01*
X109118231Y-95248462D01*
X109249850Y-94930705D01*
X109349690Y-94601578D01*
X109416789Y-94264250D01*
X109450500Y-93921969D01*
X109450500Y-93578031D01*
X109416789Y-93235750D01*
X109398515Y-93143883D01*
X109398514Y-93143879D01*
X111399500Y-93143879D01*
X111399500Y-93331120D01*
X111436025Y-93514743D01*
X111436027Y-93514751D01*
X111507676Y-93687728D01*
X111507683Y-93687740D01*
X111511608Y-93693615D01*
X111532482Y-93760294D01*
X111513994Y-93827673D01*
X111511608Y-93831385D01*
X111507683Y-93837259D01*
X111507676Y-93837271D01*
X111436027Y-94010248D01*
X111436025Y-94010256D01*
X111399500Y-94193879D01*
X111399500Y-94381120D01*
X111436025Y-94564743D01*
X111436027Y-94564751D01*
X111507676Y-94737728D01*
X111507683Y-94737740D01*
X111511608Y-94743615D01*
X111532482Y-94810294D01*
X111513994Y-94877673D01*
X111511608Y-94881385D01*
X111507683Y-94887259D01*
X111507676Y-94887271D01*
X111436027Y-95060248D01*
X111436025Y-95060256D01*
X111399500Y-95243879D01*
X111399500Y-95431120D01*
X111436025Y-95614743D01*
X111436027Y-95614751D01*
X111507676Y-95787728D01*
X111507681Y-95787737D01*
X111611697Y-95943407D01*
X111611700Y-95943411D01*
X111744088Y-96075799D01*
X111744092Y-96075802D01*
X111899762Y-96179818D01*
X111899768Y-96179821D01*
X111899769Y-96179822D01*
X112072749Y-96251473D01*
X112246455Y-96286025D01*
X112256379Y-96287999D01*
X112256383Y-96288000D01*
X112256384Y-96288000D01*
X112443617Y-96288000D01*
X112443618Y-96287999D01*
X112627251Y-96251473D01*
X112800231Y-96179822D01*
X112955908Y-96075802D01*
X113088302Y-95943408D01*
X113192322Y-95787731D01*
X113263973Y-95614751D01*
X113300500Y-95431116D01*
X113300500Y-95243884D01*
X113263973Y-95060249D01*
X113192322Y-94887269D01*
X113188393Y-94881389D01*
X113167516Y-94814714D01*
X113186000Y-94747334D01*
X113188394Y-94743609D01*
X113192322Y-94737731D01*
X113263973Y-94564751D01*
X113276777Y-94500379D01*
X120631500Y-94500379D01*
X120631500Y-94687620D01*
X120668025Y-94871243D01*
X120668027Y-94871251D01*
X120739676Y-95044228D01*
X120739681Y-95044237D01*
X120843697Y-95199907D01*
X120843700Y-95199911D01*
X120976088Y-95332299D01*
X120976092Y-95332302D01*
X121131762Y-95436318D01*
X121131771Y-95436323D01*
X121170956Y-95452554D01*
X121304749Y-95507973D01*
X121488379Y-95544499D01*
X121488383Y-95544500D01*
X121488384Y-95544500D01*
X121675617Y-95544500D01*
X121675618Y-95544499D01*
X121859251Y-95507973D01*
X122032231Y-95436322D01*
X122187908Y-95332302D01*
X122320302Y-95199908D01*
X122424322Y-95044231D01*
X122491778Y-94881379D01*
X131553500Y-94881379D01*
X131553500Y-95068620D01*
X131590025Y-95252243D01*
X131590027Y-95252251D01*
X131661676Y-95425228D01*
X131661681Y-95425237D01*
X131765697Y-95580907D01*
X131765700Y-95580911D01*
X131898088Y-95713299D01*
X131898092Y-95713302D01*
X132053762Y-95817318D01*
X132053768Y-95817321D01*
X132053769Y-95817322D01*
X132226749Y-95888973D01*
X132410379Y-95925499D01*
X132410383Y-95925500D01*
X132410384Y-95925500D01*
X132597617Y-95925500D01*
X132597618Y-95925499D01*
X132781251Y-95888973D01*
X132954231Y-95817322D01*
X133109908Y-95713302D01*
X133242302Y-95580908D01*
X133285419Y-95516379D01*
X140951500Y-95516379D01*
X140951500Y-95703620D01*
X140988025Y-95887243D01*
X140988027Y-95887251D01*
X141059676Y-96060228D01*
X141059681Y-96060237D01*
X141163697Y-96215907D01*
X141163700Y-96215911D01*
X141296088Y-96348299D01*
X141296092Y-96348302D01*
X141451762Y-96452318D01*
X141451771Y-96452323D01*
X141474409Y-96461700D01*
X141624749Y-96523973D01*
X141808379Y-96560499D01*
X141808383Y-96560500D01*
X141808384Y-96560500D01*
X141995617Y-96560500D01*
X141995618Y-96560499D01*
X142179251Y-96523973D01*
X142352231Y-96452322D01*
X142507908Y-96348302D01*
X142640302Y-96215908D01*
X142744322Y-96060231D01*
X142815973Y-95887251D01*
X142852500Y-95703616D01*
X142852500Y-95516384D01*
X142815973Y-95332749D01*
X142744322Y-95159769D01*
X142744321Y-95159768D01*
X142744318Y-95159762D01*
X142640302Y-95004092D01*
X142640299Y-95004088D01*
X142507911Y-94871700D01*
X142507907Y-94871697D01*
X142352237Y-94767681D01*
X142352228Y-94767676D01*
X142179251Y-94696027D01*
X142179243Y-94696025D01*
X141995620Y-94659500D01*
X141995616Y-94659500D01*
X141808384Y-94659500D01*
X141808379Y-94659500D01*
X141624756Y-94696025D01*
X141624748Y-94696027D01*
X141451771Y-94767676D01*
X141451762Y-94767681D01*
X141296092Y-94871697D01*
X141296088Y-94871700D01*
X141163700Y-95004088D01*
X141163697Y-95004092D01*
X141059681Y-95159762D01*
X141059676Y-95159771D01*
X140988027Y-95332748D01*
X140988025Y-95332756D01*
X140951500Y-95516379D01*
X133285419Y-95516379D01*
X133346322Y-95425231D01*
X133417973Y-95252251D01*
X133454500Y-95068616D01*
X133454500Y-94881384D01*
X133417973Y-94697749D01*
X133358579Y-94554360D01*
X133346323Y-94524771D01*
X133346318Y-94524762D01*
X133242302Y-94369092D01*
X133242299Y-94369088D01*
X133109911Y-94236700D01*
X133109907Y-94236697D01*
X133060066Y-94203394D01*
X132954237Y-94132681D01*
X132954228Y-94132676D01*
X132890741Y-94106379D01*
X142649500Y-94106379D01*
X142649500Y-94293620D01*
X142686025Y-94477243D01*
X142686027Y-94477251D01*
X142757676Y-94650228D01*
X142757681Y-94650237D01*
X142861697Y-94805907D01*
X142861700Y-94805911D01*
X142994088Y-94938299D01*
X142994092Y-94938302D01*
X143149762Y-95042318D01*
X143149771Y-95042323D01*
X143154392Y-95044237D01*
X143322749Y-95113973D01*
X143480518Y-95145355D01*
X143506379Y-95150499D01*
X143506383Y-95150500D01*
X143506384Y-95150500D01*
X143693617Y-95150500D01*
X143693618Y-95150499D01*
X143877251Y-95113973D01*
X144050231Y-95042322D01*
X144205908Y-94938302D01*
X144338302Y-94805908D01*
X144442322Y-94650231D01*
X144513973Y-94477251D01*
X144550500Y-94293616D01*
X144550500Y-94106384D01*
X144513973Y-93922749D01*
X144458554Y-93788956D01*
X144442323Y-93749771D01*
X144442318Y-93749762D01*
X144338302Y-93594092D01*
X144338299Y-93594088D01*
X144205910Y-93461699D01*
X144194978Y-93454395D01*
X144194977Y-93454394D01*
X144050237Y-93357681D01*
X144050228Y-93357676D01*
X144049511Y-93357379D01*
X148444500Y-93357379D01*
X148444500Y-93544620D01*
X148481025Y-93728243D01*
X148481027Y-93728251D01*
X148552676Y-93901228D01*
X148552681Y-93901237D01*
X148656697Y-94056907D01*
X148656700Y-94056911D01*
X148789088Y-94189299D01*
X148789092Y-94189302D01*
X148944762Y-94293318D01*
X148944771Y-94293323D01*
X148945481Y-94293617D01*
X149117749Y-94364973D01*
X149301379Y-94401499D01*
X149301383Y-94401500D01*
X149301384Y-94401500D01*
X149488617Y-94401500D01*
X149488618Y-94401499D01*
X149672251Y-94364973D01*
X149845231Y-94293322D01*
X150000908Y-94189302D01*
X150133302Y-94056908D01*
X150237322Y-93901231D01*
X150308973Y-93728251D01*
X150345500Y-93544616D01*
X150345500Y-93357384D01*
X150308973Y-93173749D01*
X150242791Y-93013972D01*
X150237323Y-93000771D01*
X150237318Y-93000762D01*
X150133302Y-92845092D01*
X150133299Y-92845088D01*
X150000911Y-92712700D01*
X150000907Y-92712697D01*
X149845237Y-92608681D01*
X149845228Y-92608676D01*
X149672251Y-92537027D01*
X149672243Y-92537025D01*
X149488620Y-92500500D01*
X149488616Y-92500500D01*
X149301384Y-92500500D01*
X149301379Y-92500500D01*
X149117756Y-92537025D01*
X149117748Y-92537027D01*
X148944771Y-92608676D01*
X148944762Y-92608681D01*
X148789092Y-92712697D01*
X148789088Y-92712700D01*
X148656700Y-92845088D01*
X148656697Y-92845092D01*
X148552681Y-93000762D01*
X148552676Y-93000771D01*
X148481027Y-93173748D01*
X148481025Y-93173756D01*
X148444500Y-93357379D01*
X144049511Y-93357379D01*
X143877251Y-93286027D01*
X143877243Y-93286025D01*
X143693620Y-93249500D01*
X143693616Y-93249500D01*
X143506384Y-93249500D01*
X143506379Y-93249500D01*
X143322756Y-93286025D01*
X143322748Y-93286027D01*
X143149771Y-93357676D01*
X143149762Y-93357681D01*
X142994092Y-93461697D01*
X142994088Y-93461700D01*
X142861700Y-93594088D01*
X142861697Y-93594092D01*
X142757681Y-93749762D01*
X142757676Y-93749771D01*
X142686027Y-93922748D01*
X142686025Y-93922756D01*
X142649500Y-94106379D01*
X132890741Y-94106379D01*
X132781251Y-94061027D01*
X132781243Y-94061025D01*
X132597620Y-94024500D01*
X132597616Y-94024500D01*
X132410384Y-94024500D01*
X132410379Y-94024500D01*
X132226756Y-94061025D01*
X132226748Y-94061027D01*
X132053771Y-94132676D01*
X132053762Y-94132681D01*
X131898092Y-94236697D01*
X131898088Y-94236700D01*
X131765700Y-94369088D01*
X131765697Y-94369092D01*
X131661681Y-94524762D01*
X131661676Y-94524771D01*
X131590027Y-94697748D01*
X131590025Y-94697756D01*
X131553500Y-94881379D01*
X122491778Y-94881379D01*
X122495973Y-94871251D01*
X122532500Y-94687616D01*
X122532500Y-94648073D01*
X122552185Y-94581034D01*
X122604989Y-94535279D01*
X122674147Y-94525335D01*
X122737703Y-94554360D01*
X122744181Y-94560392D01*
X122754088Y-94570299D01*
X122754092Y-94570302D01*
X122909762Y-94674318D01*
X122909768Y-94674321D01*
X122909769Y-94674322D01*
X123082749Y-94745973D01*
X123266379Y-94782499D01*
X123266383Y-94782500D01*
X123266384Y-94782500D01*
X123453617Y-94782500D01*
X123453618Y-94782499D01*
X123491940Y-94774876D01*
X123598533Y-94753675D01*
X123617506Y-94749900D01*
X123637251Y-94745973D01*
X123810231Y-94674322D01*
X123965908Y-94570302D01*
X124098302Y-94437908D01*
X124202322Y-94282231D01*
X124273973Y-94109251D01*
X124310500Y-93925616D01*
X124310500Y-93738384D01*
X124273973Y-93554749D01*
X124202322Y-93381769D01*
X124202321Y-93381768D01*
X124202318Y-93381762D01*
X124098302Y-93226092D01*
X124098299Y-93226088D01*
X123965911Y-93093700D01*
X123965907Y-93093697D01*
X123810237Y-92989681D01*
X123810228Y-92989676D01*
X123637251Y-92918027D01*
X123637243Y-92918025D01*
X123453620Y-92881500D01*
X123453616Y-92881500D01*
X123266384Y-92881500D01*
X123266379Y-92881500D01*
X123082756Y-92918025D01*
X123082748Y-92918027D01*
X122909771Y-92989676D01*
X122909762Y-92989681D01*
X122754092Y-93093697D01*
X122754088Y-93093700D01*
X122621700Y-93226088D01*
X122621697Y-93226092D01*
X122517681Y-93381762D01*
X122517676Y-93381771D01*
X122446027Y-93554748D01*
X122446025Y-93554756D01*
X122409500Y-93738379D01*
X122409500Y-93777927D01*
X122389815Y-93844966D01*
X122337011Y-93890721D01*
X122267853Y-93900665D01*
X122204297Y-93871640D01*
X122197819Y-93865608D01*
X122187911Y-93855700D01*
X122187907Y-93855697D01*
X122032237Y-93751681D01*
X122032228Y-93751676D01*
X121859251Y-93680027D01*
X121859243Y-93680025D01*
X121675620Y-93643500D01*
X121675616Y-93643500D01*
X121488384Y-93643500D01*
X121488379Y-93643500D01*
X121304756Y-93680025D01*
X121304748Y-93680027D01*
X121131771Y-93751676D01*
X121131762Y-93751681D01*
X120976092Y-93855697D01*
X120976088Y-93855700D01*
X120843700Y-93988088D01*
X120843697Y-93988092D01*
X120739681Y-94143762D01*
X120739676Y-94143771D01*
X120668027Y-94316748D01*
X120668025Y-94316756D01*
X120631500Y-94500379D01*
X113276777Y-94500379D01*
X113300500Y-94381116D01*
X113300500Y-94193884D01*
X113263973Y-94010249D01*
X113206559Y-93871640D01*
X113192323Y-93837271D01*
X113188394Y-93831391D01*
X113167516Y-93764714D01*
X113186000Y-93697334D01*
X113188394Y-93693609D01*
X113192322Y-93687731D01*
X113263973Y-93514751D01*
X113300500Y-93331116D01*
X113300500Y-93143884D01*
X113263973Y-92960249D01*
X113192322Y-92787269D01*
X113192321Y-92787268D01*
X113192318Y-92787262D01*
X113088302Y-92631592D01*
X113088299Y-92631588D01*
X112955911Y-92499200D01*
X112955907Y-92499197D01*
X112800237Y-92395181D01*
X112800228Y-92395176D01*
X112627251Y-92323527D01*
X112627243Y-92323525D01*
X112443620Y-92287000D01*
X112443616Y-92287000D01*
X112256384Y-92287000D01*
X112256379Y-92287000D01*
X112072756Y-92323525D01*
X112072748Y-92323527D01*
X111899771Y-92395176D01*
X111899762Y-92395181D01*
X111744092Y-92499197D01*
X111744088Y-92499200D01*
X111611700Y-92631588D01*
X111611697Y-92631592D01*
X111507681Y-92787262D01*
X111507676Y-92787271D01*
X111436027Y-92960248D01*
X111436025Y-92960256D01*
X111399500Y-93143879D01*
X109398514Y-93143879D01*
X109349691Y-92898427D01*
X109349690Y-92898426D01*
X109349690Y-92898422D01*
X109249850Y-92569295D01*
X109118231Y-92251538D01*
X109109546Y-92235290D01*
X109015181Y-92058745D01*
X108987191Y-92006379D01*
X114749500Y-92006379D01*
X114749500Y-92193620D01*
X114786025Y-92377243D01*
X114786027Y-92377251D01*
X114857676Y-92550228D01*
X114857681Y-92550237D01*
X114961697Y-92705907D01*
X114961700Y-92705911D01*
X115094088Y-92838299D01*
X115094092Y-92838302D01*
X115249762Y-92942318D01*
X115249768Y-92942321D01*
X115249769Y-92942322D01*
X115422749Y-93013973D01*
X115606379Y-93050499D01*
X115606383Y-93050500D01*
X115606384Y-93050500D01*
X115793617Y-93050500D01*
X115793618Y-93050499D01*
X115977251Y-93013973D01*
X116150231Y-92942322D01*
X116305908Y-92838302D01*
X116438302Y-92705908D01*
X116542322Y-92550231D01*
X116613973Y-92377251D01*
X116650500Y-92193616D01*
X116650500Y-92006384D01*
X116644950Y-91978482D01*
X116644950Y-91978479D01*
X116641350Y-91960379D01*
X120250500Y-91960379D01*
X120250500Y-92147620D01*
X120287025Y-92331243D01*
X120287027Y-92331251D01*
X120358676Y-92504228D01*
X120358681Y-92504237D01*
X120462697Y-92659907D01*
X120462700Y-92659911D01*
X120595088Y-92792299D01*
X120595092Y-92792302D01*
X120750762Y-92896318D01*
X120750771Y-92896323D01*
X120755851Y-92898427D01*
X120923749Y-92967973D01*
X121088592Y-93000762D01*
X121107379Y-93004499D01*
X121107383Y-93004500D01*
X121107384Y-93004500D01*
X121294617Y-93004500D01*
X121294618Y-93004499D01*
X121478251Y-92967973D01*
X121651231Y-92896322D01*
X121806908Y-92792302D01*
X121939302Y-92659908D01*
X122043322Y-92504231D01*
X122114973Y-92331251D01*
X122151500Y-92147616D01*
X122151500Y-91960384D01*
X122114973Y-91776749D01*
X122043322Y-91603769D01*
X122043321Y-91603768D01*
X122043318Y-91603762D01*
X121939302Y-91448092D01*
X121939299Y-91448088D01*
X121806911Y-91315700D01*
X121806907Y-91315697D01*
X121651237Y-91211681D01*
X121651228Y-91211676D01*
X121478251Y-91140027D01*
X121478243Y-91140025D01*
X121294620Y-91103500D01*
X121294616Y-91103500D01*
X121107384Y-91103500D01*
X121107379Y-91103500D01*
X120923756Y-91140025D01*
X120923748Y-91140027D01*
X120750771Y-91211676D01*
X120750762Y-91211681D01*
X120595092Y-91315697D01*
X120595088Y-91315700D01*
X120462700Y-91448088D01*
X120462697Y-91448092D01*
X120358681Y-91603762D01*
X120358676Y-91603771D01*
X120287027Y-91776748D01*
X120287025Y-91776756D01*
X120250500Y-91960379D01*
X116641350Y-91960379D01*
X116613974Y-91822756D01*
X116613973Y-91822749D01*
X116542322Y-91649769D01*
X116542321Y-91649768D01*
X116542318Y-91649762D01*
X116438302Y-91494092D01*
X116438299Y-91494088D01*
X116305911Y-91361700D01*
X116305907Y-91361697D01*
X116150237Y-91257681D01*
X116150228Y-91257676D01*
X115977251Y-91186027D01*
X115977243Y-91186025D01*
X115793620Y-91149500D01*
X115793616Y-91149500D01*
X115606384Y-91149500D01*
X115606379Y-91149500D01*
X115422756Y-91186025D01*
X115422748Y-91186027D01*
X115249771Y-91257676D01*
X115249762Y-91257681D01*
X115094092Y-91361697D01*
X115094088Y-91361700D01*
X114961700Y-91494088D01*
X114961697Y-91494092D01*
X114857681Y-91649762D01*
X114857676Y-91649771D01*
X114786027Y-91822748D01*
X114786025Y-91822756D01*
X114749500Y-92006379D01*
X108987191Y-92006379D01*
X108956106Y-91948224D01*
X108956105Y-91948222D01*
X108956100Y-91948213D01*
X108765019Y-91662240D01*
X108546828Y-91396373D01*
X108546827Y-91396372D01*
X108546823Y-91396367D01*
X108303632Y-91153176D01*
X108037765Y-90934985D01*
X108037764Y-90934984D01*
X108037760Y-90934981D01*
X107751787Y-90743900D01*
X107751782Y-90743897D01*
X107751775Y-90743893D01*
X107448469Y-90581772D01*
X107448464Y-90581770D01*
X107448462Y-90581769D01*
X107345354Y-90539060D01*
X107290952Y-90495220D01*
X107268887Y-90428926D01*
X107286166Y-90361227D01*
X107337303Y-90313616D01*
X107392808Y-90300500D01*
X127871500Y-90300500D01*
X127938539Y-90320185D01*
G37*
%TD.AperFunction*%
%TD*%
M02*
