%TF.GenerationSoftware,KiCad,Pcbnew,9.0.1-9.0.1-0~ubuntu24.04.1*%
%TF.CreationDate,2025-04-26T21:29:35+02:00*%
%TF.ProjectId,meshtastic,6d657368-7461-4737-9469-632e6b696361,rev?*%
%TF.SameCoordinates,Original*%
%TF.FileFunction,Copper,L1,Top*%
%TF.FilePolarity,Positive*%
%FSLAX46Y46*%
G04 Gerber Fmt 4.6, Leading zero omitted, Abs format (unit mm)*
G04 Created by KiCad (PCBNEW 9.0.1-9.0.1-0~ubuntu24.04.1) date 2025-04-26 21:29:35*
%MOMM*%
%LPD*%
G01*
G04 APERTURE LIST*
G04 Aperture macros list*
%AMRoundRect*
0 Rectangle with rounded corners*
0 $1 Rounding radius*
0 $2 $3 $4 $5 $6 $7 $8 $9 X,Y pos of 4 corners*
0 Add a 4 corners polygon primitive as box body*
4,1,4,$2,$3,$4,$5,$6,$7,$8,$9,$2,$3,0*
0 Add four circle primitives for the rounded corners*
1,1,$1+$1,$2,$3*
1,1,$1+$1,$4,$5*
1,1,$1+$1,$6,$7*
1,1,$1+$1,$8,$9*
0 Add four rect primitives between the rounded corners*
20,1,$1+$1,$2,$3,$4,$5,0*
20,1,$1+$1,$4,$5,$6,$7,0*
20,1,$1+$1,$6,$7,$8,$9,0*
20,1,$1+$1,$8,$9,$2,$3,0*%
G04 Aperture macros list end*
%TA.AperFunction,SMDPad,CuDef*%
%ADD10RoundRect,0.250000X0.475000X-0.250000X0.475000X0.250000X-0.475000X0.250000X-0.475000X-0.250000X0*%
%TD*%
%TA.AperFunction,ComponentPad*%
%ADD11C,0.800000*%
%TD*%
%TA.AperFunction,ComponentPad*%
%ADD12C,6.000000*%
%TD*%
%TA.AperFunction,SMDPad,CuDef*%
%ADD13C,1.000000*%
%TD*%
%TA.AperFunction,SMDPad,CuDef*%
%ADD14RoundRect,0.135000X0.185000X-0.135000X0.185000X0.135000X-0.185000X0.135000X-0.185000X-0.135000X0*%
%TD*%
%TA.AperFunction,SMDPad,CuDef*%
%ADD15RoundRect,0.500000X0.875000X0.500000X-0.875000X0.500000X-0.875000X-0.500000X0.875000X-0.500000X0*%
%TD*%
%TA.AperFunction,SMDPad,CuDef*%
%ADD16RoundRect,0.275000X0.275000X-0.975000X0.275000X0.975000X-0.275000X0.975000X-0.275000X-0.975000X0*%
%TD*%
%TA.AperFunction,SMDPad,CuDef*%
%ADD17C,1.700000*%
%TD*%
%TA.AperFunction,SMDPad,CuDef*%
%ADD18RoundRect,0.135000X-0.135000X-0.185000X0.135000X-0.185000X0.135000X0.185000X-0.135000X0.185000X0*%
%TD*%
%TA.AperFunction,ComponentPad*%
%ADD19R,1.350000X1.350000*%
%TD*%
%TA.AperFunction,ComponentPad*%
%ADD20O,1.350000X1.350000*%
%TD*%
%TA.AperFunction,SMDPad,CuDef*%
%ADD21RoundRect,0.250000X0.250000X0.475000X-0.250000X0.475000X-0.250000X-0.475000X0.250000X-0.475000X0*%
%TD*%
%TA.AperFunction,SMDPad,CuDef*%
%ADD22RoundRect,0.250000X-0.475000X0.250000X-0.475000X-0.250000X0.475000X-0.250000X0.475000X0.250000X0*%
%TD*%
%TA.AperFunction,SMDPad,CuDef*%
%ADD23RoundRect,0.150000X-0.150000X0.587500X-0.150000X-0.587500X0.150000X-0.587500X0.150000X0.587500X0*%
%TD*%
%TA.AperFunction,SMDPad,CuDef*%
%ADD24RoundRect,0.300000X0.500000X0.000010X-0.500000X0.000010X-0.500000X-0.000010X0.500000X-0.000010X0*%
%TD*%
%TA.AperFunction,BGAPad,CuDef*%
%ADD25C,0.250000*%
%TD*%
%TA.AperFunction,ComponentPad*%
%ADD26RoundRect,0.250000X-0.750000X0.600000X-0.750000X-0.600000X0.750000X-0.600000X0.750000X0.600000X0*%
%TD*%
%TA.AperFunction,ComponentPad*%
%ADD27O,2.000000X1.700000*%
%TD*%
%TA.AperFunction,SMDPad,CuDef*%
%ADD28RoundRect,0.250000X-0.250000X-0.475000X0.250000X-0.475000X0.250000X0.475000X-0.250000X0.475000X0*%
%TD*%
%TA.AperFunction,ComponentPad*%
%ADD29R,1.700000X1.700000*%
%TD*%
%TA.AperFunction,ComponentPad*%
%ADD30O,1.700000X1.700000*%
%TD*%
%TA.AperFunction,ViaPad*%
%ADD31C,0.900000*%
%TD*%
%TA.AperFunction,ViaPad*%
%ADD32C,0.700000*%
%TD*%
%TA.AperFunction,Conductor*%
%ADD33C,0.300000*%
%TD*%
%TA.AperFunction,Conductor*%
%ADD34C,0.150000*%
%TD*%
%TA.AperFunction,Conductor*%
%ADD35C,0.500000*%
%TD*%
%TA.AperFunction,Conductor*%
%ADD36C,1.000000*%
%TD*%
%TA.AperFunction,Conductor*%
%ADD37C,0.200000*%
%TD*%
G04 APERTURE END LIST*
D10*
%TO.P,C7,1*%
%TO.N,FLP_5V*%
X127170000Y-108879000D03*
%TO.P,C7,2*%
%TO.N,GND*%
X127170000Y-106979000D03*
%TD*%
D11*
%TO.P,H3,1,1*%
%TO.N,GND*%
X103700000Y-110600000D03*
X104359010Y-109009010D03*
X104359010Y-112190990D03*
X105950000Y-108350000D03*
D12*
X105950000Y-110600000D03*
D11*
X105950000Y-112850000D03*
X107540990Y-109009010D03*
X107540990Y-112190990D03*
X108200000Y-110600000D03*
%TD*%
D13*
%TO.P,FID1,*%
%TO.N,*%
X170096000Y-110088000D03*
%TD*%
D14*
%TO.P,R5,1*%
%TO.N,Net-(U4-CELLX)*%
X108200000Y-103410000D03*
%TO.P,R5,2*%
%TO.N,+BATT*%
X108200000Y-102390000D03*
%TD*%
D15*
%TO.P,U2,1,GPIO0_A0_D0*%
%TO.N,FLP_PA13*%
X146081600Y-108800000D03*
%TO.P,U2,2,GPIO1_A1_D1*%
%TO.N,FLP_PB14*%
X146081600Y-106260000D03*
%TO.P,U2,3,GPIO2_A2_D2*%
%TO.N,LORA_RST*%
X146081600Y-103720000D03*
%TO.P,U2,4,GPIO21_D3*%
%TO.N,LORA_NSS*%
X146081600Y-101180000D03*
%TO.P,U2,5,GPIO22_D4_SDA*%
%TO.N,FLP_I2C_SDA*%
X146081600Y-98640000D03*
%TO.P,U2,6,GPIO23_D5_SCL*%
%TO.N,FLP_I2C_SCL*%
X146081600Y-96100000D03*
%TO.P,U2,7,GPIO16_D6_TX*%
%TO.N,FLP_RX*%
X146081600Y-93560000D03*
%TO.P,U2,8,GPIO17_D7_RX*%
%TO.N,FLP_TX*%
X129916600Y-93560000D03*
%TO.P,U2,9,GPIO19_D8_SCK*%
%TO.N,LORA_SPI_SCK*%
X129916600Y-96100000D03*
%TO.P,U2,10,GPIO20_D9_MISO*%
%TO.N,LORA_SPI_MISO*%
X129916600Y-98640000D03*
%TO.P,U2,11,GPIO18_D10_MOSI*%
%TO.N,LORA_SPI_MOSI*%
X129916600Y-101180000D03*
%TO.P,U2,12,3V3*%
%TO.N,unconnected-(U2-3V3-Pad12)*%
X129916600Y-103720000D03*
%TO.P,U2,13,GND*%
%TO.N,GND*%
X129916600Y-106260000D03*
%TO.P,U2,14,5V*%
%TO.N,FLP_5V*%
X129916600Y-108800000D03*
D16*
%TO.P,U2,15,BAT*%
%TO.N,+BATT*%
X139808000Y-95648300D03*
%TO.P,U2,16,GND*%
%TO.N,GND*%
X137268000Y-95648300D03*
D17*
%TO.P,U2,17,MTDI*%
%TO.N,FLP_PA14*%
X139300000Y-109821500D03*
%TO.P,U2,18,MTDO*%
%TO.N,LORA_DIO1*%
X136760000Y-109821500D03*
%TO.P,U2,19,CHIP_EN*%
%TO.N,FLP_RTS*%
X139300000Y-107281500D03*
%TO.P,U2,20,GND*%
%TO.N,GND*%
X136760000Y-107281500D03*
%TO.P,U2,21,MTMS*%
%TO.N,LORA_RF_SW*%
X139300000Y-104741500D03*
%TO.P,U2,22,MTCK*%
%TO.N,LORA_BUSY*%
X136760000Y-104741500D03*
%TO.P,U2,23,BOOT*%
%TO.N,FLP_DTR*%
X139300000Y-102201500D03*
%TO.P,U2,24,3V3_1*%
%TO.N,unconnected-(U2-3V3_1-Pad24)*%
X136852600Y-102258300D03*
%TD*%
D18*
%TO.P,R7,1*%
%TO.N,FLP_I2C_SCL*%
X149090000Y-96100000D03*
%TO.P,R7,2*%
%TO.N,+3V3*%
X150110000Y-96100000D03*
%TD*%
D19*
%TO.P,S0,1,Pin_1*%
%TO.N,+3V3*%
X153630000Y-103293000D03*
D20*
%TO.P,S0,2,Pin_2*%
%TO.N,GND*%
X153630000Y-101293000D03*
%TO.P,S0,3,Pin_3*%
%TO.N,FLP_I2C_SDA*%
X153630000Y-99293000D03*
%TO.P,S0,4,Pin_4*%
%TO.N,FLP_I2C_SCL*%
X153630000Y-97293000D03*
%TD*%
D11*
%TO.P,H2,1,1*%
%TO.N,GND*%
X173350000Y-110600000D03*
X174009010Y-109009010D03*
X174009010Y-112190990D03*
X175600000Y-108350000D03*
D12*
X175600000Y-110600000D03*
D11*
X175600000Y-112850000D03*
X177190990Y-109009010D03*
X177190990Y-112190990D03*
X177850000Y-110600000D03*
%TD*%
D21*
%TO.P,C4,1*%
%TO.N,Net-(U4-REG)*%
X111750000Y-106700000D03*
%TO.P,C4,2*%
%TO.N,-BATT*%
X109850000Y-106700000D03*
%TD*%
D19*
%TO.P,S1,1,Pin_1*%
%TO.N,+3V3*%
X160317000Y-103293000D03*
D20*
%TO.P,S1,2,Pin_2*%
%TO.N,GND*%
X160317000Y-101293000D03*
%TO.P,S1,3,Pin_3*%
%TO.N,FLP_I2C_SDA*%
X160317000Y-99293000D03*
%TO.P,S1,4,Pin_4*%
%TO.N,FLP_I2C_SCL*%
X160317000Y-97293000D03*
%TD*%
D18*
%TO.P,R3,1*%
%TO.N,-BATT*%
X110390000Y-108200000D03*
%TO.P,R3,2*%
%TO.N,GND*%
X111410000Y-108200000D03*
%TD*%
D22*
%TO.P,C5,1*%
%TO.N,+3V3*%
X113327000Y-102915000D03*
%TO.P,C5,2*%
%TO.N,GND*%
X113327000Y-104815000D03*
%TD*%
D18*
%TO.P,R6,1*%
%TO.N,FLP_I2C_SDA*%
X149090000Y-98600000D03*
%TO.P,R6,2*%
%TO.N,+3V3*%
X150110000Y-98600000D03*
%TD*%
D23*
%TO.P,U3,1,GND*%
%TO.N,GND*%
X112400000Y-98900000D03*
%TO.P,U3,2,VO*%
%TO.N,+3V3*%
X110500000Y-98900000D03*
%TO.P,U3,3,VI*%
%TO.N,+BATT*%
X111450000Y-100775000D03*
%TD*%
D24*
%TO.P,U1,1,RF_SW1*%
%TO.N,LORA_RF_SW*%
X125100000Y-101341250D03*
%TO.P,U1,2,MISO*%
%TO.N,LORA_SPI_MISO*%
X125100000Y-100071250D03*
%TO.P,U1,3,MOSI*%
%TO.N,LORA_SPI_MOSI*%
X125100000Y-98801250D03*
%TO.P,U1,4,SCK*%
%TO.N,LORA_SPI_SCK*%
X125100000Y-97531250D03*
%TO.P,U1,5,RST*%
%TO.N,LORA_RST*%
X125100000Y-96261250D03*
%TO.P,U1,6,NSS*%
%TO.N,LORA_NSS*%
X125100000Y-94991250D03*
%TO.P,U1,7,GND1*%
%TO.N,GND*%
X125100000Y-93721250D03*
%TO.P,U1,8,VCC*%
%TO.N,+3V3*%
X125100000Y-92451250D03*
%TO.P,U1,9,ANT*%
%TO.N,unconnected-(U1-ANT-Pad9)*%
X114700000Y-96261250D03*
%TO.P,U1,10,GND2*%
%TO.N,GND*%
X114700000Y-97531250D03*
%TO.P,U1,11,BUSY*%
%TO.N,LORA_BUSY*%
X114700000Y-98801250D03*
%TO.P,U1,12,DIO1*%
%TO.N,LORA_DIO1*%
X114700000Y-100071250D03*
%TD*%
D13*
%TO.P,FID2,*%
%TO.N,*%
X118534000Y-108056000D03*
%TD*%
D25*
%TO.P,U4,A1,TH*%
%TO.N,unconnected-(U4-TH-PadA1)*%
X110933000Y-103465000D03*
%TO.P,U4,A2,SCL*%
%TO.N,FLP_I2C_SCL*%
X110933000Y-103865000D03*
%TO.P,U4,A3,CSN*%
%TO.N,GND*%
X110933000Y-104265000D03*
%TO.P,U4,B1,BATT*%
%TO.N,+3V3*%
X110533000Y-103465000D03*
%TO.P,U4,B2,ALRT*%
%TO.N,unconnected-(U4-ALRT-PadB2)*%
X110533000Y-103865000D03*
%TO.P,U4,B3,REG*%
%TO.N,Net-(U4-REG)*%
X110533000Y-104265000D03*
%TO.P,U4,C1,SDA*%
%TO.N,FLP_I2C_SDA*%
X110133000Y-103465000D03*
%TO.P,U4,C2,CELLX*%
%TO.N,Net-(U4-CELLX)*%
X110133000Y-103865000D03*
%TO.P,U4,C3,GND/CSPL*%
%TO.N,-BATT*%
X110133000Y-104265000D03*
%TD*%
D11*
%TO.P,H4,1,1*%
%TO.N,GND*%
X103700000Y-93750000D03*
X104359010Y-92159010D03*
X104359010Y-95340990D03*
X105950000Y-91500000D03*
D12*
X105950000Y-93750000D03*
D11*
X105950000Y-96000000D03*
X107540990Y-92159010D03*
X107540990Y-95340990D03*
X108200000Y-93750000D03*
%TD*%
D26*
%TO.P,J1,1,Pin_1*%
%TO.N,+BATT*%
X105300000Y-101250000D03*
D27*
%TO.P,J1,2,Pin_2*%
%TO.N,-BATT*%
X105300000Y-103750000D03*
%TD*%
D14*
%TO.P,R4,1*%
%TO.N,-BATT*%
X108200000Y-105410000D03*
%TO.P,R4,2*%
%TO.N,Net-(U4-CELLX)*%
X108200000Y-104390000D03*
%TD*%
D22*
%TO.P,C6,1*%
%TO.N,+3V3*%
X127043000Y-92247000D03*
%TO.P,C6,2*%
%TO.N,GND*%
X127043000Y-94147000D03*
%TD*%
D11*
%TO.P,H1,1,1*%
%TO.N,GND*%
X173350000Y-93750000D03*
X174009010Y-92159010D03*
X174009010Y-95340990D03*
X175600000Y-91500000D03*
D12*
X175600000Y-93750000D03*
D11*
X175600000Y-96000000D03*
X177190990Y-92159010D03*
X177190990Y-95340990D03*
X177850000Y-93750000D03*
%TD*%
D28*
%TO.P,C2,1*%
%TO.N,+3V3*%
X110450000Y-96837500D03*
%TO.P,C2,2*%
%TO.N,GND*%
X112350000Y-96837500D03*
%TD*%
D13*
%TO.P,FID3,*%
%TO.N,*%
X170096000Y-93832000D03*
%TD*%
D10*
%TO.P,C1,1*%
%TO.N,+BATT*%
X108600000Y-100850000D03*
%TO.P,C1,2*%
%TO.N,GND*%
X108600000Y-98950000D03*
%TD*%
D29*
%TO.P,J2,1,Pin_1*%
%TO.N,unconnected-(J2-Pin_1-Pad1)*%
X147180000Y-112825000D03*
D30*
%TO.P,J2,2,Pin_2*%
%TO.N,FLP_PA14*%
X149720000Y-112825000D03*
%TO.P,J2,3,Pin_3*%
%TO.N,GND*%
X152260000Y-112825000D03*
%TO.P,J2,4,Pin_4*%
%TO.N,FLP_PA13*%
X154800000Y-112825000D03*
%TO.P,J2,5,Pin_5*%
%TO.N,FLP_TX*%
X157340000Y-112825000D03*
%TO.P,J2,6,Pin_6*%
%TO.N,FLP_RX*%
X159880000Y-112825000D03*
%TO.P,J2,7,Pin_7*%
%TO.N,FLP_I2C_SDA*%
X162420000Y-112825000D03*
%TO.P,J2,8,Pin_8*%
%TO.N,FLP_I2C_SCL*%
X164960000Y-112825000D03*
%TO.P,J2,9,Pin_9*%
%TO.N,FLP_PB14*%
X167500000Y-112825000D03*
%TO.P,J2,10,Pin_10*%
%TO.N,GND*%
X170040000Y-112825000D03*
%TD*%
D29*
%TO.P,J3,1,Pin_1*%
%TO.N,FLP_5V*%
X111620000Y-112825000D03*
D30*
%TO.P,J3,2,Pin_2*%
%TO.N,unconnected-(J3-Pin_2-Pad2)*%
X114160000Y-112825000D03*
%TO.P,J3,3,Pin_3*%
%TO.N,unconnected-(J3-Pin_3-Pad3)*%
X116700000Y-112825000D03*
%TO.P,J3,4,Pin_4*%
%TO.N,unconnected-(J3-Pin_4-Pad4)*%
X119240000Y-112825000D03*
%TO.P,J3,5,Pin_5*%
%TO.N,unconnected-(J3-Pin_5-Pad5)*%
X121780000Y-112825000D03*
%TO.P,J3,6,Pin_6*%
%TO.N,FLP_RTS*%
X124320000Y-112825000D03*
%TO.P,J3,7,Pin_7*%
%TO.N,FLP_DTR*%
X126860000Y-112825000D03*
%TO.P,J3,8,Pin_8*%
%TO.N,GND*%
X129400000Y-112825000D03*
%TD*%
D31*
%TO.N,GND*%
X161150000Y-110793000D03*
%TO.N,FLP_DTR*%
X141140000Y-103611000D03*
%TO.N,GND*%
X115700000Y-92100000D03*
X133665000Y-106260000D03*
X112350000Y-93237500D03*
X141902000Y-95610000D03*
X142410000Y-106532000D03*
X121709000Y-101325000D03*
X123900000Y-108200000D03*
X123360000Y-93832000D03*
D32*
X133901000Y-100436000D03*
D31*
X108300000Y-97600000D03*
X150792000Y-91673000D03*
X103400000Y-105900000D03*
X156070000Y-109269000D03*
X118534000Y-105262000D03*
X113816667Y-108200000D03*
X163492000Y-97515000D03*
X112650000Y-108200000D03*
X112350000Y-95337500D03*
X117010000Y-96626000D03*
X112350000Y-94287500D03*
X148704000Y-107548000D03*
X121201000Y-92054000D03*
X150157000Y-102849000D03*
X137300000Y-97600000D03*
X103400000Y-99100000D03*
X114983333Y-108200000D03*
X116150000Y-108200000D03*
%TO.N,+BATT*%
X141600000Y-98000000D03*
X139800000Y-98000000D03*
%TO.N,+3V3*%
X123233000Y-92054000D03*
X151100000Y-98600000D03*
X151100000Y-96100000D03*
X110450000Y-95337500D03*
X114978000Y-105897000D03*
X110450000Y-93187500D03*
X110450000Y-94237500D03*
%TO.N,LORA_NSS*%
X121582000Y-94594000D03*
X132504000Y-94975000D03*
%TO.N,LORA_RST*%
X122979000Y-96499000D03*
X132600000Y-97200000D03*
%TO.N,LORA_BUSY*%
X122598000Y-105516000D03*
X134790000Y-105389000D03*
%TO.N,LORA_DIO1*%
X122580500Y-106930500D03*
X133700000Y-108000000D03*
%TO.N,LORA_RF_SW*%
X126350000Y-101150000D03*
X132377000Y-101198000D03*
%TO.N,FLP_I2C_SCL*%
X115000000Y-103800000D03*
X143934000Y-99928000D03*
%TO.N,FLP_RX*%
X149395000Y-93451000D03*
%TO.N,FLP_I2C_SDA*%
X148600000Y-99500000D03*
X115232000Y-102087000D03*
%TO.N,FLP_TX*%
X143600000Y-94200000D03*
%TO.N,FLP_PB14*%
X159779108Y-108053061D03*
%TD*%
D33*
%TO.N,FLP_DTR*%
X140865000Y-102468000D02*
X140378000Y-102468000D01*
X140111500Y-102201500D02*
X139300000Y-102201500D01*
X141140000Y-103611000D02*
X141140000Y-103510000D01*
X141140000Y-103510000D02*
X141000000Y-103370000D01*
X141000000Y-102603000D02*
X140865000Y-102468000D01*
X141000000Y-103370000D02*
X141000000Y-102603000D01*
X140378000Y-102468000D02*
X140111500Y-102201500D01*
%TO.N,FLP_RTS*%
X129410500Y-111022500D02*
X137665500Y-111022500D01*
X137665500Y-111022500D02*
X138092000Y-110596000D01*
X138092000Y-110596000D02*
X138092000Y-108489500D01*
X128867034Y-111565966D02*
X129410500Y-111022500D01*
X138092000Y-108489500D02*
X139300000Y-107281500D01*
X124320000Y-112825000D02*
X125579034Y-111565966D01*
X125579034Y-111565966D02*
X128867034Y-111565966D01*
X139381500Y-107200000D02*
X139300000Y-107281500D01*
%TO.N,GND*%
X123778750Y-93721250D02*
X125100000Y-93721250D01*
D34*
X110933000Y-104265000D02*
X111483000Y-104815000D01*
D33*
X113327000Y-106151000D02*
X113816667Y-106640667D01*
X114731250Y-97500000D02*
X114700000Y-97531250D01*
D35*
X111734000Y-108200000D02*
X112650000Y-108200000D01*
D33*
X133756000Y-106260000D02*
X133665000Y-106260000D01*
D36*
X112650000Y-108200000D02*
X116150000Y-108200000D01*
D35*
X108600000Y-98950000D02*
X108600000Y-97900000D01*
D33*
X126342000Y-94147000D02*
X126027000Y-93832000D01*
D35*
X133556000Y-106151000D02*
X133665000Y-106260000D01*
D33*
X126027000Y-93832000D02*
X125632000Y-93832000D01*
X127000000Y-94350000D02*
X126797000Y-94147000D01*
X113327000Y-104815000D02*
X113327000Y-106151000D01*
D35*
X112350000Y-93237500D02*
X112350000Y-96837500D01*
D34*
X111483000Y-104815000D02*
X113327000Y-104815000D01*
D33*
X112400000Y-96887500D02*
X112350000Y-96837500D01*
X126797000Y-94147000D02*
X126342000Y-94147000D01*
D36*
X137300000Y-97600000D02*
X137300000Y-95680300D01*
D35*
X133665000Y-106260000D02*
X129916600Y-106260000D01*
X108600000Y-97900000D02*
X108300000Y-97600000D01*
D33*
X116136000Y-97500000D02*
X114731250Y-97500000D01*
X125521250Y-93721250D02*
X125100000Y-93721250D01*
X112400000Y-98900000D02*
X112400000Y-96887500D01*
X125632000Y-93832000D02*
X125521250Y-93721250D01*
D35*
X127297000Y-106979000D02*
X129197600Y-106979000D01*
X129916600Y-106260000D02*
X128840000Y-106260000D01*
D33*
X113816667Y-106640667D02*
X113816667Y-108200000D01*
X123360000Y-93832000D02*
X123392000Y-93800000D01*
X123668000Y-93832000D02*
X123778750Y-93721250D01*
D35*
X129197600Y-106979000D02*
X129916600Y-106260000D01*
D33*
X123360000Y-93832000D02*
X123668000Y-93832000D01*
X117010000Y-96626000D02*
X116136000Y-97500000D01*
D36*
%TO.N,+BATT*%
X139800000Y-97416000D02*
X139800000Y-98000000D01*
X105400000Y-101350000D02*
X108100000Y-101350000D01*
X139808000Y-97992000D02*
X139800000Y-98000000D01*
D33*
X108200000Y-101450000D02*
X108100000Y-101350000D01*
X108200000Y-102390000D02*
X108200000Y-101450000D01*
D36*
X139808000Y-95648300D02*
X139808000Y-97992000D01*
X139808000Y-97408000D02*
X139800000Y-97416000D01*
X139800000Y-98000000D02*
X141600000Y-98000000D01*
D35*
X108675000Y-100775000D02*
X111450000Y-100775000D01*
X108100000Y-101350000D02*
X108675000Y-100775000D01*
D36*
X139808000Y-95648300D02*
X139808000Y-97408000D01*
D37*
%TO.N,+3V3*%
X116121000Y-105262000D02*
X116121000Y-103386636D01*
D34*
X113327000Y-102915000D02*
X113388000Y-102976000D01*
D33*
X110500000Y-98900000D02*
X110500000Y-96887500D01*
X123630250Y-92451250D02*
X125100000Y-92451250D01*
D34*
X110533000Y-102849000D02*
X110660000Y-102722000D01*
D33*
X125101250Y-92450000D02*
X125100000Y-92451250D01*
D37*
X115486000Y-105897000D02*
X116121000Y-105262000D01*
D35*
X110450000Y-96837500D02*
X110450000Y-93187500D01*
D34*
X110533000Y-103465000D02*
X110533000Y-102849000D01*
D33*
X123233000Y-92054000D02*
X123630250Y-92451250D01*
X110500000Y-96887500D02*
X110450000Y-96837500D01*
D37*
X114978000Y-105897000D02*
X115486000Y-105897000D01*
D33*
X151100000Y-96100000D02*
X150110000Y-96100000D01*
D37*
X116121000Y-103386636D02*
X115710364Y-102976000D01*
X115710364Y-102976000D02*
X113388000Y-102976000D01*
D33*
X127000000Y-92450000D02*
X125101250Y-92450000D01*
D34*
X110660000Y-102722000D02*
X113134000Y-102722000D01*
D33*
X151100000Y-98600000D02*
X150110000Y-98600000D01*
D34*
X113134000Y-102722000D02*
X113327000Y-102915000D01*
D35*
%TO.N,LORA_SPI_SCK*%
X129916600Y-96100000D02*
X129716600Y-96300000D01*
D37*
X128639000Y-96300000D02*
X127439000Y-97500000D01*
X127439000Y-97500000D02*
X125131250Y-97500000D01*
D33*
X125131250Y-97500000D02*
X125100000Y-97531250D01*
D37*
X129716600Y-96300000D02*
X128639000Y-96300000D01*
%TO.N,LORA_SPI_MISO*%
X125908500Y-99991500D02*
X125828750Y-100071250D01*
X125828750Y-100071250D02*
X125100000Y-100071250D01*
X126471500Y-99991500D02*
X125908500Y-99991500D01*
X127823000Y-98640000D02*
X126471500Y-99991500D01*
X129916600Y-98640000D02*
X127823000Y-98640000D01*
%TO.N,LORA_SPI_MOSI*%
X124341000Y-102341000D02*
X127159000Y-102341000D01*
X123700000Y-101700000D02*
X124341000Y-102341000D01*
X124298750Y-98801250D02*
X123700000Y-99400000D01*
X128320000Y-101180000D02*
X129916600Y-101180000D01*
X125100000Y-98801250D02*
X124298750Y-98801250D01*
X123700000Y-99400000D02*
X123700000Y-101700000D01*
X127159000Y-102341000D02*
X128320000Y-101180000D01*
D33*
%TO.N,LORA_NSS*%
X142646000Y-101180000D02*
X140759000Y-99293000D01*
X146081600Y-101180000D02*
X142646000Y-101180000D01*
X121709000Y-94594000D02*
X122106250Y-94991250D01*
X140759000Y-99293000D02*
X136568000Y-99293000D01*
X121582000Y-94594000D02*
X121709000Y-94594000D01*
X136568000Y-99293000D02*
X132504000Y-95229000D01*
X122106250Y-94991250D02*
X125100000Y-94991250D01*
X132504000Y-95229000D02*
X132504000Y-94975000D01*
%TO.N,LORA_RST*%
X132600000Y-97200000D02*
X133078000Y-97200000D01*
X144170000Y-103720000D02*
X146081600Y-103720000D01*
D35*
X125061250Y-96300000D02*
X125100000Y-96261250D01*
D33*
X125006250Y-96245000D02*
X125061250Y-96300000D01*
X122979000Y-96499000D02*
X123233000Y-96245000D01*
X123233000Y-96245000D02*
X125006250Y-96245000D01*
X140505000Y-100055000D02*
X144170000Y-103720000D01*
X135933000Y-100055000D02*
X140505000Y-100055000D01*
X133078000Y-97200000D02*
X135933000Y-100055000D01*
%TO.N,LORA_BUSY*%
X116518250Y-98801250D02*
X114700000Y-98801250D01*
X136501500Y-105000000D02*
X136760000Y-104741500D01*
X122598000Y-105516000D02*
X122598000Y-104881000D01*
X122598000Y-104881000D02*
X116518250Y-98801250D01*
X135179000Y-105000000D02*
X136501500Y-105000000D01*
X134790000Y-105389000D02*
X135179000Y-105000000D01*
%TO.N,LORA_DIO1*%
X121582000Y-104874096D02*
X116779154Y-100071250D01*
X121582000Y-105932000D02*
X121582000Y-104874096D01*
X122580500Y-106930500D02*
X121582000Y-105932000D01*
X133700000Y-108236000D02*
X135285500Y-109821500D01*
X135285500Y-109821500D02*
X136760000Y-109821500D01*
X116779154Y-100071250D02*
X114700000Y-100071250D01*
X133700000Y-108000000D02*
X133700000Y-108236000D01*
%TO.N,LORA_RF_SW*%
X132504000Y-101198000D02*
X134846500Y-103540500D01*
X138085000Y-103540500D02*
X138092000Y-103533500D01*
D35*
X126350000Y-101150000D02*
X126158750Y-101341250D01*
X126158750Y-101341250D02*
X125100000Y-101341250D01*
D33*
X132377000Y-101198000D02*
X132504000Y-101198000D01*
X134846500Y-103540500D02*
X138085000Y-103540500D01*
X132377000Y-101198000D02*
X132377000Y-100923000D01*
X138092000Y-103533500D02*
X139300000Y-104741500D01*
%TO.N,Net-(U4-CELLX)*%
X108200000Y-103900000D02*
X108200000Y-104390000D01*
X108200000Y-103410000D02*
X108200000Y-103900000D01*
D34*
X108200000Y-103900000D02*
X108235000Y-103865000D01*
X108235000Y-103865000D02*
X110133000Y-103865000D01*
%TO.N,Net-(U4-REG)*%
X111800000Y-106300000D02*
X112150000Y-106650000D01*
X110533000Y-104265000D02*
X110533000Y-105135000D01*
X111698000Y-106300000D02*
X111800000Y-106300000D01*
X110533000Y-105135000D02*
X111698000Y-106300000D01*
D36*
%TO.N,-BATT*%
X109500000Y-108200000D02*
X109200000Y-108200000D01*
D34*
X110133000Y-104265000D02*
X108988000Y-105410000D01*
D36*
X109200000Y-108200000D02*
X105400000Y-104400000D01*
D33*
X109850000Y-107850000D02*
X109500000Y-108200000D01*
X107750000Y-106450000D02*
X108200000Y-106000000D01*
D35*
X109500000Y-108200000D02*
X110390000Y-108200000D01*
D34*
X108988000Y-105410000D02*
X108200000Y-105410000D01*
D33*
X109850000Y-106700000D02*
X109850000Y-107850000D01*
X108200000Y-106000000D02*
X108200000Y-105410000D01*
%TO.N,FLP_PA14*%
X140378000Y-110596000D02*
X147696000Y-110596000D01*
X139582000Y-109800000D02*
X140378000Y-110596000D01*
X147696000Y-110596000D02*
X149740000Y-112640000D01*
D35*
X149740000Y-112640000D02*
X149740000Y-112800000D01*
X139300000Y-109821500D02*
X139321500Y-109800000D01*
D33*
X139321500Y-109800000D02*
X139582000Y-109800000D01*
D37*
%TO.N,FLP_I2C_SCL*%
X143900000Y-96800000D02*
X144600000Y-96100000D01*
X153630000Y-97293000D02*
X160698000Y-97293000D01*
D33*
X146081600Y-96100000D02*
X147400000Y-96100000D01*
D37*
X160698000Y-97293000D02*
X163111000Y-99706000D01*
X143934000Y-99928000D02*
X143934000Y-99488000D01*
X163111000Y-110931000D02*
X164980000Y-112800000D01*
X143934000Y-99488000D02*
X143900000Y-99454000D01*
D34*
X114935000Y-103865000D02*
X115000000Y-103800000D01*
X114975000Y-103775000D02*
X115000000Y-103800000D01*
D37*
X163111000Y-99706000D02*
X163111000Y-110931000D01*
D34*
X110933000Y-103865000D02*
X114935000Y-103865000D01*
D37*
X147800000Y-96100000D02*
X148993000Y-97293000D01*
D33*
X146081600Y-96100000D02*
X147800000Y-96100000D01*
D35*
X144600000Y-96100000D02*
X144900000Y-96100000D01*
D33*
X144900000Y-96100000D02*
X146081600Y-96100000D01*
X146781600Y-96100000D02*
X149090000Y-96100000D01*
D37*
X148993000Y-97293000D02*
X153630000Y-97293000D01*
X143900000Y-99454000D02*
X143900000Y-96800000D01*
D33*
%TO.N,FLP_PA13*%
X150820000Y-108800000D02*
X154820000Y-112800000D01*
X146081600Y-108800000D02*
X150820000Y-108800000D01*
%TO.N,FLP_RX*%
X149232000Y-93451000D02*
X149123000Y-93560000D01*
D37*
X149014000Y-93451000D02*
X146190600Y-93451000D01*
D33*
X149395000Y-93451000D02*
X149232000Y-93451000D01*
D37*
X146190600Y-93451000D02*
X146081600Y-93560000D01*
X149123000Y-93560000D02*
X149014000Y-93451000D01*
D35*
%TO.N,FLP_I2C_SDA*%
X162440000Y-112740000D02*
X162380000Y-112800000D01*
X162476000Y-112764000D02*
X162440000Y-112800000D01*
X148600000Y-99500000D02*
X147740000Y-98640000D01*
D37*
X153630000Y-99293000D02*
X161079000Y-99293000D01*
D33*
X162440000Y-112740000D02*
X162440000Y-112800000D01*
D37*
X161079000Y-99293000D02*
X162440000Y-100654000D01*
X162440000Y-100654000D02*
X162440000Y-112800000D01*
D34*
X110133000Y-103375000D02*
X110133000Y-102487000D01*
D33*
X149050000Y-98640000D02*
X149090000Y-98600000D01*
D35*
X147740000Y-98640000D02*
X146081600Y-98640000D01*
D34*
X110533000Y-102087000D02*
X115232000Y-102087000D01*
D37*
X148600000Y-99500000D02*
X153423000Y-99500000D01*
X146781600Y-98640000D02*
X149050000Y-98640000D01*
D34*
X110133000Y-102487000D02*
X110533000Y-102087000D01*
D35*
X153423000Y-99500000D02*
X153630000Y-99293000D01*
%TO.N,FLP_TX*%
X130027658Y-93448942D02*
X130849000Y-93448942D01*
X129916600Y-93560000D02*
X130027658Y-93448942D01*
D37*
X130442600Y-94086000D02*
X129916600Y-93560000D01*
X143486000Y-94086000D02*
X130442600Y-94086000D01*
X143600000Y-94200000D02*
X143486000Y-94086000D01*
D35*
X130849000Y-93448942D02*
X131000058Y-93600000D01*
D36*
%TO.N,FLP_5V*%
X112686000Y-110514000D02*
X128202600Y-110514000D01*
X111620000Y-112825000D02*
X111620000Y-111580000D01*
D35*
X127419000Y-109072000D02*
X129644600Y-109072000D01*
D36*
X111620000Y-111580000D02*
X112686000Y-110514000D01*
D35*
X129644600Y-109072000D02*
X129916600Y-108800000D01*
D36*
X128202600Y-110514000D02*
X129916600Y-108800000D01*
D33*
%TO.N,FLP_PB14*%
X153078000Y-107421000D02*
X151917000Y-106260000D01*
X151917000Y-106260000D02*
X146081600Y-106260000D01*
X159147047Y-107421000D02*
X153078000Y-107421000D01*
X159779108Y-108053061D02*
X159147047Y-107421000D01*
%TD*%
%TA.AperFunction,Conductor*%
%TO.N,GND*%
G36*
X127938539Y-90320185D02*
G01*
X127984294Y-90372989D01*
X127995500Y-90424500D01*
X127995500Y-91192877D01*
X127975815Y-91259916D01*
X127923011Y-91305671D01*
X127853853Y-91315615D01*
X127832496Y-91310583D01*
X127670797Y-91257001D01*
X127670795Y-91257000D01*
X127568010Y-91246500D01*
X126517998Y-91246500D01*
X126517980Y-91246501D01*
X126415203Y-91257000D01*
X126415200Y-91257001D01*
X126248668Y-91312185D01*
X126248663Y-91312187D01*
X126099342Y-91404289D01*
X125975289Y-91528342D01*
X125923072Y-91613000D01*
X125871124Y-91659725D01*
X125802161Y-91670946D01*
X125786104Y-91667179D01*
X125786047Y-91667432D01*
X125779249Y-91665880D01*
X125644960Y-91650750D01*
X125644954Y-91650750D01*
X124555046Y-91650750D01*
X124555039Y-91650750D01*
X124420746Y-91665881D01*
X124420745Y-91665881D01*
X124380663Y-91679906D01*
X124369954Y-91683119D01*
X124361947Y-91685132D01*
X124353042Y-91686148D01*
X124237424Y-91716449D01*
X124236719Y-91716627D01*
X124202407Y-91715280D01*
X124168071Y-91714275D01*
X124167542Y-91713913D01*
X124166903Y-91713888D01*
X124138788Y-91694220D01*
X124110425Y-91674796D01*
X124109997Y-91674080D01*
X124109651Y-91673838D01*
X124109210Y-91672764D01*
X124091914Y-91643825D01*
X124084323Y-91625500D01*
X124075322Y-91603769D01*
X124075320Y-91603766D01*
X124075318Y-91603762D01*
X123971302Y-91448092D01*
X123971299Y-91448088D01*
X123838911Y-91315700D01*
X123838907Y-91315697D01*
X123683237Y-91211681D01*
X123683228Y-91211676D01*
X123510251Y-91140027D01*
X123510243Y-91140025D01*
X123326620Y-91103500D01*
X123326616Y-91103500D01*
X123139384Y-91103500D01*
X123139379Y-91103500D01*
X122955756Y-91140025D01*
X122955748Y-91140027D01*
X122782771Y-91211676D01*
X122782762Y-91211681D01*
X122627092Y-91315697D01*
X122627088Y-91315700D01*
X122494700Y-91448088D01*
X122494697Y-91448092D01*
X122390681Y-91603762D01*
X122390676Y-91603771D01*
X122319027Y-91776748D01*
X122319025Y-91776756D01*
X122282500Y-91960379D01*
X122282500Y-92147620D01*
X122319025Y-92331243D01*
X122319027Y-92331251D01*
X122390676Y-92504228D01*
X122390681Y-92504237D01*
X122494697Y-92659907D01*
X122494700Y-92659911D01*
X122627088Y-92792299D01*
X122627092Y-92792302D01*
X122782762Y-92896318D01*
X122782771Y-92896323D01*
X122802925Y-92904671D01*
X122955749Y-92967973D01*
X123120592Y-93000762D01*
X123139379Y-93004499D01*
X123139383Y-93004500D01*
X123139384Y-93004500D01*
X123249764Y-93004500D01*
X123316803Y-93024185D01*
X123318620Y-93025374D01*
X123322123Y-93027715D01*
X123440506Y-93076751D01*
X123440510Y-93076751D01*
X123440511Y-93076752D01*
X123566178Y-93101750D01*
X123566181Y-93101750D01*
X123820079Y-93101750D01*
X123887118Y-93121435D01*
X123932873Y-93174239D01*
X123942817Y-93243397D01*
X123925073Y-93291722D01*
X123874663Y-93371948D01*
X123815122Y-93542108D01*
X123800000Y-93676319D01*
X123800000Y-93766180D01*
X123815122Y-93900391D01*
X123874663Y-94070551D01*
X123925073Y-94150778D01*
X123944073Y-94218015D01*
X123923705Y-94284850D01*
X123870437Y-94330064D01*
X123820079Y-94340750D01*
X122588769Y-94340750D01*
X122521730Y-94321065D01*
X122475975Y-94268261D01*
X122474208Y-94264203D01*
X122427225Y-94150778D01*
X122424322Y-94143769D01*
X122424320Y-94143766D01*
X122424318Y-94143762D01*
X122320302Y-93988092D01*
X122320299Y-93988088D01*
X122187911Y-93855700D01*
X122187907Y-93855697D01*
X122032237Y-93751681D01*
X122032228Y-93751676D01*
X121859251Y-93680027D01*
X121859243Y-93680025D01*
X121675620Y-93643500D01*
X121675616Y-93643500D01*
X121488384Y-93643500D01*
X121488379Y-93643500D01*
X121304756Y-93680025D01*
X121304748Y-93680027D01*
X121131771Y-93751676D01*
X121131762Y-93751681D01*
X120976092Y-93855697D01*
X120976088Y-93855700D01*
X120843700Y-93988088D01*
X120843697Y-93988092D01*
X120739681Y-94143762D01*
X120739676Y-94143771D01*
X120668027Y-94316748D01*
X120668025Y-94316756D01*
X120631500Y-94500379D01*
X120631500Y-94687620D01*
X120668025Y-94871243D01*
X120668027Y-94871251D01*
X120739676Y-95044228D01*
X120739681Y-95044237D01*
X120843697Y-95199907D01*
X120843700Y-95199911D01*
X120976088Y-95332299D01*
X120976092Y-95332302D01*
X121131762Y-95436318D01*
X121131768Y-95436321D01*
X121131769Y-95436322D01*
X121304749Y-95507973D01*
X121420751Y-95531047D01*
X121488379Y-95544499D01*
X121488383Y-95544500D01*
X121488384Y-95544500D01*
X121675616Y-95544500D01*
X121692868Y-95541068D01*
X121762459Y-95547294D01*
X121785954Y-95559584D01*
X121798122Y-95567715D01*
X121834821Y-95582916D01*
X121916506Y-95616751D01*
X121916510Y-95616751D01*
X121916511Y-95616752D01*
X122042178Y-95641750D01*
X122042181Y-95641750D01*
X122192677Y-95641750D01*
X122259716Y-95661435D01*
X122305471Y-95714239D01*
X122315415Y-95783397D01*
X122286390Y-95846953D01*
X122280358Y-95853431D01*
X122240700Y-95893088D01*
X122240697Y-95893092D01*
X122136681Y-96048762D01*
X122136676Y-96048771D01*
X122065027Y-96221748D01*
X122065025Y-96221756D01*
X122028500Y-96405379D01*
X122028500Y-96592620D01*
X122065025Y-96776243D01*
X122065027Y-96776251D01*
X122136676Y-96949228D01*
X122136681Y-96949237D01*
X122240697Y-97104907D01*
X122240700Y-97104911D01*
X122373088Y-97237299D01*
X122373092Y-97237302D01*
X122528762Y-97341318D01*
X122528771Y-97341323D01*
X122567956Y-97357554D01*
X122701749Y-97412973D01*
X122885379Y-97449499D01*
X122885383Y-97449500D01*
X122885384Y-97449500D01*
X123072617Y-97449500D01*
X123072618Y-97449499D01*
X123256251Y-97412973D01*
X123429231Y-97341322D01*
X123584908Y-97237302D01*
X123615859Y-97206351D01*
X123677181Y-97172865D01*
X123746873Y-97177849D01*
X123802807Y-97219719D01*
X123827225Y-97285183D01*
X123820584Y-97334983D01*
X123814632Y-97351993D01*
X123814630Y-97352000D01*
X123799500Y-97486289D01*
X123799500Y-97576210D01*
X123814630Y-97710499D01*
X123814631Y-97710504D01*
X123874211Y-97880773D01*
X123970184Y-98033512D01*
X124015240Y-98078568D01*
X124019578Y-98086513D01*
X124026827Y-98091940D01*
X124036061Y-98116699D01*
X124048725Y-98139891D01*
X124048079Y-98148921D01*
X124051243Y-98157405D01*
X124045626Y-98183223D01*
X124043741Y-98209583D01*
X124037921Y-98218638D01*
X124036390Y-98225678D01*
X124015239Y-98253932D01*
X123985126Y-98284044D01*
X123959448Y-98303747D01*
X123930034Y-98320729D01*
X123901401Y-98349363D01*
X123818230Y-98432534D01*
X123818228Y-98432536D01*
X123745200Y-98505564D01*
X123732745Y-98518019D01*
X123727023Y-98523390D01*
X123692006Y-98554231D01*
X123679694Y-98565440D01*
X123679176Y-98565927D01*
X123679175Y-98565929D01*
X123632006Y-98616863D01*
X123631778Y-98617170D01*
X123620103Y-98630660D01*
X123331286Y-98919478D01*
X123219481Y-99031282D01*
X123219479Y-99031285D01*
X123169361Y-99118094D01*
X123169359Y-99118096D01*
X123140425Y-99168209D01*
X123140424Y-99168210D01*
X123140423Y-99168215D01*
X123099499Y-99320943D01*
X123099499Y-99320945D01*
X123099499Y-99489046D01*
X123099500Y-99489059D01*
X123099500Y-101613330D01*
X123099499Y-101613348D01*
X123099499Y-101779054D01*
X123099498Y-101779054D01*
X123140424Y-101931789D01*
X123140425Y-101931790D01*
X123163101Y-101971065D01*
X123163102Y-101971066D01*
X123219477Y-102068712D01*
X123219481Y-102068717D01*
X123338349Y-102187585D01*
X123338355Y-102187590D01*
X123856139Y-102705374D01*
X123856149Y-102705385D01*
X123860479Y-102709715D01*
X123860480Y-102709716D01*
X123972284Y-102821520D01*
X124050111Y-102866453D01*
X124109215Y-102900577D01*
X124261943Y-102941501D01*
X124261946Y-102941501D01*
X124427653Y-102941501D01*
X124427669Y-102941500D01*
X127072331Y-102941500D01*
X127072347Y-102941501D01*
X127079943Y-102941501D01*
X127238054Y-102941501D01*
X127238057Y-102941501D01*
X127390785Y-102900577D01*
X127449889Y-102866453D01*
X127527716Y-102821520D01*
X127639520Y-102709716D01*
X127639520Y-102709714D01*
X127649724Y-102699511D01*
X127649728Y-102699506D01*
X127916212Y-102433021D01*
X127930171Y-102425399D01*
X127941061Y-102413800D01*
X127960209Y-102408997D01*
X127977533Y-102399538D01*
X127994219Y-102400467D01*
X128008832Y-102396802D01*
X128043538Y-102403212D01*
X128166638Y-102444754D01*
X128223863Y-102484840D01*
X128250333Y-102549502D01*
X128237641Y-102618209D01*
X128223093Y-102640602D01*
X128201905Y-102666588D01*
X128201904Y-102666590D01*
X128201902Y-102666593D01*
X128174059Y-102719896D01*
X128107689Y-102846954D01*
X128074451Y-102963119D01*
X128051830Y-103042179D01*
X128051714Y-103042583D01*
X128051713Y-103042586D01*
X128044207Y-103127016D01*
X128041733Y-103154851D01*
X128041100Y-103161966D01*
X128041100Y-104278028D01*
X128041101Y-104278034D01*
X128051713Y-104397415D01*
X128107689Y-104593045D01*
X128107690Y-104593048D01*
X128107691Y-104593049D01*
X128201902Y-104773407D01*
X128214532Y-104788896D01*
X128314938Y-104912035D01*
X128342047Y-104976432D01*
X128330038Y-105045261D01*
X128314938Y-105068757D01*
X128202321Y-105206870D01*
X128108157Y-105387138D01*
X128052209Y-105582671D01*
X128052208Y-105582674D01*
X128041600Y-105701999D01*
X128041600Y-105898595D01*
X128021915Y-105965634D01*
X127969111Y-106011389D01*
X127899953Y-106021333D01*
X127878597Y-106016301D01*
X127797701Y-105989495D01*
X127797690Y-105989493D01*
X127694986Y-105979000D01*
X127420000Y-105979000D01*
X127420000Y-106855000D01*
X127400315Y-106922039D01*
X127347511Y-106967794D01*
X127296000Y-106979000D01*
X127170000Y-106979000D01*
X127170000Y-107105000D01*
X127150315Y-107172039D01*
X127097511Y-107217794D01*
X127046000Y-107229000D01*
X125945001Y-107229000D01*
X125945001Y-107278986D01*
X125955494Y-107381697D01*
X126010641Y-107548119D01*
X126010643Y-107548124D01*
X126102684Y-107697345D01*
X126226655Y-107821316D01*
X126226659Y-107821319D01*
X126229656Y-107823168D01*
X126231279Y-107824972D01*
X126232323Y-107825798D01*
X126232181Y-107825976D01*
X126276381Y-107875116D01*
X126287602Y-107944079D01*
X126259759Y-108008161D01*
X126229661Y-108034241D01*
X126226349Y-108036283D01*
X126226343Y-108036288D01*
X126102289Y-108160342D01*
X126010187Y-108309663D01*
X126010185Y-108309668D01*
X125997540Y-108347829D01*
X125955001Y-108476203D01*
X125955001Y-108476204D01*
X125955000Y-108476204D01*
X125944500Y-108578983D01*
X125944500Y-109179001D01*
X125944501Y-109179019D01*
X125955000Y-109281796D01*
X125966166Y-109315491D01*
X125977766Y-109350497D01*
X125980168Y-109420323D01*
X125944437Y-109480366D01*
X125881917Y-109511559D01*
X125860060Y-109513500D01*
X112587454Y-109513500D01*
X112555391Y-109519876D01*
X112555392Y-109519877D01*
X112394170Y-109551946D01*
X112394164Y-109551948D01*
X112212088Y-109627366D01*
X112212079Y-109627371D01*
X112048219Y-109736859D01*
X112048215Y-109736862D01*
X111232674Y-110552405D01*
X110982220Y-110802859D01*
X110982218Y-110802861D01*
X110919943Y-110865136D01*
X110842859Y-110942219D01*
X110733371Y-111106079D01*
X110733364Y-111106092D01*
X110689396Y-111212244D01*
X110685562Y-111221501D01*
X110660207Y-111282711D01*
X110660205Y-111282719D01*
X110658093Y-111287819D01*
X110657948Y-111288168D01*
X110657947Y-111288171D01*
X110629661Y-111430371D01*
X110597276Y-111492282D01*
X110551380Y-111522360D01*
X110527665Y-111531205D01*
X110412455Y-111617452D01*
X110412452Y-111617455D01*
X110326206Y-111732664D01*
X110326202Y-111732671D01*
X110275908Y-111867517D01*
X110269501Y-111927116D01*
X110269500Y-111927135D01*
X110269500Y-113722870D01*
X110269501Y-113722876D01*
X110275908Y-113782483D01*
X110329303Y-113925641D01*
X110327724Y-113926229D01*
X110340370Y-113984338D01*
X110315957Y-114049804D01*
X110260026Y-114091679D01*
X110216685Y-114099500D01*
X107270789Y-114099500D01*
X107203750Y-114079815D01*
X107157995Y-114027011D01*
X107148051Y-113957853D01*
X107177076Y-113894297D01*
X107223336Y-113860939D01*
X107448241Y-113767780D01*
X107448255Y-113767773D01*
X107751518Y-113605677D01*
X107751536Y-113605666D01*
X108037453Y-113414622D01*
X108037466Y-113414612D01*
X108242659Y-113246213D01*
X108242659Y-113246212D01*
X106819105Y-111822659D01*
X106927184Y-111744136D01*
X107094136Y-111577184D01*
X107172659Y-111469105D01*
X108596212Y-112892659D01*
X108596213Y-112892659D01*
X108764612Y-112687466D01*
X108764622Y-112687453D01*
X108955666Y-112401536D01*
X108955677Y-112401518D01*
X109117773Y-112098255D01*
X109117780Y-112098241D01*
X109249376Y-111780540D01*
X109349207Y-111451443D01*
X109349208Y-111451437D01*
X109416291Y-111114182D01*
X109416294Y-111114165D01*
X109450000Y-110771940D01*
X109450000Y-110428059D01*
X109416294Y-110085834D01*
X109416291Y-110085817D01*
X109349208Y-109748562D01*
X109349207Y-109748556D01*
X109249376Y-109419459D01*
X109229698Y-109371953D01*
X109222229Y-109302484D01*
X109253504Y-109240004D01*
X109313593Y-109204352D01*
X109344259Y-109200500D01*
X109598543Y-109200500D01*
X109728582Y-109174632D01*
X109791835Y-109162051D01*
X109973914Y-109086632D01*
X110052642Y-109034026D01*
X110119318Y-109013148D01*
X110148470Y-109017033D01*
X110148563Y-109016527D01*
X110154791Y-109017663D01*
X110154796Y-109017665D01*
X110190819Y-109020500D01*
X110589180Y-109020499D01*
X110625204Y-109017665D01*
X110779393Y-108972869D01*
X110837369Y-108938581D01*
X110905093Y-108921398D01*
X110963612Y-108938581D01*
X111020808Y-108972406D01*
X111020811Y-108972407D01*
X111174870Y-109017166D01*
X111174876Y-109017167D01*
X111210864Y-109019999D01*
X111210880Y-109020000D01*
X111609120Y-109020000D01*
X111609135Y-109019999D01*
X111645123Y-109017167D01*
X111645129Y-109017166D01*
X111799188Y-108972407D01*
X111799191Y-108972406D01*
X111937285Y-108890738D01*
X111937294Y-108890731D01*
X112050731Y-108777294D01*
X112050738Y-108777285D01*
X112132406Y-108639191D01*
X112132407Y-108639188D01*
X112177166Y-108485129D01*
X112177167Y-108485123D01*
X112179999Y-108449135D01*
X112180000Y-108449120D01*
X112180000Y-108154543D01*
X117533499Y-108154543D01*
X117571947Y-108347829D01*
X117571950Y-108347839D01*
X117647364Y-108529907D01*
X117647371Y-108529920D01*
X117756860Y-108693781D01*
X117756863Y-108693785D01*
X117896214Y-108833136D01*
X117896218Y-108833139D01*
X118060079Y-108942628D01*
X118060092Y-108942635D01*
X118230328Y-109013148D01*
X118242165Y-109018051D01*
X118242169Y-109018051D01*
X118242170Y-109018052D01*
X118435456Y-109056500D01*
X118435459Y-109056500D01*
X118632543Y-109056500D01*
X118783309Y-109026510D01*
X118825835Y-109018051D01*
X118966655Y-108959721D01*
X119007907Y-108942635D01*
X119007907Y-108942634D01*
X119007914Y-108942632D01*
X119171782Y-108833139D01*
X119311139Y-108693782D01*
X119420632Y-108529914D01*
X119496051Y-108347835D01*
X119517110Y-108241964D01*
X119534500Y-108154543D01*
X119534500Y-107957456D01*
X119496052Y-107764170D01*
X119496051Y-107764169D01*
X119496051Y-107764165D01*
X119496049Y-107764160D01*
X119420635Y-107582092D01*
X119420628Y-107582079D01*
X119311139Y-107418218D01*
X119311136Y-107418214D01*
X119171785Y-107278863D01*
X119171781Y-107278860D01*
X119007920Y-107169371D01*
X119007907Y-107169364D01*
X118825839Y-107093950D01*
X118825829Y-107093947D01*
X118632543Y-107055500D01*
X118632541Y-107055500D01*
X118435459Y-107055500D01*
X118435457Y-107055500D01*
X118242170Y-107093947D01*
X118242160Y-107093950D01*
X118060092Y-107169364D01*
X118060079Y-107169371D01*
X117896218Y-107278860D01*
X117896214Y-107278863D01*
X117756863Y-107418214D01*
X117756860Y-107418218D01*
X117647371Y-107582079D01*
X117647364Y-107582092D01*
X117571950Y-107764160D01*
X117571947Y-107764170D01*
X117533500Y-107957456D01*
X117533500Y-107957459D01*
X117533500Y-108154541D01*
X117533500Y-108154543D01*
X117533499Y-108154543D01*
X112180000Y-108154543D01*
X112180000Y-107995525D01*
X112185428Y-107977037D01*
X112185886Y-107957774D01*
X112195069Y-107944203D01*
X112199685Y-107928486D01*
X112214245Y-107915869D01*
X112225046Y-107899910D01*
X112246097Y-107888269D01*
X112252489Y-107882731D01*
X112255182Y-107881539D01*
X112260001Y-107879474D01*
X112319334Y-107859814D01*
X112468656Y-107767712D01*
X112592712Y-107643656D01*
X112684814Y-107494334D01*
X112739999Y-107327797D01*
X112750500Y-107225009D01*
X112750499Y-106174992D01*
X112750423Y-106174251D01*
X112739999Y-106072203D01*
X112739998Y-106072200D01*
X112735540Y-106058746D01*
X112708783Y-105978002D01*
X112706382Y-105908175D01*
X112742114Y-105848133D01*
X112804634Y-105816940D01*
X112826490Y-105814999D01*
X113851971Y-105814999D01*
X113851986Y-105814998D01*
X113890898Y-105811023D01*
X113959591Y-105823792D01*
X114010475Y-105871673D01*
X114027500Y-105934381D01*
X114027500Y-105990620D01*
X114064025Y-106174243D01*
X114064027Y-106174251D01*
X114135676Y-106347228D01*
X114135681Y-106347237D01*
X114239697Y-106502907D01*
X114239700Y-106502911D01*
X114372088Y-106635299D01*
X114372092Y-106635302D01*
X114527762Y-106739318D01*
X114527768Y-106739321D01*
X114527769Y-106739322D01*
X114700749Y-106810973D01*
X114869473Y-106844534D01*
X114884379Y-106847499D01*
X114884383Y-106847500D01*
X114884384Y-106847500D01*
X115071617Y-106847500D01*
X115071618Y-106847499D01*
X115255251Y-106810973D01*
X115428231Y-106739322D01*
X115583908Y-106635302D01*
X115716302Y-106502908D01*
X115749708Y-106452910D01*
X115790810Y-106414415D01*
X115854716Y-106377520D01*
X115966520Y-106265716D01*
X115966520Y-106265714D01*
X115976724Y-106255511D01*
X115976727Y-106255506D01*
X116601520Y-105630716D01*
X116680577Y-105493784D01*
X116721501Y-105341057D01*
X116721501Y-105182942D01*
X116721501Y-105175347D01*
X116721500Y-105175329D01*
X116721500Y-103475695D01*
X116721501Y-103475682D01*
X116721501Y-103307581D01*
X116721501Y-103307579D01*
X116680577Y-103154851D01*
X116644729Y-103092761D01*
X116603072Y-103020608D01*
X116601522Y-103017923D01*
X116601521Y-103017922D01*
X116601520Y-103017920D01*
X116489716Y-102906116D01*
X116489715Y-102906115D01*
X116485385Y-102901785D01*
X116485374Y-102901775D01*
X116197953Y-102614354D01*
X116190884Y-102607285D01*
X116190884Y-102607284D01*
X116146530Y-102562930D01*
X116130114Y-102532866D01*
X116113046Y-102501608D01*
X116118030Y-102431916D01*
X116119651Y-102427797D01*
X116120644Y-102425399D01*
X116145973Y-102364251D01*
X116182500Y-102180616D01*
X116182500Y-101993384D01*
X116145973Y-101809749D01*
X116074322Y-101636769D01*
X116074321Y-101636768D01*
X116074318Y-101636762D01*
X115970302Y-101481092D01*
X115970299Y-101481088D01*
X115837911Y-101348700D01*
X115837907Y-101348697D01*
X115682237Y-101244681D01*
X115682228Y-101244676D01*
X115509251Y-101173027D01*
X115509243Y-101173025D01*
X115325620Y-101136500D01*
X115325616Y-101136500D01*
X115138384Y-101136500D01*
X115138379Y-101136500D01*
X114954756Y-101173025D01*
X114954748Y-101173027D01*
X114781771Y-101244676D01*
X114781762Y-101244681D01*
X114626092Y-101348697D01*
X114626088Y-101348700D01*
X114499608Y-101475181D01*
X114438285Y-101508666D01*
X114411927Y-101511500D01*
X112374500Y-101511500D01*
X112307461Y-101491815D01*
X112261706Y-101439011D01*
X112250500Y-101387500D01*
X112250500Y-100261500D01*
X112270185Y-100194461D01*
X112322989Y-100148706D01*
X112374500Y-100137500D01*
X112615634Y-100137500D01*
X112615649Y-100137499D01*
X112652489Y-100134600D01*
X112652495Y-100134599D01*
X112810193Y-100088783D01*
X112810196Y-100088782D01*
X112951552Y-100005185D01*
X112951561Y-100005178D01*
X113067678Y-99889061D01*
X113067685Y-99889052D01*
X113151282Y-99747696D01*
X113151283Y-99747693D01*
X113197099Y-99589995D01*
X113197100Y-99589989D01*
X113199999Y-99553149D01*
X113200000Y-99553134D01*
X113200000Y-99096935D01*
X113219685Y-99029896D01*
X113272489Y-98984141D01*
X113341647Y-98974197D01*
X113405203Y-99003222D01*
X113441042Y-99055981D01*
X113474210Y-99150771D01*
X113570184Y-99303512D01*
X113570185Y-99303513D01*
X113615241Y-99348570D01*
X113648725Y-99409893D01*
X113643740Y-99479585D01*
X113615241Y-99523930D01*
X113570184Y-99568987D01*
X113474211Y-99721726D01*
X113414631Y-99891995D01*
X113414630Y-99892000D01*
X113399500Y-100026289D01*
X113399500Y-100116210D01*
X113414630Y-100250499D01*
X113414631Y-100250504D01*
X113474211Y-100420773D01*
X113540109Y-100525648D01*
X113570184Y-100573512D01*
X113697738Y-100701066D01*
X113850478Y-100797039D01*
X114004690Y-100851000D01*
X114020745Y-100856618D01*
X114020750Y-100856619D01*
X114107705Y-100866416D01*
X114155040Y-100871749D01*
X114155043Y-100871750D01*
X114155046Y-100871750D01*
X115244957Y-100871750D01*
X115244958Y-100871749D01*
X115347907Y-100860149D01*
X115379247Y-100856619D01*
X115379247Y-100856618D01*
X115379255Y-100856618D01*
X115419339Y-100842591D01*
X115442621Y-100837263D01*
X115442603Y-100837166D01*
X115445043Y-100836709D01*
X115446264Y-100836430D01*
X115446959Y-100836351D01*
X115868764Y-100725800D01*
X115900201Y-100721750D01*
X116458346Y-100721750D01*
X116525385Y-100741435D01*
X116546027Y-100758069D01*
X120895181Y-105107223D01*
X120928666Y-105168546D01*
X120931500Y-105194904D01*
X120931500Y-105996070D01*
X120936525Y-106021333D01*
X120950675Y-106092465D01*
X120956499Y-106121744D01*
X120974924Y-106166227D01*
X121005535Y-106240127D01*
X121071933Y-106339500D01*
X121076726Y-106346673D01*
X121076727Y-106346674D01*
X121593681Y-106863627D01*
X121627166Y-106924950D01*
X121630000Y-106951308D01*
X121630000Y-107024120D01*
X121666525Y-107207743D01*
X121666527Y-107207751D01*
X121738176Y-107380728D01*
X121738181Y-107380737D01*
X121842197Y-107536407D01*
X121842200Y-107536411D01*
X121974588Y-107668799D01*
X121974592Y-107668802D01*
X122130262Y-107772818D01*
X122130271Y-107772823D01*
X122160579Y-107785377D01*
X122303249Y-107844473D01*
X122457303Y-107875116D01*
X122486879Y-107880999D01*
X122486883Y-107881000D01*
X122486884Y-107881000D01*
X122674117Y-107881000D01*
X122674118Y-107880999D01*
X122857751Y-107844473D01*
X123030731Y-107772822D01*
X123186408Y-107668802D01*
X123318802Y-107536408D01*
X123422822Y-107380731D01*
X123494473Y-107207751D01*
X123531000Y-107024116D01*
X123531000Y-106836884D01*
X123522768Y-106795497D01*
X123503784Y-106700055D01*
X123499598Y-106679013D01*
X125945000Y-106679013D01*
X125945000Y-106729000D01*
X126920000Y-106729000D01*
X126920000Y-105979000D01*
X126645029Y-105979000D01*
X126645012Y-105979001D01*
X126542302Y-105989494D01*
X126375880Y-106044641D01*
X126375875Y-106044643D01*
X126226654Y-106136684D01*
X126102684Y-106260654D01*
X126010643Y-106409875D01*
X126010641Y-106409880D01*
X125955494Y-106576302D01*
X125955493Y-106576309D01*
X125945000Y-106679013D01*
X123499598Y-106679013D01*
X123494474Y-106653254D01*
X123494473Y-106653253D01*
X123494473Y-106653249D01*
X123422822Y-106480269D01*
X123422821Y-106480268D01*
X123422818Y-106480262D01*
X123318802Y-106324592D01*
X123318799Y-106324588D01*
X123313891Y-106319680D01*
X123280406Y-106258357D01*
X123285390Y-106188665D01*
X123313890Y-106144319D01*
X123336302Y-106121908D01*
X123440322Y-105966231D01*
X123511973Y-105793251D01*
X123548500Y-105609616D01*
X123548500Y-105422384D01*
X123511973Y-105238749D01*
X123440322Y-105065769D01*
X123440321Y-105065768D01*
X123440318Y-105065762D01*
X123336303Y-104910093D01*
X123310754Y-104884544D01*
X123276426Y-104850216D01*
X123242943Y-104788896D01*
X123242492Y-104786728D01*
X123238379Y-104766053D01*
X123223501Y-104691256D01*
X123174465Y-104572873D01*
X123166723Y-104561286D01*
X123156964Y-104546681D01*
X123103275Y-104466328D01*
X116932923Y-98295976D01*
X116932919Y-98295973D01*
X116826377Y-98224785D01*
X116790516Y-98209931D01*
X116707994Y-98175749D01*
X116707989Y-98175747D01*
X116701936Y-98174544D01*
X116701931Y-98174541D01*
X116701931Y-98174543D01*
X116582321Y-98150750D01*
X116582319Y-98150750D01*
X115979921Y-98150750D01*
X115912882Y-98131065D01*
X115867127Y-98078261D01*
X115857183Y-98009103D01*
X115874927Y-97960778D01*
X115925336Y-97880551D01*
X115984877Y-97710391D01*
X115999999Y-97576180D01*
X116000000Y-97576180D01*
X116000000Y-97486320D01*
X115999999Y-97486319D01*
X115984877Y-97352108D01*
X115925336Y-97181948D01*
X115829422Y-97029301D01*
X115784405Y-96984284D01*
X115750920Y-96922961D01*
X115755904Y-96853269D01*
X115784404Y-96808923D01*
X115829816Y-96763512D01*
X115925789Y-96610772D01*
X115985368Y-96440505D01*
X115990359Y-96396213D01*
X115994700Y-96357678D01*
X116000500Y-96306204D01*
X116000500Y-96216296D01*
X115990218Y-96125039D01*
X115985369Y-96082000D01*
X115985368Y-96081995D01*
X115962112Y-96015534D01*
X115925789Y-95911728D01*
X115924779Y-95910121D01*
X115866467Y-95817318D01*
X115829816Y-95758988D01*
X115702262Y-95631434D01*
X115688828Y-95622993D01*
X115549523Y-95535461D01*
X115379254Y-95475881D01*
X115379249Y-95475880D01*
X115244960Y-95460750D01*
X115244954Y-95460750D01*
X114155046Y-95460750D01*
X114155039Y-95460750D01*
X114020750Y-95475880D01*
X114020745Y-95475881D01*
X113850476Y-95535461D01*
X113697737Y-95631434D01*
X113570184Y-95758987D01*
X113474210Y-95911728D01*
X113462053Y-95946470D01*
X113421330Y-96003245D01*
X113356377Y-96028991D01*
X113287815Y-96015534D01*
X113239473Y-95970609D01*
X113192317Y-95894156D01*
X113068345Y-95770184D01*
X112919124Y-95678143D01*
X112919119Y-95678141D01*
X112752697Y-95622994D01*
X112752690Y-95622993D01*
X112649980Y-95612500D01*
X112050028Y-95612500D01*
X112050012Y-95612501D01*
X111947302Y-95622994D01*
X111780880Y-95678141D01*
X111780875Y-95678143D01*
X111631657Y-95770182D01*
X111519534Y-95882305D01*
X111518532Y-95882851D01*
X111517969Y-95883842D01*
X111487948Y-95899551D01*
X111458211Y-95915789D01*
X111457074Y-95915707D01*
X111456063Y-95916237D01*
X111422303Y-95913221D01*
X111388519Y-95910805D01*
X111387605Y-95910121D01*
X111386471Y-95910020D01*
X111359708Y-95889237D01*
X111332586Y-95868933D01*
X111331892Y-95867636D01*
X111331287Y-95867166D01*
X111314923Y-95835894D01*
X111311164Y-95825244D01*
X111307413Y-95755475D01*
X111313529Y-95736529D01*
X111363973Y-95614751D01*
X111400500Y-95431116D01*
X111400500Y-95243884D01*
X111363973Y-95060249D01*
X111292322Y-94887269D01*
X111271689Y-94856390D01*
X111250811Y-94789715D01*
X111269295Y-94722334D01*
X111271690Y-94718608D01*
X111292322Y-94687731D01*
X111363973Y-94514751D01*
X111400500Y-94331116D01*
X111400500Y-94143884D01*
X111363973Y-93960249D01*
X111292322Y-93787269D01*
X111288393Y-93781389D01*
X111267516Y-93714714D01*
X111286000Y-93647334D01*
X111288394Y-93643609D01*
X111288467Y-93643500D01*
X111292322Y-93637731D01*
X111363973Y-93464751D01*
X111400500Y-93281116D01*
X111400500Y-93093884D01*
X111363973Y-92910249D01*
X111292322Y-92737269D01*
X111292321Y-92737268D01*
X111292318Y-92737262D01*
X111188302Y-92581592D01*
X111188299Y-92581588D01*
X111055911Y-92449200D01*
X111055907Y-92449197D01*
X110900237Y-92345181D01*
X110900228Y-92345176D01*
X110727251Y-92273527D01*
X110727243Y-92273525D01*
X110543620Y-92237000D01*
X110543616Y-92237000D01*
X110356384Y-92237000D01*
X110356379Y-92237000D01*
X110172756Y-92273525D01*
X110172748Y-92273527D01*
X109999771Y-92345176D01*
X109999762Y-92345181D01*
X109844092Y-92449197D01*
X109844088Y-92449200D01*
X109711700Y-92581588D01*
X109711697Y-92581592D01*
X109607681Y-92737262D01*
X109607678Y-92737268D01*
X109562853Y-92845484D01*
X109519011Y-92899887D01*
X109452717Y-92921951D01*
X109385018Y-92904671D01*
X109337408Y-92853534D01*
X109329631Y-92834025D01*
X109249377Y-92569462D01*
X109117780Y-92251758D01*
X109117773Y-92251744D01*
X108955677Y-91948481D01*
X108955666Y-91948463D01*
X108764622Y-91662546D01*
X108764612Y-91662533D01*
X108596213Y-91457339D01*
X108596212Y-91457338D01*
X107172658Y-92880892D01*
X107094136Y-92772816D01*
X106927184Y-92605864D01*
X106819105Y-92527340D01*
X108242660Y-91103786D01*
X108242659Y-91103785D01*
X108037467Y-90935387D01*
X108037453Y-90935377D01*
X107751536Y-90744333D01*
X107751518Y-90744322D01*
X107448255Y-90582226D01*
X107448241Y-90582219D01*
X107344047Y-90539061D01*
X107289644Y-90495220D01*
X107267579Y-90428926D01*
X107284858Y-90361227D01*
X107335995Y-90313616D01*
X107391500Y-90300500D01*
X127871500Y-90300500D01*
X127938539Y-90320185D01*
G37*
%TD.AperFunction*%
%TA.AperFunction,Conductor*%
G36*
X130980507Y-111675863D02*
G01*
X130990592Y-111674597D01*
X131013467Y-111685541D01*
X131037795Y-111692685D01*
X131044449Y-111700365D01*
X131053619Y-111704752D01*
X131066946Y-111726328D01*
X131083550Y-111745489D01*
X131084996Y-111755547D01*
X131090338Y-111764195D01*
X131089885Y-111789547D01*
X131093494Y-111814647D01*
X131089238Y-111825753D01*
X131089090Y-111834054D01*
X131073858Y-111865891D01*
X131001990Y-111973447D01*
X131001983Y-111973459D01*
X130934106Y-112137332D01*
X130934103Y-112137341D01*
X130899500Y-112311304D01*
X130899500Y-113593038D01*
X130898720Y-113606922D01*
X130898720Y-113606923D01*
X130888540Y-113697264D01*
X130882362Y-113724333D01*
X130854648Y-113803537D01*
X130842600Y-113828555D01*
X130797957Y-113899604D01*
X130780644Y-113921313D01*
X130721313Y-113980644D01*
X130699604Y-113997957D01*
X130628555Y-114042600D01*
X130603537Y-114054648D01*
X130524333Y-114082362D01*
X130497264Y-114088540D01*
X130417075Y-114097576D01*
X130406921Y-114098720D01*
X130393038Y-114099500D01*
X127785043Y-114099500D01*
X127718004Y-114079815D01*
X127672249Y-114027011D01*
X127662305Y-113957853D01*
X127691330Y-113894297D01*
X127712158Y-113875181D01*
X127739792Y-113855104D01*
X127890104Y-113704792D01*
X127890106Y-113704788D01*
X127890109Y-113704786D01*
X128015048Y-113532820D01*
X128015047Y-113532820D01*
X128015051Y-113532816D01*
X128111557Y-113343412D01*
X128177246Y-113141243D01*
X128210500Y-112931287D01*
X128210500Y-112718713D01*
X128177246Y-112508757D01*
X128135014Y-112378783D01*
X128133020Y-112308943D01*
X128169100Y-112249110D01*
X128231801Y-112218282D01*
X128252946Y-112216466D01*
X128931105Y-112216466D01*
X129015649Y-112199648D01*
X129056778Y-112191467D01*
X129175161Y-112142431D01*
X129212946Y-112117184D01*
X129281703Y-112071243D01*
X129643627Y-111709319D01*
X129704950Y-111675834D01*
X129731308Y-111673000D01*
X130970756Y-111673000D01*
X130980507Y-111675863D01*
G37*
%TD.AperFunction*%
%TA.AperFunction,Conductor*%
G36*
X150566231Y-109470185D02*
G01*
X150586873Y-109486819D01*
X153459936Y-112359882D01*
X153493421Y-112421205D01*
X153490187Y-112485879D01*
X153482753Y-112508757D01*
X153449500Y-112718713D01*
X153449500Y-112931286D01*
X153482753Y-113141239D01*
X153548444Y-113343414D01*
X153644951Y-113532820D01*
X153769890Y-113704786D01*
X153769896Y-113704792D01*
X153920208Y-113855104D01*
X153947842Y-113875181D01*
X153990508Y-113930511D01*
X153996487Y-114000124D01*
X153963882Y-114061920D01*
X153903043Y-114096277D01*
X153874957Y-114099500D01*
X150645043Y-114099500D01*
X150578004Y-114079815D01*
X150532249Y-114027011D01*
X150522305Y-113957853D01*
X150551330Y-113894297D01*
X150572158Y-113875181D01*
X150599792Y-113855104D01*
X150750104Y-113704792D01*
X150750106Y-113704788D01*
X150750109Y-113704786D01*
X150875048Y-113532820D01*
X150875047Y-113532820D01*
X150875051Y-113532816D01*
X150971557Y-113343412D01*
X151037246Y-113141243D01*
X151070500Y-112931287D01*
X151070500Y-112718713D01*
X151037246Y-112508757D01*
X150971557Y-112306588D01*
X150875051Y-112117184D01*
X150875049Y-112117181D01*
X150875048Y-112117179D01*
X150750109Y-111945213D01*
X150599786Y-111794890D01*
X150427820Y-111669951D01*
X150238414Y-111573444D01*
X150238413Y-111573443D01*
X150238412Y-111573443D01*
X150036243Y-111507754D01*
X150036241Y-111507753D01*
X150036240Y-111507753D01*
X149866840Y-111480923D01*
X149826287Y-111474500D01*
X149613713Y-111474500D01*
X149613711Y-111474500D01*
X149573154Y-111480923D01*
X149503861Y-111471967D01*
X149466077Y-111446130D01*
X148110671Y-110090724D01*
X148013729Y-110025950D01*
X147968924Y-109972338D01*
X147960217Y-109903013D01*
X147990371Y-109839985D01*
X148017240Y-109817485D01*
X148565355Y-109477415D01*
X148578704Y-109469133D01*
X148644078Y-109450500D01*
X150499192Y-109450500D01*
X150566231Y-109470185D01*
G37*
%TD.AperFunction*%
%TA.AperFunction,Conductor*%
G36*
X174225539Y-90320185D02*
G01*
X174271294Y-90372989D01*
X174281238Y-90442147D01*
X174252213Y-90505703D01*
X174205953Y-90539061D01*
X174101758Y-90582219D01*
X174101744Y-90582226D01*
X173798481Y-90744322D01*
X173798463Y-90744333D01*
X173512546Y-90935377D01*
X173512532Y-90935387D01*
X173307338Y-91103786D01*
X174730893Y-92527340D01*
X174622816Y-92605864D01*
X174455864Y-92772816D01*
X174377341Y-92880893D01*
X172953786Y-91457338D01*
X172785387Y-91662532D01*
X172785377Y-91662546D01*
X172594333Y-91948463D01*
X172594322Y-91948481D01*
X172432226Y-92251744D01*
X172432219Y-92251758D01*
X172300623Y-92569459D01*
X172200792Y-92898556D01*
X172200791Y-92898562D01*
X172133708Y-93235817D01*
X172133705Y-93235834D01*
X172100000Y-93578059D01*
X172100000Y-93921940D01*
X172133705Y-94264165D01*
X172133708Y-94264182D01*
X172200791Y-94601437D01*
X172200792Y-94601443D01*
X172300623Y-94930540D01*
X172432219Y-95248241D01*
X172432226Y-95248255D01*
X172594322Y-95551518D01*
X172594333Y-95551536D01*
X172785377Y-95837453D01*
X172785387Y-95837467D01*
X172953785Y-96042659D01*
X172953786Y-96042660D01*
X174377340Y-94619105D01*
X174455864Y-94727184D01*
X174622816Y-94894136D01*
X174730893Y-94972658D01*
X173307338Y-96396212D01*
X173307339Y-96396213D01*
X173512533Y-96564612D01*
X173512546Y-96564622D01*
X173798463Y-96755666D01*
X173798481Y-96755677D01*
X174101744Y-96917773D01*
X174101758Y-96917780D01*
X174419459Y-97049376D01*
X174748556Y-97149207D01*
X174748562Y-97149208D01*
X175085817Y-97216291D01*
X175085834Y-97216294D01*
X175428059Y-97250000D01*
X175771941Y-97250000D01*
X176114165Y-97216294D01*
X176114182Y-97216291D01*
X176451437Y-97149208D01*
X176451443Y-97149207D01*
X176780540Y-97049376D01*
X177098241Y-96917780D01*
X177098255Y-96917773D01*
X177401518Y-96755677D01*
X177401536Y-96755666D01*
X177687453Y-96564622D01*
X177687466Y-96564612D01*
X177892659Y-96396213D01*
X177892659Y-96396212D01*
X176469106Y-94972659D01*
X176577184Y-94894136D01*
X176744136Y-94727184D01*
X176822659Y-94619105D01*
X178246212Y-96042659D01*
X178246213Y-96042659D01*
X178414612Y-95837466D01*
X178414622Y-95837453D01*
X178605666Y-95551536D01*
X178605677Y-95551518D01*
X178767773Y-95248255D01*
X178767783Y-95248234D01*
X178860939Y-95023336D01*
X178904780Y-94968932D01*
X178971074Y-94946867D01*
X179038773Y-94964146D01*
X179086384Y-95015283D01*
X179099500Y-95070788D01*
X179099500Y-109279211D01*
X179079815Y-109346250D01*
X179027011Y-109392005D01*
X178957853Y-109401949D01*
X178894297Y-109372924D01*
X178860939Y-109326664D01*
X178767780Y-109101758D01*
X178767773Y-109101744D01*
X178605677Y-108798481D01*
X178605666Y-108798463D01*
X178414622Y-108512546D01*
X178414612Y-108512533D01*
X178246213Y-108307339D01*
X178246212Y-108307338D01*
X176822658Y-109730893D01*
X176744136Y-109622816D01*
X176577184Y-109455864D01*
X176469105Y-109377340D01*
X177892660Y-107953786D01*
X177892659Y-107953785D01*
X177687467Y-107785387D01*
X177687453Y-107785377D01*
X177401536Y-107594333D01*
X177401518Y-107594322D01*
X177098255Y-107432226D01*
X177098241Y-107432219D01*
X176780540Y-107300623D01*
X176451443Y-107200792D01*
X176451437Y-107200791D01*
X176114182Y-107133708D01*
X176114165Y-107133705D01*
X175771941Y-107100000D01*
X175428059Y-107100000D01*
X175085834Y-107133705D01*
X175085817Y-107133708D01*
X174748562Y-107200791D01*
X174748556Y-107200792D01*
X174419459Y-107300623D01*
X174101758Y-107432219D01*
X174101744Y-107432226D01*
X173798481Y-107594322D01*
X173798463Y-107594333D01*
X173512546Y-107785377D01*
X173512532Y-107785387D01*
X173307338Y-107953786D01*
X174730893Y-109377341D01*
X174622816Y-109455864D01*
X174455864Y-109622816D01*
X174377341Y-109730893D01*
X172953786Y-108307338D01*
X172785387Y-108512532D01*
X172785377Y-108512546D01*
X172594333Y-108798463D01*
X172594322Y-108798481D01*
X172432226Y-109101744D01*
X172432219Y-109101758D01*
X172300623Y-109419459D01*
X172200792Y-109748556D01*
X172200791Y-109748562D01*
X172133708Y-110085817D01*
X172133705Y-110085834D01*
X172100000Y-110428059D01*
X172100000Y-110771940D01*
X172133705Y-111114165D01*
X172133708Y-111114182D01*
X172200791Y-111451437D01*
X172200792Y-111451443D01*
X172300623Y-111780540D01*
X172432219Y-112098241D01*
X172432226Y-112098255D01*
X172594322Y-112401518D01*
X172594333Y-112401536D01*
X172785377Y-112687453D01*
X172785387Y-112687467D01*
X172953785Y-112892659D01*
X172953786Y-112892660D01*
X174377340Y-111469105D01*
X174455864Y-111577184D01*
X174622816Y-111744136D01*
X174730893Y-111822658D01*
X173307338Y-113246212D01*
X173307339Y-113246213D01*
X173512533Y-113414612D01*
X173512546Y-113414622D01*
X173798463Y-113605666D01*
X173798481Y-113605677D01*
X174101744Y-113767773D01*
X174101758Y-113767780D01*
X174326664Y-113860939D01*
X174381067Y-113904780D01*
X174403132Y-113971074D01*
X174385853Y-114038773D01*
X174334716Y-114086384D01*
X174279211Y-114099500D01*
X168425043Y-114099500D01*
X168358004Y-114079815D01*
X168312249Y-114027011D01*
X168302305Y-113957853D01*
X168331330Y-113894297D01*
X168352158Y-113875181D01*
X168379792Y-113855104D01*
X168530104Y-113704792D01*
X168530106Y-113704788D01*
X168530109Y-113704786D01*
X168655048Y-113532820D01*
X168655047Y-113532820D01*
X168655051Y-113532816D01*
X168751557Y-113343412D01*
X168817246Y-113141243D01*
X168850500Y-112931287D01*
X168850500Y-112718713D01*
X168817246Y-112508757D01*
X168751557Y-112306588D01*
X168655051Y-112117184D01*
X168655049Y-112117181D01*
X168655048Y-112117179D01*
X168530109Y-111945213D01*
X168379786Y-111794890D01*
X168207820Y-111669951D01*
X168018414Y-111573444D01*
X168018413Y-111573443D01*
X168018412Y-111573443D01*
X167816243Y-111507754D01*
X167816241Y-111507753D01*
X167816240Y-111507753D01*
X167646840Y-111480923D01*
X167606287Y-111474500D01*
X167393713Y-111474500D01*
X167353160Y-111480923D01*
X167183760Y-111507753D01*
X166981585Y-111573444D01*
X166792179Y-111669951D01*
X166620213Y-111794890D01*
X166469890Y-111945213D01*
X166344949Y-112117182D01*
X166340484Y-112125946D01*
X166292509Y-112176742D01*
X166224688Y-112193536D01*
X166158553Y-112170998D01*
X166119516Y-112125946D01*
X166115050Y-112117182D01*
X165990109Y-111945213D01*
X165839786Y-111794890D01*
X165667820Y-111669951D01*
X165478414Y-111573444D01*
X165478413Y-111573443D01*
X165478412Y-111573443D01*
X165276243Y-111507754D01*
X165276241Y-111507753D01*
X165276240Y-111507753D01*
X165106840Y-111480923D01*
X165066287Y-111474500D01*
X164853713Y-111474500D01*
X164813160Y-111480923D01*
X164643755Y-111507754D01*
X164635440Y-111510456D01*
X164565599Y-111512451D01*
X164509441Y-111480206D01*
X163747819Y-110718584D01*
X163714334Y-110657261D01*
X163711500Y-110630903D01*
X163711500Y-110186543D01*
X169095499Y-110186543D01*
X169133947Y-110379829D01*
X169133950Y-110379839D01*
X169209364Y-110561907D01*
X169209371Y-110561920D01*
X169318860Y-110725781D01*
X169318863Y-110725785D01*
X169458214Y-110865136D01*
X169458218Y-110865139D01*
X169622079Y-110974628D01*
X169622092Y-110974635D01*
X169757413Y-111030686D01*
X169804165Y-111050051D01*
X169804169Y-111050051D01*
X169804170Y-111050052D01*
X169997456Y-111088500D01*
X169997459Y-111088500D01*
X170194543Y-111088500D01*
X170324582Y-111062632D01*
X170387835Y-111050051D01*
X170569914Y-110974632D01*
X170733782Y-110865139D01*
X170873139Y-110725782D01*
X170982632Y-110561914D01*
X171038076Y-110428059D01*
X171058048Y-110379843D01*
X171058049Y-110379839D01*
X171058051Y-110379835D01*
X171096500Y-110186541D01*
X171096500Y-109989459D01*
X171096500Y-109989456D01*
X171058052Y-109796170D01*
X171058051Y-109796169D01*
X171058051Y-109796165D01*
X171044765Y-109764089D01*
X170982635Y-109614092D01*
X170982628Y-109614079D01*
X170873139Y-109450218D01*
X170873136Y-109450214D01*
X170733785Y-109310863D01*
X170733781Y-109310860D01*
X170569920Y-109201371D01*
X170569907Y-109201364D01*
X170387839Y-109125950D01*
X170387829Y-109125947D01*
X170194543Y-109087500D01*
X170194541Y-109087500D01*
X169997459Y-109087500D01*
X169997457Y-109087500D01*
X169804170Y-109125947D01*
X169804160Y-109125950D01*
X169622092Y-109201364D01*
X169622079Y-109201371D01*
X169458218Y-109310860D01*
X169458214Y-109310863D01*
X169318863Y-109450214D01*
X169318860Y-109450218D01*
X169209371Y-109614079D01*
X169209364Y-109614092D01*
X169133950Y-109796160D01*
X169133947Y-109796170D01*
X169095500Y-109989456D01*
X169095500Y-109989459D01*
X169095500Y-110186541D01*
X169095500Y-110186543D01*
X169095499Y-110186543D01*
X163711500Y-110186543D01*
X163711500Y-99626944D01*
X163711499Y-99626941D01*
X163710375Y-99622746D01*
X163710372Y-99622734D01*
X163690809Y-99549724D01*
X163690079Y-99547000D01*
X163670577Y-99474216D01*
X163670573Y-99474209D01*
X163591524Y-99337290D01*
X163591521Y-99337286D01*
X163591520Y-99337284D01*
X163479716Y-99225480D01*
X163479715Y-99225479D01*
X163475385Y-99221149D01*
X163475374Y-99221139D01*
X161528074Y-97273839D01*
X161494589Y-97212516D01*
X161493523Y-97205256D01*
X161493262Y-97205298D01*
X161489529Y-97181728D01*
X161463555Y-97017736D01*
X161424217Y-96896666D01*
X161406380Y-96841767D01*
X161406379Y-96841764D01*
X161355310Y-96741537D01*
X161322378Y-96676904D01*
X161213621Y-96527213D01*
X161082787Y-96396379D01*
X160933096Y-96287622D01*
X160915134Y-96278470D01*
X160768235Y-96203620D01*
X160768232Y-96203619D01*
X160592265Y-96146445D01*
X160500889Y-96131972D01*
X160409514Y-96117500D01*
X160224486Y-96117500D01*
X160176887Y-96125039D01*
X160041734Y-96146445D01*
X159865767Y-96203619D01*
X159865764Y-96203620D01*
X159700903Y-96287622D01*
X159666673Y-96312492D01*
X159551213Y-96396379D01*
X159551211Y-96396381D01*
X159551210Y-96396381D01*
X159420381Y-96527210D01*
X159420376Y-96527216D01*
X159337428Y-96641385D01*
X159282098Y-96684051D01*
X159237110Y-96692500D01*
X154709890Y-96692500D01*
X154642851Y-96672815D01*
X154609572Y-96641385D01*
X154543796Y-96550853D01*
X154526621Y-96527213D01*
X154395787Y-96396379D01*
X154246096Y-96287622D01*
X154228134Y-96278470D01*
X154081235Y-96203620D01*
X154081232Y-96203619D01*
X153905265Y-96146445D01*
X153813889Y-96131972D01*
X153722514Y-96117500D01*
X153537486Y-96117500D01*
X153489887Y-96125039D01*
X153354734Y-96146445D01*
X153178767Y-96203619D01*
X153178764Y-96203620D01*
X153013903Y-96287622D01*
X152979673Y-96312492D01*
X152864213Y-96396379D01*
X152864211Y-96396381D01*
X152864210Y-96396381D01*
X152733381Y-96527210D01*
X152733376Y-96527216D01*
X152650428Y-96641385D01*
X152595098Y-96684051D01*
X152550110Y-96692500D01*
X152068972Y-96692500D01*
X152001933Y-96672815D01*
X151956178Y-96620011D01*
X151946234Y-96550853D01*
X151954411Y-96521048D01*
X152006050Y-96396379D01*
X152013973Y-96377251D01*
X152050500Y-96193616D01*
X152050500Y-96006384D01*
X152013973Y-95822749D01*
X151942322Y-95649769D01*
X151942321Y-95649768D01*
X151942318Y-95649762D01*
X151838302Y-95494092D01*
X151838299Y-95494088D01*
X151705911Y-95361700D01*
X151705907Y-95361697D01*
X151550237Y-95257681D01*
X151550228Y-95257676D01*
X151377251Y-95186027D01*
X151377243Y-95186025D01*
X151193620Y-95149500D01*
X151193616Y-95149500D01*
X151006384Y-95149500D01*
X151006379Y-95149500D01*
X150822756Y-95186025D01*
X150822748Y-95186027D01*
X150649767Y-95257678D01*
X150579774Y-95304445D01*
X150513096Y-95325322D01*
X150476291Y-95320419D01*
X150345202Y-95282334D01*
X150309181Y-95279500D01*
X149910830Y-95279500D01*
X149910808Y-95279501D01*
X149874794Y-95282335D01*
X149720611Y-95327129D01*
X149720604Y-95327132D01*
X149663119Y-95361128D01*
X149595395Y-95378309D01*
X149536881Y-95361128D01*
X149479395Y-95327132D01*
X149479388Y-95327129D01*
X149325208Y-95282335D01*
X149325202Y-95282334D01*
X149289181Y-95279500D01*
X148890830Y-95279500D01*
X148890808Y-95279501D01*
X148854794Y-95282335D01*
X148700611Y-95327129D01*
X148700608Y-95327130D01*
X148617251Y-95376427D01*
X148549527Y-95393608D01*
X148488757Y-95375061D01*
X147757189Y-94921168D01*
X147710601Y-94869098D01*
X147699560Y-94800106D01*
X147727572Y-94736097D01*
X147748009Y-94716717D01*
X148557014Y-94108045D01*
X148622416Y-94083472D01*
X148690724Y-94098158D01*
X148719242Y-94119453D01*
X148789088Y-94189299D01*
X148789092Y-94189302D01*
X148944762Y-94293318D01*
X148944768Y-94293321D01*
X148944769Y-94293322D01*
X149117749Y-94364973D01*
X149301379Y-94401499D01*
X149301383Y-94401500D01*
X149301384Y-94401500D01*
X149488617Y-94401500D01*
X149488618Y-94401499D01*
X149672251Y-94364973D01*
X149845231Y-94293322D01*
X150000908Y-94189302D01*
X150133302Y-94056908D01*
X150217736Y-93930543D01*
X169095499Y-93930543D01*
X169133947Y-94123829D01*
X169133950Y-94123839D01*
X169209364Y-94305907D01*
X169209371Y-94305920D01*
X169318860Y-94469781D01*
X169318863Y-94469785D01*
X169458214Y-94609136D01*
X169458218Y-94609139D01*
X169622079Y-94718628D01*
X169622092Y-94718635D01*
X169788349Y-94787500D01*
X169804165Y-94794051D01*
X169804169Y-94794051D01*
X169804170Y-94794052D01*
X169997456Y-94832500D01*
X169997459Y-94832500D01*
X170194543Y-94832500D01*
X170328216Y-94805910D01*
X170387835Y-94794051D01*
X170544166Y-94729297D01*
X170569907Y-94718635D01*
X170569907Y-94718634D01*
X170569914Y-94718632D01*
X170733782Y-94609139D01*
X170873139Y-94469782D01*
X170982632Y-94305914D01*
X171058051Y-94123835D01*
X171071364Y-94056907D01*
X171096500Y-93930543D01*
X171096500Y-93733456D01*
X171069795Y-93599204D01*
X171069795Y-93599203D01*
X171058937Y-93544620D01*
X171058051Y-93540165D01*
X171035400Y-93485480D01*
X170982635Y-93358092D01*
X170982628Y-93358079D01*
X170873139Y-93194218D01*
X170873136Y-93194214D01*
X170733785Y-93054863D01*
X170733781Y-93054860D01*
X170569920Y-92945371D01*
X170569907Y-92945364D01*
X170387839Y-92869950D01*
X170387829Y-92869947D01*
X170194543Y-92831500D01*
X170194541Y-92831500D01*
X169997459Y-92831500D01*
X169997457Y-92831500D01*
X169804170Y-92869947D01*
X169804160Y-92869950D01*
X169622092Y-92945364D01*
X169622079Y-92945371D01*
X169458218Y-93054860D01*
X169458214Y-93054863D01*
X169318863Y-93194214D01*
X169318860Y-93194218D01*
X169209371Y-93358079D01*
X169209364Y-93358092D01*
X169133950Y-93540160D01*
X169133947Y-93540170D01*
X169095500Y-93733456D01*
X169095500Y-93733459D01*
X169095500Y-93930541D01*
X169095500Y-93930543D01*
X169095499Y-93930543D01*
X150217736Y-93930543D01*
X150237322Y-93901231D01*
X150308973Y-93728251D01*
X150345500Y-93544616D01*
X150345500Y-93357384D01*
X150308973Y-93173749D01*
X150248484Y-93027716D01*
X150237323Y-93000771D01*
X150237318Y-93000762D01*
X150133302Y-92845092D01*
X150133299Y-92845088D01*
X150000911Y-92712700D01*
X150000907Y-92712697D01*
X149845237Y-92608681D01*
X149845228Y-92608676D01*
X149672251Y-92537027D01*
X149672243Y-92537025D01*
X149488620Y-92500500D01*
X149488616Y-92500500D01*
X149301384Y-92500500D01*
X149301379Y-92500500D01*
X149117756Y-92537025D01*
X149117748Y-92537027D01*
X148944771Y-92608676D01*
X148944762Y-92608681D01*
X148789092Y-92712697D01*
X148789088Y-92712700D01*
X148699855Y-92801934D01*
X148638532Y-92835419D01*
X148568840Y-92830435D01*
X148550335Y-92821733D01*
X147751901Y-92362352D01*
X147703610Y-92311857D01*
X147690284Y-92243270D01*
X147693962Y-92222789D01*
X147714500Y-92146144D01*
X147714500Y-90424500D01*
X147734185Y-90357461D01*
X147786989Y-90311706D01*
X147838500Y-90300500D01*
X174158500Y-90300500D01*
X174225539Y-90320185D01*
G37*
%TD.AperFunction*%
%TA.AperFunction,Conductor*%
G36*
X159304149Y-99913185D02*
G01*
X159337428Y-99944615D01*
X159393375Y-100021620D01*
X159420379Y-100058787D01*
X159551213Y-100189621D01*
X159555847Y-100192988D01*
X159598515Y-100248313D01*
X159604498Y-100317926D01*
X159571895Y-100379723D01*
X159555860Y-100393620D01*
X159551542Y-100396757D01*
X159551536Y-100396762D01*
X159420758Y-100527540D01*
X159420754Y-100527545D01*
X159312052Y-100677162D01*
X159228084Y-100841956D01*
X159228082Y-100841962D01*
X159170932Y-101017855D01*
X159166950Y-101042999D01*
X159166950Y-101043000D01*
X160001314Y-101043000D01*
X159996920Y-101047394D01*
X159944259Y-101138606D01*
X159917000Y-101240339D01*
X159917000Y-101345661D01*
X159944259Y-101447394D01*
X159996920Y-101538606D01*
X160001314Y-101543000D01*
X159166950Y-101543000D01*
X159170932Y-101568144D01*
X159228082Y-101744037D01*
X159228084Y-101744043D01*
X159312049Y-101908833D01*
X159395946Y-102024308D01*
X159419425Y-102090115D01*
X159403599Y-102158169D01*
X159369939Y-102196459D01*
X159284452Y-102260455D01*
X159198206Y-102375664D01*
X159198202Y-102375671D01*
X159147908Y-102510517D01*
X159142274Y-102562930D01*
X159141501Y-102570123D01*
X159141500Y-102570135D01*
X159141500Y-104015870D01*
X159141501Y-104015876D01*
X159147908Y-104075483D01*
X159198202Y-104210328D01*
X159198206Y-104210335D01*
X159284452Y-104325544D01*
X159284455Y-104325547D01*
X159399664Y-104411793D01*
X159399671Y-104411797D01*
X159534517Y-104462091D01*
X159534516Y-104462091D01*
X159541444Y-104462835D01*
X159594127Y-104468500D01*
X161039872Y-104468499D01*
X161099483Y-104462091D01*
X161234331Y-104411796D01*
X161349546Y-104325546D01*
X161435796Y-104210331D01*
X161486091Y-104075483D01*
X161492500Y-104015873D01*
X161492499Y-102570128D01*
X161486091Y-102510517D01*
X161485319Y-102508448D01*
X161435797Y-102375671D01*
X161435793Y-102375664D01*
X161349547Y-102260455D01*
X161264059Y-102196458D01*
X161222189Y-102140524D01*
X161217205Y-102070832D01*
X161238054Y-102024306D01*
X161321947Y-101908838D01*
X161405915Y-101744043D01*
X161405917Y-101744037D01*
X161463067Y-101568144D01*
X161467049Y-101543000D01*
X160632686Y-101543000D01*
X160637080Y-101538606D01*
X160689741Y-101447394D01*
X160717000Y-101345661D01*
X160717000Y-101240339D01*
X160689741Y-101138606D01*
X160637080Y-101047394D01*
X160632686Y-101043000D01*
X161467050Y-101043000D01*
X161467049Y-101042999D01*
X161463067Y-101017855D01*
X161405917Y-100841962D01*
X161405915Y-100841956D01*
X161374059Y-100779436D01*
X161361163Y-100710767D01*
X161387439Y-100646026D01*
X161444546Y-100605769D01*
X161514351Y-100602777D01*
X161572225Y-100635460D01*
X161803181Y-100866416D01*
X161836666Y-100927739D01*
X161839500Y-100954097D01*
X161839500Y-111529090D01*
X161819815Y-111596129D01*
X161771796Y-111639574D01*
X161712182Y-111669949D01*
X161540213Y-111794890D01*
X161389890Y-111945213D01*
X161264949Y-112117182D01*
X161260484Y-112125946D01*
X161212509Y-112176742D01*
X161144688Y-112193536D01*
X161078553Y-112170998D01*
X161039516Y-112125946D01*
X161035050Y-112117182D01*
X160910109Y-111945213D01*
X160759786Y-111794890D01*
X160587820Y-111669951D01*
X160398414Y-111573444D01*
X160398413Y-111573443D01*
X160398412Y-111573443D01*
X160196243Y-111507754D01*
X160196241Y-111507753D01*
X160196240Y-111507753D01*
X160026840Y-111480923D01*
X159986287Y-111474500D01*
X159773713Y-111474500D01*
X159733160Y-111480923D01*
X159563760Y-111507753D01*
X159361585Y-111573444D01*
X159172179Y-111669951D01*
X159000213Y-111794890D01*
X158849890Y-111945213D01*
X158724949Y-112117182D01*
X158720484Y-112125946D01*
X158672509Y-112176742D01*
X158604688Y-112193536D01*
X158538553Y-112170998D01*
X158499516Y-112125946D01*
X158495050Y-112117182D01*
X158370109Y-111945213D01*
X158219786Y-111794890D01*
X158047820Y-111669951D01*
X157858414Y-111573444D01*
X157858413Y-111573443D01*
X157858412Y-111573443D01*
X157656243Y-111507754D01*
X157656241Y-111507753D01*
X157656240Y-111507753D01*
X157486840Y-111480923D01*
X157446287Y-111474500D01*
X157233713Y-111474500D01*
X157193160Y-111480923D01*
X157023760Y-111507753D01*
X156821585Y-111573444D01*
X156632179Y-111669951D01*
X156460213Y-111794890D01*
X156309890Y-111945213D01*
X156184949Y-112117182D01*
X156180484Y-112125946D01*
X156132509Y-112176742D01*
X156064688Y-112193536D01*
X155998553Y-112170998D01*
X155959516Y-112125946D01*
X155955050Y-112117182D01*
X155830109Y-111945213D01*
X155679786Y-111794890D01*
X155507820Y-111669951D01*
X155318414Y-111573444D01*
X155318413Y-111573443D01*
X155318412Y-111573443D01*
X155116243Y-111507754D01*
X155116241Y-111507753D01*
X155116240Y-111507753D01*
X154946840Y-111480923D01*
X154906287Y-111474500D01*
X154693713Y-111474500D01*
X154653160Y-111480923D01*
X154515033Y-111502800D01*
X154445739Y-111493845D01*
X154407954Y-111468008D01*
X151234674Y-108294727D01*
X151234673Y-108294726D01*
X151219710Y-108284728D01*
X151128127Y-108223535D01*
X151127813Y-108223405D01*
X151009744Y-108174499D01*
X151009745Y-108174499D01*
X151006539Y-108173861D01*
X150996834Y-108171931D01*
X150993707Y-108171309D01*
X150884071Y-108149500D01*
X150884069Y-108149500D01*
X148644078Y-108149500D01*
X148578704Y-108130867D01*
X147780073Y-107635366D01*
X147733485Y-107583296D01*
X147722444Y-107514304D01*
X147750456Y-107450295D01*
X147780073Y-107424632D01*
X147790418Y-107418214D01*
X148520300Y-106965369D01*
X148578704Y-106929133D01*
X148644078Y-106910500D01*
X151596192Y-106910500D01*
X151663231Y-106930185D01*
X151683873Y-106946819D01*
X152663325Y-107926272D01*
X152663332Y-107926278D01*
X152749823Y-107984069D01*
X152749824Y-107984069D01*
X152769873Y-107997465D01*
X152888256Y-108046501D01*
X152888260Y-108046501D01*
X152888261Y-108046502D01*
X153013928Y-108071500D01*
X153013931Y-108071500D01*
X158711890Y-108071500D01*
X158778929Y-108091185D01*
X158824684Y-108143989D01*
X158833507Y-108171309D01*
X158865133Y-108330304D01*
X158865135Y-108330312D01*
X158936784Y-108503289D01*
X158936789Y-108503298D01*
X159040805Y-108658968D01*
X159040808Y-108658972D01*
X159173196Y-108791360D01*
X159173200Y-108791363D01*
X159328870Y-108895379D01*
X159328876Y-108895382D01*
X159328877Y-108895383D01*
X159501857Y-108967034D01*
X159677333Y-109001938D01*
X159685487Y-109003560D01*
X159685491Y-109003561D01*
X159685492Y-109003561D01*
X159872725Y-109003561D01*
X159872726Y-109003560D01*
X160056359Y-108967034D01*
X160229339Y-108895383D01*
X160385016Y-108791363D01*
X160517410Y-108658969D01*
X160621430Y-108503292D01*
X160693081Y-108330312D01*
X160729608Y-108146677D01*
X160729608Y-107959445D01*
X160693081Y-107775810D01*
X160621430Y-107602830D01*
X160621429Y-107602829D01*
X160621426Y-107602823D01*
X160517410Y-107447153D01*
X160517407Y-107447149D01*
X160385019Y-107314761D01*
X160385015Y-107314758D01*
X160229345Y-107210742D01*
X160229336Y-107210737D01*
X160056359Y-107139088D01*
X160056351Y-107139086D01*
X159872728Y-107102561D01*
X159872724Y-107102561D01*
X159799916Y-107102561D01*
X159732877Y-107082876D01*
X159712239Y-107066246D01*
X159561716Y-106915723D01*
X159455174Y-106844535D01*
X159436700Y-106836883D01*
X159336791Y-106795499D01*
X159336785Y-106795497D01*
X159211118Y-106770500D01*
X159211116Y-106770500D01*
X153398808Y-106770500D01*
X153331769Y-106750815D01*
X153311127Y-106734181D01*
X152331674Y-105754727D01*
X152331673Y-105754726D01*
X152252765Y-105702002D01*
X152225127Y-105683535D01*
X152106744Y-105634499D01*
X152106738Y-105634497D01*
X151981071Y-105609500D01*
X151981069Y-105609500D01*
X148644078Y-105609500D01*
X148578704Y-105590867D01*
X147736405Y-105068272D01*
X147689817Y-105016202D01*
X147678776Y-104947210D01*
X147705676Y-104884545D01*
X147796298Y-104773407D01*
X147890509Y-104593049D01*
X147946486Y-104397418D01*
X147957100Y-104278037D01*
X147957099Y-103161964D01*
X147946486Y-103042582D01*
X147890509Y-102846951D01*
X147796298Y-102666593D01*
X147683583Y-102528359D01*
X147656475Y-102463965D01*
X147668484Y-102395135D01*
X147683581Y-102371642D01*
X147796298Y-102233407D01*
X147890509Y-102053049D01*
X147946486Y-101857418D01*
X147957100Y-101738037D01*
X147957099Y-100621964D01*
X147946486Y-100502582D01*
X147934745Y-100461549D01*
X147935228Y-100391682D01*
X147973408Y-100333167D01*
X148037163Y-100304582D01*
X148106251Y-100315004D01*
X148122852Y-100324337D01*
X148149763Y-100342318D01*
X148149771Y-100342323D01*
X148167098Y-100349500D01*
X148322749Y-100413973D01*
X148506379Y-100450499D01*
X148506383Y-100450500D01*
X148506384Y-100450500D01*
X148693617Y-100450500D01*
X148693618Y-100450499D01*
X148877251Y-100413973D01*
X149050231Y-100342322D01*
X149205908Y-100238302D01*
X149307392Y-100136817D01*
X149368713Y-100103334D01*
X149395072Y-100100500D01*
X152723730Y-100100500D01*
X152751779Y-100108736D01*
X152780495Y-100114256D01*
X152787171Y-100119128D01*
X152790769Y-100120185D01*
X152809255Y-100134714D01*
X152810329Y-100135737D01*
X152864213Y-100189621D01*
X152875527Y-100197841D01*
X152881491Y-100203522D01*
X152895011Y-100226914D01*
X152911515Y-100248313D01*
X152912237Y-100256715D01*
X152916456Y-100264014D01*
X152915183Y-100291000D01*
X152917498Y-100317926D01*
X152913562Y-100325384D01*
X152913166Y-100333806D01*
X152897504Y-100355822D01*
X152884895Y-100379723D01*
X152873442Y-100389648D01*
X152872666Y-100390740D01*
X152871767Y-100391100D01*
X152868860Y-100393620D01*
X152864542Y-100396757D01*
X152864536Y-100396762D01*
X152733758Y-100527540D01*
X152733754Y-100527545D01*
X152625052Y-100677162D01*
X152541084Y-100841956D01*
X152541082Y-100841962D01*
X152483932Y-101017855D01*
X152479950Y-101042999D01*
X152479950Y-101043000D01*
X153314314Y-101043000D01*
X153309920Y-101047394D01*
X153257259Y-101138606D01*
X153230000Y-101240339D01*
X153230000Y-101345661D01*
X153257259Y-101447394D01*
X153309920Y-101538606D01*
X153314314Y-101543000D01*
X152479950Y-101543000D01*
X152483932Y-101568144D01*
X152541082Y-101744037D01*
X152541084Y-101744043D01*
X152625049Y-101908833D01*
X152708946Y-102024308D01*
X152732425Y-102090115D01*
X152716599Y-102158169D01*
X152682939Y-102196459D01*
X152597452Y-102260455D01*
X152511206Y-102375664D01*
X152511202Y-102375671D01*
X152460908Y-102510517D01*
X152455274Y-102562930D01*
X152454501Y-102570123D01*
X152454500Y-102570135D01*
X152454500Y-104015870D01*
X152454501Y-104015876D01*
X152460908Y-104075483D01*
X152511202Y-104210328D01*
X152511206Y-104210335D01*
X152597452Y-104325544D01*
X152597455Y-104325547D01*
X152712664Y-104411793D01*
X152712671Y-104411797D01*
X152847517Y-104462091D01*
X152847516Y-104462091D01*
X152854444Y-104462835D01*
X152907127Y-104468500D01*
X154352872Y-104468499D01*
X154412483Y-104462091D01*
X154547331Y-104411796D01*
X154662546Y-104325546D01*
X154748796Y-104210331D01*
X154799091Y-104075483D01*
X154805500Y-104015873D01*
X154805499Y-102570128D01*
X154799091Y-102510517D01*
X154798319Y-102508448D01*
X154748797Y-102375671D01*
X154748793Y-102375664D01*
X154662547Y-102260455D01*
X154577059Y-102196458D01*
X154535189Y-102140524D01*
X154530205Y-102070832D01*
X154551054Y-102024306D01*
X154634947Y-101908838D01*
X154718915Y-101744043D01*
X154718917Y-101744037D01*
X154776067Y-101568144D01*
X154780049Y-101543000D01*
X153945686Y-101543000D01*
X153950080Y-101538606D01*
X154002741Y-101447394D01*
X154030000Y-101345661D01*
X154030000Y-101240339D01*
X154002741Y-101138606D01*
X153950080Y-101047394D01*
X153945686Y-101043000D01*
X154780050Y-101043000D01*
X154780049Y-101042999D01*
X154776067Y-101017855D01*
X154718917Y-100841962D01*
X154718915Y-100841956D01*
X154634947Y-100677162D01*
X154526245Y-100527545D01*
X154526241Y-100527540D01*
X154395459Y-100396758D01*
X154395452Y-100396752D01*
X154391148Y-100393625D01*
X154348482Y-100338295D01*
X154342504Y-100268682D01*
X154375110Y-100206887D01*
X154391155Y-100192986D01*
X154395787Y-100189621D01*
X154526621Y-100058787D01*
X154609572Y-99944615D01*
X154664902Y-99901949D01*
X154709890Y-99893500D01*
X159237110Y-99893500D01*
X159304149Y-99913185D01*
G37*
%TD.AperFunction*%
%TA.AperFunction,Conductor*%
G36*
X131897354Y-102020669D02*
G01*
X131926757Y-102040315D01*
X131926771Y-102040323D01*
X131965956Y-102056554D01*
X132099749Y-102111973D01*
X132230054Y-102137892D01*
X132283379Y-102148499D01*
X132283383Y-102148500D01*
X132476708Y-102148500D01*
X132476708Y-102149704D01*
X132539089Y-102161527D01*
X132570291Y-102184237D01*
X134431824Y-104045771D01*
X134431827Y-104045774D01*
X134431830Y-104045776D01*
X134498765Y-104090500D01*
X134538373Y-104116965D01*
X134656756Y-104166001D01*
X134656760Y-104166001D01*
X134656761Y-104166002D01*
X134782429Y-104191000D01*
X134783413Y-104191097D01*
X134783895Y-104191291D01*
X134788406Y-104192189D01*
X134788235Y-104193044D01*
X134848201Y-104217256D01*
X134888561Y-104274290D01*
X134891680Y-104344090D01*
X134856567Y-104404495D01*
X134794370Y-104436328D01*
X134771262Y-104438500D01*
X134696379Y-104438500D01*
X134512756Y-104475025D01*
X134512748Y-104475027D01*
X134339771Y-104546676D01*
X134339762Y-104546681D01*
X134184092Y-104650697D01*
X134184088Y-104650700D01*
X134051700Y-104783088D01*
X134051697Y-104783092D01*
X133947681Y-104938762D01*
X133947676Y-104938771D01*
X133876027Y-105111748D01*
X133876025Y-105111756D01*
X133839500Y-105295379D01*
X133839500Y-105482620D01*
X133876025Y-105666243D01*
X133876027Y-105666251D01*
X133947676Y-105839228D01*
X133947681Y-105839237D01*
X134051697Y-105994907D01*
X134051700Y-105994911D01*
X134184088Y-106127299D01*
X134184092Y-106127302D01*
X134339762Y-106231318D01*
X134339771Y-106231323D01*
X134361021Y-106240125D01*
X134512749Y-106302973D01*
X134696379Y-106339499D01*
X134696383Y-106339500D01*
X134696384Y-106339500D01*
X134883617Y-106339500D01*
X134883618Y-106339499D01*
X135067251Y-106302973D01*
X135240231Y-106231322D01*
X135395908Y-106127302D01*
X135528302Y-105994908D01*
X135600249Y-105887231D01*
X135653858Y-105842429D01*
X135723183Y-105833720D01*
X135740358Y-105837775D01*
X136001224Y-105919363D01*
X136059331Y-105958161D01*
X136087238Y-106022216D01*
X136076085Y-106091190D01*
X136037095Y-106138029D01*
X135998282Y-106166227D01*
X135998282Y-106166228D01*
X136849096Y-107017042D01*
X136882581Y-107078365D01*
X136877597Y-107148057D01*
X136849096Y-107192404D01*
X136760000Y-107281500D01*
X136849095Y-107370595D01*
X136882580Y-107431918D01*
X136877596Y-107501610D01*
X136849095Y-107545957D01*
X135998282Y-108396769D01*
X135998282Y-108396770D01*
X136052452Y-108436126D01*
X136061414Y-108440693D01*
X136112210Y-108488668D01*
X136129004Y-108556489D01*
X136106466Y-108622624D01*
X136054452Y-108664940D01*
X135430430Y-108935551D01*
X135361093Y-108944164D01*
X135298107Y-108913923D01*
X135293415Y-108909469D01*
X134668674Y-108284728D01*
X134635189Y-108223405D01*
X134634738Y-108172855D01*
X134650500Y-108093618D01*
X134650500Y-107906383D01*
X134650499Y-107906379D01*
X134634506Y-107825976D01*
X134613973Y-107722749D01*
X134542322Y-107549769D01*
X134542321Y-107549768D01*
X134542318Y-107549762D01*
X134438302Y-107394092D01*
X134438299Y-107394088D01*
X134305911Y-107261700D01*
X134305907Y-107261697D01*
X134176535Y-107175253D01*
X135410000Y-107175253D01*
X135410000Y-107387746D01*
X135443242Y-107597627D01*
X135443242Y-107597630D01*
X135508904Y-107799717D01*
X135605375Y-107989050D01*
X135644728Y-108043216D01*
X136406446Y-107281500D01*
X135644728Y-106519782D01*
X135644727Y-106519782D01*
X135605380Y-106573939D01*
X135508904Y-106763282D01*
X135443242Y-106965369D01*
X135443242Y-106965372D01*
X135410000Y-107175253D01*
X134176535Y-107175253D01*
X134150237Y-107157681D01*
X134150228Y-107157676D01*
X133977251Y-107086027D01*
X133977243Y-107086025D01*
X133793620Y-107049500D01*
X133793616Y-107049500D01*
X133606384Y-107049500D01*
X133606379Y-107049500D01*
X133422756Y-107086025D01*
X133422748Y-107086027D01*
X133249771Y-107157676D01*
X133249762Y-107157681D01*
X133094092Y-107261697D01*
X133094088Y-107261700D01*
X132961700Y-107394088D01*
X132961697Y-107394092D01*
X132857681Y-107549762D01*
X132857676Y-107549771D01*
X132786027Y-107722748D01*
X132786025Y-107722756D01*
X132749500Y-107906379D01*
X132749500Y-108093620D01*
X132786025Y-108277243D01*
X132786027Y-108277251D01*
X132857676Y-108450228D01*
X132857681Y-108450237D01*
X132961697Y-108605907D01*
X132961700Y-108605911D01*
X133094088Y-108738299D01*
X133094092Y-108738302D01*
X133249762Y-108842318D01*
X133249768Y-108842321D01*
X133249769Y-108842322D01*
X133422749Y-108913973D01*
X133429889Y-108915393D01*
X133491802Y-108947775D01*
X133493384Y-108949330D01*
X134667122Y-110123068D01*
X134673818Y-110131111D01*
X134680870Y-110136816D01*
X134704373Y-110160319D01*
X134737858Y-110221642D01*
X134732874Y-110291334D01*
X134691002Y-110347267D01*
X134625538Y-110371684D01*
X134616692Y-110372000D01*
X131405494Y-110372000D01*
X131338455Y-110352315D01*
X131292700Y-110299511D01*
X131282756Y-110230353D01*
X131311781Y-110166797D01*
X131340414Y-110144153D01*
X131339758Y-110143157D01*
X131344994Y-110139704D01*
X131345007Y-110139698D01*
X131502709Y-110011109D01*
X131631298Y-109853407D01*
X131725509Y-109673049D01*
X131781486Y-109477418D01*
X131792100Y-109358037D01*
X131792099Y-108241964D01*
X131781486Y-108122582D01*
X131725509Y-107926951D01*
X131631298Y-107746593D01*
X131518261Y-107607964D01*
X131491152Y-107543568D01*
X131503161Y-107474738D01*
X131518262Y-107451241D01*
X131630878Y-107313130D01*
X131725042Y-107132861D01*
X131780990Y-106937328D01*
X131780991Y-106937325D01*
X131791599Y-106818000D01*
X131791600Y-106817998D01*
X131791600Y-105702002D01*
X131791599Y-105701999D01*
X131780991Y-105582674D01*
X131780990Y-105582671D01*
X131725042Y-105387138D01*
X131630878Y-105206870D01*
X131518261Y-105068757D01*
X131491152Y-105004361D01*
X131503161Y-104935531D01*
X131518258Y-104912039D01*
X131631298Y-104773407D01*
X131725509Y-104593049D01*
X131781486Y-104397418D01*
X131792100Y-104278037D01*
X131792099Y-103161964D01*
X131781486Y-103042582D01*
X131725509Y-102846951D01*
X131631298Y-102666593D01*
X131518583Y-102528359D01*
X131491475Y-102463965D01*
X131503484Y-102395135D01*
X131518581Y-102371642D01*
X131631298Y-102233407D01*
X131718557Y-102066357D01*
X131767042Y-102016052D01*
X131835029Y-101999945D01*
X131897354Y-102020669D01*
G37*
%TD.AperFunction*%
%TA.AperFunction,Conductor*%
G36*
X141809312Y-102285506D02*
G01*
X141835634Y-102305580D01*
X143372121Y-103842067D01*
X143395859Y-103872291D01*
X143539002Y-104008948D01*
X143540041Y-104009987D01*
X143755325Y-104225272D01*
X143755326Y-104225273D01*
X143755329Y-104225275D01*
X143755331Y-104225277D01*
X143780593Y-104242156D01*
X143797323Y-104255564D01*
X144456735Y-104885097D01*
X144467210Y-104896425D01*
X144479614Y-104911637D01*
X144506724Y-104976033D01*
X144494715Y-105044863D01*
X144479615Y-105068359D01*
X144366905Y-105206587D01*
X144272689Y-105386954D01*
X144216714Y-105582583D01*
X144216713Y-105582586D01*
X144212098Y-105634497D01*
X144207739Y-105683535D01*
X144206100Y-105701966D01*
X144206100Y-106818028D01*
X144206100Y-106818033D01*
X144206101Y-106818036D01*
X144207777Y-106836884D01*
X144216713Y-106937415D01*
X144272689Y-107133045D01*
X144272690Y-107133048D01*
X144272691Y-107133049D01*
X144366902Y-107313407D01*
X144421802Y-107380737D01*
X144479615Y-107451639D01*
X144506724Y-107516036D01*
X144494715Y-107584865D01*
X144479615Y-107608361D01*
X144386339Y-107722756D01*
X144366902Y-107746593D01*
X144326903Y-107823168D01*
X144272689Y-107926954D01*
X144216714Y-108122583D01*
X144216713Y-108122586D01*
X144212326Y-108171931D01*
X144207739Y-108223535D01*
X144206100Y-108241966D01*
X144206100Y-109358028D01*
X144206101Y-109358034D01*
X144216713Y-109477415D01*
X144272690Y-109673047D01*
X144320246Y-109764089D01*
X144333837Y-109832624D01*
X144308218Y-109897627D01*
X144251522Y-109938461D01*
X144210337Y-109945500D01*
X141073380Y-109945500D01*
X141006341Y-109925815D01*
X140969930Y-109889867D01*
X140796453Y-109627368D01*
X140434926Y-109080319D01*
X140401301Y-109035132D01*
X140401297Y-109035128D01*
X140397154Y-109030581D01*
X140397193Y-109030545D01*
X140384038Y-109015943D01*
X140352407Y-108972406D01*
X140330107Y-108941711D01*
X140179786Y-108791390D01*
X140007820Y-108666451D01*
X140004854Y-108664940D01*
X139999054Y-108661985D01*
X139948259Y-108614012D01*
X139931463Y-108546192D01*
X139953999Y-108480056D01*
X139999054Y-108441015D01*
X140007816Y-108436551D01*
X140062572Y-108396769D01*
X140179786Y-108311609D01*
X140179788Y-108311606D01*
X140179792Y-108311604D01*
X140330104Y-108161292D01*
X140330106Y-108161288D01*
X140330109Y-108161286D01*
X140455048Y-107989320D01*
X140455047Y-107989320D01*
X140455051Y-107989316D01*
X140551557Y-107799912D01*
X140617246Y-107597743D01*
X140650500Y-107387787D01*
X140650500Y-107175213D01*
X140617246Y-106965257D01*
X140551557Y-106763088D01*
X140455051Y-106573684D01*
X140455049Y-106573681D01*
X140455048Y-106573679D01*
X140330109Y-106401713D01*
X140179786Y-106251390D01*
X140007820Y-106126451D01*
X140007115Y-106126091D01*
X139999054Y-106121985D01*
X139948259Y-106074012D01*
X139931463Y-106006192D01*
X139953999Y-105940056D01*
X139999054Y-105901015D01*
X140007816Y-105896551D01*
X140117392Y-105816940D01*
X140179786Y-105771609D01*
X140179788Y-105771606D01*
X140179792Y-105771604D01*
X140330104Y-105621292D01*
X140330106Y-105621288D01*
X140330109Y-105621286D01*
X140455048Y-105449320D01*
X140455047Y-105449320D01*
X140455051Y-105449316D01*
X140551557Y-105259912D01*
X140617246Y-105057743D01*
X140650500Y-104847787D01*
X140650500Y-104635213D01*
X140650499Y-104635211D01*
X140650256Y-104632120D01*
X140650500Y-104630957D01*
X140650500Y-104630341D01*
X140650629Y-104630341D01*
X140664611Y-104563741D01*
X140713655Y-104513978D01*
X140781818Y-104498630D01*
X140821320Y-104507812D01*
X140862749Y-104524973D01*
X141006145Y-104553496D01*
X141046379Y-104561499D01*
X141046383Y-104561500D01*
X141046384Y-104561500D01*
X141233617Y-104561500D01*
X141233618Y-104561499D01*
X141417251Y-104524973D01*
X141590231Y-104453322D01*
X141745908Y-104349302D01*
X141878302Y-104216908D01*
X141982322Y-104061231D01*
X142053973Y-103888251D01*
X142090500Y-103704616D01*
X142090500Y-103517384D01*
X142053973Y-103333749D01*
X141988312Y-103175230D01*
X141982323Y-103160771D01*
X141982318Y-103160762D01*
X141878302Y-103005092D01*
X141878299Y-103005088D01*
X141745911Y-102872700D01*
X141745905Y-102872695D01*
X141705608Y-102845769D01*
X141660804Y-102792157D01*
X141650500Y-102742668D01*
X141650500Y-102538928D01*
X141626336Y-102417453D01*
X141632563Y-102347862D01*
X141675425Y-102292684D01*
X141741315Y-102269439D01*
X141809312Y-102285506D01*
G37*
%TD.AperFunction*%
%TA.AperFunction,Conductor*%
G36*
X109468611Y-94539414D02*
G01*
X109492617Y-94538662D01*
X109502525Y-94544599D01*
X109513942Y-94546345D01*
X109531950Y-94562232D01*
X109552550Y-94574577D01*
X109561105Y-94587954D01*
X109566336Y-94592569D01*
X109572552Y-94603656D01*
X109574393Y-94607374D01*
X109607678Y-94687731D01*
X109632773Y-94725288D01*
X109636334Y-94732481D01*
X109641051Y-94759302D01*
X109649188Y-94785287D01*
X109647015Y-94793206D01*
X109648438Y-94801294D01*
X109637907Y-94826406D01*
X109630703Y-94852667D01*
X109628310Y-94856391D01*
X109607677Y-94887269D01*
X109536027Y-95060248D01*
X109536025Y-95060256D01*
X109499500Y-95243879D01*
X109499500Y-95431120D01*
X109536025Y-95614743D01*
X109536027Y-95614751D01*
X109586465Y-95736519D01*
X109593934Y-95805989D01*
X109588833Y-95825246D01*
X109494583Y-96092253D01*
X109494580Y-96092261D01*
X109477101Y-96154021D01*
X109475998Y-96159140D01*
X109472487Y-96172019D01*
X109460002Y-96209697D01*
X109460001Y-96209701D01*
X109449500Y-96312483D01*
X109449500Y-97362501D01*
X109449501Y-97362519D01*
X109460000Y-97465296D01*
X109460001Y-97465299D01*
X109509359Y-97614250D01*
X109515186Y-97631834D01*
X109515188Y-97631838D01*
X109515191Y-97631843D01*
X109531211Y-97657817D01*
X109538159Y-97671552D01*
X109538294Y-97671487D01*
X109540239Y-97675461D01*
X109681807Y-97918951D01*
X109698486Y-97986799D01*
X109675835Y-98052895D01*
X109621045Y-98096253D01*
X109551513Y-98103106D01*
X109509513Y-98086815D01*
X109394128Y-98015645D01*
X109394119Y-98015641D01*
X109227697Y-97960494D01*
X109227690Y-97960493D01*
X109124980Y-97950000D01*
X108075028Y-97950000D01*
X108075012Y-97950001D01*
X107972302Y-97960494D01*
X107805880Y-98015641D01*
X107805875Y-98015643D01*
X107656654Y-98107684D01*
X107532684Y-98231654D01*
X107440643Y-98380875D01*
X107440641Y-98380880D01*
X107385494Y-98547302D01*
X107385493Y-98547309D01*
X107375000Y-98650013D01*
X107375000Y-99249971D01*
X107375001Y-99249987D01*
X107385494Y-99352697D01*
X107440641Y-99519119D01*
X107440643Y-99519124D01*
X107532684Y-99668345D01*
X107656655Y-99792316D01*
X107656659Y-99792319D01*
X107659656Y-99794168D01*
X107661279Y-99795972D01*
X107662323Y-99796798D01*
X107662181Y-99796976D01*
X107706381Y-99846116D01*
X107717602Y-99915079D01*
X107689759Y-99979161D01*
X107659661Y-100005241D01*
X107656349Y-100007283D01*
X107656343Y-100007288D01*
X107532289Y-100131342D01*
X107528491Y-100137500D01*
X107458790Y-100250505D01*
X107436395Y-100286813D01*
X107434600Y-100285706D01*
X107430014Y-100290916D01*
X107422805Y-100306703D01*
X107407406Y-100316598D01*
X107395313Y-100330337D01*
X107378425Y-100335224D01*
X107364027Y-100344477D01*
X107329092Y-100349500D01*
X107288438Y-100349500D01*
X107240536Y-100339874D01*
X107205938Y-100325384D01*
X107059406Y-100264014D01*
X106427852Y-99999509D01*
X106410658Y-99990674D01*
X106369340Y-99965190D01*
X106369334Y-99965186D01*
X106202797Y-99910001D01*
X106202795Y-99910000D01*
X106100010Y-99899500D01*
X104499998Y-99899500D01*
X104499981Y-99899501D01*
X104397203Y-99910000D01*
X104397200Y-99910001D01*
X104230668Y-99965185D01*
X104230663Y-99965187D01*
X104081342Y-100057289D01*
X103957289Y-100181342D01*
X103865187Y-100330663D01*
X103865185Y-100330668D01*
X103843285Y-100396758D01*
X103810001Y-100497203D01*
X103810001Y-100497204D01*
X103810000Y-100497204D01*
X103799500Y-100599983D01*
X103799500Y-101900001D01*
X103799501Y-101900018D01*
X103810000Y-102002796D01*
X103810001Y-102002799D01*
X103865185Y-102169331D01*
X103865187Y-102169336D01*
X103878445Y-102190830D01*
X103941268Y-102292684D01*
X103957289Y-102318657D01*
X104081344Y-102442712D01*
X104236120Y-102538178D01*
X104282845Y-102590126D01*
X104294068Y-102659088D01*
X104266224Y-102723171D01*
X104258706Y-102731398D01*
X104119889Y-102870215D01*
X103994951Y-103042179D01*
X103898444Y-103231585D01*
X103832753Y-103433760D01*
X103799500Y-103643713D01*
X103799500Y-103856286D01*
X103831959Y-104061228D01*
X103832754Y-104066243D01*
X103884426Y-104225273D01*
X103898444Y-104268414D01*
X103994951Y-104457820D01*
X104119890Y-104629786D01*
X104119896Y-104629792D01*
X104270208Y-104780104D01*
X104442184Y-104905051D01*
X104461092Y-104914685D01*
X104491441Y-104936461D01*
X105472570Y-105894704D01*
X105510896Y-105928523D01*
X105510901Y-105928527D01*
X105510903Y-105928528D01*
X105512678Y-105929812D01*
X105527677Y-105942597D01*
X106501550Y-106916470D01*
X106535035Y-106977793D01*
X106530051Y-107047485D01*
X106488179Y-107103418D01*
X106422715Y-107127835D01*
X106401715Y-107127554D01*
X106121941Y-107100000D01*
X105778059Y-107100000D01*
X105435834Y-107133705D01*
X105435817Y-107133708D01*
X105098562Y-107200791D01*
X105098556Y-107200792D01*
X104769459Y-107300623D01*
X104451758Y-107432219D01*
X104451744Y-107432226D01*
X104148481Y-107594322D01*
X104148463Y-107594333D01*
X103862546Y-107785377D01*
X103862532Y-107785387D01*
X103657338Y-107953786D01*
X105080893Y-109377340D01*
X104972816Y-109455864D01*
X104805864Y-109622816D01*
X104727340Y-109730893D01*
X103303786Y-108307338D01*
X103135387Y-108512532D01*
X103135377Y-108512546D01*
X102944333Y-108798463D01*
X102944322Y-108798481D01*
X102782226Y-109101744D01*
X102782219Y-109101758D01*
X102739061Y-109205952D01*
X102695220Y-109260355D01*
X102628926Y-109282420D01*
X102561226Y-109265141D01*
X102513616Y-109214003D01*
X102500500Y-109158499D01*
X102500500Y-95191500D01*
X102520185Y-95124461D01*
X102572989Y-95078706D01*
X102642147Y-95068762D01*
X102705703Y-95097787D01*
X102739061Y-95144047D01*
X102782219Y-95248241D01*
X102782226Y-95248255D01*
X102944322Y-95551518D01*
X102944333Y-95551536D01*
X103135377Y-95837453D01*
X103135387Y-95837467D01*
X103303785Y-96042659D01*
X103303786Y-96042660D01*
X104727340Y-94619105D01*
X104805864Y-94727184D01*
X104972816Y-94894136D01*
X105080893Y-94972658D01*
X103657338Y-96396212D01*
X103657339Y-96396213D01*
X103862533Y-96564612D01*
X103862546Y-96564622D01*
X104148463Y-96755666D01*
X104148481Y-96755677D01*
X104451744Y-96917773D01*
X104451758Y-96917780D01*
X104769459Y-97049376D01*
X105098556Y-97149207D01*
X105098562Y-97149208D01*
X105435817Y-97216291D01*
X105435834Y-97216294D01*
X105778059Y-97250000D01*
X106121941Y-97250000D01*
X106464165Y-97216294D01*
X106464182Y-97216291D01*
X106801437Y-97149208D01*
X106801443Y-97149207D01*
X107130540Y-97049376D01*
X107448241Y-96917780D01*
X107448255Y-96917773D01*
X107751518Y-96755677D01*
X107751536Y-96755666D01*
X108037453Y-96564622D01*
X108037466Y-96564612D01*
X108242659Y-96396213D01*
X108242659Y-96396212D01*
X106819106Y-94972659D01*
X106927184Y-94894136D01*
X107094136Y-94727184D01*
X107172659Y-94619106D01*
X108596212Y-96042659D01*
X108596213Y-96042659D01*
X108764612Y-95837466D01*
X108764622Y-95837453D01*
X108955666Y-95551536D01*
X108955677Y-95551518D01*
X109117773Y-95248255D01*
X109117780Y-95248241D01*
X109249377Y-94930537D01*
X109342765Y-94622680D01*
X109355929Y-94602592D01*
X109365216Y-94580447D01*
X109374732Y-94573901D01*
X109381063Y-94564241D01*
X109402994Y-94554461D01*
X109422782Y-94540850D01*
X109434328Y-94540488D01*
X109444875Y-94535785D01*
X109468611Y-94539414D01*
G37*
%TD.AperFunction*%
%TA.AperFunction,Conductor*%
G36*
X131984679Y-97930884D02*
G01*
X131990759Y-97935567D01*
X131994091Y-97938302D01*
X132149762Y-98042318D01*
X132149771Y-98042323D01*
X132173865Y-98052303D01*
X132322749Y-98113973D01*
X132453049Y-98139891D01*
X132506379Y-98150499D01*
X132506383Y-98150500D01*
X132506384Y-98150500D01*
X132693617Y-98150500D01*
X132693618Y-98150499D01*
X132877251Y-98113973D01*
X132938431Y-98088630D01*
X133007900Y-98081162D01*
X133070380Y-98112437D01*
X133073565Y-98115511D01*
X135518325Y-100560272D01*
X135518328Y-100560274D01*
X135518331Y-100560277D01*
X135623499Y-100630547D01*
X135623507Y-100630556D01*
X135623509Y-100630554D01*
X135624868Y-100631462D01*
X135624871Y-100631464D01*
X135624872Y-100631464D01*
X135624873Y-100631465D01*
X135743256Y-100680501D01*
X135743260Y-100680501D01*
X135743261Y-100680502D01*
X135868928Y-100705500D01*
X135868931Y-100705500D01*
X135997069Y-100705500D01*
X136478414Y-100705500D01*
X136545453Y-100725185D01*
X136591208Y-100777989D01*
X136601152Y-100847147D01*
X136572127Y-100910703D01*
X136516733Y-100947430D01*
X136334188Y-101006743D01*
X136334185Y-101006744D01*
X136144779Y-101103251D01*
X135972813Y-101228190D01*
X135822490Y-101378513D01*
X135697551Y-101550479D01*
X135601044Y-101739885D01*
X135535353Y-101942060D01*
X135507566Y-102117500D01*
X135502100Y-102152013D01*
X135502100Y-102364587D01*
X135503855Y-102375669D01*
X135535353Y-102574540D01*
X135585112Y-102727682D01*
X135587107Y-102797523D01*
X135551027Y-102857356D01*
X135488326Y-102888184D01*
X135467181Y-102890000D01*
X135167308Y-102890000D01*
X135100269Y-102870315D01*
X135079627Y-102853681D01*
X133353394Y-101127448D01*
X133319909Y-101066125D01*
X133319488Y-101064106D01*
X133290973Y-100920749D01*
X133230514Y-100774788D01*
X133219323Y-100747771D01*
X133219318Y-100747762D01*
X133115302Y-100592092D01*
X133115299Y-100592088D01*
X132982911Y-100459700D01*
X132982907Y-100459697D01*
X132827237Y-100355681D01*
X132827228Y-100355676D01*
X132654251Y-100284027D01*
X132654243Y-100284025D01*
X132470620Y-100247500D01*
X132470616Y-100247500D01*
X132283384Y-100247500D01*
X132283379Y-100247500D01*
X132099756Y-100284025D01*
X132099748Y-100284027D01*
X131926771Y-100355676D01*
X131926759Y-100355683D01*
X131910536Y-100366523D01*
X131843858Y-100387400D01*
X131776478Y-100368914D01*
X131729789Y-100316935D01*
X131726495Y-100309420D01*
X131725511Y-100306958D01*
X131725509Y-100306951D01*
X131631298Y-100126593D01*
X131518583Y-99988359D01*
X131491475Y-99923965D01*
X131503484Y-99855135D01*
X131518581Y-99831642D01*
X131631298Y-99693407D01*
X131725509Y-99513049D01*
X131781486Y-99317418D01*
X131792100Y-99198037D01*
X131792099Y-98081964D01*
X131788581Y-98042397D01*
X131802251Y-97973882D01*
X131850796Y-97923631D01*
X131918802Y-97907602D01*
X131984679Y-97930884D01*
G37*
%TD.AperFunction*%
%TA.AperFunction,Conductor*%
G36*
X142723250Y-94688736D02*
G01*
X142731087Y-94687467D01*
X142756296Y-94698440D01*
X142782672Y-94706185D01*
X142789502Y-94712894D01*
X142795151Y-94715353D01*
X142818733Y-94741607D01*
X142836911Y-94768812D01*
X142861699Y-94805910D01*
X142994088Y-94938299D01*
X142994092Y-94938302D01*
X143149762Y-95042318D01*
X143149771Y-95042323D01*
X143154392Y-95044237D01*
X143322749Y-95113973D01*
X143488778Y-95146998D01*
X143506379Y-95150499D01*
X143506383Y-95150500D01*
X143506384Y-95150500D01*
X143693617Y-95150500D01*
X143693618Y-95150499D01*
X143877251Y-95113973D01*
X144050231Y-95042322D01*
X144136652Y-94984576D01*
X144139840Y-94983578D01*
X144142116Y-94981128D01*
X144172945Y-94973212D01*
X144203326Y-94963700D01*
X144206551Y-94964584D01*
X144209791Y-94963753D01*
X144240005Y-94973761D01*
X144270707Y-94982184D01*
X144272942Y-94984672D01*
X144276116Y-94985724D01*
X144296122Y-95010477D01*
X144317397Y-95034162D01*
X144317931Y-95037462D01*
X144320035Y-95040065D01*
X144323483Y-95071722D01*
X144328574Y-95103132D01*
X144327347Y-95107186D01*
X144327602Y-95109523D01*
X144319204Y-95134102D01*
X144316504Y-95143027D01*
X144315971Y-95144094D01*
X144272691Y-95226951D01*
X144270063Y-95236133D01*
X144264956Y-95246373D01*
X144261204Y-95250413D01*
X144255757Y-95261879D01*
X143498453Y-96349563D01*
X143484371Y-96366390D01*
X143419480Y-96431282D01*
X143373799Y-96510406D01*
X143373799Y-96510407D01*
X143340423Y-96568214D01*
X143333489Y-96594092D01*
X143299499Y-96720943D01*
X143299499Y-96720945D01*
X143299499Y-96889046D01*
X143299500Y-96889059D01*
X143299500Y-99166927D01*
X143279815Y-99233966D01*
X143263181Y-99254608D01*
X143195700Y-99322088D01*
X143195697Y-99322092D01*
X143091681Y-99477762D01*
X143091676Y-99477771D01*
X143020027Y-99650748D01*
X143020025Y-99650756D01*
X142983500Y-99834379D01*
X142983500Y-100021620D01*
X143020025Y-100205243D01*
X143020027Y-100205251D01*
X143083317Y-100358047D01*
X143086824Y-100390675D01*
X143091494Y-100423147D01*
X143090540Y-100425234D01*
X143090786Y-100427517D01*
X143076097Y-100456860D01*
X143062469Y-100486703D01*
X143060538Y-100487943D01*
X143059511Y-100489996D01*
X143031295Y-100506736D01*
X143003691Y-100524477D01*
X143000661Y-100524912D01*
X142999422Y-100525648D01*
X142968756Y-100529500D01*
X142966808Y-100529500D01*
X142899769Y-100509815D01*
X142879127Y-100493181D01*
X141598127Y-99212181D01*
X141564642Y-99150858D01*
X141569626Y-99081166D01*
X141611498Y-99025233D01*
X141676962Y-99000816D01*
X141685808Y-99000500D01*
X141698543Y-99000500D01*
X141830774Y-98974197D01*
X141891835Y-98962051D01*
X142073914Y-98886632D01*
X142237782Y-98777139D01*
X142377139Y-98637782D01*
X142486632Y-98473914D01*
X142495823Y-98451726D01*
X142549246Y-98322749D01*
X142562051Y-98291835D01*
X142578482Y-98209230D01*
X142600500Y-98098543D01*
X142600500Y-97901456D01*
X142562052Y-97708170D01*
X142562051Y-97708169D01*
X142562051Y-97708165D01*
X142544894Y-97666743D01*
X142486635Y-97526092D01*
X142486628Y-97526079D01*
X142377139Y-97362218D01*
X142377136Y-97362214D01*
X142237785Y-97222863D01*
X142237781Y-97222860D01*
X142073920Y-97113371D01*
X142073907Y-97113364D01*
X141891839Y-97037950D01*
X141891829Y-97037947D01*
X141698543Y-96999500D01*
X141698541Y-96999500D01*
X140947729Y-96999500D01*
X140880690Y-96979815D01*
X140834935Y-96927011D01*
X140824991Y-96857853D01*
X140830686Y-96834548D01*
X140843841Y-96796957D01*
X140858500Y-96666852D01*
X140858500Y-94810500D01*
X140878185Y-94743461D01*
X140930989Y-94697706D01*
X140982500Y-94686500D01*
X142715633Y-94686500D01*
X142723250Y-94688736D01*
G37*
%TD.AperFunction*%
%TA.AperFunction,Conductor*%
G36*
X136161039Y-94706185D02*
G01*
X136206794Y-94758989D01*
X136218000Y-94810500D01*
X136218000Y-96666830D01*
X136232648Y-96796839D01*
X136290330Y-96961686D01*
X136383246Y-97109562D01*
X136506737Y-97233053D01*
X136654613Y-97325969D01*
X136819460Y-97383651D01*
X136949469Y-97398299D01*
X136949473Y-97398300D01*
X137586527Y-97398300D01*
X137586530Y-97398299D01*
X137716539Y-97383651D01*
X137881386Y-97325969D01*
X138029262Y-97233053D01*
X138152753Y-97109562D01*
X138245669Y-96961686D01*
X138303351Y-96796839D01*
X138317999Y-96666830D01*
X138318000Y-96666826D01*
X138318000Y-94810500D01*
X138320550Y-94801814D01*
X138319262Y-94792853D01*
X138330240Y-94768812D01*
X138337685Y-94743461D01*
X138344525Y-94737533D01*
X138348287Y-94729297D01*
X138370521Y-94715007D01*
X138390489Y-94697706D01*
X138401003Y-94695418D01*
X138407065Y-94691523D01*
X138442000Y-94686500D01*
X138633500Y-94686500D01*
X138700539Y-94706185D01*
X138746294Y-94758989D01*
X138757500Y-94810500D01*
X138757500Y-96666858D01*
X138772157Y-96796948D01*
X138772159Y-96796958D01*
X138800541Y-96878066D01*
X138807500Y-96919021D01*
X138807500Y-97265028D01*
X138805117Y-97289220D01*
X138799500Y-97317457D01*
X138799500Y-98098543D01*
X138813915Y-98171013D01*
X138813918Y-98171026D01*
X138814618Y-98174543D01*
X138837949Y-98291836D01*
X138854482Y-98331750D01*
X138857767Y-98339681D01*
X138857769Y-98339688D01*
X138912180Y-98471048D01*
X138919649Y-98540517D01*
X138888374Y-98602996D01*
X138828284Y-98638648D01*
X138797619Y-98642500D01*
X136888808Y-98642500D01*
X136821769Y-98622815D01*
X136801127Y-98606181D01*
X133469687Y-95274741D01*
X133436202Y-95213418D01*
X133435751Y-95162872D01*
X133454500Y-95068616D01*
X133454500Y-94881384D01*
X133445212Y-94834689D01*
X133451440Y-94765099D01*
X133494304Y-94709922D01*
X133560194Y-94686678D01*
X133566830Y-94686500D01*
X136094000Y-94686500D01*
X136161039Y-94706185D01*
G37*
%TD.AperFunction*%
%TD*%
%TA.AperFunction,Conductor*%
%TO.N,FLP_DTR*%
G36*
X139781584Y-101501817D02*
G01*
X139782114Y-101502194D01*
X140446040Y-102002371D01*
X140716686Y-102206266D01*
X140860340Y-102314489D01*
X140864886Y-102322204D01*
X140865000Y-102323834D01*
X140865000Y-102609279D01*
X140861573Y-102617552D01*
X140856643Y-102620491D01*
X139478125Y-103031500D01*
X139469218Y-103030580D01*
X139463570Y-103023631D01*
X139463309Y-103022584D01*
X139382845Y-102620491D01*
X139299953Y-102206264D01*
X139301689Y-102197483D01*
X139765353Y-101505027D01*
X139772803Y-101500062D01*
X139781584Y-101501817D01*
G37*
%TD.AperFunction*%
%TD*%
%TA.AperFunction,Conductor*%
%TO.N,FLP_RTS*%
G36*
X139231201Y-107267038D02*
G01*
X139293021Y-107279272D01*
X139300472Y-107284239D01*
X139302227Y-107288478D01*
X139463891Y-108105386D01*
X139462136Y-108114167D01*
X139456476Y-108118629D01*
X138222566Y-108575494D01*
X138213618Y-108575153D01*
X138210231Y-108572795D01*
X138008704Y-108371268D01*
X138005277Y-108362995D01*
X138006004Y-108358938D01*
X138462871Y-107125021D01*
X138468956Y-107118454D01*
X138476111Y-107117608D01*
X139231201Y-107267038D01*
G37*
%TD.AperFunction*%
%TD*%
%TA.AperFunction,Conductor*%
%TO.N,GND*%
G36*
X125101000Y-93721250D02*
G01*
X124485195Y-93998414D01*
X124000000Y-93871250D01*
X124000000Y-93571250D01*
X124485195Y-93444086D01*
X125101000Y-93721250D01*
G37*
%TD.AperFunction*%
%TD*%
%TA.AperFunction,Conductor*%
%TO.N,GND*%
G36*
X111161111Y-104387045D02*
G01*
X111055045Y-104493111D01*
X110863554Y-104368934D01*
X110932293Y-104264293D01*
X111036934Y-104195554D01*
X111161111Y-104387045D01*
G37*
%TD.AperFunction*%
%TD*%
%TA.AperFunction,Conductor*%
%TO.N,GND*%
G36*
X109100000Y-98454972D02*
G01*
X108600000Y-98951000D01*
X108100000Y-98454972D01*
X108350000Y-97950000D01*
X108850000Y-97950000D01*
X109100000Y-98454972D01*
G37*
%TD.AperFunction*%
%TD*%
%TA.AperFunction,Conductor*%
%TO.N,GND*%
G36*
X126239818Y-93832686D02*
G01*
X126027686Y-94044818D01*
X125071350Y-94021250D01*
X125099293Y-93720543D01*
X125855059Y-93573363D01*
X126239818Y-93832686D01*
G37*
%TD.AperFunction*%
%TD*%
%TA.AperFunction,Conductor*%
%TO.N,GND*%
G36*
X113827000Y-105310027D02*
G01*
X113477000Y-105815000D01*
X113177000Y-105815000D01*
X112827000Y-105310027D01*
X113327000Y-104814000D01*
X113827000Y-105310027D01*
G37*
%TD.AperFunction*%
%TD*%
%TA.AperFunction,Conductor*%
%TO.N,GND*%
G36*
X112830970Y-96266829D02*
G01*
X112350000Y-96838500D01*
X111869030Y-96266829D01*
X112100000Y-95612500D01*
X112600000Y-95612500D01*
X112830970Y-96266829D01*
G37*
%TD.AperFunction*%
%TD*%
%TA.AperFunction,Conductor*%
%TO.N,GND*%
G36*
X113328000Y-104815000D02*
G01*
X112756329Y-105295970D01*
X112102000Y-104890000D01*
X112102000Y-104740000D01*
X112756329Y-104334030D01*
X113328000Y-104815000D01*
G37*
%TD.AperFunction*%
%TD*%
%TA.AperFunction,Conductor*%
%TO.N,GND*%
G36*
X115793784Y-97350000D02*
G01*
X115793784Y-97650000D01*
X115314805Y-97808414D01*
X114699000Y-97531250D01*
X115314805Y-97254086D01*
X115793784Y-97350000D01*
G37*
%TD.AperFunction*%
%TD*%
%TA.AperFunction,Conductor*%
%TO.N,GND*%
G36*
X112830970Y-97408171D02*
G01*
X112550000Y-98062500D01*
X112250000Y-98062500D01*
X111873149Y-97414337D01*
X112350000Y-96836500D01*
X112830970Y-97408171D01*
G37*
%TD.AperFunction*%
%TD*%
%TA.AperFunction,Conductor*%
%TO.N,GND*%
G36*
X112688582Y-98255097D02*
G01*
X112400000Y-98901000D01*
X112111418Y-98255097D01*
X112250000Y-97862500D01*
X112550000Y-97862500D01*
X112688582Y-98255097D01*
G37*
%TD.AperFunction*%
%TD*%
%TA.AperFunction,Conductor*%
%TO.N,+BATT*%
G36*
X106194001Y-100449613D02*
G01*
X107142821Y-100846993D01*
X107149127Y-100853349D01*
X107150000Y-100857784D01*
X107150000Y-101840685D01*
X107146573Y-101848958D01*
X107140922Y-101852087D01*
X106151915Y-102079533D01*
X106143085Y-102078048D01*
X106141098Y-102076481D01*
X105307862Y-101258697D01*
X105304358Y-101250456D01*
X105307707Y-101242152D01*
X105308187Y-101241690D01*
X106181633Y-100451727D01*
X106190067Y-100448720D01*
X106194001Y-100449613D01*
G37*
%TD.AperFunction*%
%TD*%
%TA.AperFunction,Conductor*%
%TO.N,+BATT*%
G36*
X111152796Y-100478007D02*
G01*
X111154255Y-100479241D01*
X111442685Y-100766713D01*
X111446126Y-100774981D01*
X111442713Y-100783259D01*
X111442685Y-100783287D01*
X111154255Y-101070758D01*
X111145977Y-101074171D01*
X111144073Y-101074012D01*
X110859777Y-101026629D01*
X110852179Y-101021888D01*
X110850000Y-101015088D01*
X110850000Y-100534911D01*
X110853427Y-100526638D01*
X110859775Y-100523370D01*
X111144075Y-100475987D01*
X111152796Y-100478007D01*
G37*
%TD.AperFunction*%
%TD*%
%TA.AperFunction,Conductor*%
%TO.N,+BATT*%
G36*
X109176394Y-100370394D02*
G01*
X109816014Y-100522858D01*
X109823266Y-100528109D01*
X109825000Y-100534238D01*
X109825000Y-101017502D01*
X109821573Y-101025775D01*
X109818187Y-101028132D01*
X109201857Y-101311478D01*
X109192909Y-101311821D01*
X109189781Y-101310079D01*
X108610402Y-100858879D01*
X108605980Y-100851092D01*
X108608360Y-100842459D01*
X108610055Y-100840698D01*
X109166162Y-100372823D01*
X109174696Y-100370120D01*
X109176394Y-100370394D01*
G37*
%TD.AperFunction*%
%TD*%
%TA.AperFunction,Conductor*%
%TO.N,+BATT*%
G36*
X107880371Y-100656651D02*
G01*
X108594258Y-100848191D01*
X108601360Y-100853644D01*
X108602610Y-100856792D01*
X108717318Y-101340588D01*
X108715893Y-101349428D01*
X108710726Y-101353961D01*
X107622358Y-101842595D01*
X107613407Y-101842857D01*
X107606892Y-101836713D01*
X107605866Y-101831921D01*
X107605866Y-100855974D01*
X107609293Y-100847701D01*
X107610698Y-100846502D01*
X107870489Y-100658474D01*
X107879199Y-100656400D01*
X107880371Y-100656651D01*
G37*
%TD.AperFunction*%
%TD*%
%TA.AperFunction,Conductor*%
%TO.N,+3V3*%
G36*
X110457533Y-96845752D02*
G01*
X110459039Y-96847244D01*
X110926325Y-97402651D01*
X110929029Y-97411187D01*
X110928123Y-97414799D01*
X110653042Y-98055416D01*
X110646629Y-98061666D01*
X110642291Y-98062500D01*
X110356732Y-98062500D01*
X110348459Y-98059073D01*
X110346617Y-98056681D01*
X109977244Y-97421380D01*
X109976049Y-97412505D01*
X109978334Y-97408053D01*
X110441064Y-96847327D01*
X110448971Y-96843129D01*
X110457533Y-96845752D01*
G37*
%TD.AperFunction*%
%TD*%
%TA.AperFunction,Conductor*%
%TO.N,+3V3*%
G36*
X110649995Y-97865927D02*
G01*
X110652755Y-97870306D01*
X110787027Y-98250694D01*
X110786676Y-98259361D01*
X110510682Y-98877091D01*
X110504179Y-98883246D01*
X110495227Y-98883000D01*
X110489318Y-98877091D01*
X110213323Y-98259361D01*
X110212972Y-98250694D01*
X110347245Y-97870306D01*
X110353230Y-97863645D01*
X110358278Y-97862500D01*
X110641722Y-97862500D01*
X110649995Y-97865927D01*
G37*
%TD.AperFunction*%
%TD*%
%TA.AperFunction,Conductor*%
%TO.N,+3V3*%
G36*
X124488962Y-92175781D02*
G01*
X124942793Y-92380043D01*
X125077295Y-92440581D01*
X125083433Y-92447101D01*
X125083162Y-92456052D01*
X125077295Y-92461919D01*
X124488965Y-92726717D01*
X124481197Y-92727366D01*
X124008734Y-92603539D01*
X124001600Y-92598126D01*
X124000000Y-92592221D01*
X124000000Y-92310278D01*
X124003427Y-92302005D01*
X124008731Y-92298961D01*
X124481199Y-92175133D01*
X124488962Y-92175781D01*
G37*
%TD.AperFunction*%
%TD*%
%TA.AperFunction,Conductor*%
%TO.N,+3V3*%
G36*
X110699995Y-95615927D02*
G01*
X110702755Y-95620306D01*
X110928743Y-96260521D01*
X110928265Y-96269463D01*
X110926663Y-96271947D01*
X110458953Y-96827858D01*
X110451004Y-96831983D01*
X110442468Y-96829279D01*
X110441047Y-96827858D01*
X109973336Y-96271947D01*
X109970632Y-96263411D01*
X109971254Y-96260525D01*
X110197245Y-95620306D01*
X110203230Y-95613645D01*
X110208278Y-95612500D01*
X110691722Y-95612500D01*
X110699995Y-95615927D01*
G37*
%TD.AperFunction*%
%TD*%
%TA.AperFunction,Conductor*%
%TO.N,+3V3*%
G36*
X110606805Y-103220829D02*
G01*
X110609975Y-103226662D01*
X110653143Y-103429103D01*
X110651517Y-103437909D01*
X110644140Y-103442986D01*
X110644072Y-103443000D01*
X110535372Y-103465508D01*
X110530628Y-103465508D01*
X110421927Y-103443000D01*
X110414520Y-103437967D01*
X110412842Y-103429171D01*
X110456025Y-103226661D01*
X110461102Y-103219285D01*
X110467468Y-103217402D01*
X110598532Y-103217402D01*
X110606805Y-103220829D01*
G37*
%TD.AperFunction*%
%TD*%
%TA.AperFunction,Conductor*%
%TO.N,+3V3*%
G36*
X113985222Y-102492583D02*
G01*
X114546856Y-102872520D01*
X114551788Y-102879994D01*
X114552000Y-102882211D01*
X114552000Y-103068696D01*
X114548573Y-103076969D01*
X114545440Y-103079207D01*
X113904513Y-103392623D01*
X113895575Y-103393178D01*
X113891841Y-103391065D01*
X113338042Y-102925131D01*
X113333918Y-102917184D01*
X113336622Y-102908648D01*
X113339170Y-102906389D01*
X113972264Y-102492480D01*
X113981063Y-102490822D01*
X113985222Y-102492583D01*
G37*
%TD.AperFunction*%
%TD*%
%TA.AperFunction,Conductor*%
%TO.N,+3V3*%
G36*
X126190991Y-92297726D02*
G01*
X126198138Y-92303122D01*
X126199751Y-92309050D01*
X126199751Y-92590995D01*
X126196324Y-92599268D01*
X126191046Y-92602305D01*
X125718817Y-92727351D01*
X125711020Y-92726710D01*
X125122704Y-92461919D01*
X125116566Y-92455399D01*
X125116837Y-92446448D01*
X125122704Y-92440581D01*
X125711050Y-92175775D01*
X125718790Y-92175121D01*
X126190991Y-92297726D01*
G37*
%TD.AperFunction*%
%TD*%
%TA.AperFunction,Conductor*%
%TO.N,+3V3*%
G36*
X112759076Y-102436740D02*
G01*
X112761302Y-102438214D01*
X113315435Y-102904428D01*
X113319560Y-102912377D01*
X113316856Y-102920913D01*
X113313906Y-102923424D01*
X112665315Y-103311131D01*
X112656456Y-103312434D01*
X112651329Y-103309642D01*
X112105717Y-102800468D01*
X112102007Y-102792318D01*
X112102000Y-102791914D01*
X112102000Y-102655496D01*
X112105427Y-102647223D01*
X112110077Y-102644370D01*
X112750150Y-102436041D01*
X112759076Y-102436740D01*
G37*
%TD.AperFunction*%
%TD*%
%TA.AperFunction,Conductor*%
%TO.N,LORA_SPI_SCK*%
G36*
X128550706Y-95655824D02*
G01*
X129910980Y-96097240D01*
X129917792Y-96103053D01*
X129918779Y-96105778D01*
X130141397Y-97086191D01*
X130139887Y-97095018D01*
X130132578Y-97100192D01*
X130130380Y-97100475D01*
X127910279Y-97175046D01*
X127901895Y-97171899D01*
X127901613Y-97171626D01*
X127770061Y-97040074D01*
X127766634Y-97031801D01*
X127768139Y-97026062D01*
X128536901Y-95661210D01*
X128543947Y-95655685D01*
X128550706Y-95655824D01*
G37*
%TD.AperFunction*%
%TD*%
%TA.AperFunction,Conductor*%
%TO.N,LORA_SPI_SCK*%
G36*
X126185495Y-97397474D02*
G01*
X126192409Y-97403163D01*
X126193784Y-97408666D01*
X126193784Y-97592331D01*
X126190357Y-97600604D01*
X126186752Y-97603059D01*
X125719553Y-97806347D01*
X125710600Y-97806506D01*
X125710083Y-97806288D01*
X125122704Y-97541919D01*
X125116566Y-97535399D01*
X125116837Y-97526448D01*
X125122704Y-97520581D01*
X125710799Y-97255888D01*
X125719007Y-97255366D01*
X126185495Y-97397474D01*
G37*
%TD.AperFunction*%
%TD*%
%TA.AperFunction,Conductor*%
%TO.N,LORA_SPI_MISO*%
G36*
X126170461Y-99889551D02*
G01*
X126177856Y-99894601D01*
X126179762Y-99901002D01*
X126179762Y-100084538D01*
X126176335Y-100092811D01*
X126173642Y-100094821D01*
X125756218Y-100321338D01*
X125747312Y-100322272D01*
X125746413Y-100321965D01*
X125125081Y-100081350D01*
X125118604Y-100075167D01*
X125118396Y-100066215D01*
X125124504Y-100059771D01*
X125711332Y-99795649D01*
X125718533Y-99794867D01*
X126170461Y-99889551D01*
G37*
%TD.AperFunction*%
%TD*%
%TA.AperFunction,Conductor*%
%TO.N,LORA_SPI_MISO*%
G36*
X128695504Y-97791620D02*
G01*
X129905180Y-98630879D01*
X129910024Y-98638411D01*
X129908124Y-98647161D01*
X129906348Y-98649179D01*
X128856684Y-99596142D01*
X128848246Y-99599140D01*
X128842834Y-99597492D01*
X127695968Y-98910431D01*
X127693708Y-98908667D01*
X127562202Y-98777161D01*
X127558775Y-98768888D01*
X127562202Y-98760615D01*
X127562811Y-98760047D01*
X128681184Y-97792384D01*
X128689679Y-97789564D01*
X128695504Y-97791620D01*
G37*
%TD.AperFunction*%
%TD*%
%TA.AperFunction,Conductor*%
%TO.N,LORA_SPI_MOSI*%
G36*
X128588116Y-100494738D02*
G01*
X129902258Y-101171542D01*
X129908044Y-101178377D01*
X129907303Y-101187301D01*
X129904738Y-101190631D01*
X128855345Y-102137350D01*
X128846907Y-102140348D01*
X128843767Y-102139749D01*
X127842893Y-101801997D01*
X127838361Y-101799184D01*
X127706066Y-101666889D01*
X127702639Y-101658616D01*
X127704991Y-101651581D01*
X128573415Y-100498103D01*
X128581128Y-100493556D01*
X128588116Y-100494738D01*
G37*
%TD.AperFunction*%
%TD*%
%TA.AperFunction,Conductor*%
%TO.N,LORA_SPI_MOSI*%
G36*
X124351538Y-98653065D02*
G01*
X125070898Y-98794675D01*
X125078352Y-98799635D01*
X125080117Y-98808414D01*
X125075156Y-98815869D01*
X125074661Y-98816184D01*
X124603001Y-99099447D01*
X124596500Y-99101107D01*
X124162778Y-99083394D01*
X124154982Y-99079977D01*
X124025606Y-98950601D01*
X124022179Y-98942328D01*
X124025606Y-98934055D01*
X124026132Y-98933560D01*
X124341553Y-98655765D01*
X124350025Y-98652869D01*
X124351538Y-98653065D01*
G37*
%TD.AperFunction*%
%TD*%
%TA.AperFunction,Conductor*%
%TO.N,LORA_NSS*%
G36*
X145021788Y-100223945D02*
G01*
X146072956Y-101171309D01*
X146076807Y-101179393D01*
X146073814Y-101187833D01*
X146072956Y-101188691D01*
X145021788Y-102136054D01*
X145013348Y-102139047D01*
X145007787Y-102137305D01*
X143712132Y-101333432D01*
X143706908Y-101326158D01*
X143706600Y-101323490D01*
X143706600Y-101036509D01*
X143710027Y-101028236D01*
X143712127Y-101026570D01*
X145007789Y-100222693D01*
X145016623Y-100221244D01*
X145021788Y-100223945D01*
G37*
%TD.AperFunction*%
%TD*%
%TA.AperFunction,Conductor*%
%TO.N,LORA_NSS*%
G36*
X124488962Y-94715781D02*
G01*
X124942793Y-94920043D01*
X125077295Y-94980581D01*
X125083433Y-94987101D01*
X125083162Y-94996052D01*
X125077295Y-95001919D01*
X124488965Y-95266717D01*
X124481197Y-95267366D01*
X124008734Y-95143539D01*
X124001600Y-95138126D01*
X124000000Y-95132221D01*
X124000000Y-94850278D01*
X124003427Y-94842005D01*
X124008731Y-94838961D01*
X124481199Y-94715133D01*
X124488962Y-94715781D01*
G37*
%TD.AperFunction*%
%TD*%
%TA.AperFunction,Conductor*%
%TO.N,LORA_RST*%
G36*
X145021159Y-102763384D02*
G01*
X146071121Y-103710615D01*
X146074969Y-103718701D01*
X146071971Y-103727139D01*
X146069760Y-103729046D01*
X144844267Y-104543579D01*
X144835480Y-104545305D01*
X144829712Y-104542298D01*
X143744922Y-103506661D01*
X143741304Y-103498469D01*
X143744538Y-103490119D01*
X143744680Y-103489973D01*
X143947037Y-103287616D01*
X143950111Y-103285410D01*
X145008134Y-102761586D01*
X145017067Y-102760987D01*
X145021159Y-102763384D01*
G37*
%TD.AperFunction*%
%TD*%
%TA.AperFunction,Conductor*%
%TO.N,LORA_RST*%
G36*
X124488782Y-95985700D02*
G01*
X124726983Y-96092911D01*
X125077295Y-96250581D01*
X125083433Y-96257101D01*
X125083162Y-96266052D01*
X125077295Y-96271919D01*
X124489163Y-96536627D01*
X124481024Y-96537172D01*
X124011595Y-96397488D01*
X124004643Y-96391844D01*
X124003232Y-96386274D01*
X124003232Y-96104313D01*
X124006659Y-96096040D01*
X124012306Y-96092911D01*
X124481361Y-95984968D01*
X124488782Y-95985700D01*
G37*
%TD.AperFunction*%
%TD*%
%TA.AperFunction,Conductor*%
%TO.N,LORA_BUSY*%
G36*
X115791267Y-98648961D02*
G01*
X115798400Y-98654373D01*
X115800000Y-98660278D01*
X115800000Y-98942221D01*
X115796573Y-98950494D01*
X115791266Y-98953539D01*
X115318802Y-99077366D01*
X115311034Y-99076717D01*
X114722703Y-98811918D01*
X114716566Y-98805399D01*
X114716837Y-98796448D01*
X114722704Y-98790581D01*
X115311037Y-98525781D01*
X115318800Y-98525133D01*
X115791267Y-98648961D01*
G37*
%TD.AperFunction*%
%TD*%
%TA.AperFunction,Conductor*%
%TO.N,LORA_BUSY*%
G36*
X136294275Y-104044480D02*
G01*
X136294491Y-104044792D01*
X136758003Y-104736756D01*
X136759760Y-104745536D01*
X136759756Y-104745557D01*
X136596720Y-105562405D01*
X136591740Y-105569847D01*
X136582956Y-105571589D01*
X136581754Y-105571282D01*
X135242357Y-105152377D01*
X135237576Y-105149483D01*
X135037224Y-104949131D01*
X135033797Y-104940858D01*
X135037224Y-104932585D01*
X135038669Y-104931356D01*
X136277947Y-104041797D01*
X136286667Y-104039758D01*
X136294275Y-104044480D01*
G37*
%TD.AperFunction*%
%TD*%
%TA.AperFunction,Conductor*%
%TO.N,LORA_DIO1*%
G36*
X136293190Y-109122866D02*
G01*
X136756355Y-109815698D01*
X136758104Y-109824480D01*
X136756349Y-109828711D01*
X136293941Y-110519028D01*
X136286489Y-110523995D01*
X136278231Y-110522568D01*
X136272290Y-110519028D01*
X135962166Y-110334225D01*
X135044444Y-109787357D01*
X135039091Y-109780178D01*
X135040382Y-109771317D01*
X135042156Y-109769037D01*
X135242090Y-109569103D01*
X135245703Y-109566646D01*
X136278810Y-109118633D01*
X136287762Y-109118486D01*
X136293190Y-109122866D01*
G37*
%TD.AperFunction*%
%TD*%
%TA.AperFunction,Conductor*%
%TO.N,LORA_DIO1*%
G36*
X115791267Y-99918961D02*
G01*
X115798400Y-99924373D01*
X115800000Y-99930278D01*
X115800000Y-100212221D01*
X115796573Y-100220494D01*
X115791266Y-100223539D01*
X115318802Y-100347366D01*
X115311034Y-100346717D01*
X114722703Y-100081918D01*
X114716566Y-100075399D01*
X114716837Y-100066448D01*
X114722704Y-100060581D01*
X115311037Y-99795781D01*
X115318800Y-99795133D01*
X115791267Y-99918961D01*
G37*
%TD.AperFunction*%
%TD*%
%TA.AperFunction,Conductor*%
%TO.N,LORA_RF_SW*%
G36*
X126007935Y-101134535D02*
G01*
X126013474Y-101137638D01*
X126349224Y-101473388D01*
X126352651Y-101481661D01*
X126349224Y-101489934D01*
X126343238Y-101493135D01*
X125718474Y-101617682D01*
X125711393Y-101616881D01*
X125122995Y-101352602D01*
X125116852Y-101346086D01*
X125117116Y-101337135D01*
X125122973Y-101331266D01*
X125711154Y-101065733D01*
X125718699Y-101065022D01*
X126007935Y-101134535D01*
G37*
%TD.AperFunction*%
%TD*%
%TA.AperFunction,Conductor*%
%TO.N,LORA_RF_SW*%
G36*
X138222562Y-103447504D02*
G01*
X139456477Y-103904371D01*
X139463045Y-103910456D01*
X139463891Y-103917613D01*
X139302227Y-104734521D01*
X139297260Y-104741972D01*
X139293021Y-104743727D01*
X138476113Y-104905391D01*
X138467332Y-104903636D01*
X138462871Y-104897977D01*
X138006005Y-103664064D01*
X138006346Y-103655118D01*
X138008701Y-103651734D01*
X138210232Y-103450203D01*
X138218504Y-103446777D01*
X138222562Y-103447504D01*
G37*
%TD.AperFunction*%
%TD*%
%TA.AperFunction,Conductor*%
%TO.N,Net-(U4-CELLX)*%
G36*
X110105909Y-103746482D02*
G01*
X110110986Y-103753859D01*
X110111000Y-103753927D01*
X110133508Y-103862628D01*
X110133508Y-103867372D01*
X110111000Y-103976072D01*
X110105967Y-103983479D01*
X110097171Y-103985157D01*
X110097103Y-103985143D01*
X109894662Y-103941974D01*
X109887285Y-103936897D01*
X109885402Y-103930531D01*
X109885402Y-103799468D01*
X109888829Y-103791195D01*
X109894660Y-103788025D01*
X110097104Y-103744856D01*
X110105909Y-103746482D01*
G37*
%TD.AperFunction*%
%TD*%
%TA.AperFunction,Conductor*%
%TO.N,Net-(U4-REG)*%
G36*
X110644072Y-104286999D02*
G01*
X110651479Y-104292032D01*
X110653157Y-104300828D01*
X110653143Y-104300896D01*
X110609975Y-104503338D01*
X110604898Y-104510715D01*
X110598532Y-104512598D01*
X110467468Y-104512598D01*
X110459195Y-104509171D01*
X110456025Y-104503338D01*
X110412856Y-104300896D01*
X110414482Y-104292090D01*
X110421857Y-104287013D01*
X110530629Y-104264491D01*
X110535371Y-104264491D01*
X110644072Y-104286999D01*
G37*
%TD.AperFunction*%
%TD*%
%TA.AperFunction,Conductor*%
%TO.N,Net-(U4-REG)*%
G36*
X111103968Y-105596114D02*
G01*
X111858530Y-105971173D01*
X111864413Y-105977924D01*
X111864877Y-105983489D01*
X111751860Y-106693462D01*
X111747175Y-106701094D01*
X111743683Y-106702825D01*
X111262031Y-106848084D01*
X111253121Y-106847192D01*
X111247451Y-106840260D01*
X111247244Y-106839472D01*
X110991785Y-105704721D01*
X110993311Y-105695898D01*
X110994922Y-105693883D01*
X111090488Y-105598317D01*
X111098760Y-105594891D01*
X111103968Y-105596114D01*
G37*
%TD.AperFunction*%
%TD*%
%TA.AperFunction,Conductor*%
%TO.N,-BATT*%
G36*
X110038845Y-104201978D02*
G01*
X110131684Y-104262964D01*
X110135037Y-104266317D01*
X110195983Y-104359096D01*
X110197661Y-104367892D01*
X110192628Y-104375299D01*
X110192570Y-104375337D01*
X110018898Y-104487959D01*
X110010092Y-104489585D01*
X110004259Y-104486415D01*
X109911584Y-104393740D01*
X109908157Y-104385467D01*
X109910040Y-104379101D01*
X109916634Y-104368934D01*
X110022662Y-104205428D01*
X110030039Y-104200352D01*
X110038845Y-104201978D01*
G37*
%TD.AperFunction*%
%TD*%
%TA.AperFunction,Conductor*%
%TO.N,-BATT*%
G36*
X106282496Y-103728997D02*
G01*
X106285822Y-103734820D01*
X106539675Y-104827711D01*
X106538208Y-104836545D01*
X106536551Y-104838631D01*
X105842214Y-105532968D01*
X105833941Y-105536395D01*
X105825766Y-105533065D01*
X104764860Y-104496906D01*
X104761336Y-104488674D01*
X104763591Y-104481630D01*
X105295891Y-103753942D01*
X105303541Y-103749289D01*
X105305051Y-103749154D01*
X106274144Y-103725770D01*
X106282496Y-103728997D01*
G37*
%TD.AperFunction*%
%TD*%
%TA.AperFunction,Conductor*%
%TO.N,-BATT*%
G36*
X109858114Y-106708657D02*
G01*
X109859627Y-106710191D01*
X110317044Y-107269021D01*
X110320191Y-107272865D01*
X110322779Y-107281438D01*
X110321264Y-107286135D01*
X109910661Y-107995913D01*
X109903552Y-108001358D01*
X109894675Y-108000181D01*
X109892261Y-107998327D01*
X109691883Y-107797949D01*
X109690175Y-107795780D01*
X109375615Y-107281438D01*
X109373429Y-107277865D01*
X109372037Y-107269021D01*
X109374463Y-107264225D01*
X109841630Y-106710059D01*
X109849580Y-106705944D01*
X109858114Y-106708657D01*
G37*
%TD.AperFunction*%
%TD*%
%TA.AperFunction,Conductor*%
%TO.N,FLP_PA14*%
G36*
X140013199Y-109359025D02*
G01*
X140729607Y-110443066D01*
X140731546Y-110449516D01*
X140731546Y-110733615D01*
X140728119Y-110741888D01*
X140719846Y-110745315D01*
X140719182Y-110745296D01*
X139147594Y-110655930D01*
X139139529Y-110652039D01*
X139136577Y-110643585D01*
X139136780Y-110641980D01*
X139176108Y-110443065D01*
X139298057Y-109826264D01*
X139303022Y-109818815D01*
X139996974Y-109355786D01*
X140005757Y-109354045D01*
X140013199Y-109359025D01*
G37*
%TD.AperFunction*%
%TD*%
%TA.AperFunction,Conductor*%
%TO.N,FLP_I2C_SCL*%
G36*
X111171338Y-103788025D02*
G01*
X111178715Y-103793102D01*
X111180598Y-103799468D01*
X111180598Y-103930531D01*
X111177171Y-103938804D01*
X111171338Y-103941974D01*
X110968896Y-103985143D01*
X110960090Y-103983517D01*
X110955013Y-103976140D01*
X110954999Y-103976072D01*
X110947938Y-103941974D01*
X110932491Y-103867371D01*
X110932491Y-103862628D01*
X110954999Y-103753925D01*
X110960032Y-103746520D01*
X110968828Y-103744842D01*
X111171338Y-103788025D01*
G37*
%TD.AperFunction*%
%TD*%
%TA.AperFunction,Conductor*%
%TO.N,FLP_I2C_SCL*%
G36*
X147388276Y-95361475D02*
G01*
X148328129Y-96485364D01*
X148330808Y-96493909D01*
X148327427Y-96501143D01*
X148195243Y-96633327D01*
X148191393Y-96635886D01*
X147154745Y-97059162D01*
X147145790Y-97059117D01*
X147142485Y-97057017D01*
X146092880Y-96110107D01*
X146089032Y-96102021D01*
X146092030Y-96093583D01*
X146094898Y-96091269D01*
X147373487Y-95358828D01*
X147382367Y-95357690D01*
X147388276Y-95361475D01*
G37*
%TD.AperFunction*%
%TD*%
%TA.AperFunction,Conductor*%
%TO.N,FLP_I2C_SCL*%
G36*
X144743672Y-95462906D02*
G01*
X144751838Y-95466789D01*
X146066487Y-96091772D01*
X146072488Y-96098419D01*
X146072031Y-96107362D01*
X146069301Y-96111026D01*
X145019968Y-97057690D01*
X145011530Y-97060688D01*
X145009126Y-97060310D01*
X144643045Y-96963003D01*
X144042023Y-96803247D01*
X144036756Y-96800213D01*
X143904484Y-96667941D01*
X143901057Y-96659668D01*
X143903155Y-96652983D01*
X144280495Y-96111026D01*
X144729048Y-95466788D01*
X144736588Y-95461957D01*
X144743672Y-95462906D01*
G37*
%TD.AperFunction*%
%TD*%
%TA.AperFunction,Conductor*%
%TO.N,FLP_I2C_SCL*%
G36*
X147155409Y-95142693D02*
G01*
X148451068Y-95946568D01*
X148456292Y-95953841D01*
X148456600Y-95956509D01*
X148456600Y-96243490D01*
X148453173Y-96251763D01*
X148451068Y-96253432D01*
X147155412Y-97057305D01*
X147146576Y-97058755D01*
X147141411Y-97056054D01*
X146247036Y-96250000D01*
X146090242Y-96108690D01*
X146086392Y-96100607D01*
X146089385Y-96092167D01*
X146090243Y-96091309D01*
X147141412Y-95143944D01*
X147149851Y-95140952D01*
X147155409Y-95142693D01*
G37*
%TD.AperFunction*%
%TD*%
%TA.AperFunction,Conductor*%
%TO.N,FLP_PA13*%
G36*
X147155409Y-107842693D02*
G01*
X148451068Y-108646568D01*
X148456292Y-108653841D01*
X148456600Y-108656509D01*
X148456600Y-108943490D01*
X148453173Y-108951763D01*
X148451068Y-108953432D01*
X147155412Y-109757305D01*
X147146576Y-109758755D01*
X147141411Y-109756054D01*
X146247036Y-108950000D01*
X146090242Y-108808690D01*
X146086392Y-108800607D01*
X146089385Y-108792167D01*
X146090243Y-108791309D01*
X147141412Y-107843944D01*
X147149851Y-107840952D01*
X147155409Y-107842693D01*
G37*
%TD.AperFunction*%
%TD*%
%TA.AperFunction,Conductor*%
%TO.N,FLP_RX*%
G36*
X147155299Y-92602293D02*
G01*
X148450735Y-93347625D01*
X148456197Y-93354721D01*
X148456600Y-93357766D01*
X148456600Y-93545161D01*
X148453173Y-93553434D01*
X148451934Y-93554510D01*
X147316911Y-94408468D01*
X147308240Y-94410704D01*
X147303205Y-94408730D01*
X146092727Y-93568418D01*
X146087885Y-93560885D01*
X146089788Y-93552135D01*
X146091562Y-93550120D01*
X147141635Y-92603743D01*
X147150074Y-92600751D01*
X147155299Y-92602293D01*
G37*
%TD.AperFunction*%
%TD*%
%TA.AperFunction,Conductor*%
%TO.N,FLP_I2C_SDA*%
G36*
X110206805Y-103220829D02*
G01*
X110209975Y-103226662D01*
X110253143Y-103429103D01*
X110251517Y-103437909D01*
X110244140Y-103442986D01*
X110244072Y-103443000D01*
X110135372Y-103465508D01*
X110130628Y-103465508D01*
X110021927Y-103443000D01*
X110014520Y-103437967D01*
X110012842Y-103429171D01*
X110056025Y-103226661D01*
X110061102Y-103219285D01*
X110067468Y-103217402D01*
X110198532Y-103217402D01*
X110206805Y-103220829D01*
G37*
%TD.AperFunction*%
%TD*%
%TA.AperFunction,Conductor*%
%TO.N,FLP_I2C_SDA*%
G36*
X147406461Y-97927665D02*
G01*
X148016736Y-98553087D01*
X148415417Y-98961664D01*
X148418742Y-98969978D01*
X148415316Y-98978108D01*
X148072013Y-99321411D01*
X148067123Y-99324338D01*
X147154261Y-99600031D01*
X147145350Y-99599143D01*
X147143041Y-99597518D01*
X146093160Y-98650359D01*
X146089312Y-98642273D01*
X146092310Y-98633835D01*
X146095400Y-98631398D01*
X147392498Y-97925559D01*
X147401401Y-97924616D01*
X147406461Y-97927665D01*
G37*
%TD.AperFunction*%
%TD*%
%TA.AperFunction,Conductor*%
%TO.N,FLP_I2C_SDA*%
G36*
X147155491Y-97683032D02*
G01*
X148451337Y-98536533D01*
X148456360Y-98543945D01*
X148456600Y-98546303D01*
X148456600Y-98733696D01*
X148453173Y-98741969D01*
X148451336Y-98743467D01*
X147155493Y-99596966D01*
X147146699Y-99598655D01*
X147141225Y-99595886D01*
X146090242Y-98648690D01*
X146086392Y-98640607D01*
X146089385Y-98632167D01*
X146090243Y-98631309D01*
X147141226Y-97684111D01*
X147149664Y-97681120D01*
X147155491Y-97683032D01*
G37*
%TD.AperFunction*%
%TD*%
%TA.AperFunction,Conductor*%
%TO.N,FLP_TX*%
G36*
X131231453Y-92833075D02*
G01*
X132283360Y-93982647D01*
X132286428Y-93990545D01*
X132286428Y-94176932D01*
X132283001Y-94185205D01*
X132277648Y-94188262D01*
X130989026Y-94520371D01*
X130980159Y-94519117D01*
X130978273Y-94517732D01*
X129927719Y-93570922D01*
X129923868Y-93562838D01*
X129926861Y-93554398D01*
X129929827Y-93552028D01*
X131217105Y-92830765D01*
X131225995Y-92829712D01*
X131231453Y-92833075D01*
G37*
%TD.AperFunction*%
%TD*%
%TA.AperFunction,Conductor*%
%TO.N,FLP_5V*%
G36*
X128695045Y-107951305D02*
G01*
X129451269Y-108476274D01*
X129905472Y-108791581D01*
X129910314Y-108799114D01*
X129908411Y-108807864D01*
X129906633Y-108809883D01*
X128855337Y-109757362D01*
X128846897Y-109760355D01*
X128843776Y-109759761D01*
X127549572Y-109324679D01*
X127542822Y-109318795D01*
X127541600Y-109313589D01*
X127541600Y-108827785D01*
X127545027Y-108819512D01*
X127546192Y-108818492D01*
X128681275Y-107951618D01*
X128689929Y-107949321D01*
X128695045Y-107951305D01*
G37*
%TD.AperFunction*%
%TD*%
%TA.AperFunction,Conductor*%
%TO.N,FLP_5V*%
G36*
X129909720Y-108799080D02*
G01*
X129917893Y-108802737D01*
X129920205Y-108806307D01*
X130326950Y-109790651D01*
X130326943Y-109799606D01*
X130322121Y-109805173D01*
X128591606Y-110835265D01*
X128582745Y-110836552D01*
X128577349Y-110833484D01*
X127882564Y-110138699D01*
X127879137Y-110130426D01*
X127880306Y-110125328D01*
X128538303Y-108767587D01*
X128544994Y-108761639D01*
X128549154Y-108760997D01*
X129909720Y-108799080D01*
G37*
%TD.AperFunction*%
%TD*%
%TA.AperFunction,Conductor*%
%TO.N,FLP_PB14*%
G36*
X147155409Y-105302693D02*
G01*
X148451068Y-106106568D01*
X148456292Y-106113841D01*
X148456600Y-106116509D01*
X148456600Y-106403490D01*
X148453173Y-106411763D01*
X148451068Y-106413432D01*
X147155412Y-107217305D01*
X147146576Y-107218755D01*
X147141411Y-107216054D01*
X146247036Y-106410000D01*
X146090242Y-106268690D01*
X146086392Y-106260607D01*
X146089385Y-106252167D01*
X146090243Y-106251309D01*
X147141412Y-105303944D01*
X147149851Y-105300952D01*
X147155409Y-105302693D01*
G37*
%TD.AperFunction*%
%TD*%
M02*
